%TF.GenerationSoftware,KiCad,Pcbnew,8.0.7*%
%TF.CreationDate,2025-01-13T19:37:05-08:00*%
%TF.ProjectId,DCDCv2,44434443-7632-42e6-9b69-6361645f7063,rev?*%
%TF.SameCoordinates,Original*%
%TF.FileFunction,Legend,Top*%
%TF.FilePolarity,Positive*%
%FSLAX46Y46*%
G04 Gerber Fmt 4.6, Leading zero omitted, Abs format (unit mm)*
G04 Created by KiCad (PCBNEW 8.0.7) date 2025-01-13 19:37:05*
%MOMM*%
%LPD*%
G01*
G04 APERTURE LIST*
G04 Aperture macros list*
%AMRoundRect*
0 Rectangle with rounded corners*
0 $1 Rounding radius*
0 $2 $3 $4 $5 $6 $7 $8 $9 X,Y pos of 4 corners*
0 Add a 4 corners polygon primitive as box body*
4,1,4,$2,$3,$4,$5,$6,$7,$8,$9,$2,$3,0*
0 Add four circle primitives for the rounded corners*
1,1,$1+$1,$2,$3*
1,1,$1+$1,$4,$5*
1,1,$1+$1,$6,$7*
1,1,$1+$1,$8,$9*
0 Add four rect primitives between the rounded corners*
20,1,$1+$1,$2,$3,$4,$5,0*
20,1,$1+$1,$4,$5,$6,$7,0*
20,1,$1+$1,$6,$7,$8,$9,0*
20,1,$1+$1,$8,$9,$2,$3,0*%
G04 Aperture macros list end*
%ADD10C,0.300000*%
%ADD11C,0.150000*%
%ADD12C,0.254000*%
%ADD13C,0.120000*%
%ADD14C,0.152400*%
%ADD15C,0.508000*%
%ADD16C,0.200000*%
%ADD17C,0.250000*%
%ADD18C,0.000000*%
%ADD19RoundRect,0.237500X0.250000X0.237500X-0.250000X0.237500X-0.250000X-0.237500X0.250000X-0.237500X0*%
%ADD20R,0.650000X0.630000*%
%ADD21R,4.459998X4.280271*%
%ADD22R,1.498600X3.302000*%
%ADD23C,1.803400*%
%ADD24RoundRect,0.250000X0.337500X0.475000X-0.337500X0.475000X-0.337500X-0.475000X0.337500X-0.475000X0*%
%ADD25RoundRect,0.155000X0.212500X0.155000X-0.212500X0.155000X-0.212500X-0.155000X0.212500X-0.155000X0*%
%ADD26RoundRect,0.237500X-0.237500X0.250000X-0.237500X-0.250000X0.237500X-0.250000X0.237500X0.250000X0*%
%ADD27C,2.000000*%
%ADD28RoundRect,0.237500X-0.300000X-0.237500X0.300000X-0.237500X0.300000X0.237500X-0.300000X0.237500X0*%
%ADD29RoundRect,0.250000X-1.400000X-2.000000X1.400000X-2.000000X1.400000X2.000000X-1.400000X2.000000X0*%
%ADD30RoundRect,0.237500X0.300000X0.237500X-0.300000X0.237500X-0.300000X-0.237500X0.300000X-0.237500X0*%
%ADD31C,3.750000*%
%ADD32R,10.000000X5.000000*%
%ADD33O,10.000000X5.000000*%
%ADD34R,1.850000X3.500000*%
%ADD35R,5.588000X2.489200*%
%ADD36RoundRect,0.250000X-0.337500X-0.475000X0.337500X-0.475000X0.337500X0.475000X-0.337500X0.475000X0*%
%ADD37O,1.699999X0.349999*%
%ADD38R,3.099999X5.180000*%
G04 APERTURE END LIST*
D10*
X118154510Y-90515114D02*
X117654510Y-90515114D01*
X117654510Y-91300828D02*
X117654510Y-89800828D01*
X117654510Y-89800828D02*
X118368796Y-89800828D01*
X119797367Y-91157971D02*
X119725939Y-91229400D01*
X119725939Y-91229400D02*
X119511653Y-91300828D01*
X119511653Y-91300828D02*
X119368796Y-91300828D01*
X119368796Y-91300828D02*
X119154510Y-91229400D01*
X119154510Y-91229400D02*
X119011653Y-91086542D01*
X119011653Y-91086542D02*
X118940224Y-90943685D01*
X118940224Y-90943685D02*
X118868796Y-90657971D01*
X118868796Y-90657971D02*
X118868796Y-90443685D01*
X118868796Y-90443685D02*
X118940224Y-90157971D01*
X118940224Y-90157971D02*
X119011653Y-90015114D01*
X119011653Y-90015114D02*
X119154510Y-89872257D01*
X119154510Y-89872257D02*
X119368796Y-89800828D01*
X119368796Y-89800828D02*
X119511653Y-89800828D01*
X119511653Y-89800828D02*
X119725939Y-89872257D01*
X119725939Y-89872257D02*
X119797367Y-89943685D01*
X120440224Y-91300828D02*
X120440224Y-89800828D01*
X120440224Y-89800828D02*
X121011653Y-89800828D01*
X121011653Y-89800828D02*
X121154510Y-89872257D01*
X121154510Y-89872257D02*
X121225939Y-89943685D01*
X121225939Y-89943685D02*
X121297367Y-90086542D01*
X121297367Y-90086542D02*
X121297367Y-90300828D01*
X121297367Y-90300828D02*
X121225939Y-90443685D01*
X121225939Y-90443685D02*
X121154510Y-90515114D01*
X121154510Y-90515114D02*
X121011653Y-90586542D01*
X121011653Y-90586542D02*
X120440224Y-90586542D01*
X123011653Y-89943685D02*
X123083081Y-89872257D01*
X123083081Y-89872257D02*
X123225939Y-89800828D01*
X123225939Y-89800828D02*
X123583081Y-89800828D01*
X123583081Y-89800828D02*
X123725939Y-89872257D01*
X123725939Y-89872257D02*
X123797367Y-89943685D01*
X123797367Y-89943685D02*
X123868796Y-90086542D01*
X123868796Y-90086542D02*
X123868796Y-90229400D01*
X123868796Y-90229400D02*
X123797367Y-90443685D01*
X123797367Y-90443685D02*
X122940224Y-91300828D01*
X122940224Y-91300828D02*
X123868796Y-91300828D01*
X125154510Y-90300828D02*
X125154510Y-91300828D01*
X124797367Y-89729400D02*
X124440224Y-90800828D01*
X124440224Y-90800828D02*
X125368795Y-90800828D01*
X125725938Y-89800828D02*
X126225938Y-91300828D01*
X126225938Y-91300828D02*
X126725938Y-89800828D01*
X128297366Y-89943685D02*
X128368794Y-89872257D01*
X128368794Y-89872257D02*
X128511652Y-89800828D01*
X128511652Y-89800828D02*
X128868794Y-89800828D01*
X128868794Y-89800828D02*
X129011652Y-89872257D01*
X129011652Y-89872257D02*
X129083080Y-89943685D01*
X129083080Y-89943685D02*
X129154509Y-90086542D01*
X129154509Y-90086542D02*
X129154509Y-90229400D01*
X129154509Y-90229400D02*
X129083080Y-90443685D01*
X129083080Y-90443685D02*
X128225937Y-91300828D01*
X128225937Y-91300828D02*
X129154509Y-91300828D01*
X130083080Y-89800828D02*
X130225937Y-89800828D01*
X130225937Y-89800828D02*
X130368794Y-89872257D01*
X130368794Y-89872257D02*
X130440223Y-89943685D01*
X130440223Y-89943685D02*
X130511651Y-90086542D01*
X130511651Y-90086542D02*
X130583080Y-90372257D01*
X130583080Y-90372257D02*
X130583080Y-90729400D01*
X130583080Y-90729400D02*
X130511651Y-91015114D01*
X130511651Y-91015114D02*
X130440223Y-91157971D01*
X130440223Y-91157971D02*
X130368794Y-91229400D01*
X130368794Y-91229400D02*
X130225937Y-91300828D01*
X130225937Y-91300828D02*
X130083080Y-91300828D01*
X130083080Y-91300828D02*
X129940223Y-91229400D01*
X129940223Y-91229400D02*
X129868794Y-91157971D01*
X129868794Y-91157971D02*
X129797365Y-91015114D01*
X129797365Y-91015114D02*
X129725937Y-90729400D01*
X129725937Y-90729400D02*
X129725937Y-90372257D01*
X129725937Y-90372257D02*
X129797365Y-90086542D01*
X129797365Y-90086542D02*
X129868794Y-89943685D01*
X129868794Y-89943685D02*
X129940223Y-89872257D01*
X129940223Y-89872257D02*
X130083080Y-89800828D01*
X131154508Y-90872257D02*
X131868794Y-90872257D01*
X131011651Y-91300828D02*
X131511651Y-89800828D01*
X131511651Y-89800828D02*
X132011651Y-91300828D01*
X133654507Y-91300828D02*
X133654507Y-89800828D01*
X133654507Y-89800828D02*
X134011650Y-89800828D01*
X134011650Y-89800828D02*
X134225936Y-89872257D01*
X134225936Y-89872257D02*
X134368793Y-90015114D01*
X134368793Y-90015114D02*
X134440222Y-90157971D01*
X134440222Y-90157971D02*
X134511650Y-90443685D01*
X134511650Y-90443685D02*
X134511650Y-90657971D01*
X134511650Y-90657971D02*
X134440222Y-90943685D01*
X134440222Y-90943685D02*
X134368793Y-91086542D01*
X134368793Y-91086542D02*
X134225936Y-91229400D01*
X134225936Y-91229400D02*
X134011650Y-91300828D01*
X134011650Y-91300828D02*
X133654507Y-91300828D01*
X136011650Y-91157971D02*
X135940222Y-91229400D01*
X135940222Y-91229400D02*
X135725936Y-91300828D01*
X135725936Y-91300828D02*
X135583079Y-91300828D01*
X135583079Y-91300828D02*
X135368793Y-91229400D01*
X135368793Y-91229400D02*
X135225936Y-91086542D01*
X135225936Y-91086542D02*
X135154507Y-90943685D01*
X135154507Y-90943685D02*
X135083079Y-90657971D01*
X135083079Y-90657971D02*
X135083079Y-90443685D01*
X135083079Y-90443685D02*
X135154507Y-90157971D01*
X135154507Y-90157971D02*
X135225936Y-90015114D01*
X135225936Y-90015114D02*
X135368793Y-89872257D01*
X135368793Y-89872257D02*
X135583079Y-89800828D01*
X135583079Y-89800828D02*
X135725936Y-89800828D01*
X135725936Y-89800828D02*
X135940222Y-89872257D01*
X135940222Y-89872257D02*
X136011650Y-89943685D01*
X137725936Y-89729400D02*
X136440222Y-91657971D01*
X138225936Y-91300828D02*
X138225936Y-89800828D01*
X138225936Y-89800828D02*
X138583079Y-89800828D01*
X138583079Y-89800828D02*
X138797365Y-89872257D01*
X138797365Y-89872257D02*
X138940222Y-90015114D01*
X138940222Y-90015114D02*
X139011651Y-90157971D01*
X139011651Y-90157971D02*
X139083079Y-90443685D01*
X139083079Y-90443685D02*
X139083079Y-90657971D01*
X139083079Y-90657971D02*
X139011651Y-90943685D01*
X139011651Y-90943685D02*
X138940222Y-91086542D01*
X138940222Y-91086542D02*
X138797365Y-91229400D01*
X138797365Y-91229400D02*
X138583079Y-91300828D01*
X138583079Y-91300828D02*
X138225936Y-91300828D01*
X140583079Y-91157971D02*
X140511651Y-91229400D01*
X140511651Y-91229400D02*
X140297365Y-91300828D01*
X140297365Y-91300828D02*
X140154508Y-91300828D01*
X140154508Y-91300828D02*
X139940222Y-91229400D01*
X139940222Y-91229400D02*
X139797365Y-91086542D01*
X139797365Y-91086542D02*
X139725936Y-90943685D01*
X139725936Y-90943685D02*
X139654508Y-90657971D01*
X139654508Y-90657971D02*
X139654508Y-90443685D01*
X139654508Y-90443685D02*
X139725936Y-90157971D01*
X139725936Y-90157971D02*
X139797365Y-90015114D01*
X139797365Y-90015114D02*
X139940222Y-89872257D01*
X139940222Y-89872257D02*
X140154508Y-89800828D01*
X140154508Y-89800828D02*
X140297365Y-89800828D01*
X140297365Y-89800828D02*
X140511651Y-89872257D01*
X140511651Y-89872257D02*
X140583079Y-89943685D01*
X143225936Y-91157971D02*
X143154508Y-91229400D01*
X143154508Y-91229400D02*
X142940222Y-91300828D01*
X142940222Y-91300828D02*
X142797365Y-91300828D01*
X142797365Y-91300828D02*
X142583079Y-91229400D01*
X142583079Y-91229400D02*
X142440222Y-91086542D01*
X142440222Y-91086542D02*
X142368793Y-90943685D01*
X142368793Y-90943685D02*
X142297365Y-90657971D01*
X142297365Y-90657971D02*
X142297365Y-90443685D01*
X142297365Y-90443685D02*
X142368793Y-90157971D01*
X142368793Y-90157971D02*
X142440222Y-90015114D01*
X142440222Y-90015114D02*
X142583079Y-89872257D01*
X142583079Y-89872257D02*
X142797365Y-89800828D01*
X142797365Y-89800828D02*
X142940222Y-89800828D01*
X142940222Y-89800828D02*
X143154508Y-89872257D01*
X143154508Y-89872257D02*
X143225936Y-89943685D01*
X144154508Y-89800828D02*
X144440222Y-89800828D01*
X144440222Y-89800828D02*
X144583079Y-89872257D01*
X144583079Y-89872257D02*
X144725936Y-90015114D01*
X144725936Y-90015114D02*
X144797365Y-90300828D01*
X144797365Y-90300828D02*
X144797365Y-90800828D01*
X144797365Y-90800828D02*
X144725936Y-91086542D01*
X144725936Y-91086542D02*
X144583079Y-91229400D01*
X144583079Y-91229400D02*
X144440222Y-91300828D01*
X144440222Y-91300828D02*
X144154508Y-91300828D01*
X144154508Y-91300828D02*
X144011651Y-91229400D01*
X144011651Y-91229400D02*
X143868793Y-91086542D01*
X143868793Y-91086542D02*
X143797365Y-90800828D01*
X143797365Y-90800828D02*
X143797365Y-90300828D01*
X143797365Y-90300828D02*
X143868793Y-90015114D01*
X143868793Y-90015114D02*
X144011651Y-89872257D01*
X144011651Y-89872257D02*
X144154508Y-89800828D01*
X145440222Y-91300828D02*
X145440222Y-89800828D01*
X145440222Y-89800828D02*
X146297365Y-91300828D01*
X146297365Y-91300828D02*
X146297365Y-89800828D01*
X146797366Y-89800828D02*
X147297366Y-91300828D01*
X147297366Y-91300828D02*
X147797366Y-89800828D01*
X148297365Y-90515114D02*
X148797365Y-90515114D01*
X149011651Y-91300828D02*
X148297365Y-91300828D01*
X148297365Y-91300828D02*
X148297365Y-89800828D01*
X148297365Y-89800828D02*
X149011651Y-89800828D01*
X150511651Y-91300828D02*
X150011651Y-90586542D01*
X149654508Y-91300828D02*
X149654508Y-89800828D01*
X149654508Y-89800828D02*
X150225937Y-89800828D01*
X150225937Y-89800828D02*
X150368794Y-89872257D01*
X150368794Y-89872257D02*
X150440223Y-89943685D01*
X150440223Y-89943685D02*
X150511651Y-90086542D01*
X150511651Y-90086542D02*
X150511651Y-90300828D01*
X150511651Y-90300828D02*
X150440223Y-90443685D01*
X150440223Y-90443685D02*
X150368794Y-90515114D01*
X150368794Y-90515114D02*
X150225937Y-90586542D01*
X150225937Y-90586542D02*
X149654508Y-90586542D01*
X150940223Y-89800828D02*
X151797366Y-89800828D01*
X151368794Y-91300828D02*
X151368794Y-89800828D01*
X152297365Y-90515114D02*
X152797365Y-90515114D01*
X153011651Y-91300828D02*
X152297365Y-91300828D01*
X152297365Y-91300828D02*
X152297365Y-89800828D01*
X152297365Y-89800828D02*
X153011651Y-89800828D01*
X154511651Y-91300828D02*
X154011651Y-90586542D01*
X153654508Y-91300828D02*
X153654508Y-89800828D01*
X153654508Y-89800828D02*
X154225937Y-89800828D01*
X154225937Y-89800828D02*
X154368794Y-89872257D01*
X154368794Y-89872257D02*
X154440223Y-89943685D01*
X154440223Y-89943685D02*
X154511651Y-90086542D01*
X154511651Y-90086542D02*
X154511651Y-90300828D01*
X154511651Y-90300828D02*
X154440223Y-90443685D01*
X154440223Y-90443685D02*
X154368794Y-90515114D01*
X154368794Y-90515114D02*
X154225937Y-90586542D01*
X154225937Y-90586542D02*
X153654508Y-90586542D01*
X117840225Y-95970996D02*
X118697368Y-95970996D01*
X118268796Y-97470996D02*
X118268796Y-95970996D01*
X119197367Y-97470996D02*
X119197367Y-96470996D01*
X119197367Y-95970996D02*
X119125939Y-96042425D01*
X119125939Y-96042425D02*
X119197367Y-96113853D01*
X119197367Y-96113853D02*
X119268796Y-96042425D01*
X119268796Y-96042425D02*
X119197367Y-95970996D01*
X119197367Y-95970996D02*
X119197367Y-96113853D01*
X119911653Y-97470996D02*
X119911653Y-96470996D01*
X119911653Y-96613853D02*
X119983082Y-96542425D01*
X119983082Y-96542425D02*
X120125939Y-96470996D01*
X120125939Y-96470996D02*
X120340225Y-96470996D01*
X120340225Y-96470996D02*
X120483082Y-96542425D01*
X120483082Y-96542425D02*
X120554511Y-96685282D01*
X120554511Y-96685282D02*
X120554511Y-97470996D01*
X120554511Y-96685282D02*
X120625939Y-96542425D01*
X120625939Y-96542425D02*
X120768796Y-96470996D01*
X120768796Y-96470996D02*
X120983082Y-96470996D01*
X120983082Y-96470996D02*
X121125939Y-96542425D01*
X121125939Y-96542425D02*
X121197368Y-96685282D01*
X121197368Y-96685282D02*
X121197368Y-97470996D01*
X122125939Y-97470996D02*
X121983082Y-97399568D01*
X121983082Y-97399568D02*
X121911653Y-97328139D01*
X121911653Y-97328139D02*
X121840225Y-97185282D01*
X121840225Y-97185282D02*
X121840225Y-96756710D01*
X121840225Y-96756710D02*
X121911653Y-96613853D01*
X121911653Y-96613853D02*
X121983082Y-96542425D01*
X121983082Y-96542425D02*
X122125939Y-96470996D01*
X122125939Y-96470996D02*
X122340225Y-96470996D01*
X122340225Y-96470996D02*
X122483082Y-96542425D01*
X122483082Y-96542425D02*
X122554511Y-96613853D01*
X122554511Y-96613853D02*
X122625939Y-96756710D01*
X122625939Y-96756710D02*
X122625939Y-97185282D01*
X122625939Y-97185282D02*
X122554511Y-97328139D01*
X122554511Y-97328139D02*
X122483082Y-97399568D01*
X122483082Y-97399568D02*
X122340225Y-97470996D01*
X122340225Y-97470996D02*
X122125939Y-97470996D01*
X123054511Y-96470996D02*
X123625939Y-96470996D01*
X123268796Y-95970996D02*
X123268796Y-97256710D01*
X123268796Y-97256710D02*
X123340225Y-97399568D01*
X123340225Y-97399568D02*
X123483082Y-97470996D01*
X123483082Y-97470996D02*
X123625939Y-97470996D01*
X124125939Y-97470996D02*
X124125939Y-95970996D01*
X124768797Y-97470996D02*
X124768797Y-96685282D01*
X124768797Y-96685282D02*
X124697368Y-96542425D01*
X124697368Y-96542425D02*
X124554511Y-96470996D01*
X124554511Y-96470996D02*
X124340225Y-96470996D01*
X124340225Y-96470996D02*
X124197368Y-96542425D01*
X124197368Y-96542425D02*
X124125939Y-96613853D01*
X125340225Y-96470996D02*
X125697368Y-97470996D01*
X126054511Y-96470996D02*
X125697368Y-97470996D01*
X125697368Y-97470996D02*
X125554511Y-97828139D01*
X125554511Y-97828139D02*
X125483082Y-97899568D01*
X125483082Y-97899568D02*
X125340225Y-97970996D01*
X127768796Y-97470996D02*
X127768796Y-95970996D01*
X128625939Y-97470996D02*
X127983082Y-96613853D01*
X128625939Y-95970996D02*
X127768796Y-96828139D01*
X129125939Y-96470996D02*
X129411654Y-97470996D01*
X129411654Y-97470996D02*
X129697368Y-96756710D01*
X129697368Y-96756710D02*
X129983082Y-97470996D01*
X129983082Y-97470996D02*
X130268796Y-96470996D01*
X131483083Y-97470996D02*
X131483083Y-96685282D01*
X131483083Y-96685282D02*
X131411654Y-96542425D01*
X131411654Y-96542425D02*
X131268797Y-96470996D01*
X131268797Y-96470996D02*
X130983083Y-96470996D01*
X130983083Y-96470996D02*
X130840225Y-96542425D01*
X131483083Y-97399568D02*
X131340225Y-97470996D01*
X131340225Y-97470996D02*
X130983083Y-97470996D01*
X130983083Y-97470996D02*
X130840225Y-97399568D01*
X130840225Y-97399568D02*
X130768797Y-97256710D01*
X130768797Y-97256710D02*
X130768797Y-97113853D01*
X130768797Y-97113853D02*
X130840225Y-96970996D01*
X130840225Y-96970996D02*
X130983083Y-96899568D01*
X130983083Y-96899568D02*
X131340225Y-96899568D01*
X131340225Y-96899568D02*
X131483083Y-96828139D01*
X132197368Y-96470996D02*
X132197368Y-97470996D01*
X132197368Y-96613853D02*
X132268797Y-96542425D01*
X132268797Y-96542425D02*
X132411654Y-96470996D01*
X132411654Y-96470996D02*
X132625940Y-96470996D01*
X132625940Y-96470996D02*
X132768797Y-96542425D01*
X132768797Y-96542425D02*
X132840226Y-96685282D01*
X132840226Y-96685282D02*
X132840226Y-97470996D01*
X117783082Y-92800828D02*
X117783082Y-93086542D01*
X118354510Y-92800828D02*
X118354510Y-93086542D01*
X118997367Y-93300828D02*
X118997367Y-94800828D01*
X118997367Y-93372257D02*
X119140225Y-93300828D01*
X119140225Y-93300828D02*
X119425939Y-93300828D01*
X119425939Y-93300828D02*
X119568796Y-93372257D01*
X119568796Y-93372257D02*
X119640225Y-93443685D01*
X119640225Y-93443685D02*
X119711653Y-93586542D01*
X119711653Y-93586542D02*
X119711653Y-94015114D01*
X119711653Y-94015114D02*
X119640225Y-94157971D01*
X119640225Y-94157971D02*
X119568796Y-94229400D01*
X119568796Y-94229400D02*
X119425939Y-94300828D01*
X119425939Y-94300828D02*
X119140225Y-94300828D01*
X119140225Y-94300828D02*
X118997367Y-94229400D01*
X120354510Y-94300828D02*
X120354510Y-93300828D01*
X120354510Y-92800828D02*
X120283082Y-92872257D01*
X120283082Y-92872257D02*
X120354510Y-92943685D01*
X120354510Y-92943685D02*
X120425939Y-92872257D01*
X120425939Y-92872257D02*
X120354510Y-92800828D01*
X120354510Y-92800828D02*
X120354510Y-92943685D01*
X120997368Y-94229400D02*
X121140225Y-94300828D01*
X121140225Y-94300828D02*
X121425939Y-94300828D01*
X121425939Y-94300828D02*
X121568796Y-94229400D01*
X121568796Y-94229400D02*
X121640225Y-94086542D01*
X121640225Y-94086542D02*
X121640225Y-94015114D01*
X121640225Y-94015114D02*
X121568796Y-93872257D01*
X121568796Y-93872257D02*
X121425939Y-93800828D01*
X121425939Y-93800828D02*
X121211654Y-93800828D01*
X121211654Y-93800828D02*
X121068796Y-93729400D01*
X121068796Y-93729400D02*
X120997368Y-93586542D01*
X120997368Y-93586542D02*
X120997368Y-93515114D01*
X120997368Y-93515114D02*
X121068796Y-93372257D01*
X121068796Y-93372257D02*
X121211654Y-93300828D01*
X121211654Y-93300828D02*
X121425939Y-93300828D01*
X121425939Y-93300828D02*
X121568796Y-93372257D01*
X122211654Y-94229400D02*
X122354511Y-94300828D01*
X122354511Y-94300828D02*
X122640225Y-94300828D01*
X122640225Y-94300828D02*
X122783082Y-94229400D01*
X122783082Y-94229400D02*
X122854511Y-94086542D01*
X122854511Y-94086542D02*
X122854511Y-94015114D01*
X122854511Y-94015114D02*
X122783082Y-93872257D01*
X122783082Y-93872257D02*
X122640225Y-93800828D01*
X122640225Y-93800828D02*
X122425940Y-93800828D01*
X122425940Y-93800828D02*
X122283082Y-93729400D01*
X122283082Y-93729400D02*
X122211654Y-93586542D01*
X122211654Y-93586542D02*
X122211654Y-93515114D01*
X122211654Y-93515114D02*
X122283082Y-93372257D01*
X122283082Y-93372257D02*
X122425940Y-93300828D01*
X122425940Y-93300828D02*
X122640225Y-93300828D01*
X122640225Y-93300828D02*
X122783082Y-93372257D01*
X123497368Y-94300828D02*
X123497368Y-93300828D01*
X123497368Y-93443685D02*
X123568797Y-93372257D01*
X123568797Y-93372257D02*
X123711654Y-93300828D01*
X123711654Y-93300828D02*
X123925940Y-93300828D01*
X123925940Y-93300828D02*
X124068797Y-93372257D01*
X124068797Y-93372257D02*
X124140226Y-93515114D01*
X124140226Y-93515114D02*
X124140226Y-94300828D01*
X124140226Y-93515114D02*
X124211654Y-93372257D01*
X124211654Y-93372257D02*
X124354511Y-93300828D01*
X124354511Y-93300828D02*
X124568797Y-93300828D01*
X124568797Y-93300828D02*
X124711654Y-93372257D01*
X124711654Y-93372257D02*
X124783083Y-93515114D01*
X124783083Y-93515114D02*
X124783083Y-94300828D01*
X126140226Y-94300828D02*
X126140226Y-93515114D01*
X126140226Y-93515114D02*
X126068797Y-93372257D01*
X126068797Y-93372257D02*
X125925940Y-93300828D01*
X125925940Y-93300828D02*
X125640226Y-93300828D01*
X125640226Y-93300828D02*
X125497368Y-93372257D01*
X126140226Y-94229400D02*
X125997368Y-94300828D01*
X125997368Y-94300828D02*
X125640226Y-94300828D01*
X125640226Y-94300828D02*
X125497368Y-94229400D01*
X125497368Y-94229400D02*
X125425940Y-94086542D01*
X125425940Y-94086542D02*
X125425940Y-93943685D01*
X125425940Y-93943685D02*
X125497368Y-93800828D01*
X125497368Y-93800828D02*
X125640226Y-93729400D01*
X125640226Y-93729400D02*
X125997368Y-93729400D01*
X125997368Y-93729400D02*
X126140226Y-93657971D01*
X126854511Y-93300828D02*
X126854511Y-94300828D01*
X126854511Y-93443685D02*
X126925940Y-93372257D01*
X126925940Y-93372257D02*
X127068797Y-93300828D01*
X127068797Y-93300828D02*
X127283083Y-93300828D01*
X127283083Y-93300828D02*
X127425940Y-93372257D01*
X127425940Y-93372257D02*
X127497369Y-93515114D01*
X127497369Y-93515114D02*
X127497369Y-94300828D01*
X129568797Y-93443685D02*
X129425940Y-93372257D01*
X129425940Y-93372257D02*
X129354511Y-93300828D01*
X129354511Y-93300828D02*
X129283083Y-93157971D01*
X129283083Y-93157971D02*
X129283083Y-93086542D01*
X129283083Y-93086542D02*
X129354511Y-92943685D01*
X129354511Y-92943685D02*
X129425940Y-92872257D01*
X129425940Y-92872257D02*
X129568797Y-92800828D01*
X129568797Y-92800828D02*
X129854511Y-92800828D01*
X129854511Y-92800828D02*
X129997369Y-92872257D01*
X129997369Y-92872257D02*
X130068797Y-92943685D01*
X130068797Y-92943685D02*
X130140226Y-93086542D01*
X130140226Y-93086542D02*
X130140226Y-93157971D01*
X130140226Y-93157971D02*
X130068797Y-93300828D01*
X130068797Y-93300828D02*
X129997369Y-93372257D01*
X129997369Y-93372257D02*
X129854511Y-93443685D01*
X129854511Y-93443685D02*
X129568797Y-93443685D01*
X129568797Y-93443685D02*
X129425940Y-93515114D01*
X129425940Y-93515114D02*
X129354511Y-93586542D01*
X129354511Y-93586542D02*
X129283083Y-93729400D01*
X129283083Y-93729400D02*
X129283083Y-94015114D01*
X129283083Y-94015114D02*
X129354511Y-94157971D01*
X129354511Y-94157971D02*
X129425940Y-94229400D01*
X129425940Y-94229400D02*
X129568797Y-94300828D01*
X129568797Y-94300828D02*
X129854511Y-94300828D01*
X129854511Y-94300828D02*
X129997369Y-94229400D01*
X129997369Y-94229400D02*
X130068797Y-94157971D01*
X130068797Y-94157971D02*
X130140226Y-94015114D01*
X130140226Y-94015114D02*
X130140226Y-93729400D01*
X130140226Y-93729400D02*
X130068797Y-93586542D01*
X130068797Y-93586542D02*
X129997369Y-93515114D01*
X129997369Y-93515114D02*
X129854511Y-93443685D01*
X130711654Y-92800828D02*
X130711654Y-93086542D01*
X131283082Y-92800828D02*
X131283082Y-93086542D01*
D11*
X85559523Y-50884819D02*
X85226190Y-50408628D01*
X84988095Y-50884819D02*
X84988095Y-49884819D01*
X84988095Y-49884819D02*
X85369047Y-49884819D01*
X85369047Y-49884819D02*
X85464285Y-49932438D01*
X85464285Y-49932438D02*
X85511904Y-49980057D01*
X85511904Y-49980057D02*
X85559523Y-50075295D01*
X85559523Y-50075295D02*
X85559523Y-50218152D01*
X85559523Y-50218152D02*
X85511904Y-50313390D01*
X85511904Y-50313390D02*
X85464285Y-50361009D01*
X85464285Y-50361009D02*
X85369047Y-50408628D01*
X85369047Y-50408628D02*
X84988095Y-50408628D01*
X85845238Y-50218152D02*
X86226190Y-50218152D01*
X85988095Y-50884819D02*
X85988095Y-50027676D01*
X85988095Y-50027676D02*
X86035714Y-49932438D01*
X86035714Y-49932438D02*
X86130952Y-49884819D01*
X86130952Y-49884819D02*
X86226190Y-49884819D01*
X86559524Y-50884819D02*
X86559524Y-49884819D01*
X86559524Y-50265771D02*
X86654762Y-50218152D01*
X86654762Y-50218152D02*
X86845238Y-50218152D01*
X86845238Y-50218152D02*
X86940476Y-50265771D01*
X86940476Y-50265771D02*
X86988095Y-50313390D01*
X86988095Y-50313390D02*
X87035714Y-50408628D01*
X87035714Y-50408628D02*
X87035714Y-50694342D01*
X87035714Y-50694342D02*
X86988095Y-50789580D01*
X86988095Y-50789580D02*
X86940476Y-50837200D01*
X86940476Y-50837200D02*
X86845238Y-50884819D01*
X86845238Y-50884819D02*
X86654762Y-50884819D01*
X86654762Y-50884819D02*
X86559524Y-50837200D01*
X87321429Y-50218152D02*
X87702381Y-50218152D01*
X87464286Y-49884819D02*
X87464286Y-50741961D01*
X87464286Y-50741961D02*
X87511905Y-50837200D01*
X87511905Y-50837200D02*
X87607143Y-50884819D01*
X87607143Y-50884819D02*
X87702381Y-50884819D01*
X88559524Y-50884819D02*
X87988096Y-50884819D01*
X88273810Y-50884819D02*
X88273810Y-49884819D01*
X88273810Y-49884819D02*
X88178572Y-50027676D01*
X88178572Y-50027676D02*
X88083334Y-50122914D01*
X88083334Y-50122914D02*
X87988096Y-50170533D01*
X107035476Y-71454819D02*
X107035476Y-70454819D01*
X107035476Y-70454819D02*
X107368809Y-71169104D01*
X107368809Y-71169104D02*
X107702142Y-70454819D01*
X107702142Y-70454819D02*
X107702142Y-71454819D01*
X108083095Y-70454819D02*
X108702142Y-70454819D01*
X108702142Y-70454819D02*
X108368809Y-70835771D01*
X108368809Y-70835771D02*
X108511666Y-70835771D01*
X108511666Y-70835771D02*
X108606904Y-70883390D01*
X108606904Y-70883390D02*
X108654523Y-70931009D01*
X108654523Y-70931009D02*
X108702142Y-71026247D01*
X108702142Y-71026247D02*
X108702142Y-71264342D01*
X108702142Y-71264342D02*
X108654523Y-71359580D01*
X108654523Y-71359580D02*
X108606904Y-71407200D01*
X108606904Y-71407200D02*
X108511666Y-71454819D01*
X108511666Y-71454819D02*
X108225952Y-71454819D01*
X108225952Y-71454819D02*
X108130714Y-71407200D01*
X108130714Y-71407200D02*
X108083095Y-71359580D01*
X109601380Y-60902743D02*
X109649000Y-60950362D01*
X109649000Y-60950362D02*
X109696619Y-61093219D01*
X109696619Y-61093219D02*
X109696619Y-61188457D01*
X109696619Y-61188457D02*
X109649000Y-61331314D01*
X109649000Y-61331314D02*
X109553761Y-61426552D01*
X109553761Y-61426552D02*
X109458523Y-61474171D01*
X109458523Y-61474171D02*
X109268047Y-61521790D01*
X109268047Y-61521790D02*
X109125190Y-61521790D01*
X109125190Y-61521790D02*
X108934714Y-61474171D01*
X108934714Y-61474171D02*
X108839476Y-61426552D01*
X108839476Y-61426552D02*
X108744238Y-61331314D01*
X108744238Y-61331314D02*
X108696619Y-61188457D01*
X108696619Y-61188457D02*
X108696619Y-61093219D01*
X108696619Y-61093219D02*
X108744238Y-60950362D01*
X108744238Y-60950362D02*
X108791857Y-60902743D01*
X109696619Y-60331314D02*
X109649000Y-60426552D01*
X109649000Y-60426552D02*
X109601380Y-60474171D01*
X109601380Y-60474171D02*
X109506142Y-60521790D01*
X109506142Y-60521790D02*
X109220428Y-60521790D01*
X109220428Y-60521790D02*
X109125190Y-60474171D01*
X109125190Y-60474171D02*
X109077571Y-60426552D01*
X109077571Y-60426552D02*
X109029952Y-60331314D01*
X109029952Y-60331314D02*
X109029952Y-60188457D01*
X109029952Y-60188457D02*
X109077571Y-60093219D01*
X109077571Y-60093219D02*
X109125190Y-60045600D01*
X109125190Y-60045600D02*
X109220428Y-59997981D01*
X109220428Y-59997981D02*
X109506142Y-59997981D01*
X109506142Y-59997981D02*
X109601380Y-60045600D01*
X109601380Y-60045600D02*
X109649000Y-60093219D01*
X109649000Y-60093219D02*
X109696619Y-60188457D01*
X109696619Y-60188457D02*
X109696619Y-60331314D01*
X109029952Y-59140838D02*
X109696619Y-59140838D01*
X109029952Y-59569409D02*
X109553761Y-59569409D01*
X109553761Y-59569409D02*
X109649000Y-59521790D01*
X109649000Y-59521790D02*
X109696619Y-59426552D01*
X109696619Y-59426552D02*
X109696619Y-59283695D01*
X109696619Y-59283695D02*
X109649000Y-59188457D01*
X109649000Y-59188457D02*
X109601380Y-59140838D01*
X109029952Y-58807504D02*
X109029952Y-58426552D01*
X108696619Y-58664647D02*
X109553761Y-58664647D01*
X109553761Y-58664647D02*
X109649000Y-58617028D01*
X109649000Y-58617028D02*
X109696619Y-58521790D01*
X109696619Y-58521790D02*
X109696619Y-58426552D01*
X109696619Y-57569409D02*
X109696619Y-58140837D01*
X109696619Y-57855123D02*
X108696619Y-57855123D01*
X108696619Y-57855123D02*
X108839476Y-57950361D01*
X108839476Y-57950361D02*
X108934714Y-58045599D01*
X108934714Y-58045599D02*
X108982333Y-58140837D01*
X20045198Y-70628637D02*
X19045198Y-70961970D01*
X19045198Y-70961970D02*
X20045198Y-71295303D01*
X19045198Y-71628637D02*
X19711865Y-71628637D01*
X20045198Y-71628637D02*
X19997579Y-71581018D01*
X19997579Y-71581018D02*
X19949960Y-71628637D01*
X19949960Y-71628637D02*
X19997579Y-71676256D01*
X19997579Y-71676256D02*
X20045198Y-71628637D01*
X20045198Y-71628637D02*
X19949960Y-71628637D01*
X19711865Y-72104827D02*
X19045198Y-72104827D01*
X19616627Y-72104827D02*
X19664246Y-72152446D01*
X19664246Y-72152446D02*
X19711865Y-72247684D01*
X19711865Y-72247684D02*
X19711865Y-72390541D01*
X19711865Y-72390541D02*
X19664246Y-72485779D01*
X19664246Y-72485779D02*
X19569008Y-72533398D01*
X19569008Y-72533398D02*
X19045198Y-72533398D01*
X18664246Y-74057208D02*
X18711865Y-74009589D01*
X18711865Y-74009589D02*
X18854722Y-73914351D01*
X18854722Y-73914351D02*
X18949960Y-73866732D01*
X18949960Y-73866732D02*
X19092818Y-73819113D01*
X19092818Y-73819113D02*
X19330913Y-73771494D01*
X19330913Y-73771494D02*
X19521389Y-73771494D01*
X19521389Y-73771494D02*
X19759484Y-73819113D01*
X19759484Y-73819113D02*
X19902341Y-73866732D01*
X19902341Y-73866732D02*
X19997579Y-73914351D01*
X19997579Y-73914351D02*
X20140437Y-74009589D01*
X20140437Y-74009589D02*
X20188056Y-74057208D01*
X19045198Y-74961970D02*
X19045198Y-74390542D01*
X19045198Y-74676256D02*
X20045198Y-74676256D01*
X20045198Y-74676256D02*
X19902341Y-74581018D01*
X19902341Y-74581018D02*
X19807103Y-74485780D01*
X19807103Y-74485780D02*
X19759484Y-74390542D01*
X20045198Y-75866732D02*
X20045198Y-75390542D01*
X20045198Y-75390542D02*
X19569008Y-75342923D01*
X19569008Y-75342923D02*
X19616627Y-75390542D01*
X19616627Y-75390542D02*
X19664246Y-75485780D01*
X19664246Y-75485780D02*
X19664246Y-75723875D01*
X19664246Y-75723875D02*
X19616627Y-75819113D01*
X19616627Y-75819113D02*
X19569008Y-75866732D01*
X19569008Y-75866732D02*
X19473770Y-75914351D01*
X19473770Y-75914351D02*
X19235675Y-75914351D01*
X19235675Y-75914351D02*
X19140437Y-75866732D01*
X19140437Y-75866732D02*
X19092818Y-75819113D01*
X19092818Y-75819113D02*
X19045198Y-75723875D01*
X19045198Y-75723875D02*
X19045198Y-75485780D01*
X19045198Y-75485780D02*
X19092818Y-75390542D01*
X19092818Y-75390542D02*
X19140437Y-75342923D01*
X19711865Y-76961971D02*
X19711865Y-77342923D01*
X20045198Y-77104828D02*
X19188056Y-77104828D01*
X19188056Y-77104828D02*
X19092818Y-77152447D01*
X19092818Y-77152447D02*
X19045198Y-77247685D01*
X19045198Y-77247685D02*
X19045198Y-77342923D01*
X19045198Y-77819114D02*
X19092818Y-77723876D01*
X19092818Y-77723876D02*
X19140437Y-77676257D01*
X19140437Y-77676257D02*
X19235675Y-77628638D01*
X19235675Y-77628638D02*
X19521389Y-77628638D01*
X19521389Y-77628638D02*
X19616627Y-77676257D01*
X19616627Y-77676257D02*
X19664246Y-77723876D01*
X19664246Y-77723876D02*
X19711865Y-77819114D01*
X19711865Y-77819114D02*
X19711865Y-77961971D01*
X19711865Y-77961971D02*
X19664246Y-78057209D01*
X19664246Y-78057209D02*
X19616627Y-78104828D01*
X19616627Y-78104828D02*
X19521389Y-78152447D01*
X19521389Y-78152447D02*
X19235675Y-78152447D01*
X19235675Y-78152447D02*
X19140437Y-78104828D01*
X19140437Y-78104828D02*
X19092818Y-78057209D01*
X19092818Y-78057209D02*
X19045198Y-77961971D01*
X19045198Y-77961971D02*
X19045198Y-77819114D01*
X19949960Y-79295305D02*
X19997579Y-79342924D01*
X19997579Y-79342924D02*
X20045198Y-79438162D01*
X20045198Y-79438162D02*
X20045198Y-79676257D01*
X20045198Y-79676257D02*
X19997579Y-79771495D01*
X19997579Y-79771495D02*
X19949960Y-79819114D01*
X19949960Y-79819114D02*
X19854722Y-79866733D01*
X19854722Y-79866733D02*
X19759484Y-79866733D01*
X19759484Y-79866733D02*
X19616627Y-79819114D01*
X19616627Y-79819114D02*
X19045198Y-79247686D01*
X19045198Y-79247686D02*
X19045198Y-79866733D01*
X19616627Y-80438162D02*
X19664246Y-80342924D01*
X19664246Y-80342924D02*
X19711865Y-80295305D01*
X19711865Y-80295305D02*
X19807103Y-80247686D01*
X19807103Y-80247686D02*
X19854722Y-80247686D01*
X19854722Y-80247686D02*
X19949960Y-80295305D01*
X19949960Y-80295305D02*
X19997579Y-80342924D01*
X19997579Y-80342924D02*
X20045198Y-80438162D01*
X20045198Y-80438162D02*
X20045198Y-80628638D01*
X20045198Y-80628638D02*
X19997579Y-80723876D01*
X19997579Y-80723876D02*
X19949960Y-80771495D01*
X19949960Y-80771495D02*
X19854722Y-80819114D01*
X19854722Y-80819114D02*
X19807103Y-80819114D01*
X19807103Y-80819114D02*
X19711865Y-80771495D01*
X19711865Y-80771495D02*
X19664246Y-80723876D01*
X19664246Y-80723876D02*
X19616627Y-80628638D01*
X19616627Y-80628638D02*
X19616627Y-80438162D01*
X19616627Y-80438162D02*
X19569008Y-80342924D01*
X19569008Y-80342924D02*
X19521389Y-80295305D01*
X19521389Y-80295305D02*
X19426151Y-80247686D01*
X19426151Y-80247686D02*
X19235675Y-80247686D01*
X19235675Y-80247686D02*
X19140437Y-80295305D01*
X19140437Y-80295305D02*
X19092818Y-80342924D01*
X19092818Y-80342924D02*
X19045198Y-80438162D01*
X19045198Y-80438162D02*
X19045198Y-80628638D01*
X19045198Y-80628638D02*
X19092818Y-80723876D01*
X19092818Y-80723876D02*
X19140437Y-80771495D01*
X19140437Y-80771495D02*
X19235675Y-80819114D01*
X19235675Y-80819114D02*
X19426151Y-80819114D01*
X19426151Y-80819114D02*
X19521389Y-80771495D01*
X19521389Y-80771495D02*
X19569008Y-80723876D01*
X19569008Y-80723876D02*
X19616627Y-80628638D01*
X20045198Y-81104829D02*
X19045198Y-81438162D01*
X19045198Y-81438162D02*
X20045198Y-81771495D01*
X18664246Y-82009591D02*
X18711865Y-82057210D01*
X18711865Y-82057210D02*
X18854722Y-82152448D01*
X18854722Y-82152448D02*
X18949960Y-82200067D01*
X18949960Y-82200067D02*
X19092818Y-82247686D01*
X19092818Y-82247686D02*
X19330913Y-82295305D01*
X19330913Y-82295305D02*
X19521389Y-82295305D01*
X19521389Y-82295305D02*
X19759484Y-82247686D01*
X19759484Y-82247686D02*
X19902341Y-82200067D01*
X19902341Y-82200067D02*
X19997579Y-82152448D01*
X19997579Y-82152448D02*
X20140437Y-82057210D01*
X20140437Y-82057210D02*
X20188056Y-82009591D01*
X73683335Y-43234581D02*
X73635716Y-43282201D01*
X73635716Y-43282201D02*
X73492859Y-43329820D01*
X73492859Y-43329820D02*
X73397621Y-43329820D01*
X73397621Y-43329820D02*
X73254764Y-43282201D01*
X73254764Y-43282201D02*
X73159526Y-43186962D01*
X73159526Y-43186962D02*
X73111907Y-43091724D01*
X73111907Y-43091724D02*
X73064288Y-42901248D01*
X73064288Y-42901248D02*
X73064288Y-42758391D01*
X73064288Y-42758391D02*
X73111907Y-42567915D01*
X73111907Y-42567915D02*
X73159526Y-42472677D01*
X73159526Y-42472677D02*
X73254764Y-42377439D01*
X73254764Y-42377439D02*
X73397621Y-42329820D01*
X73397621Y-42329820D02*
X73492859Y-42329820D01*
X73492859Y-42329820D02*
X73635716Y-42377439D01*
X73635716Y-42377439D02*
X73683335Y-42425058D01*
X74540478Y-43282201D02*
X74445240Y-43329820D01*
X74445240Y-43329820D02*
X74254764Y-43329820D01*
X74254764Y-43329820D02*
X74159526Y-43282201D01*
X74159526Y-43282201D02*
X74111907Y-43234581D01*
X74111907Y-43234581D02*
X74064288Y-43139343D01*
X74064288Y-43139343D02*
X74064288Y-42853629D01*
X74064288Y-42853629D02*
X74111907Y-42758391D01*
X74111907Y-42758391D02*
X74159526Y-42710772D01*
X74159526Y-42710772D02*
X74254764Y-42663153D01*
X74254764Y-42663153D02*
X74445240Y-42663153D01*
X74445240Y-42663153D02*
X74540478Y-42710772D01*
X75111907Y-43329820D02*
X75016669Y-43282201D01*
X75016669Y-43282201D02*
X74969050Y-43234581D01*
X74969050Y-43234581D02*
X74921431Y-43139343D01*
X74921431Y-43139343D02*
X74921431Y-42853629D01*
X74921431Y-42853629D02*
X74969050Y-42758391D01*
X74969050Y-42758391D02*
X75016669Y-42710772D01*
X75016669Y-42710772D02*
X75111907Y-42663153D01*
X75111907Y-42663153D02*
X75254764Y-42663153D01*
X75254764Y-42663153D02*
X75350002Y-42710772D01*
X75350002Y-42710772D02*
X75397621Y-42758391D01*
X75397621Y-42758391D02*
X75445240Y-42853629D01*
X75445240Y-42853629D02*
X75445240Y-43139343D01*
X75445240Y-43139343D02*
X75397621Y-43234581D01*
X75397621Y-43234581D02*
X75350002Y-43282201D01*
X75350002Y-43282201D02*
X75254764Y-43329820D01*
X75254764Y-43329820D02*
X75111907Y-43329820D01*
X75873812Y-43329820D02*
X75873812Y-42663153D01*
X75873812Y-42758391D02*
X75921431Y-42710772D01*
X75921431Y-42710772D02*
X76016669Y-42663153D01*
X76016669Y-42663153D02*
X76159526Y-42663153D01*
X76159526Y-42663153D02*
X76254764Y-42710772D01*
X76254764Y-42710772D02*
X76302383Y-42806010D01*
X76302383Y-42806010D02*
X76302383Y-43329820D01*
X76302383Y-42806010D02*
X76350002Y-42710772D01*
X76350002Y-42710772D02*
X76445240Y-42663153D01*
X76445240Y-42663153D02*
X76588097Y-42663153D01*
X76588097Y-42663153D02*
X76683336Y-42710772D01*
X76683336Y-42710772D02*
X76730955Y-42806010D01*
X76730955Y-42806010D02*
X76730955Y-43329820D01*
X77207145Y-42663153D02*
X77207145Y-43663153D01*
X77207145Y-42710772D02*
X77302383Y-42663153D01*
X77302383Y-42663153D02*
X77492859Y-42663153D01*
X77492859Y-42663153D02*
X77588097Y-42710772D01*
X77588097Y-42710772D02*
X77635716Y-42758391D01*
X77635716Y-42758391D02*
X77683335Y-42853629D01*
X77683335Y-42853629D02*
X77683335Y-43139343D01*
X77683335Y-43139343D02*
X77635716Y-43234581D01*
X77635716Y-43234581D02*
X77588097Y-43282201D01*
X77588097Y-43282201D02*
X77492859Y-43329820D01*
X77492859Y-43329820D02*
X77302383Y-43329820D01*
X77302383Y-43329820D02*
X77207145Y-43282201D01*
X78635716Y-43329820D02*
X78064288Y-43329820D01*
X78350002Y-43329820D02*
X78350002Y-42329820D01*
X78350002Y-42329820D02*
X78254764Y-42472677D01*
X78254764Y-42472677D02*
X78159526Y-42567915D01*
X78159526Y-42567915D02*
X78064288Y-42615534D01*
X73633333Y-45559580D02*
X73585714Y-45607200D01*
X73585714Y-45607200D02*
X73442857Y-45654819D01*
X73442857Y-45654819D02*
X73347619Y-45654819D01*
X73347619Y-45654819D02*
X73204762Y-45607200D01*
X73204762Y-45607200D02*
X73109524Y-45511961D01*
X73109524Y-45511961D02*
X73061905Y-45416723D01*
X73061905Y-45416723D02*
X73014286Y-45226247D01*
X73014286Y-45226247D02*
X73014286Y-45083390D01*
X73014286Y-45083390D02*
X73061905Y-44892914D01*
X73061905Y-44892914D02*
X73109524Y-44797676D01*
X73109524Y-44797676D02*
X73204762Y-44702438D01*
X73204762Y-44702438D02*
X73347619Y-44654819D01*
X73347619Y-44654819D02*
X73442857Y-44654819D01*
X73442857Y-44654819D02*
X73585714Y-44702438D01*
X73585714Y-44702438D02*
X73633333Y-44750057D01*
X74490476Y-45607200D02*
X74395238Y-45654819D01*
X74395238Y-45654819D02*
X74204762Y-45654819D01*
X74204762Y-45654819D02*
X74109524Y-45607200D01*
X74109524Y-45607200D02*
X74061905Y-45559580D01*
X74061905Y-45559580D02*
X74014286Y-45464342D01*
X74014286Y-45464342D02*
X74014286Y-45178628D01*
X74014286Y-45178628D02*
X74061905Y-45083390D01*
X74061905Y-45083390D02*
X74109524Y-45035771D01*
X74109524Y-45035771D02*
X74204762Y-44988152D01*
X74204762Y-44988152D02*
X74395238Y-44988152D01*
X74395238Y-44988152D02*
X74490476Y-45035771D01*
X75061905Y-45654819D02*
X74966667Y-45607200D01*
X74966667Y-45607200D02*
X74919048Y-45559580D01*
X74919048Y-45559580D02*
X74871429Y-45464342D01*
X74871429Y-45464342D02*
X74871429Y-45178628D01*
X74871429Y-45178628D02*
X74919048Y-45083390D01*
X74919048Y-45083390D02*
X74966667Y-45035771D01*
X74966667Y-45035771D02*
X75061905Y-44988152D01*
X75061905Y-44988152D02*
X75204762Y-44988152D01*
X75204762Y-44988152D02*
X75300000Y-45035771D01*
X75300000Y-45035771D02*
X75347619Y-45083390D01*
X75347619Y-45083390D02*
X75395238Y-45178628D01*
X75395238Y-45178628D02*
X75395238Y-45464342D01*
X75395238Y-45464342D02*
X75347619Y-45559580D01*
X75347619Y-45559580D02*
X75300000Y-45607200D01*
X75300000Y-45607200D02*
X75204762Y-45654819D01*
X75204762Y-45654819D02*
X75061905Y-45654819D01*
X75823810Y-45654819D02*
X75823810Y-44988152D01*
X75823810Y-45083390D02*
X75871429Y-45035771D01*
X75871429Y-45035771D02*
X75966667Y-44988152D01*
X75966667Y-44988152D02*
X76109524Y-44988152D01*
X76109524Y-44988152D02*
X76204762Y-45035771D01*
X76204762Y-45035771D02*
X76252381Y-45131009D01*
X76252381Y-45131009D02*
X76252381Y-45654819D01*
X76252381Y-45131009D02*
X76300000Y-45035771D01*
X76300000Y-45035771D02*
X76395238Y-44988152D01*
X76395238Y-44988152D02*
X76538095Y-44988152D01*
X76538095Y-44988152D02*
X76633334Y-45035771D01*
X76633334Y-45035771D02*
X76680953Y-45131009D01*
X76680953Y-45131009D02*
X76680953Y-45654819D01*
X77157143Y-44988152D02*
X77157143Y-45988152D01*
X77157143Y-45035771D02*
X77252381Y-44988152D01*
X77252381Y-44988152D02*
X77442857Y-44988152D01*
X77442857Y-44988152D02*
X77538095Y-45035771D01*
X77538095Y-45035771D02*
X77585714Y-45083390D01*
X77585714Y-45083390D02*
X77633333Y-45178628D01*
X77633333Y-45178628D02*
X77633333Y-45464342D01*
X77633333Y-45464342D02*
X77585714Y-45559580D01*
X77585714Y-45559580D02*
X77538095Y-45607200D01*
X77538095Y-45607200D02*
X77442857Y-45654819D01*
X77442857Y-45654819D02*
X77252381Y-45654819D01*
X77252381Y-45654819D02*
X77157143Y-45607200D01*
X78014286Y-44750057D02*
X78061905Y-44702438D01*
X78061905Y-44702438D02*
X78157143Y-44654819D01*
X78157143Y-44654819D02*
X78395238Y-44654819D01*
X78395238Y-44654819D02*
X78490476Y-44702438D01*
X78490476Y-44702438D02*
X78538095Y-44750057D01*
X78538095Y-44750057D02*
X78585714Y-44845295D01*
X78585714Y-44845295D02*
X78585714Y-44940533D01*
X78585714Y-44940533D02*
X78538095Y-45083390D01*
X78538095Y-45083390D02*
X77966667Y-45654819D01*
X77966667Y-45654819D02*
X78585714Y-45654819D01*
X94797618Y-54454819D02*
X94464285Y-53978628D01*
X94226190Y-54454819D02*
X94226190Y-53454819D01*
X94226190Y-53454819D02*
X94607142Y-53454819D01*
X94607142Y-53454819D02*
X94702380Y-53502438D01*
X94702380Y-53502438D02*
X94749999Y-53550057D01*
X94749999Y-53550057D02*
X94797618Y-53645295D01*
X94797618Y-53645295D02*
X94797618Y-53788152D01*
X94797618Y-53788152D02*
X94749999Y-53883390D01*
X94749999Y-53883390D02*
X94702380Y-53931009D01*
X94702380Y-53931009D02*
X94607142Y-53978628D01*
X94607142Y-53978628D02*
X94226190Y-53978628D01*
X95654761Y-54407200D02*
X95559523Y-54454819D01*
X95559523Y-54454819D02*
X95369047Y-54454819D01*
X95369047Y-54454819D02*
X95273809Y-54407200D01*
X95273809Y-54407200D02*
X95226190Y-54359580D01*
X95226190Y-54359580D02*
X95178571Y-54264342D01*
X95178571Y-54264342D02*
X95178571Y-53978628D01*
X95178571Y-53978628D02*
X95226190Y-53883390D01*
X95226190Y-53883390D02*
X95273809Y-53835771D01*
X95273809Y-53835771D02*
X95369047Y-53788152D01*
X95369047Y-53788152D02*
X95559523Y-53788152D01*
X95559523Y-53788152D02*
X95654761Y-53835771D01*
X96035714Y-54407200D02*
X96130952Y-54454819D01*
X96130952Y-54454819D02*
X96321428Y-54454819D01*
X96321428Y-54454819D02*
X96416666Y-54407200D01*
X96416666Y-54407200D02*
X96464285Y-54311961D01*
X96464285Y-54311961D02*
X96464285Y-54264342D01*
X96464285Y-54264342D02*
X96416666Y-54169104D01*
X96416666Y-54169104D02*
X96321428Y-54121485D01*
X96321428Y-54121485D02*
X96178571Y-54121485D01*
X96178571Y-54121485D02*
X96083333Y-54073866D01*
X96083333Y-54073866D02*
X96035714Y-53978628D01*
X96035714Y-53978628D02*
X96035714Y-53931009D01*
X96035714Y-53931009D02*
X96083333Y-53835771D01*
X96083333Y-53835771D02*
X96178571Y-53788152D01*
X96178571Y-53788152D02*
X96321428Y-53788152D01*
X96321428Y-53788152D02*
X96416666Y-53835771D01*
X97321428Y-53788152D02*
X97321428Y-54597676D01*
X97321428Y-54597676D02*
X97273809Y-54692914D01*
X97273809Y-54692914D02*
X97226190Y-54740533D01*
X97226190Y-54740533D02*
X97130952Y-54788152D01*
X97130952Y-54788152D02*
X96988095Y-54788152D01*
X96988095Y-54788152D02*
X96892857Y-54740533D01*
X97321428Y-54407200D02*
X97226190Y-54454819D01*
X97226190Y-54454819D02*
X97035714Y-54454819D01*
X97035714Y-54454819D02*
X96940476Y-54407200D01*
X96940476Y-54407200D02*
X96892857Y-54359580D01*
X96892857Y-54359580D02*
X96845238Y-54264342D01*
X96845238Y-54264342D02*
X96845238Y-53978628D01*
X96845238Y-53978628D02*
X96892857Y-53883390D01*
X96892857Y-53883390D02*
X96940476Y-53835771D01*
X96940476Y-53835771D02*
X97035714Y-53788152D01*
X97035714Y-53788152D02*
X97226190Y-53788152D01*
X97226190Y-53788152D02*
X97321428Y-53835771D01*
X98321428Y-54454819D02*
X97750000Y-54454819D01*
X98035714Y-54454819D02*
X98035714Y-53454819D01*
X98035714Y-53454819D02*
X97940476Y-53597676D01*
X97940476Y-53597676D02*
X97845238Y-53692914D01*
X97845238Y-53692914D02*
X97750000Y-53740533D01*
X59642857Y-53859580D02*
X59595238Y-53907200D01*
X59595238Y-53907200D02*
X59452381Y-53954819D01*
X59452381Y-53954819D02*
X59357143Y-53954819D01*
X59357143Y-53954819D02*
X59214286Y-53907200D01*
X59214286Y-53907200D02*
X59119048Y-53811961D01*
X59119048Y-53811961D02*
X59071429Y-53716723D01*
X59071429Y-53716723D02*
X59023810Y-53526247D01*
X59023810Y-53526247D02*
X59023810Y-53383390D01*
X59023810Y-53383390D02*
X59071429Y-53192914D01*
X59071429Y-53192914D02*
X59119048Y-53097676D01*
X59119048Y-53097676D02*
X59214286Y-53002438D01*
X59214286Y-53002438D02*
X59357143Y-52954819D01*
X59357143Y-52954819D02*
X59452381Y-52954819D01*
X59452381Y-52954819D02*
X59595238Y-53002438D01*
X59595238Y-53002438D02*
X59642857Y-53050057D01*
X60071429Y-53954819D02*
X60071429Y-53288152D01*
X60071429Y-52954819D02*
X60023810Y-53002438D01*
X60023810Y-53002438D02*
X60071429Y-53050057D01*
X60071429Y-53050057D02*
X60119048Y-53002438D01*
X60119048Y-53002438D02*
X60071429Y-52954819D01*
X60071429Y-52954819D02*
X60071429Y-53050057D01*
X60547619Y-53288152D02*
X60547619Y-53954819D01*
X60547619Y-53383390D02*
X60595238Y-53335771D01*
X60595238Y-53335771D02*
X60690476Y-53288152D01*
X60690476Y-53288152D02*
X60833333Y-53288152D01*
X60833333Y-53288152D02*
X60928571Y-53335771D01*
X60928571Y-53335771D02*
X60976190Y-53431009D01*
X60976190Y-53431009D02*
X60976190Y-53954819D01*
X61976190Y-53954819D02*
X61404762Y-53954819D01*
X61690476Y-53954819D02*
X61690476Y-52954819D01*
X61690476Y-52954819D02*
X61595238Y-53097676D01*
X61595238Y-53097676D02*
X61500000Y-53192914D01*
X61500000Y-53192914D02*
X61404762Y-53240533D01*
X40738095Y-43504438D02*
X40642857Y-43456819D01*
X40642857Y-43456819D02*
X40500000Y-43456819D01*
X40500000Y-43456819D02*
X40357143Y-43504438D01*
X40357143Y-43504438D02*
X40261905Y-43599676D01*
X40261905Y-43599676D02*
X40214286Y-43694914D01*
X40214286Y-43694914D02*
X40166667Y-43885390D01*
X40166667Y-43885390D02*
X40166667Y-44028247D01*
X40166667Y-44028247D02*
X40214286Y-44218723D01*
X40214286Y-44218723D02*
X40261905Y-44313961D01*
X40261905Y-44313961D02*
X40357143Y-44409200D01*
X40357143Y-44409200D02*
X40500000Y-44456819D01*
X40500000Y-44456819D02*
X40595238Y-44456819D01*
X40595238Y-44456819D02*
X40738095Y-44409200D01*
X40738095Y-44409200D02*
X40785714Y-44361580D01*
X40785714Y-44361580D02*
X40785714Y-44028247D01*
X40785714Y-44028247D02*
X40595238Y-44028247D01*
X41214286Y-44456819D02*
X41214286Y-43456819D01*
X41214286Y-43456819D02*
X41785714Y-44456819D01*
X41785714Y-44456819D02*
X41785714Y-43456819D01*
X42261905Y-44456819D02*
X42261905Y-43456819D01*
X42261905Y-43456819D02*
X42500000Y-43456819D01*
X42500000Y-43456819D02*
X42642857Y-43504438D01*
X42642857Y-43504438D02*
X42738095Y-43599676D01*
X42738095Y-43599676D02*
X42785714Y-43694914D01*
X42785714Y-43694914D02*
X42833333Y-43885390D01*
X42833333Y-43885390D02*
X42833333Y-44028247D01*
X42833333Y-44028247D02*
X42785714Y-44218723D01*
X42785714Y-44218723D02*
X42738095Y-44313961D01*
X42738095Y-44313961D02*
X42642857Y-44409200D01*
X42642857Y-44409200D02*
X42500000Y-44456819D01*
X42500000Y-44456819D02*
X42261905Y-44456819D01*
X104845237Y-46359580D02*
X104797618Y-46407200D01*
X104797618Y-46407200D02*
X104654761Y-46454819D01*
X104654761Y-46454819D02*
X104559523Y-46454819D01*
X104559523Y-46454819D02*
X104416666Y-46407200D01*
X104416666Y-46407200D02*
X104321428Y-46311961D01*
X104321428Y-46311961D02*
X104273809Y-46216723D01*
X104273809Y-46216723D02*
X104226190Y-46026247D01*
X104226190Y-46026247D02*
X104226190Y-45883390D01*
X104226190Y-45883390D02*
X104273809Y-45692914D01*
X104273809Y-45692914D02*
X104321428Y-45597676D01*
X104321428Y-45597676D02*
X104416666Y-45502438D01*
X104416666Y-45502438D02*
X104559523Y-45454819D01*
X104559523Y-45454819D02*
X104654761Y-45454819D01*
X104654761Y-45454819D02*
X104797618Y-45502438D01*
X104797618Y-45502438D02*
X104845237Y-45550057D01*
X105178571Y-45788152D02*
X105416666Y-46454819D01*
X105416666Y-46454819D02*
X105654761Y-45788152D01*
X106464285Y-46407200D02*
X106369047Y-46454819D01*
X106369047Y-46454819D02*
X106178571Y-46454819D01*
X106178571Y-46454819D02*
X106083333Y-46407200D01*
X106083333Y-46407200D02*
X106035714Y-46359580D01*
X106035714Y-46359580D02*
X105988095Y-46264342D01*
X105988095Y-46264342D02*
X105988095Y-45978628D01*
X105988095Y-45978628D02*
X106035714Y-45883390D01*
X106035714Y-45883390D02*
X106083333Y-45835771D01*
X106083333Y-45835771D02*
X106178571Y-45788152D01*
X106178571Y-45788152D02*
X106369047Y-45788152D01*
X106369047Y-45788152D02*
X106464285Y-45835771D01*
X107321428Y-46407200D02*
X107226190Y-46454819D01*
X107226190Y-46454819D02*
X107035714Y-46454819D01*
X107035714Y-46454819D02*
X106940476Y-46407200D01*
X106940476Y-46407200D02*
X106892857Y-46359580D01*
X106892857Y-46359580D02*
X106845238Y-46264342D01*
X106845238Y-46264342D02*
X106845238Y-45978628D01*
X106845238Y-45978628D02*
X106892857Y-45883390D01*
X106892857Y-45883390D02*
X106940476Y-45835771D01*
X106940476Y-45835771D02*
X107035714Y-45788152D01*
X107035714Y-45788152D02*
X107226190Y-45788152D01*
X107226190Y-45788152D02*
X107321428Y-45835771D01*
X108273809Y-46454819D02*
X107702381Y-46454819D01*
X107988095Y-46454819D02*
X107988095Y-45454819D01*
X107988095Y-45454819D02*
X107892857Y-45597676D01*
X107892857Y-45597676D02*
X107797619Y-45692914D01*
X107797619Y-45692914D02*
X107702381Y-45740533D01*
X75723809Y-40634581D02*
X75676190Y-40682201D01*
X75676190Y-40682201D02*
X75533333Y-40729820D01*
X75533333Y-40729820D02*
X75438095Y-40729820D01*
X75438095Y-40729820D02*
X75295238Y-40682201D01*
X75295238Y-40682201D02*
X75200000Y-40586962D01*
X75200000Y-40586962D02*
X75152381Y-40491724D01*
X75152381Y-40491724D02*
X75104762Y-40301248D01*
X75104762Y-40301248D02*
X75104762Y-40158391D01*
X75104762Y-40158391D02*
X75152381Y-39967915D01*
X75152381Y-39967915D02*
X75200000Y-39872677D01*
X75200000Y-39872677D02*
X75295238Y-39777439D01*
X75295238Y-39777439D02*
X75438095Y-39729820D01*
X75438095Y-39729820D02*
X75533333Y-39729820D01*
X75533333Y-39729820D02*
X75676190Y-39777439D01*
X75676190Y-39777439D02*
X75723809Y-39825058D01*
X76104762Y-40682201D02*
X76200000Y-40729820D01*
X76200000Y-40729820D02*
X76390476Y-40729820D01*
X76390476Y-40729820D02*
X76485714Y-40682201D01*
X76485714Y-40682201D02*
X76533333Y-40586962D01*
X76533333Y-40586962D02*
X76533333Y-40539343D01*
X76533333Y-40539343D02*
X76485714Y-40444105D01*
X76485714Y-40444105D02*
X76390476Y-40396486D01*
X76390476Y-40396486D02*
X76247619Y-40396486D01*
X76247619Y-40396486D02*
X76152381Y-40348867D01*
X76152381Y-40348867D02*
X76104762Y-40253629D01*
X76104762Y-40253629D02*
X76104762Y-40206010D01*
X76104762Y-40206010D02*
X76152381Y-40110772D01*
X76152381Y-40110772D02*
X76247619Y-40063153D01*
X76247619Y-40063153D02*
X76390476Y-40063153D01*
X76390476Y-40063153D02*
X76485714Y-40110772D01*
X76914286Y-40682201D02*
X77009524Y-40729820D01*
X77009524Y-40729820D02*
X77200000Y-40729820D01*
X77200000Y-40729820D02*
X77295238Y-40682201D01*
X77295238Y-40682201D02*
X77342857Y-40586962D01*
X77342857Y-40586962D02*
X77342857Y-40539343D01*
X77342857Y-40539343D02*
X77295238Y-40444105D01*
X77295238Y-40444105D02*
X77200000Y-40396486D01*
X77200000Y-40396486D02*
X77057143Y-40396486D01*
X77057143Y-40396486D02*
X76961905Y-40348867D01*
X76961905Y-40348867D02*
X76914286Y-40253629D01*
X76914286Y-40253629D02*
X76914286Y-40206010D01*
X76914286Y-40206010D02*
X76961905Y-40110772D01*
X76961905Y-40110772D02*
X77057143Y-40063153D01*
X77057143Y-40063153D02*
X77200000Y-40063153D01*
X77200000Y-40063153D02*
X77295238Y-40110772D01*
X78295238Y-40729820D02*
X77723810Y-40729820D01*
X78009524Y-40729820D02*
X78009524Y-39729820D01*
X78009524Y-39729820D02*
X77914286Y-39872677D01*
X77914286Y-39872677D02*
X77819048Y-39967915D01*
X77819048Y-39967915D02*
X77723810Y-40015534D01*
X40976191Y-77456819D02*
X41309524Y-78456819D01*
X41309524Y-78456819D02*
X41642857Y-77456819D01*
X41976191Y-78456819D02*
X41976191Y-77790152D01*
X41976191Y-77456819D02*
X41928572Y-77504438D01*
X41928572Y-77504438D02*
X41976191Y-77552057D01*
X41976191Y-77552057D02*
X42023810Y-77504438D01*
X42023810Y-77504438D02*
X41976191Y-77456819D01*
X41976191Y-77456819D02*
X41976191Y-77552057D01*
X42452381Y-77790152D02*
X42452381Y-78456819D01*
X42452381Y-77885390D02*
X42500000Y-77837771D01*
X42500000Y-77837771D02*
X42595238Y-77790152D01*
X42595238Y-77790152D02*
X42738095Y-77790152D01*
X42738095Y-77790152D02*
X42833333Y-77837771D01*
X42833333Y-77837771D02*
X42880952Y-77933009D01*
X42880952Y-77933009D02*
X42880952Y-78456819D01*
X76947618Y-36854819D02*
X76614285Y-36378628D01*
X76376190Y-36854819D02*
X76376190Y-35854819D01*
X76376190Y-35854819D02*
X76757142Y-35854819D01*
X76757142Y-35854819D02*
X76852380Y-35902438D01*
X76852380Y-35902438D02*
X76899999Y-35950057D01*
X76899999Y-35950057D02*
X76947618Y-36045295D01*
X76947618Y-36045295D02*
X76947618Y-36188152D01*
X76947618Y-36188152D02*
X76899999Y-36283390D01*
X76899999Y-36283390D02*
X76852380Y-36331009D01*
X76852380Y-36331009D02*
X76757142Y-36378628D01*
X76757142Y-36378628D02*
X76376190Y-36378628D01*
X77233333Y-36188152D02*
X77614285Y-36188152D01*
X77376190Y-35854819D02*
X77376190Y-36711961D01*
X77376190Y-36711961D02*
X77423809Y-36807200D01*
X77423809Y-36807200D02*
X77519047Y-36854819D01*
X77519047Y-36854819D02*
X77614285Y-36854819D01*
X78471428Y-36854819D02*
X77900000Y-36854819D01*
X78185714Y-36854819D02*
X78185714Y-35854819D01*
X78185714Y-35854819D02*
X78090476Y-35997676D01*
X78090476Y-35997676D02*
X77995238Y-36092914D01*
X77995238Y-36092914D02*
X77900000Y-36140533D01*
X132738095Y-43504438D02*
X132642857Y-43456819D01*
X132642857Y-43456819D02*
X132500000Y-43456819D01*
X132500000Y-43456819D02*
X132357143Y-43504438D01*
X132357143Y-43504438D02*
X132261905Y-43599676D01*
X132261905Y-43599676D02*
X132214286Y-43694914D01*
X132214286Y-43694914D02*
X132166667Y-43885390D01*
X132166667Y-43885390D02*
X132166667Y-44028247D01*
X132166667Y-44028247D02*
X132214286Y-44218723D01*
X132214286Y-44218723D02*
X132261905Y-44313961D01*
X132261905Y-44313961D02*
X132357143Y-44409200D01*
X132357143Y-44409200D02*
X132500000Y-44456819D01*
X132500000Y-44456819D02*
X132595238Y-44456819D01*
X132595238Y-44456819D02*
X132738095Y-44409200D01*
X132738095Y-44409200D02*
X132785714Y-44361580D01*
X132785714Y-44361580D02*
X132785714Y-44028247D01*
X132785714Y-44028247D02*
X132595238Y-44028247D01*
X133214286Y-44456819D02*
X133214286Y-43456819D01*
X133214286Y-43456819D02*
X133785714Y-44456819D01*
X133785714Y-44456819D02*
X133785714Y-43456819D01*
X134261905Y-44456819D02*
X134261905Y-43456819D01*
X134261905Y-43456819D02*
X134500000Y-43456819D01*
X134500000Y-43456819D02*
X134642857Y-43504438D01*
X134642857Y-43504438D02*
X134738095Y-43599676D01*
X134738095Y-43599676D02*
X134785714Y-43694914D01*
X134785714Y-43694914D02*
X134833333Y-43885390D01*
X134833333Y-43885390D02*
X134833333Y-44028247D01*
X134833333Y-44028247D02*
X134785714Y-44218723D01*
X134785714Y-44218723D02*
X134738095Y-44313961D01*
X134738095Y-44313961D02*
X134642857Y-44409200D01*
X134642857Y-44409200D02*
X134500000Y-44456819D01*
X134500000Y-44456819D02*
X134261905Y-44456819D01*
X69261904Y-53859580D02*
X69214285Y-53907200D01*
X69214285Y-53907200D02*
X69071428Y-53954819D01*
X69071428Y-53954819D02*
X68976190Y-53954819D01*
X68976190Y-53954819D02*
X68833333Y-53907200D01*
X68833333Y-53907200D02*
X68738095Y-53811961D01*
X68738095Y-53811961D02*
X68690476Y-53716723D01*
X68690476Y-53716723D02*
X68642857Y-53526247D01*
X68642857Y-53526247D02*
X68642857Y-53383390D01*
X68642857Y-53383390D02*
X68690476Y-53192914D01*
X68690476Y-53192914D02*
X68738095Y-53097676D01*
X68738095Y-53097676D02*
X68833333Y-53002438D01*
X68833333Y-53002438D02*
X68976190Y-52954819D01*
X68976190Y-52954819D02*
X69071428Y-52954819D01*
X69071428Y-52954819D02*
X69214285Y-53002438D01*
X69214285Y-53002438D02*
X69261904Y-53050057D01*
X69690476Y-53954819D02*
X69690476Y-53288152D01*
X69690476Y-52954819D02*
X69642857Y-53002438D01*
X69642857Y-53002438D02*
X69690476Y-53050057D01*
X69690476Y-53050057D02*
X69738095Y-53002438D01*
X69738095Y-53002438D02*
X69690476Y-52954819D01*
X69690476Y-52954819D02*
X69690476Y-53050057D01*
X70166666Y-53288152D02*
X70166666Y-53954819D01*
X70166666Y-53383390D02*
X70214285Y-53335771D01*
X70214285Y-53335771D02*
X70309523Y-53288152D01*
X70309523Y-53288152D02*
X70452380Y-53288152D01*
X70452380Y-53288152D02*
X70547618Y-53335771D01*
X70547618Y-53335771D02*
X70595237Y-53431009D01*
X70595237Y-53431009D02*
X70595237Y-53954819D01*
X70833333Y-54050057D02*
X71595237Y-54050057D01*
X72309523Y-52954819D02*
X71833333Y-52954819D01*
X71833333Y-52954819D02*
X71785714Y-53431009D01*
X71785714Y-53431009D02*
X71833333Y-53383390D01*
X71833333Y-53383390D02*
X71928571Y-53335771D01*
X71928571Y-53335771D02*
X72166666Y-53335771D01*
X72166666Y-53335771D02*
X72261904Y-53383390D01*
X72261904Y-53383390D02*
X72309523Y-53431009D01*
X72309523Y-53431009D02*
X72357142Y-53526247D01*
X72357142Y-53526247D02*
X72357142Y-53764342D01*
X72357142Y-53764342D02*
X72309523Y-53859580D01*
X72309523Y-53859580D02*
X72261904Y-53907200D01*
X72261904Y-53907200D02*
X72166666Y-53954819D01*
X72166666Y-53954819D02*
X71928571Y-53954819D01*
X71928571Y-53954819D02*
X71833333Y-53907200D01*
X71833333Y-53907200D02*
X71785714Y-53859580D01*
X125054819Y-43280952D02*
X124054819Y-43280952D01*
X124054819Y-43280952D02*
X124054819Y-43042857D01*
X124054819Y-43042857D02*
X124102438Y-42900000D01*
X124102438Y-42900000D02*
X124197676Y-42804762D01*
X124197676Y-42804762D02*
X124292914Y-42757143D01*
X124292914Y-42757143D02*
X124483390Y-42709524D01*
X124483390Y-42709524D02*
X124626247Y-42709524D01*
X124626247Y-42709524D02*
X124816723Y-42757143D01*
X124816723Y-42757143D02*
X124911961Y-42804762D01*
X124911961Y-42804762D02*
X125007200Y-42900000D01*
X125007200Y-42900000D02*
X125054819Y-43042857D01*
X125054819Y-43042857D02*
X125054819Y-43280952D01*
X125054819Y-42280952D02*
X124054819Y-42280952D01*
X124435771Y-42280952D02*
X124388152Y-42185714D01*
X124388152Y-42185714D02*
X124388152Y-41995238D01*
X124388152Y-41995238D02*
X124435771Y-41900000D01*
X124435771Y-41900000D02*
X124483390Y-41852381D01*
X124483390Y-41852381D02*
X124578628Y-41804762D01*
X124578628Y-41804762D02*
X124864342Y-41804762D01*
X124864342Y-41804762D02*
X124959580Y-41852381D01*
X124959580Y-41852381D02*
X125007200Y-41900000D01*
X125007200Y-41900000D02*
X125054819Y-41995238D01*
X125054819Y-41995238D02*
X125054819Y-42185714D01*
X125054819Y-42185714D02*
X125007200Y-42280952D01*
X125054819Y-41233333D02*
X125007200Y-41328571D01*
X125007200Y-41328571D02*
X124959580Y-41376190D01*
X124959580Y-41376190D02*
X124864342Y-41423809D01*
X124864342Y-41423809D02*
X124578628Y-41423809D01*
X124578628Y-41423809D02*
X124483390Y-41376190D01*
X124483390Y-41376190D02*
X124435771Y-41328571D01*
X124435771Y-41328571D02*
X124388152Y-41233333D01*
X124388152Y-41233333D02*
X124388152Y-41090476D01*
X124388152Y-41090476D02*
X124435771Y-40995238D01*
X124435771Y-40995238D02*
X124483390Y-40947619D01*
X124483390Y-40947619D02*
X124578628Y-40900000D01*
X124578628Y-40900000D02*
X124864342Y-40900000D01*
X124864342Y-40900000D02*
X124959580Y-40947619D01*
X124959580Y-40947619D02*
X125007200Y-40995238D01*
X125007200Y-40995238D02*
X125054819Y-41090476D01*
X125054819Y-41090476D02*
X125054819Y-41233333D01*
X125054819Y-40328571D02*
X125007200Y-40423809D01*
X125007200Y-40423809D02*
X124959580Y-40471428D01*
X124959580Y-40471428D02*
X124864342Y-40519047D01*
X124864342Y-40519047D02*
X124578628Y-40519047D01*
X124578628Y-40519047D02*
X124483390Y-40471428D01*
X124483390Y-40471428D02*
X124435771Y-40423809D01*
X124435771Y-40423809D02*
X124388152Y-40328571D01*
X124388152Y-40328571D02*
X124388152Y-40185714D01*
X124388152Y-40185714D02*
X124435771Y-40090476D01*
X124435771Y-40090476D02*
X124483390Y-40042857D01*
X124483390Y-40042857D02*
X124578628Y-39995238D01*
X124578628Y-39995238D02*
X124864342Y-39995238D01*
X124864342Y-39995238D02*
X124959580Y-40042857D01*
X124959580Y-40042857D02*
X125007200Y-40090476D01*
X125007200Y-40090476D02*
X125054819Y-40185714D01*
X125054819Y-40185714D02*
X125054819Y-40328571D01*
X124388152Y-39709523D02*
X124388152Y-39328571D01*
X124054819Y-39566666D02*
X124911961Y-39566666D01*
X124911961Y-39566666D02*
X125007200Y-39519047D01*
X125007200Y-39519047D02*
X125054819Y-39423809D01*
X125054819Y-39423809D02*
X125054819Y-39328571D01*
X125054819Y-38471428D02*
X125054819Y-39042856D01*
X125054819Y-38757142D02*
X124054819Y-38757142D01*
X124054819Y-38757142D02*
X124197676Y-38852380D01*
X124197676Y-38852380D02*
X124292914Y-38947618D01*
X124292914Y-38947618D02*
X124340533Y-39042856D01*
X39261904Y-53859580D02*
X39214285Y-53907200D01*
X39214285Y-53907200D02*
X39071428Y-53954819D01*
X39071428Y-53954819D02*
X38976190Y-53954819D01*
X38976190Y-53954819D02*
X38833333Y-53907200D01*
X38833333Y-53907200D02*
X38738095Y-53811961D01*
X38738095Y-53811961D02*
X38690476Y-53716723D01*
X38690476Y-53716723D02*
X38642857Y-53526247D01*
X38642857Y-53526247D02*
X38642857Y-53383390D01*
X38642857Y-53383390D02*
X38690476Y-53192914D01*
X38690476Y-53192914D02*
X38738095Y-53097676D01*
X38738095Y-53097676D02*
X38833333Y-53002438D01*
X38833333Y-53002438D02*
X38976190Y-52954819D01*
X38976190Y-52954819D02*
X39071428Y-52954819D01*
X39071428Y-52954819D02*
X39214285Y-53002438D01*
X39214285Y-53002438D02*
X39261904Y-53050057D01*
X39690476Y-53954819D02*
X39690476Y-53288152D01*
X39690476Y-52954819D02*
X39642857Y-53002438D01*
X39642857Y-53002438D02*
X39690476Y-53050057D01*
X39690476Y-53050057D02*
X39738095Y-53002438D01*
X39738095Y-53002438D02*
X39690476Y-52954819D01*
X39690476Y-52954819D02*
X39690476Y-53050057D01*
X40166666Y-53288152D02*
X40166666Y-53954819D01*
X40166666Y-53383390D02*
X40214285Y-53335771D01*
X40214285Y-53335771D02*
X40309523Y-53288152D01*
X40309523Y-53288152D02*
X40452380Y-53288152D01*
X40452380Y-53288152D02*
X40547618Y-53335771D01*
X40547618Y-53335771D02*
X40595237Y-53431009D01*
X40595237Y-53431009D02*
X40595237Y-53954819D01*
X40833333Y-54050057D02*
X41595237Y-54050057D01*
X42261904Y-53288152D02*
X42261904Y-53954819D01*
X42023809Y-52907200D02*
X41785714Y-53621485D01*
X41785714Y-53621485D02*
X42404761Y-53621485D01*
X96099997Y-49514579D02*
X96052378Y-49562199D01*
X96052378Y-49562199D02*
X95909521Y-49609818D01*
X95909521Y-49609818D02*
X95814283Y-49609818D01*
X95814283Y-49609818D02*
X95671426Y-49562199D01*
X95671426Y-49562199D02*
X95576188Y-49466960D01*
X95576188Y-49466960D02*
X95528569Y-49371722D01*
X95528569Y-49371722D02*
X95480950Y-49181246D01*
X95480950Y-49181246D02*
X95480950Y-49038389D01*
X95480950Y-49038389D02*
X95528569Y-48847913D01*
X95528569Y-48847913D02*
X95576188Y-48752675D01*
X95576188Y-48752675D02*
X95671426Y-48657437D01*
X95671426Y-48657437D02*
X95814283Y-48609818D01*
X95814283Y-48609818D02*
X95909521Y-48609818D01*
X95909521Y-48609818D02*
X96052378Y-48657437D01*
X96052378Y-48657437D02*
X96099997Y-48705056D01*
X96957140Y-49562199D02*
X96861902Y-49609818D01*
X96861902Y-49609818D02*
X96671426Y-49609818D01*
X96671426Y-49609818D02*
X96576188Y-49562199D01*
X96576188Y-49562199D02*
X96528569Y-49514579D01*
X96528569Y-49514579D02*
X96480950Y-49419341D01*
X96480950Y-49419341D02*
X96480950Y-49133627D01*
X96480950Y-49133627D02*
X96528569Y-49038389D01*
X96528569Y-49038389D02*
X96576188Y-48990770D01*
X96576188Y-48990770D02*
X96671426Y-48943151D01*
X96671426Y-48943151D02*
X96861902Y-48943151D01*
X96861902Y-48943151D02*
X96957140Y-48990770D01*
X97338093Y-49562199D02*
X97433331Y-49609818D01*
X97433331Y-49609818D02*
X97623807Y-49609818D01*
X97623807Y-49609818D02*
X97719045Y-49562199D01*
X97719045Y-49562199D02*
X97766664Y-49466960D01*
X97766664Y-49466960D02*
X97766664Y-49419341D01*
X97766664Y-49419341D02*
X97719045Y-49324103D01*
X97719045Y-49324103D02*
X97623807Y-49276484D01*
X97623807Y-49276484D02*
X97480950Y-49276484D01*
X97480950Y-49276484D02*
X97385712Y-49228865D01*
X97385712Y-49228865D02*
X97338093Y-49133627D01*
X97338093Y-49133627D02*
X97338093Y-49086008D01*
X97338093Y-49086008D02*
X97385712Y-48990770D01*
X97385712Y-48990770D02*
X97480950Y-48943151D01*
X97480950Y-48943151D02*
X97623807Y-48943151D01*
X97623807Y-48943151D02*
X97719045Y-48990770D01*
X98719045Y-49609818D02*
X98147617Y-49609818D01*
X98433331Y-49609818D02*
X98433331Y-48609818D01*
X98433331Y-48609818D02*
X98338093Y-48752675D01*
X98338093Y-48752675D02*
X98242855Y-48847913D01*
X98242855Y-48847913D02*
X98147617Y-48895532D01*
X140609580Y-61283695D02*
X140657200Y-61331314D01*
X140657200Y-61331314D02*
X140704819Y-61474171D01*
X140704819Y-61474171D02*
X140704819Y-61569409D01*
X140704819Y-61569409D02*
X140657200Y-61712266D01*
X140657200Y-61712266D02*
X140561961Y-61807504D01*
X140561961Y-61807504D02*
X140466723Y-61855123D01*
X140466723Y-61855123D02*
X140276247Y-61902742D01*
X140276247Y-61902742D02*
X140133390Y-61902742D01*
X140133390Y-61902742D02*
X139942914Y-61855123D01*
X139942914Y-61855123D02*
X139847676Y-61807504D01*
X139847676Y-61807504D02*
X139752438Y-61712266D01*
X139752438Y-61712266D02*
X139704819Y-61569409D01*
X139704819Y-61569409D02*
X139704819Y-61474171D01*
X139704819Y-61474171D02*
X139752438Y-61331314D01*
X139752438Y-61331314D02*
X139800057Y-61283695D01*
X140704819Y-60712266D02*
X140657200Y-60807504D01*
X140657200Y-60807504D02*
X140609580Y-60855123D01*
X140609580Y-60855123D02*
X140514342Y-60902742D01*
X140514342Y-60902742D02*
X140228628Y-60902742D01*
X140228628Y-60902742D02*
X140133390Y-60855123D01*
X140133390Y-60855123D02*
X140085771Y-60807504D01*
X140085771Y-60807504D02*
X140038152Y-60712266D01*
X140038152Y-60712266D02*
X140038152Y-60569409D01*
X140038152Y-60569409D02*
X140085771Y-60474171D01*
X140085771Y-60474171D02*
X140133390Y-60426552D01*
X140133390Y-60426552D02*
X140228628Y-60378933D01*
X140228628Y-60378933D02*
X140514342Y-60378933D01*
X140514342Y-60378933D02*
X140609580Y-60426552D01*
X140609580Y-60426552D02*
X140657200Y-60474171D01*
X140657200Y-60474171D02*
X140704819Y-60569409D01*
X140704819Y-60569409D02*
X140704819Y-60712266D01*
X140038152Y-59521790D02*
X140704819Y-59521790D01*
X140038152Y-59950361D02*
X140561961Y-59950361D01*
X140561961Y-59950361D02*
X140657200Y-59902742D01*
X140657200Y-59902742D02*
X140704819Y-59807504D01*
X140704819Y-59807504D02*
X140704819Y-59664647D01*
X140704819Y-59664647D02*
X140657200Y-59569409D01*
X140657200Y-59569409D02*
X140609580Y-59521790D01*
X140038152Y-59188456D02*
X140038152Y-58807504D01*
X139704819Y-59045599D02*
X140561961Y-59045599D01*
X140561961Y-59045599D02*
X140657200Y-58997980D01*
X140657200Y-58997980D02*
X140704819Y-58902742D01*
X140704819Y-58902742D02*
X140704819Y-58807504D01*
X140800057Y-58712266D02*
X140800057Y-57950361D01*
X140038152Y-57283694D02*
X140704819Y-57283694D01*
X139657200Y-57521789D02*
X140371485Y-57759884D01*
X140371485Y-57759884D02*
X140371485Y-57140837D01*
X72204819Y-94716666D02*
X72204819Y-95192856D01*
X72204819Y-95192856D02*
X71204819Y-95192856D01*
X72204819Y-93859523D02*
X72204819Y-94430951D01*
X72204819Y-94145237D02*
X71204819Y-94145237D01*
X71204819Y-94145237D02*
X71347676Y-94240475D01*
X71347676Y-94240475D02*
X71442914Y-94335713D01*
X71442914Y-94335713D02*
X71490533Y-94430951D01*
X90297618Y-30954819D02*
X89964285Y-30478628D01*
X89726190Y-30954819D02*
X89726190Y-29954819D01*
X89726190Y-29954819D02*
X90107142Y-29954819D01*
X90107142Y-29954819D02*
X90202380Y-30002438D01*
X90202380Y-30002438D02*
X90249999Y-30050057D01*
X90249999Y-30050057D02*
X90297618Y-30145295D01*
X90297618Y-30145295D02*
X90297618Y-30288152D01*
X90297618Y-30288152D02*
X90249999Y-30383390D01*
X90249999Y-30383390D02*
X90202380Y-30431009D01*
X90202380Y-30431009D02*
X90107142Y-30478628D01*
X90107142Y-30478628D02*
X89726190Y-30478628D01*
X90583333Y-30288152D02*
X90964285Y-30288152D01*
X90726190Y-30954819D02*
X90726190Y-30097676D01*
X90726190Y-30097676D02*
X90773809Y-30002438D01*
X90773809Y-30002438D02*
X90869047Y-29954819D01*
X90869047Y-29954819D02*
X90964285Y-29954819D01*
X91821428Y-30954819D02*
X91250000Y-30954819D01*
X91535714Y-30954819D02*
X91535714Y-29954819D01*
X91535714Y-29954819D02*
X91440476Y-30097676D01*
X91440476Y-30097676D02*
X91345238Y-30192914D01*
X91345238Y-30192914D02*
X91250000Y-30240533D01*
X73793333Y-70924963D02*
X73793333Y-69924963D01*
X73793333Y-69924963D02*
X74126666Y-70639248D01*
X74126666Y-70639248D02*
X74459999Y-69924963D01*
X74459999Y-69924963D02*
X74459999Y-70924963D01*
X75459999Y-70924963D02*
X74888571Y-70924963D01*
X75174285Y-70924963D02*
X75174285Y-69924963D01*
X75174285Y-69924963D02*
X75079047Y-70067820D01*
X75079047Y-70067820D02*
X74983809Y-70163058D01*
X74983809Y-70163058D02*
X74888571Y-70210677D01*
X75650476Y-71020201D02*
X76412380Y-71020201D01*
X76602857Y-70020201D02*
X76650476Y-69972582D01*
X76650476Y-69972582D02*
X76745714Y-69924963D01*
X76745714Y-69924963D02*
X76983809Y-69924963D01*
X76983809Y-69924963D02*
X77079047Y-69972582D01*
X77079047Y-69972582D02*
X77126666Y-70020201D01*
X77126666Y-70020201D02*
X77174285Y-70115439D01*
X77174285Y-70115439D02*
X77174285Y-70210677D01*
X77174285Y-70210677D02*
X77126666Y-70353534D01*
X77126666Y-70353534D02*
X76555238Y-70924963D01*
X76555238Y-70924963D02*
X77174285Y-70924963D01*
X73633332Y-38659580D02*
X73585713Y-38707200D01*
X73585713Y-38707200D02*
X73442856Y-38754819D01*
X73442856Y-38754819D02*
X73347618Y-38754819D01*
X73347618Y-38754819D02*
X73204761Y-38707200D01*
X73204761Y-38707200D02*
X73109523Y-38611961D01*
X73109523Y-38611961D02*
X73061904Y-38516723D01*
X73061904Y-38516723D02*
X73014285Y-38326247D01*
X73014285Y-38326247D02*
X73014285Y-38183390D01*
X73014285Y-38183390D02*
X73061904Y-37992914D01*
X73061904Y-37992914D02*
X73109523Y-37897676D01*
X73109523Y-37897676D02*
X73204761Y-37802438D01*
X73204761Y-37802438D02*
X73347618Y-37754819D01*
X73347618Y-37754819D02*
X73442856Y-37754819D01*
X73442856Y-37754819D02*
X73585713Y-37802438D01*
X73585713Y-37802438D02*
X73633332Y-37850057D01*
X74014285Y-38707200D02*
X74109523Y-38754819D01*
X74109523Y-38754819D02*
X74299999Y-38754819D01*
X74299999Y-38754819D02*
X74395237Y-38707200D01*
X74395237Y-38707200D02*
X74442856Y-38611961D01*
X74442856Y-38611961D02*
X74442856Y-38564342D01*
X74442856Y-38564342D02*
X74395237Y-38469104D01*
X74395237Y-38469104D02*
X74299999Y-38421485D01*
X74299999Y-38421485D02*
X74157142Y-38421485D01*
X74157142Y-38421485D02*
X74061904Y-38373866D01*
X74061904Y-38373866D02*
X74014285Y-38278628D01*
X74014285Y-38278628D02*
X74014285Y-38231009D01*
X74014285Y-38231009D02*
X74061904Y-38135771D01*
X74061904Y-38135771D02*
X74157142Y-38088152D01*
X74157142Y-38088152D02*
X74299999Y-38088152D01*
X74299999Y-38088152D02*
X74395237Y-38135771D01*
X75014285Y-38754819D02*
X74919047Y-38707200D01*
X74919047Y-38707200D02*
X74871428Y-38611961D01*
X74871428Y-38611961D02*
X74871428Y-37754819D01*
X75538095Y-38754819D02*
X75442857Y-38707200D01*
X75442857Y-38707200D02*
X75395238Y-38659580D01*
X75395238Y-38659580D02*
X75347619Y-38564342D01*
X75347619Y-38564342D02*
X75347619Y-38278628D01*
X75347619Y-38278628D02*
X75395238Y-38183390D01*
X75395238Y-38183390D02*
X75442857Y-38135771D01*
X75442857Y-38135771D02*
X75538095Y-38088152D01*
X75538095Y-38088152D02*
X75680952Y-38088152D01*
X75680952Y-38088152D02*
X75776190Y-38135771D01*
X75776190Y-38135771D02*
X75823809Y-38183390D01*
X75823809Y-38183390D02*
X75871428Y-38278628D01*
X75871428Y-38278628D02*
X75871428Y-38564342D01*
X75871428Y-38564342D02*
X75823809Y-38659580D01*
X75823809Y-38659580D02*
X75776190Y-38707200D01*
X75776190Y-38707200D02*
X75680952Y-38754819D01*
X75680952Y-38754819D02*
X75538095Y-38754819D01*
X76300000Y-38088152D02*
X76300000Y-39088152D01*
X76300000Y-38135771D02*
X76395238Y-38088152D01*
X76395238Y-38088152D02*
X76585714Y-38088152D01*
X76585714Y-38088152D02*
X76680952Y-38135771D01*
X76680952Y-38135771D02*
X76728571Y-38183390D01*
X76728571Y-38183390D02*
X76776190Y-38278628D01*
X76776190Y-38278628D02*
X76776190Y-38564342D01*
X76776190Y-38564342D02*
X76728571Y-38659580D01*
X76728571Y-38659580D02*
X76680952Y-38707200D01*
X76680952Y-38707200D02*
X76585714Y-38754819D01*
X76585714Y-38754819D02*
X76395238Y-38754819D01*
X76395238Y-38754819D02*
X76300000Y-38707200D01*
X77585714Y-38707200D02*
X77490476Y-38754819D01*
X77490476Y-38754819D02*
X77300000Y-38754819D01*
X77300000Y-38754819D02*
X77204762Y-38707200D01*
X77204762Y-38707200D02*
X77157143Y-38611961D01*
X77157143Y-38611961D02*
X77157143Y-38231009D01*
X77157143Y-38231009D02*
X77204762Y-38135771D01*
X77204762Y-38135771D02*
X77300000Y-38088152D01*
X77300000Y-38088152D02*
X77490476Y-38088152D01*
X77490476Y-38088152D02*
X77585714Y-38135771D01*
X77585714Y-38135771D02*
X77633333Y-38231009D01*
X77633333Y-38231009D02*
X77633333Y-38326247D01*
X77633333Y-38326247D02*
X77157143Y-38421485D01*
X78585714Y-38754819D02*
X78014286Y-38754819D01*
X78300000Y-38754819D02*
X78300000Y-37754819D01*
X78300000Y-37754819D02*
X78204762Y-37897676D01*
X78204762Y-37897676D02*
X78109524Y-37992914D01*
X78109524Y-37992914D02*
X78014286Y-38040533D01*
D12*
X28792619Y-53953365D02*
X28732143Y-54013842D01*
X28732143Y-54013842D02*
X28550714Y-54074318D01*
X28550714Y-54074318D02*
X28429762Y-54074318D01*
X28429762Y-54074318D02*
X28248333Y-54013842D01*
X28248333Y-54013842D02*
X28127381Y-53892889D01*
X28127381Y-53892889D02*
X28066904Y-53771937D01*
X28066904Y-53771937D02*
X28006428Y-53530032D01*
X28006428Y-53530032D02*
X28006428Y-53348603D01*
X28006428Y-53348603D02*
X28066904Y-53106699D01*
X28066904Y-53106699D02*
X28127381Y-52985746D01*
X28127381Y-52985746D02*
X28248333Y-52864794D01*
X28248333Y-52864794D02*
X28429762Y-52804318D01*
X28429762Y-52804318D02*
X28550714Y-52804318D01*
X28550714Y-52804318D02*
X28732143Y-52864794D01*
X28732143Y-52864794D02*
X28792619Y-52925270D01*
X29336904Y-54074318D02*
X29336904Y-52804318D01*
X29336904Y-53288127D02*
X29457857Y-53227651D01*
X29457857Y-53227651D02*
X29699762Y-53227651D01*
X29699762Y-53227651D02*
X29820714Y-53288127D01*
X29820714Y-53288127D02*
X29881190Y-53348603D01*
X29881190Y-53348603D02*
X29941666Y-53469556D01*
X29941666Y-53469556D02*
X29941666Y-53832413D01*
X29941666Y-53832413D02*
X29881190Y-53953365D01*
X29881190Y-53953365D02*
X29820714Y-54013842D01*
X29820714Y-54013842D02*
X29699762Y-54074318D01*
X29699762Y-54074318D02*
X29457857Y-54074318D01*
X29457857Y-54074318D02*
X29336904Y-54013842D01*
X31030238Y-53227651D02*
X31030238Y-54074318D01*
X30485952Y-53227651D02*
X30485952Y-53892889D01*
X30485952Y-53892889D02*
X30546429Y-54013842D01*
X30546429Y-54013842D02*
X30667381Y-54074318D01*
X30667381Y-54074318D02*
X30848810Y-54074318D01*
X30848810Y-54074318D02*
X30969762Y-54013842D01*
X30969762Y-54013842D02*
X31030238Y-53953365D01*
X31816429Y-54074318D02*
X31695477Y-54013842D01*
X31695477Y-54013842D02*
X31635000Y-53892889D01*
X31635000Y-53892889D02*
X31635000Y-52804318D01*
X32300238Y-54074318D02*
X32300238Y-52804318D01*
X32421191Y-53590508D02*
X32784048Y-54074318D01*
X32784048Y-53227651D02*
X32300238Y-53711461D01*
X33993572Y-54074318D02*
X33267857Y-54074318D01*
X33630714Y-54074318D02*
X33630714Y-52804318D01*
X33630714Y-52804318D02*
X33509762Y-52985746D01*
X33509762Y-52985746D02*
X33388810Y-53106699D01*
X33388810Y-53106699D02*
X33267857Y-53167175D01*
D11*
X68960476Y-70954819D02*
X68960476Y-69954819D01*
X68960476Y-69954819D02*
X69293809Y-70669104D01*
X69293809Y-70669104D02*
X69627142Y-69954819D01*
X69627142Y-69954819D02*
X69627142Y-70954819D01*
X70627142Y-70954819D02*
X70055714Y-70954819D01*
X70341428Y-70954819D02*
X70341428Y-69954819D01*
X70341428Y-69954819D02*
X70246190Y-70097676D01*
X70246190Y-70097676D02*
X70150952Y-70192914D01*
X70150952Y-70192914D02*
X70055714Y-70240533D01*
X130440180Y-61283695D02*
X130487800Y-61331314D01*
X130487800Y-61331314D02*
X130535419Y-61474171D01*
X130535419Y-61474171D02*
X130535419Y-61569409D01*
X130535419Y-61569409D02*
X130487800Y-61712266D01*
X130487800Y-61712266D02*
X130392561Y-61807504D01*
X130392561Y-61807504D02*
X130297323Y-61855123D01*
X130297323Y-61855123D02*
X130106847Y-61902742D01*
X130106847Y-61902742D02*
X129963990Y-61902742D01*
X129963990Y-61902742D02*
X129773514Y-61855123D01*
X129773514Y-61855123D02*
X129678276Y-61807504D01*
X129678276Y-61807504D02*
X129583038Y-61712266D01*
X129583038Y-61712266D02*
X129535419Y-61569409D01*
X129535419Y-61569409D02*
X129535419Y-61474171D01*
X129535419Y-61474171D02*
X129583038Y-61331314D01*
X129583038Y-61331314D02*
X129630657Y-61283695D01*
X130535419Y-60712266D02*
X130487800Y-60807504D01*
X130487800Y-60807504D02*
X130440180Y-60855123D01*
X130440180Y-60855123D02*
X130344942Y-60902742D01*
X130344942Y-60902742D02*
X130059228Y-60902742D01*
X130059228Y-60902742D02*
X129963990Y-60855123D01*
X129963990Y-60855123D02*
X129916371Y-60807504D01*
X129916371Y-60807504D02*
X129868752Y-60712266D01*
X129868752Y-60712266D02*
X129868752Y-60569409D01*
X129868752Y-60569409D02*
X129916371Y-60474171D01*
X129916371Y-60474171D02*
X129963990Y-60426552D01*
X129963990Y-60426552D02*
X130059228Y-60378933D01*
X130059228Y-60378933D02*
X130344942Y-60378933D01*
X130344942Y-60378933D02*
X130440180Y-60426552D01*
X130440180Y-60426552D02*
X130487800Y-60474171D01*
X130487800Y-60474171D02*
X130535419Y-60569409D01*
X130535419Y-60569409D02*
X130535419Y-60712266D01*
X129868752Y-59521790D02*
X130535419Y-59521790D01*
X129868752Y-59950361D02*
X130392561Y-59950361D01*
X130392561Y-59950361D02*
X130487800Y-59902742D01*
X130487800Y-59902742D02*
X130535419Y-59807504D01*
X130535419Y-59807504D02*
X130535419Y-59664647D01*
X130535419Y-59664647D02*
X130487800Y-59569409D01*
X130487800Y-59569409D02*
X130440180Y-59521790D01*
X129868752Y-59188456D02*
X129868752Y-58807504D01*
X129535419Y-59045599D02*
X130392561Y-59045599D01*
X130392561Y-59045599D02*
X130487800Y-58997980D01*
X130487800Y-58997980D02*
X130535419Y-58902742D01*
X130535419Y-58902742D02*
X130535419Y-58807504D01*
X130630657Y-58712266D02*
X130630657Y-57950361D01*
X129535419Y-57807503D02*
X129535419Y-57188456D01*
X129535419Y-57188456D02*
X129916371Y-57521789D01*
X129916371Y-57521789D02*
X129916371Y-57378932D01*
X129916371Y-57378932D02*
X129963990Y-57283694D01*
X129963990Y-57283694D02*
X130011609Y-57236075D01*
X130011609Y-57236075D02*
X130106847Y-57188456D01*
X130106847Y-57188456D02*
X130344942Y-57188456D01*
X130344942Y-57188456D02*
X130440180Y-57236075D01*
X130440180Y-57236075D02*
X130487800Y-57283694D01*
X130487800Y-57283694D02*
X130535419Y-57378932D01*
X130535419Y-57378932D02*
X130535419Y-57664646D01*
X130535419Y-57664646D02*
X130487800Y-57759884D01*
X130487800Y-57759884D02*
X130440180Y-57807503D01*
X153703809Y-81315179D02*
X154703809Y-80981846D01*
X154703809Y-80981846D02*
X153703809Y-80648513D01*
X154703809Y-80172322D02*
X154656190Y-80267560D01*
X154656190Y-80267560D02*
X154608570Y-80315179D01*
X154608570Y-80315179D02*
X154513332Y-80362798D01*
X154513332Y-80362798D02*
X154227618Y-80362798D01*
X154227618Y-80362798D02*
X154132380Y-80315179D01*
X154132380Y-80315179D02*
X154084761Y-80267560D01*
X154084761Y-80267560D02*
X154037142Y-80172322D01*
X154037142Y-80172322D02*
X154037142Y-80029465D01*
X154037142Y-80029465D02*
X154084761Y-79934227D01*
X154084761Y-79934227D02*
X154132380Y-79886608D01*
X154132380Y-79886608D02*
X154227618Y-79838989D01*
X154227618Y-79838989D02*
X154513332Y-79838989D01*
X154513332Y-79838989D02*
X154608570Y-79886608D01*
X154608570Y-79886608D02*
X154656190Y-79934227D01*
X154656190Y-79934227D02*
X154703809Y-80029465D01*
X154703809Y-80029465D02*
X154703809Y-80172322D01*
X154037142Y-78981846D02*
X154703809Y-78981846D01*
X154037142Y-79410417D02*
X154560951Y-79410417D01*
X154560951Y-79410417D02*
X154656190Y-79362798D01*
X154656190Y-79362798D02*
X154703809Y-79267560D01*
X154703809Y-79267560D02*
X154703809Y-79124703D01*
X154703809Y-79124703D02*
X154656190Y-79029465D01*
X154656190Y-79029465D02*
X154608570Y-78981846D01*
X154037142Y-78648512D02*
X154037142Y-78267560D01*
X153703809Y-78505655D02*
X154560951Y-78505655D01*
X154560951Y-78505655D02*
X154656190Y-78458036D01*
X154656190Y-78458036D02*
X154703809Y-78362798D01*
X154703809Y-78362798D02*
X154703809Y-78267560D01*
X155084761Y-76886607D02*
X155037142Y-76934226D01*
X155037142Y-76934226D02*
X154894285Y-77029464D01*
X154894285Y-77029464D02*
X154799047Y-77077083D01*
X154799047Y-77077083D02*
X154656190Y-77124702D01*
X154656190Y-77124702D02*
X154418094Y-77172321D01*
X154418094Y-77172321D02*
X154227618Y-77172321D01*
X154227618Y-77172321D02*
X153989523Y-77124702D01*
X153989523Y-77124702D02*
X153846666Y-77077083D01*
X153846666Y-77077083D02*
X153751428Y-77029464D01*
X153751428Y-77029464D02*
X153608570Y-76934226D01*
X153608570Y-76934226D02*
X153560951Y-76886607D01*
X153799047Y-76553273D02*
X153751428Y-76505654D01*
X153751428Y-76505654D02*
X153703809Y-76410416D01*
X153703809Y-76410416D02*
X153703809Y-76172321D01*
X153703809Y-76172321D02*
X153751428Y-76077083D01*
X153751428Y-76077083D02*
X153799047Y-76029464D01*
X153799047Y-76029464D02*
X153894285Y-75981845D01*
X153894285Y-75981845D02*
X153989523Y-75981845D01*
X153989523Y-75981845D02*
X154132380Y-76029464D01*
X154132380Y-76029464D02*
X154703809Y-76600892D01*
X154703809Y-76600892D02*
X154703809Y-75981845D01*
X154037142Y-75124702D02*
X154703809Y-75124702D01*
X153656190Y-75362797D02*
X154370475Y-75600892D01*
X154370475Y-75600892D02*
X154370475Y-74981845D01*
X153703809Y-74743749D02*
X154703809Y-74410416D01*
X154703809Y-74410416D02*
X153703809Y-74077083D01*
X155084761Y-73838987D02*
X155037142Y-73791368D01*
X155037142Y-73791368D02*
X154894285Y-73696130D01*
X154894285Y-73696130D02*
X154799047Y-73648511D01*
X154799047Y-73648511D02*
X154656190Y-73600892D01*
X154656190Y-73600892D02*
X154418094Y-73553273D01*
X154418094Y-73553273D02*
X154227618Y-73553273D01*
X154227618Y-73553273D02*
X153989523Y-73600892D01*
X153989523Y-73600892D02*
X153846666Y-73648511D01*
X153846666Y-73648511D02*
X153751428Y-73696130D01*
X153751428Y-73696130D02*
X153608570Y-73791368D01*
X153608570Y-73791368D02*
X153560951Y-73838987D01*
X99797618Y-54454819D02*
X99464285Y-53978628D01*
X99226190Y-54454819D02*
X99226190Y-53454819D01*
X99226190Y-53454819D02*
X99607142Y-53454819D01*
X99607142Y-53454819D02*
X99702380Y-53502438D01*
X99702380Y-53502438D02*
X99749999Y-53550057D01*
X99749999Y-53550057D02*
X99797618Y-53645295D01*
X99797618Y-53645295D02*
X99797618Y-53788152D01*
X99797618Y-53788152D02*
X99749999Y-53883390D01*
X99749999Y-53883390D02*
X99702380Y-53931009D01*
X99702380Y-53931009D02*
X99607142Y-53978628D01*
X99607142Y-53978628D02*
X99226190Y-53978628D01*
X100654761Y-54407200D02*
X100559523Y-54454819D01*
X100559523Y-54454819D02*
X100369047Y-54454819D01*
X100369047Y-54454819D02*
X100273809Y-54407200D01*
X100273809Y-54407200D02*
X100226190Y-54359580D01*
X100226190Y-54359580D02*
X100178571Y-54264342D01*
X100178571Y-54264342D02*
X100178571Y-53978628D01*
X100178571Y-53978628D02*
X100226190Y-53883390D01*
X100226190Y-53883390D02*
X100273809Y-53835771D01*
X100273809Y-53835771D02*
X100369047Y-53788152D01*
X100369047Y-53788152D02*
X100559523Y-53788152D01*
X100559523Y-53788152D02*
X100654761Y-53835771D01*
X101035714Y-54407200D02*
X101130952Y-54454819D01*
X101130952Y-54454819D02*
X101321428Y-54454819D01*
X101321428Y-54454819D02*
X101416666Y-54407200D01*
X101416666Y-54407200D02*
X101464285Y-54311961D01*
X101464285Y-54311961D02*
X101464285Y-54264342D01*
X101464285Y-54264342D02*
X101416666Y-54169104D01*
X101416666Y-54169104D02*
X101321428Y-54121485D01*
X101321428Y-54121485D02*
X101178571Y-54121485D01*
X101178571Y-54121485D02*
X101083333Y-54073866D01*
X101083333Y-54073866D02*
X101035714Y-53978628D01*
X101035714Y-53978628D02*
X101035714Y-53931009D01*
X101035714Y-53931009D02*
X101083333Y-53835771D01*
X101083333Y-53835771D02*
X101178571Y-53788152D01*
X101178571Y-53788152D02*
X101321428Y-53788152D01*
X101321428Y-53788152D02*
X101416666Y-53835771D01*
X101892857Y-53788152D02*
X101892857Y-54788152D01*
X101892857Y-53835771D02*
X101988095Y-53788152D01*
X101988095Y-53788152D02*
X102178571Y-53788152D01*
X102178571Y-53788152D02*
X102273809Y-53835771D01*
X102273809Y-53835771D02*
X102321428Y-53883390D01*
X102321428Y-53883390D02*
X102369047Y-53978628D01*
X102369047Y-53978628D02*
X102369047Y-54264342D01*
X102369047Y-54264342D02*
X102321428Y-54359580D01*
X102321428Y-54359580D02*
X102273809Y-54407200D01*
X102273809Y-54407200D02*
X102178571Y-54454819D01*
X102178571Y-54454819D02*
X101988095Y-54454819D01*
X101988095Y-54454819D02*
X101892857Y-54407200D01*
X103321428Y-54454819D02*
X102750000Y-54454819D01*
X103035714Y-54454819D02*
X103035714Y-53454819D01*
X103035714Y-53454819D02*
X102940476Y-53597676D01*
X102940476Y-53597676D02*
X102845238Y-53692914D01*
X102845238Y-53692914D02*
X102750000Y-53740533D01*
X101535714Y-34929580D02*
X101488095Y-34977200D01*
X101488095Y-34977200D02*
X101345238Y-35024819D01*
X101345238Y-35024819D02*
X101250000Y-35024819D01*
X101250000Y-35024819D02*
X101107143Y-34977200D01*
X101107143Y-34977200D02*
X101011905Y-34881961D01*
X101011905Y-34881961D02*
X100964286Y-34786723D01*
X100964286Y-34786723D02*
X100916667Y-34596247D01*
X100916667Y-34596247D02*
X100916667Y-34453390D01*
X100916667Y-34453390D02*
X100964286Y-34262914D01*
X100964286Y-34262914D02*
X101011905Y-34167676D01*
X101011905Y-34167676D02*
X101107143Y-34072438D01*
X101107143Y-34072438D02*
X101250000Y-34024819D01*
X101250000Y-34024819D02*
X101345238Y-34024819D01*
X101345238Y-34024819D02*
X101488095Y-34072438D01*
X101488095Y-34072438D02*
X101535714Y-34120057D01*
X101964286Y-35024819D02*
X101964286Y-34024819D01*
X101964286Y-34405771D02*
X102059524Y-34358152D01*
X102059524Y-34358152D02*
X102250000Y-34358152D01*
X102250000Y-34358152D02*
X102345238Y-34405771D01*
X102345238Y-34405771D02*
X102392857Y-34453390D01*
X102392857Y-34453390D02*
X102440476Y-34548628D01*
X102440476Y-34548628D02*
X102440476Y-34834342D01*
X102440476Y-34834342D02*
X102392857Y-34929580D01*
X102392857Y-34929580D02*
X102345238Y-34977200D01*
X102345238Y-34977200D02*
X102250000Y-35024819D01*
X102250000Y-35024819D02*
X102059524Y-35024819D01*
X102059524Y-35024819D02*
X101964286Y-34977200D01*
X102869048Y-35024819D02*
X102869048Y-34358152D01*
X102869048Y-34024819D02*
X102821429Y-34072438D01*
X102821429Y-34072438D02*
X102869048Y-34120057D01*
X102869048Y-34120057D02*
X102916667Y-34072438D01*
X102916667Y-34072438D02*
X102869048Y-34024819D01*
X102869048Y-34024819D02*
X102869048Y-34120057D01*
X103773809Y-35024819D02*
X103773809Y-34501009D01*
X103773809Y-34501009D02*
X103726190Y-34405771D01*
X103726190Y-34405771D02*
X103630952Y-34358152D01*
X103630952Y-34358152D02*
X103440476Y-34358152D01*
X103440476Y-34358152D02*
X103345238Y-34405771D01*
X103773809Y-34977200D02*
X103678571Y-35024819D01*
X103678571Y-35024819D02*
X103440476Y-35024819D01*
X103440476Y-35024819D02*
X103345238Y-34977200D01*
X103345238Y-34977200D02*
X103297619Y-34881961D01*
X103297619Y-34881961D02*
X103297619Y-34786723D01*
X103297619Y-34786723D02*
X103345238Y-34691485D01*
X103345238Y-34691485D02*
X103440476Y-34643866D01*
X103440476Y-34643866D02*
X103678571Y-34643866D01*
X103678571Y-34643866D02*
X103773809Y-34596247D01*
X104202381Y-34977200D02*
X104297619Y-35024819D01*
X104297619Y-35024819D02*
X104488095Y-35024819D01*
X104488095Y-35024819D02*
X104583333Y-34977200D01*
X104583333Y-34977200D02*
X104630952Y-34881961D01*
X104630952Y-34881961D02*
X104630952Y-34834342D01*
X104630952Y-34834342D02*
X104583333Y-34739104D01*
X104583333Y-34739104D02*
X104488095Y-34691485D01*
X104488095Y-34691485D02*
X104345238Y-34691485D01*
X104345238Y-34691485D02*
X104250000Y-34643866D01*
X104250000Y-34643866D02*
X104202381Y-34548628D01*
X104202381Y-34548628D02*
X104202381Y-34501009D01*
X104202381Y-34501009D02*
X104250000Y-34405771D01*
X104250000Y-34405771D02*
X104345238Y-34358152D01*
X104345238Y-34358152D02*
X104488095Y-34358152D01*
X104488095Y-34358152D02*
X104583333Y-34405771D01*
X105583333Y-35024819D02*
X105011905Y-35024819D01*
X105297619Y-35024819D02*
X105297619Y-34024819D01*
X105297619Y-34024819D02*
X105202381Y-34167676D01*
X105202381Y-34167676D02*
X105107143Y-34262914D01*
X105107143Y-34262914D02*
X105011905Y-34310533D01*
X84201785Y-31454819D02*
X83868452Y-30978628D01*
X83630357Y-31454819D02*
X83630357Y-30454819D01*
X83630357Y-30454819D02*
X84011309Y-30454819D01*
X84011309Y-30454819D02*
X84106547Y-30502438D01*
X84106547Y-30502438D02*
X84154166Y-30550057D01*
X84154166Y-30550057D02*
X84201785Y-30645295D01*
X84201785Y-30645295D02*
X84201785Y-30788152D01*
X84201785Y-30788152D02*
X84154166Y-30883390D01*
X84154166Y-30883390D02*
X84106547Y-30931009D01*
X84106547Y-30931009D02*
X84011309Y-30978628D01*
X84011309Y-30978628D02*
X83630357Y-30978628D01*
X85058928Y-30788152D02*
X85058928Y-31454819D01*
X84630357Y-30788152D02*
X84630357Y-31311961D01*
X84630357Y-31311961D02*
X84677976Y-31407200D01*
X84677976Y-31407200D02*
X84773214Y-31454819D01*
X84773214Y-31454819D02*
X84916071Y-31454819D01*
X84916071Y-31454819D02*
X85011309Y-31407200D01*
X85011309Y-31407200D02*
X85058928Y-31359580D01*
X85439881Y-30788152D02*
X85677976Y-31454819D01*
X85677976Y-31454819D02*
X85916071Y-30788152D01*
X86154167Y-30788152D02*
X86535119Y-30788152D01*
X86297024Y-30454819D02*
X86297024Y-31311961D01*
X86297024Y-31311961D02*
X86344643Y-31407200D01*
X86344643Y-31407200D02*
X86439881Y-31454819D01*
X86439881Y-31454819D02*
X86535119Y-31454819D01*
X87392262Y-31454819D02*
X86820834Y-31454819D01*
X87106548Y-31454819D02*
X87106548Y-30454819D01*
X87106548Y-30454819D02*
X87011310Y-30597676D01*
X87011310Y-30597676D02*
X86916072Y-30692914D01*
X86916072Y-30692914D02*
X86820834Y-30740533D01*
X97295180Y-57714285D02*
X97771371Y-57380952D01*
X97295180Y-57142857D02*
X98295180Y-57142857D01*
X98295180Y-57142857D02*
X98295180Y-57523809D01*
X98295180Y-57523809D02*
X98247561Y-57619047D01*
X98247561Y-57619047D02*
X98199942Y-57666666D01*
X98199942Y-57666666D02*
X98104704Y-57714285D01*
X98104704Y-57714285D02*
X97961847Y-57714285D01*
X97961847Y-57714285D02*
X97866609Y-57666666D01*
X97866609Y-57666666D02*
X97818990Y-57619047D01*
X97818990Y-57619047D02*
X97771371Y-57523809D01*
X97771371Y-57523809D02*
X97771371Y-57142857D01*
X97342800Y-58095238D02*
X97295180Y-58190476D01*
X97295180Y-58190476D02*
X97295180Y-58380952D01*
X97295180Y-58380952D02*
X97342800Y-58476190D01*
X97342800Y-58476190D02*
X97438038Y-58523809D01*
X97438038Y-58523809D02*
X97485657Y-58523809D01*
X97485657Y-58523809D02*
X97580895Y-58476190D01*
X97580895Y-58476190D02*
X97628514Y-58380952D01*
X97628514Y-58380952D02*
X97628514Y-58238095D01*
X97628514Y-58238095D02*
X97676133Y-58142857D01*
X97676133Y-58142857D02*
X97771371Y-58095238D01*
X97771371Y-58095238D02*
X97818990Y-58095238D01*
X97818990Y-58095238D02*
X97914228Y-58142857D01*
X97914228Y-58142857D02*
X97961847Y-58238095D01*
X97961847Y-58238095D02*
X97961847Y-58380952D01*
X97961847Y-58380952D02*
X97914228Y-58476190D01*
X97342800Y-59333333D02*
X97295180Y-59238095D01*
X97295180Y-59238095D02*
X97295180Y-59047619D01*
X97295180Y-59047619D02*
X97342800Y-58952381D01*
X97342800Y-58952381D02*
X97438038Y-58904762D01*
X97438038Y-58904762D02*
X97818990Y-58904762D01*
X97818990Y-58904762D02*
X97914228Y-58952381D01*
X97914228Y-58952381D02*
X97961847Y-59047619D01*
X97961847Y-59047619D02*
X97961847Y-59238095D01*
X97961847Y-59238095D02*
X97914228Y-59333333D01*
X97914228Y-59333333D02*
X97818990Y-59380952D01*
X97818990Y-59380952D02*
X97723752Y-59380952D01*
X97723752Y-59380952D02*
X97628514Y-58904762D01*
X97961847Y-59809524D02*
X97295180Y-59809524D01*
X97866609Y-59809524D02*
X97914228Y-59857143D01*
X97914228Y-59857143D02*
X97961847Y-59952381D01*
X97961847Y-59952381D02*
X97961847Y-60095238D01*
X97961847Y-60095238D02*
X97914228Y-60190476D01*
X97914228Y-60190476D02*
X97818990Y-60238095D01*
X97818990Y-60238095D02*
X97295180Y-60238095D01*
X97342800Y-60666667D02*
X97295180Y-60761905D01*
X97295180Y-60761905D02*
X97295180Y-60952381D01*
X97295180Y-60952381D02*
X97342800Y-61047619D01*
X97342800Y-61047619D02*
X97438038Y-61095238D01*
X97438038Y-61095238D02*
X97485657Y-61095238D01*
X97485657Y-61095238D02*
X97580895Y-61047619D01*
X97580895Y-61047619D02*
X97628514Y-60952381D01*
X97628514Y-60952381D02*
X97628514Y-60809524D01*
X97628514Y-60809524D02*
X97676133Y-60714286D01*
X97676133Y-60714286D02*
X97771371Y-60666667D01*
X97771371Y-60666667D02*
X97818990Y-60666667D01*
X97818990Y-60666667D02*
X97914228Y-60714286D01*
X97914228Y-60714286D02*
X97961847Y-60809524D01*
X97961847Y-60809524D02*
X97961847Y-60952381D01*
X97961847Y-60952381D02*
X97914228Y-61047619D01*
X97342800Y-61904762D02*
X97295180Y-61809524D01*
X97295180Y-61809524D02*
X97295180Y-61619048D01*
X97295180Y-61619048D02*
X97342800Y-61523810D01*
X97342800Y-61523810D02*
X97438038Y-61476191D01*
X97438038Y-61476191D02*
X97818990Y-61476191D01*
X97818990Y-61476191D02*
X97914228Y-61523810D01*
X97914228Y-61523810D02*
X97961847Y-61619048D01*
X97961847Y-61619048D02*
X97961847Y-61809524D01*
X97961847Y-61809524D02*
X97914228Y-61904762D01*
X97914228Y-61904762D02*
X97818990Y-61952381D01*
X97818990Y-61952381D02*
X97723752Y-61952381D01*
X97723752Y-61952381D02*
X97628514Y-61476191D01*
X97295180Y-62904762D02*
X97295180Y-62333334D01*
X97295180Y-62619048D02*
X98295180Y-62619048D01*
X98295180Y-62619048D02*
X98152323Y-62523810D01*
X98152323Y-62523810D02*
X98057085Y-62428572D01*
X98057085Y-62428572D02*
X98009466Y-62333334D01*
X49261904Y-53859580D02*
X49214285Y-53907200D01*
X49214285Y-53907200D02*
X49071428Y-53954819D01*
X49071428Y-53954819D02*
X48976190Y-53954819D01*
X48976190Y-53954819D02*
X48833333Y-53907200D01*
X48833333Y-53907200D02*
X48738095Y-53811961D01*
X48738095Y-53811961D02*
X48690476Y-53716723D01*
X48690476Y-53716723D02*
X48642857Y-53526247D01*
X48642857Y-53526247D02*
X48642857Y-53383390D01*
X48642857Y-53383390D02*
X48690476Y-53192914D01*
X48690476Y-53192914D02*
X48738095Y-53097676D01*
X48738095Y-53097676D02*
X48833333Y-53002438D01*
X48833333Y-53002438D02*
X48976190Y-52954819D01*
X48976190Y-52954819D02*
X49071428Y-52954819D01*
X49071428Y-52954819D02*
X49214285Y-53002438D01*
X49214285Y-53002438D02*
X49261904Y-53050057D01*
X49690476Y-53954819D02*
X49690476Y-53288152D01*
X49690476Y-52954819D02*
X49642857Y-53002438D01*
X49642857Y-53002438D02*
X49690476Y-53050057D01*
X49690476Y-53050057D02*
X49738095Y-53002438D01*
X49738095Y-53002438D02*
X49690476Y-52954819D01*
X49690476Y-52954819D02*
X49690476Y-53050057D01*
X50166666Y-53288152D02*
X50166666Y-53954819D01*
X50166666Y-53383390D02*
X50214285Y-53335771D01*
X50214285Y-53335771D02*
X50309523Y-53288152D01*
X50309523Y-53288152D02*
X50452380Y-53288152D01*
X50452380Y-53288152D02*
X50547618Y-53335771D01*
X50547618Y-53335771D02*
X50595237Y-53431009D01*
X50595237Y-53431009D02*
X50595237Y-53954819D01*
X50833333Y-54050057D02*
X51595237Y-54050057D01*
X51785714Y-53050057D02*
X51833333Y-53002438D01*
X51833333Y-53002438D02*
X51928571Y-52954819D01*
X51928571Y-52954819D02*
X52166666Y-52954819D01*
X52166666Y-52954819D02*
X52261904Y-53002438D01*
X52261904Y-53002438D02*
X52309523Y-53050057D01*
X52309523Y-53050057D02*
X52357142Y-53145295D01*
X52357142Y-53145295D02*
X52357142Y-53240533D01*
X52357142Y-53240533D02*
X52309523Y-53383390D01*
X52309523Y-53383390D02*
X51738095Y-53954819D01*
X51738095Y-53954819D02*
X52357142Y-53954819D01*
X122976190Y-79456819D02*
X123309523Y-80456819D01*
X123309523Y-80456819D02*
X123642856Y-79456819D01*
X124119047Y-80456819D02*
X124023809Y-80409200D01*
X124023809Y-80409200D02*
X123976190Y-80361580D01*
X123976190Y-80361580D02*
X123928571Y-80266342D01*
X123928571Y-80266342D02*
X123928571Y-79980628D01*
X123928571Y-79980628D02*
X123976190Y-79885390D01*
X123976190Y-79885390D02*
X124023809Y-79837771D01*
X124023809Y-79837771D02*
X124119047Y-79790152D01*
X124119047Y-79790152D02*
X124261904Y-79790152D01*
X124261904Y-79790152D02*
X124357142Y-79837771D01*
X124357142Y-79837771D02*
X124404761Y-79885390D01*
X124404761Y-79885390D02*
X124452380Y-79980628D01*
X124452380Y-79980628D02*
X124452380Y-80266342D01*
X124452380Y-80266342D02*
X124404761Y-80361580D01*
X124404761Y-80361580D02*
X124357142Y-80409200D01*
X124357142Y-80409200D02*
X124261904Y-80456819D01*
X124261904Y-80456819D02*
X124119047Y-80456819D01*
X125309523Y-79790152D02*
X125309523Y-80456819D01*
X124880952Y-79790152D02*
X124880952Y-80313961D01*
X124880952Y-80313961D02*
X124928571Y-80409200D01*
X124928571Y-80409200D02*
X125023809Y-80456819D01*
X125023809Y-80456819D02*
X125166666Y-80456819D01*
X125166666Y-80456819D02*
X125261904Y-80409200D01*
X125261904Y-80409200D02*
X125309523Y-80361580D01*
X125642857Y-79790152D02*
X126023809Y-79790152D01*
X125785714Y-79456819D02*
X125785714Y-80313961D01*
X125785714Y-80313961D02*
X125833333Y-80409200D01*
X125833333Y-80409200D02*
X125928571Y-80456819D01*
X125928571Y-80456819D02*
X126023809Y-80456819D01*
X112833333Y-71454819D02*
X112833333Y-70454819D01*
X112833333Y-70454819D02*
X113166666Y-71169104D01*
X113166666Y-71169104D02*
X113499999Y-70454819D01*
X113499999Y-70454819D02*
X113499999Y-71454819D01*
X113880952Y-70454819D02*
X114499999Y-70454819D01*
X114499999Y-70454819D02*
X114166666Y-70835771D01*
X114166666Y-70835771D02*
X114309523Y-70835771D01*
X114309523Y-70835771D02*
X114404761Y-70883390D01*
X114404761Y-70883390D02*
X114452380Y-70931009D01*
X114452380Y-70931009D02*
X114499999Y-71026247D01*
X114499999Y-71026247D02*
X114499999Y-71264342D01*
X114499999Y-71264342D02*
X114452380Y-71359580D01*
X114452380Y-71359580D02*
X114404761Y-71407200D01*
X114404761Y-71407200D02*
X114309523Y-71454819D01*
X114309523Y-71454819D02*
X114023809Y-71454819D01*
X114023809Y-71454819D02*
X113928571Y-71407200D01*
X113928571Y-71407200D02*
X113880952Y-71359580D01*
X114690476Y-71550057D02*
X115452380Y-71550057D01*
X115642857Y-70550057D02*
X115690476Y-70502438D01*
X115690476Y-70502438D02*
X115785714Y-70454819D01*
X115785714Y-70454819D02*
X116023809Y-70454819D01*
X116023809Y-70454819D02*
X116119047Y-70502438D01*
X116119047Y-70502438D02*
X116166666Y-70550057D01*
X116166666Y-70550057D02*
X116214285Y-70645295D01*
X116214285Y-70645295D02*
X116214285Y-70740533D01*
X116214285Y-70740533D02*
X116166666Y-70883390D01*
X116166666Y-70883390D02*
X115595238Y-71454819D01*
X115595238Y-71454819D02*
X116214285Y-71454819D01*
X78242856Y-50584819D02*
X77909523Y-50108628D01*
X77671428Y-50584819D02*
X77671428Y-49584819D01*
X77671428Y-49584819D02*
X78052380Y-49584819D01*
X78052380Y-49584819D02*
X78147618Y-49632438D01*
X78147618Y-49632438D02*
X78195237Y-49680057D01*
X78195237Y-49680057D02*
X78242856Y-49775295D01*
X78242856Y-49775295D02*
X78242856Y-49918152D01*
X78242856Y-49918152D02*
X78195237Y-50013390D01*
X78195237Y-50013390D02*
X78147618Y-50061009D01*
X78147618Y-50061009D02*
X78052380Y-50108628D01*
X78052380Y-50108628D02*
X77671428Y-50108628D01*
X78528571Y-49918152D02*
X78909523Y-49918152D01*
X78671428Y-50584819D02*
X78671428Y-49727676D01*
X78671428Y-49727676D02*
X78719047Y-49632438D01*
X78719047Y-49632438D02*
X78814285Y-49584819D01*
X78814285Y-49584819D02*
X78909523Y-49584819D01*
X79242857Y-50584819D02*
X79242857Y-49584819D01*
X79242857Y-49965771D02*
X79338095Y-49918152D01*
X79338095Y-49918152D02*
X79528571Y-49918152D01*
X79528571Y-49918152D02*
X79623809Y-49965771D01*
X79623809Y-49965771D02*
X79671428Y-50013390D01*
X79671428Y-50013390D02*
X79719047Y-50108628D01*
X79719047Y-50108628D02*
X79719047Y-50394342D01*
X79719047Y-50394342D02*
X79671428Y-50489580D01*
X79671428Y-50489580D02*
X79623809Y-50537200D01*
X79623809Y-50537200D02*
X79528571Y-50584819D01*
X79528571Y-50584819D02*
X79338095Y-50584819D01*
X79338095Y-50584819D02*
X79242857Y-50537200D01*
X80147619Y-50584819D02*
X80147619Y-49584819D01*
X80147619Y-49965771D02*
X80242857Y-49918152D01*
X80242857Y-49918152D02*
X80433333Y-49918152D01*
X80433333Y-49918152D02*
X80528571Y-49965771D01*
X80528571Y-49965771D02*
X80576190Y-50013390D01*
X80576190Y-50013390D02*
X80623809Y-50108628D01*
X80623809Y-50108628D02*
X80623809Y-50394342D01*
X80623809Y-50394342D02*
X80576190Y-50489580D01*
X80576190Y-50489580D02*
X80528571Y-50537200D01*
X80528571Y-50537200D02*
X80433333Y-50584819D01*
X80433333Y-50584819D02*
X80242857Y-50584819D01*
X80242857Y-50584819D02*
X80147619Y-50537200D01*
X81576190Y-50584819D02*
X81004762Y-50584819D01*
X81290476Y-50584819D02*
X81290476Y-49584819D01*
X81290476Y-49584819D02*
X81195238Y-49727676D01*
X81195238Y-49727676D02*
X81100000Y-49822914D01*
X81100000Y-49822914D02*
X81004762Y-49870533D01*
X102940475Y-37679580D02*
X102892856Y-37727200D01*
X102892856Y-37727200D02*
X102749999Y-37774819D01*
X102749999Y-37774819D02*
X102654761Y-37774819D01*
X102654761Y-37774819D02*
X102511904Y-37727200D01*
X102511904Y-37727200D02*
X102416666Y-37631961D01*
X102416666Y-37631961D02*
X102369047Y-37536723D01*
X102369047Y-37536723D02*
X102321428Y-37346247D01*
X102321428Y-37346247D02*
X102321428Y-37203390D01*
X102321428Y-37203390D02*
X102369047Y-37012914D01*
X102369047Y-37012914D02*
X102416666Y-36917676D01*
X102416666Y-36917676D02*
X102511904Y-36822438D01*
X102511904Y-36822438D02*
X102654761Y-36774819D01*
X102654761Y-36774819D02*
X102749999Y-36774819D01*
X102749999Y-36774819D02*
X102892856Y-36822438D01*
X102892856Y-36822438D02*
X102940475Y-36870057D01*
X103369047Y-37774819D02*
X103369047Y-36774819D01*
X103369047Y-37155771D02*
X103464285Y-37108152D01*
X103464285Y-37108152D02*
X103654761Y-37108152D01*
X103654761Y-37108152D02*
X103749999Y-37155771D01*
X103749999Y-37155771D02*
X103797618Y-37203390D01*
X103797618Y-37203390D02*
X103845237Y-37298628D01*
X103845237Y-37298628D02*
X103845237Y-37584342D01*
X103845237Y-37584342D02*
X103797618Y-37679580D01*
X103797618Y-37679580D02*
X103749999Y-37727200D01*
X103749999Y-37727200D02*
X103654761Y-37774819D01*
X103654761Y-37774819D02*
X103464285Y-37774819D01*
X103464285Y-37774819D02*
X103369047Y-37727200D01*
X104416666Y-37774819D02*
X104321428Y-37727200D01*
X104321428Y-37727200D02*
X104273809Y-37679580D01*
X104273809Y-37679580D02*
X104226190Y-37584342D01*
X104226190Y-37584342D02*
X104226190Y-37298628D01*
X104226190Y-37298628D02*
X104273809Y-37203390D01*
X104273809Y-37203390D02*
X104321428Y-37155771D01*
X104321428Y-37155771D02*
X104416666Y-37108152D01*
X104416666Y-37108152D02*
X104559523Y-37108152D01*
X104559523Y-37108152D02*
X104654761Y-37155771D01*
X104654761Y-37155771D02*
X104702380Y-37203390D01*
X104702380Y-37203390D02*
X104749999Y-37298628D01*
X104749999Y-37298628D02*
X104749999Y-37584342D01*
X104749999Y-37584342D02*
X104702380Y-37679580D01*
X104702380Y-37679580D02*
X104654761Y-37727200D01*
X104654761Y-37727200D02*
X104559523Y-37774819D01*
X104559523Y-37774819D02*
X104416666Y-37774819D01*
X105321428Y-37774819D02*
X105226190Y-37727200D01*
X105226190Y-37727200D02*
X105178571Y-37679580D01*
X105178571Y-37679580D02*
X105130952Y-37584342D01*
X105130952Y-37584342D02*
X105130952Y-37298628D01*
X105130952Y-37298628D02*
X105178571Y-37203390D01*
X105178571Y-37203390D02*
X105226190Y-37155771D01*
X105226190Y-37155771D02*
X105321428Y-37108152D01*
X105321428Y-37108152D02*
X105464285Y-37108152D01*
X105464285Y-37108152D02*
X105559523Y-37155771D01*
X105559523Y-37155771D02*
X105607142Y-37203390D01*
X105607142Y-37203390D02*
X105654761Y-37298628D01*
X105654761Y-37298628D02*
X105654761Y-37584342D01*
X105654761Y-37584342D02*
X105607142Y-37679580D01*
X105607142Y-37679580D02*
X105559523Y-37727200D01*
X105559523Y-37727200D02*
X105464285Y-37774819D01*
X105464285Y-37774819D02*
X105321428Y-37774819D01*
X105940476Y-37108152D02*
X106321428Y-37108152D01*
X106083333Y-36774819D02*
X106083333Y-37631961D01*
X106083333Y-37631961D02*
X106130952Y-37727200D01*
X106130952Y-37727200D02*
X106226190Y-37774819D01*
X106226190Y-37774819D02*
X106321428Y-37774819D01*
X106607143Y-36870057D02*
X106654762Y-36822438D01*
X106654762Y-36822438D02*
X106750000Y-36774819D01*
X106750000Y-36774819D02*
X106988095Y-36774819D01*
X106988095Y-36774819D02*
X107083333Y-36822438D01*
X107083333Y-36822438D02*
X107130952Y-36870057D01*
X107130952Y-36870057D02*
X107178571Y-36965295D01*
X107178571Y-36965295D02*
X107178571Y-37060533D01*
X107178571Y-37060533D02*
X107130952Y-37203390D01*
X107130952Y-37203390D02*
X106559524Y-37774819D01*
X106559524Y-37774819D02*
X107178571Y-37774819D01*
X93263094Y-40954818D02*
X93263094Y-41764341D01*
X93263094Y-41764341D02*
X93310713Y-41859579D01*
X93310713Y-41859579D02*
X93358332Y-41907199D01*
X93358332Y-41907199D02*
X93453570Y-41954818D01*
X93453570Y-41954818D02*
X93644046Y-41954818D01*
X93644046Y-41954818D02*
X93739284Y-41907199D01*
X93739284Y-41907199D02*
X93786903Y-41859579D01*
X93786903Y-41859579D02*
X93834522Y-41764341D01*
X93834522Y-41764341D02*
X93834522Y-40954818D01*
X94834522Y-41954818D02*
X94263094Y-41954818D01*
X94548808Y-41954818D02*
X94548808Y-40954818D01*
X94548808Y-40954818D02*
X94453570Y-41097675D01*
X94453570Y-41097675D02*
X94358332Y-41192913D01*
X94358332Y-41192913D02*
X94263094Y-41240532D01*
X90583333Y-47954819D02*
X90107143Y-47954819D01*
X90107143Y-47954819D02*
X90107143Y-46954819D01*
X90916667Y-47954819D02*
X90916667Y-46954819D01*
X90916667Y-46954819D02*
X91250000Y-47669104D01*
X91250000Y-47669104D02*
X91583333Y-46954819D01*
X91583333Y-46954819D02*
X91583333Y-47954819D01*
X92535714Y-46954819D02*
X92059524Y-46954819D01*
X92059524Y-46954819D02*
X92011905Y-47431009D01*
X92011905Y-47431009D02*
X92059524Y-47383390D01*
X92059524Y-47383390D02*
X92154762Y-47335771D01*
X92154762Y-47335771D02*
X92392857Y-47335771D01*
X92392857Y-47335771D02*
X92488095Y-47383390D01*
X92488095Y-47383390D02*
X92535714Y-47431009D01*
X92535714Y-47431009D02*
X92583333Y-47526247D01*
X92583333Y-47526247D02*
X92583333Y-47764342D01*
X92583333Y-47764342D02*
X92535714Y-47859580D01*
X92535714Y-47859580D02*
X92488095Y-47907200D01*
X92488095Y-47907200D02*
X92392857Y-47954819D01*
X92392857Y-47954819D02*
X92154762Y-47954819D01*
X92154762Y-47954819D02*
X92059524Y-47907200D01*
X92059524Y-47907200D02*
X92011905Y-47859580D01*
X93535714Y-47954819D02*
X92964286Y-47954819D01*
X93250000Y-47954819D02*
X93250000Y-46954819D01*
X93250000Y-46954819D02*
X93154762Y-47097676D01*
X93154762Y-47097676D02*
X93059524Y-47192914D01*
X93059524Y-47192914D02*
X92964286Y-47240533D01*
X93869048Y-46954819D02*
X94535714Y-46954819D01*
X94535714Y-46954819D02*
X94107143Y-47954819D01*
X95392857Y-46954819D02*
X94916667Y-46954819D01*
X94916667Y-46954819D02*
X94869048Y-47431009D01*
X94869048Y-47431009D02*
X94916667Y-47383390D01*
X94916667Y-47383390D02*
X95011905Y-47335771D01*
X95011905Y-47335771D02*
X95250000Y-47335771D01*
X95250000Y-47335771D02*
X95345238Y-47383390D01*
X95345238Y-47383390D02*
X95392857Y-47431009D01*
X95392857Y-47431009D02*
X95440476Y-47526247D01*
X95440476Y-47526247D02*
X95440476Y-47764342D01*
X95440476Y-47764342D02*
X95392857Y-47859580D01*
X95392857Y-47859580D02*
X95345238Y-47907200D01*
X95345238Y-47907200D02*
X95250000Y-47954819D01*
X95250000Y-47954819D02*
X95011905Y-47954819D01*
X95011905Y-47954819D02*
X94916667Y-47907200D01*
X94916667Y-47907200D02*
X94869048Y-47859580D01*
X85725713Y-35731818D02*
X85725713Y-34731818D01*
X85725713Y-34731818D02*
X85963808Y-34731818D01*
X85963808Y-34731818D02*
X86106665Y-34779437D01*
X86106665Y-34779437D02*
X86201903Y-34874675D01*
X86201903Y-34874675D02*
X86249522Y-34969913D01*
X86249522Y-34969913D02*
X86297141Y-35160389D01*
X86297141Y-35160389D02*
X86297141Y-35303246D01*
X86297141Y-35303246D02*
X86249522Y-35493722D01*
X86249522Y-35493722D02*
X86201903Y-35588960D01*
X86201903Y-35588960D02*
X86106665Y-35684199D01*
X86106665Y-35684199D02*
X85963808Y-35731818D01*
X85963808Y-35731818D02*
X85725713Y-35731818D01*
X87106665Y-35684199D02*
X87011427Y-35731818D01*
X87011427Y-35731818D02*
X86820951Y-35731818D01*
X86820951Y-35731818D02*
X86725713Y-35684199D01*
X86725713Y-35684199D02*
X86678094Y-35588960D01*
X86678094Y-35588960D02*
X86678094Y-35208008D01*
X86678094Y-35208008D02*
X86725713Y-35112770D01*
X86725713Y-35112770D02*
X86820951Y-35065151D01*
X86820951Y-35065151D02*
X87011427Y-35065151D01*
X87011427Y-35065151D02*
X87106665Y-35112770D01*
X87106665Y-35112770D02*
X87154284Y-35208008D01*
X87154284Y-35208008D02*
X87154284Y-35303246D01*
X87154284Y-35303246D02*
X86678094Y-35398484D01*
X87535237Y-35684199D02*
X87630475Y-35731818D01*
X87630475Y-35731818D02*
X87820951Y-35731818D01*
X87820951Y-35731818D02*
X87916189Y-35684199D01*
X87916189Y-35684199D02*
X87963808Y-35588960D01*
X87963808Y-35588960D02*
X87963808Y-35541341D01*
X87963808Y-35541341D02*
X87916189Y-35446103D01*
X87916189Y-35446103D02*
X87820951Y-35398484D01*
X87820951Y-35398484D02*
X87678094Y-35398484D01*
X87678094Y-35398484D02*
X87582856Y-35350865D01*
X87582856Y-35350865D02*
X87535237Y-35255627D01*
X87535237Y-35255627D02*
X87535237Y-35208008D01*
X87535237Y-35208008D02*
X87582856Y-35112770D01*
X87582856Y-35112770D02*
X87678094Y-35065151D01*
X87678094Y-35065151D02*
X87820951Y-35065151D01*
X87820951Y-35065151D02*
X87916189Y-35112770D01*
X88392380Y-35731818D02*
X88392380Y-35065151D01*
X88392380Y-34731818D02*
X88344761Y-34779437D01*
X88344761Y-34779437D02*
X88392380Y-34827056D01*
X88392380Y-34827056D02*
X88439999Y-34779437D01*
X88439999Y-34779437D02*
X88392380Y-34731818D01*
X88392380Y-34731818D02*
X88392380Y-34827056D01*
X89297141Y-35065151D02*
X89297141Y-35874675D01*
X89297141Y-35874675D02*
X89249522Y-35969913D01*
X89249522Y-35969913D02*
X89201903Y-36017532D01*
X89201903Y-36017532D02*
X89106665Y-36065151D01*
X89106665Y-36065151D02*
X88963808Y-36065151D01*
X88963808Y-36065151D02*
X88868570Y-36017532D01*
X89297141Y-35684199D02*
X89201903Y-35731818D01*
X89201903Y-35731818D02*
X89011427Y-35731818D01*
X89011427Y-35731818D02*
X88916189Y-35684199D01*
X88916189Y-35684199D02*
X88868570Y-35636579D01*
X88868570Y-35636579D02*
X88820951Y-35541341D01*
X88820951Y-35541341D02*
X88820951Y-35255627D01*
X88820951Y-35255627D02*
X88868570Y-35160389D01*
X88868570Y-35160389D02*
X88916189Y-35112770D01*
X88916189Y-35112770D02*
X89011427Y-35065151D01*
X89011427Y-35065151D02*
X89201903Y-35065151D01*
X89201903Y-35065151D02*
X89297141Y-35112770D01*
X89773332Y-35065151D02*
X89773332Y-35731818D01*
X89773332Y-35160389D02*
X89820951Y-35112770D01*
X89820951Y-35112770D02*
X89916189Y-35065151D01*
X89916189Y-35065151D02*
X90059046Y-35065151D01*
X90059046Y-35065151D02*
X90154284Y-35112770D01*
X90154284Y-35112770D02*
X90201903Y-35208008D01*
X90201903Y-35208008D02*
X90201903Y-35731818D01*
X91106665Y-35731818D02*
X91106665Y-35208008D01*
X91106665Y-35208008D02*
X91059046Y-35112770D01*
X91059046Y-35112770D02*
X90963808Y-35065151D01*
X90963808Y-35065151D02*
X90773332Y-35065151D01*
X90773332Y-35065151D02*
X90678094Y-35112770D01*
X91106665Y-35684199D02*
X91011427Y-35731818D01*
X91011427Y-35731818D02*
X90773332Y-35731818D01*
X90773332Y-35731818D02*
X90678094Y-35684199D01*
X90678094Y-35684199D02*
X90630475Y-35588960D01*
X90630475Y-35588960D02*
X90630475Y-35493722D01*
X90630475Y-35493722D02*
X90678094Y-35398484D01*
X90678094Y-35398484D02*
X90773332Y-35350865D01*
X90773332Y-35350865D02*
X91011427Y-35350865D01*
X91011427Y-35350865D02*
X91106665Y-35303246D01*
X91439999Y-35065151D02*
X91820951Y-35065151D01*
X91582856Y-34731818D02*
X91582856Y-35588960D01*
X91582856Y-35588960D02*
X91630475Y-35684199D01*
X91630475Y-35684199D02*
X91725713Y-35731818D01*
X91725713Y-35731818D02*
X91820951Y-35731818D01*
X92297142Y-35731818D02*
X92201904Y-35684199D01*
X92201904Y-35684199D02*
X92154285Y-35636579D01*
X92154285Y-35636579D02*
X92106666Y-35541341D01*
X92106666Y-35541341D02*
X92106666Y-35255627D01*
X92106666Y-35255627D02*
X92154285Y-35160389D01*
X92154285Y-35160389D02*
X92201904Y-35112770D01*
X92201904Y-35112770D02*
X92297142Y-35065151D01*
X92297142Y-35065151D02*
X92439999Y-35065151D01*
X92439999Y-35065151D02*
X92535237Y-35112770D01*
X92535237Y-35112770D02*
X92582856Y-35160389D01*
X92582856Y-35160389D02*
X92630475Y-35255627D01*
X92630475Y-35255627D02*
X92630475Y-35541341D01*
X92630475Y-35541341D02*
X92582856Y-35636579D01*
X92582856Y-35636579D02*
X92535237Y-35684199D01*
X92535237Y-35684199D02*
X92439999Y-35731818D01*
X92439999Y-35731818D02*
X92297142Y-35731818D01*
X93059047Y-35731818D02*
X93059047Y-35065151D01*
X93059047Y-35255627D02*
X93106666Y-35160389D01*
X93106666Y-35160389D02*
X93154285Y-35112770D01*
X93154285Y-35112770D02*
X93249523Y-35065151D01*
X93249523Y-35065151D02*
X93344761Y-35065151D01*
X94106666Y-35065151D02*
X94106666Y-35731818D01*
X93868571Y-34684199D02*
X93630476Y-35398484D01*
X93630476Y-35398484D02*
X94249523Y-35398484D01*
X100528569Y-46609818D02*
X100195236Y-46133627D01*
X99957141Y-46609818D02*
X99957141Y-45609818D01*
X99957141Y-45609818D02*
X100338093Y-45609818D01*
X100338093Y-45609818D02*
X100433331Y-45657437D01*
X100433331Y-45657437D02*
X100480950Y-45705056D01*
X100480950Y-45705056D02*
X100528569Y-45800294D01*
X100528569Y-45800294D02*
X100528569Y-45943151D01*
X100528569Y-45943151D02*
X100480950Y-46038389D01*
X100480950Y-46038389D02*
X100433331Y-46086008D01*
X100433331Y-46086008D02*
X100338093Y-46133627D01*
X100338093Y-46133627D02*
X99957141Y-46133627D01*
X100957141Y-45943151D02*
X100957141Y-46943151D01*
X100957141Y-45990770D02*
X101052379Y-45943151D01*
X101052379Y-45943151D02*
X101242855Y-45943151D01*
X101242855Y-45943151D02*
X101338093Y-45990770D01*
X101338093Y-45990770D02*
X101385712Y-46038389D01*
X101385712Y-46038389D02*
X101433331Y-46133627D01*
X101433331Y-46133627D02*
X101433331Y-46419341D01*
X101433331Y-46419341D02*
X101385712Y-46514579D01*
X101385712Y-46514579D02*
X101338093Y-46562199D01*
X101338093Y-46562199D02*
X101242855Y-46609818D01*
X101242855Y-46609818D02*
X101052379Y-46609818D01*
X101052379Y-46609818D02*
X100957141Y-46562199D01*
X102290474Y-45943151D02*
X102290474Y-46752675D01*
X102290474Y-46752675D02*
X102242855Y-46847913D01*
X102242855Y-46847913D02*
X102195236Y-46895532D01*
X102195236Y-46895532D02*
X102099998Y-46943151D01*
X102099998Y-46943151D02*
X101957141Y-46943151D01*
X101957141Y-46943151D02*
X101861903Y-46895532D01*
X102290474Y-46562199D02*
X102195236Y-46609818D01*
X102195236Y-46609818D02*
X102004760Y-46609818D01*
X102004760Y-46609818D02*
X101909522Y-46562199D01*
X101909522Y-46562199D02*
X101861903Y-46514579D01*
X101861903Y-46514579D02*
X101814284Y-46419341D01*
X101814284Y-46419341D02*
X101814284Y-46133627D01*
X101814284Y-46133627D02*
X101861903Y-46038389D01*
X101861903Y-46038389D02*
X101909522Y-45990770D01*
X101909522Y-45990770D02*
X102004760Y-45943151D01*
X102004760Y-45943151D02*
X102195236Y-45943151D01*
X102195236Y-45943151D02*
X102290474Y-45990770D01*
X103290474Y-46609818D02*
X102719046Y-46609818D01*
X103004760Y-46609818D02*
X103004760Y-45609818D01*
X103004760Y-45609818D02*
X102909522Y-45752675D01*
X102909522Y-45752675D02*
X102814284Y-45847913D01*
X102814284Y-45847913D02*
X102719046Y-45895532D01*
X120270780Y-61283695D02*
X120318400Y-61331314D01*
X120318400Y-61331314D02*
X120366019Y-61474171D01*
X120366019Y-61474171D02*
X120366019Y-61569409D01*
X120366019Y-61569409D02*
X120318400Y-61712266D01*
X120318400Y-61712266D02*
X120223161Y-61807504D01*
X120223161Y-61807504D02*
X120127923Y-61855123D01*
X120127923Y-61855123D02*
X119937447Y-61902742D01*
X119937447Y-61902742D02*
X119794590Y-61902742D01*
X119794590Y-61902742D02*
X119604114Y-61855123D01*
X119604114Y-61855123D02*
X119508876Y-61807504D01*
X119508876Y-61807504D02*
X119413638Y-61712266D01*
X119413638Y-61712266D02*
X119366019Y-61569409D01*
X119366019Y-61569409D02*
X119366019Y-61474171D01*
X119366019Y-61474171D02*
X119413638Y-61331314D01*
X119413638Y-61331314D02*
X119461257Y-61283695D01*
X120366019Y-60712266D02*
X120318400Y-60807504D01*
X120318400Y-60807504D02*
X120270780Y-60855123D01*
X120270780Y-60855123D02*
X120175542Y-60902742D01*
X120175542Y-60902742D02*
X119889828Y-60902742D01*
X119889828Y-60902742D02*
X119794590Y-60855123D01*
X119794590Y-60855123D02*
X119746971Y-60807504D01*
X119746971Y-60807504D02*
X119699352Y-60712266D01*
X119699352Y-60712266D02*
X119699352Y-60569409D01*
X119699352Y-60569409D02*
X119746971Y-60474171D01*
X119746971Y-60474171D02*
X119794590Y-60426552D01*
X119794590Y-60426552D02*
X119889828Y-60378933D01*
X119889828Y-60378933D02*
X120175542Y-60378933D01*
X120175542Y-60378933D02*
X120270780Y-60426552D01*
X120270780Y-60426552D02*
X120318400Y-60474171D01*
X120318400Y-60474171D02*
X120366019Y-60569409D01*
X120366019Y-60569409D02*
X120366019Y-60712266D01*
X119699352Y-59521790D02*
X120366019Y-59521790D01*
X119699352Y-59950361D02*
X120223161Y-59950361D01*
X120223161Y-59950361D02*
X120318400Y-59902742D01*
X120318400Y-59902742D02*
X120366019Y-59807504D01*
X120366019Y-59807504D02*
X120366019Y-59664647D01*
X120366019Y-59664647D02*
X120318400Y-59569409D01*
X120318400Y-59569409D02*
X120270780Y-59521790D01*
X119699352Y-59188456D02*
X119699352Y-58807504D01*
X119366019Y-59045599D02*
X120223161Y-59045599D01*
X120223161Y-59045599D02*
X120318400Y-58997980D01*
X120318400Y-58997980D02*
X120366019Y-58902742D01*
X120366019Y-58902742D02*
X120366019Y-58807504D01*
X120461257Y-58712266D02*
X120461257Y-57950361D01*
X119461257Y-57759884D02*
X119413638Y-57712265D01*
X119413638Y-57712265D02*
X119366019Y-57617027D01*
X119366019Y-57617027D02*
X119366019Y-57378932D01*
X119366019Y-57378932D02*
X119413638Y-57283694D01*
X119413638Y-57283694D02*
X119461257Y-57236075D01*
X119461257Y-57236075D02*
X119556495Y-57188456D01*
X119556495Y-57188456D02*
X119651733Y-57188456D01*
X119651733Y-57188456D02*
X119794590Y-57236075D01*
X119794590Y-57236075D02*
X120366019Y-57807503D01*
X120366019Y-57807503D02*
X120366019Y-57188456D01*
X74033333Y-34854819D02*
X73700000Y-34378628D01*
X73461905Y-34854819D02*
X73461905Y-33854819D01*
X73461905Y-33854819D02*
X73842857Y-33854819D01*
X73842857Y-33854819D02*
X73938095Y-33902438D01*
X73938095Y-33902438D02*
X73985714Y-33950057D01*
X73985714Y-33950057D02*
X74033333Y-34045295D01*
X74033333Y-34045295D02*
X74033333Y-34188152D01*
X74033333Y-34188152D02*
X73985714Y-34283390D01*
X73985714Y-34283390D02*
X73938095Y-34331009D01*
X73938095Y-34331009D02*
X73842857Y-34378628D01*
X73842857Y-34378628D02*
X73461905Y-34378628D01*
X74461905Y-34854819D02*
X74461905Y-34188152D01*
X74461905Y-34283390D02*
X74509524Y-34235771D01*
X74509524Y-34235771D02*
X74604762Y-34188152D01*
X74604762Y-34188152D02*
X74747619Y-34188152D01*
X74747619Y-34188152D02*
X74842857Y-34235771D01*
X74842857Y-34235771D02*
X74890476Y-34331009D01*
X74890476Y-34331009D02*
X74890476Y-34854819D01*
X74890476Y-34331009D02*
X74938095Y-34235771D01*
X74938095Y-34235771D02*
X75033333Y-34188152D01*
X75033333Y-34188152D02*
X75176190Y-34188152D01*
X75176190Y-34188152D02*
X75271429Y-34235771D01*
X75271429Y-34235771D02*
X75319048Y-34331009D01*
X75319048Y-34331009D02*
X75319048Y-34854819D01*
X75938095Y-34854819D02*
X75842857Y-34807200D01*
X75842857Y-34807200D02*
X75795238Y-34759580D01*
X75795238Y-34759580D02*
X75747619Y-34664342D01*
X75747619Y-34664342D02*
X75747619Y-34378628D01*
X75747619Y-34378628D02*
X75795238Y-34283390D01*
X75795238Y-34283390D02*
X75842857Y-34235771D01*
X75842857Y-34235771D02*
X75938095Y-34188152D01*
X75938095Y-34188152D02*
X76080952Y-34188152D01*
X76080952Y-34188152D02*
X76176190Y-34235771D01*
X76176190Y-34235771D02*
X76223809Y-34283390D01*
X76223809Y-34283390D02*
X76271428Y-34378628D01*
X76271428Y-34378628D02*
X76271428Y-34664342D01*
X76271428Y-34664342D02*
X76223809Y-34759580D01*
X76223809Y-34759580D02*
X76176190Y-34807200D01*
X76176190Y-34807200D02*
X76080952Y-34854819D01*
X76080952Y-34854819D02*
X75938095Y-34854819D01*
X77128571Y-34854819D02*
X77128571Y-33854819D01*
X77128571Y-34807200D02*
X77033333Y-34854819D01*
X77033333Y-34854819D02*
X76842857Y-34854819D01*
X76842857Y-34854819D02*
X76747619Y-34807200D01*
X76747619Y-34807200D02*
X76700000Y-34759580D01*
X76700000Y-34759580D02*
X76652381Y-34664342D01*
X76652381Y-34664342D02*
X76652381Y-34378628D01*
X76652381Y-34378628D02*
X76700000Y-34283390D01*
X76700000Y-34283390D02*
X76747619Y-34235771D01*
X76747619Y-34235771D02*
X76842857Y-34188152D01*
X76842857Y-34188152D02*
X77033333Y-34188152D01*
X77033333Y-34188152D02*
X77128571Y-34235771D01*
X77985714Y-34807200D02*
X77890476Y-34854819D01*
X77890476Y-34854819D02*
X77700000Y-34854819D01*
X77700000Y-34854819D02*
X77604762Y-34807200D01*
X77604762Y-34807200D02*
X77557143Y-34711961D01*
X77557143Y-34711961D02*
X77557143Y-34331009D01*
X77557143Y-34331009D02*
X77604762Y-34235771D01*
X77604762Y-34235771D02*
X77700000Y-34188152D01*
X77700000Y-34188152D02*
X77890476Y-34188152D01*
X77890476Y-34188152D02*
X77985714Y-34235771D01*
X77985714Y-34235771D02*
X78033333Y-34331009D01*
X78033333Y-34331009D02*
X78033333Y-34426247D01*
X78033333Y-34426247D02*
X77557143Y-34521485D01*
X78985714Y-34854819D02*
X78414286Y-34854819D01*
X78700000Y-34854819D02*
X78700000Y-33854819D01*
X78700000Y-33854819D02*
X78604762Y-33997676D01*
X78604762Y-33997676D02*
X78509524Y-34092914D01*
X78509524Y-34092914D02*
X78414286Y-34140533D01*
X74947618Y-32954819D02*
X74614285Y-32478628D01*
X74376190Y-32954819D02*
X74376190Y-31954819D01*
X74376190Y-31954819D02*
X74757142Y-31954819D01*
X74757142Y-31954819D02*
X74852380Y-32002438D01*
X74852380Y-32002438D02*
X74899999Y-32050057D01*
X74899999Y-32050057D02*
X74947618Y-32145295D01*
X74947618Y-32145295D02*
X74947618Y-32288152D01*
X74947618Y-32288152D02*
X74899999Y-32383390D01*
X74899999Y-32383390D02*
X74852380Y-32431009D01*
X74852380Y-32431009D02*
X74757142Y-32478628D01*
X74757142Y-32478628D02*
X74376190Y-32478628D01*
X75804761Y-32288152D02*
X75804761Y-32954819D01*
X75376190Y-32288152D02*
X75376190Y-32811961D01*
X75376190Y-32811961D02*
X75423809Y-32907200D01*
X75423809Y-32907200D02*
X75519047Y-32954819D01*
X75519047Y-32954819D02*
X75661904Y-32954819D01*
X75661904Y-32954819D02*
X75757142Y-32907200D01*
X75757142Y-32907200D02*
X75804761Y-32859580D01*
X76185714Y-32288152D02*
X76423809Y-32954819D01*
X76423809Y-32954819D02*
X76661904Y-32288152D01*
X77042857Y-32954819D02*
X77042857Y-31954819D01*
X77042857Y-32335771D02*
X77138095Y-32288152D01*
X77138095Y-32288152D02*
X77328571Y-32288152D01*
X77328571Y-32288152D02*
X77423809Y-32335771D01*
X77423809Y-32335771D02*
X77471428Y-32383390D01*
X77471428Y-32383390D02*
X77519047Y-32478628D01*
X77519047Y-32478628D02*
X77519047Y-32764342D01*
X77519047Y-32764342D02*
X77471428Y-32859580D01*
X77471428Y-32859580D02*
X77423809Y-32907200D01*
X77423809Y-32907200D02*
X77328571Y-32954819D01*
X77328571Y-32954819D02*
X77138095Y-32954819D01*
X77138095Y-32954819D02*
X77042857Y-32907200D01*
X78471428Y-32954819D02*
X77900000Y-32954819D01*
X78185714Y-32954819D02*
X78185714Y-31954819D01*
X78185714Y-31954819D02*
X78090476Y-32097676D01*
X78090476Y-32097676D02*
X77995238Y-32192914D01*
X77995238Y-32192914D02*
X77900000Y-32240533D01*
X111166667Y-102909200D02*
X111309524Y-102956819D01*
X111309524Y-102956819D02*
X111547619Y-102956819D01*
X111547619Y-102956819D02*
X111642857Y-102909200D01*
X111642857Y-102909200D02*
X111690476Y-102861580D01*
X111690476Y-102861580D02*
X111738095Y-102766342D01*
X111738095Y-102766342D02*
X111738095Y-102671104D01*
X111738095Y-102671104D02*
X111690476Y-102575866D01*
X111690476Y-102575866D02*
X111642857Y-102528247D01*
X111642857Y-102528247D02*
X111547619Y-102480628D01*
X111547619Y-102480628D02*
X111357143Y-102433009D01*
X111357143Y-102433009D02*
X111261905Y-102385390D01*
X111261905Y-102385390D02*
X111214286Y-102337771D01*
X111214286Y-102337771D02*
X111166667Y-102242533D01*
X111166667Y-102242533D02*
X111166667Y-102147295D01*
X111166667Y-102147295D02*
X111214286Y-102052057D01*
X111214286Y-102052057D02*
X111261905Y-102004438D01*
X111261905Y-102004438D02*
X111357143Y-101956819D01*
X111357143Y-101956819D02*
X111595238Y-101956819D01*
X111595238Y-101956819D02*
X111738095Y-102004438D01*
X112071429Y-101956819D02*
X112309524Y-102956819D01*
X112309524Y-102956819D02*
X112500000Y-102242533D01*
X112500000Y-102242533D02*
X112690476Y-102956819D01*
X112690476Y-102956819D02*
X112928572Y-101956819D01*
X113261905Y-102052057D02*
X113309524Y-102004438D01*
X113309524Y-102004438D02*
X113404762Y-101956819D01*
X113404762Y-101956819D02*
X113642857Y-101956819D01*
X113642857Y-101956819D02*
X113738095Y-102004438D01*
X113738095Y-102004438D02*
X113785714Y-102052057D01*
X113785714Y-102052057D02*
X113833333Y-102147295D01*
X113833333Y-102147295D02*
X113833333Y-102242533D01*
X113833333Y-102242533D02*
X113785714Y-102385390D01*
X113785714Y-102385390D02*
X113214286Y-102956819D01*
X113214286Y-102956819D02*
X113833333Y-102956819D01*
X79261904Y-53859580D02*
X79214285Y-53907200D01*
X79214285Y-53907200D02*
X79071428Y-53954819D01*
X79071428Y-53954819D02*
X78976190Y-53954819D01*
X78976190Y-53954819D02*
X78833333Y-53907200D01*
X78833333Y-53907200D02*
X78738095Y-53811961D01*
X78738095Y-53811961D02*
X78690476Y-53716723D01*
X78690476Y-53716723D02*
X78642857Y-53526247D01*
X78642857Y-53526247D02*
X78642857Y-53383390D01*
X78642857Y-53383390D02*
X78690476Y-53192914D01*
X78690476Y-53192914D02*
X78738095Y-53097676D01*
X78738095Y-53097676D02*
X78833333Y-53002438D01*
X78833333Y-53002438D02*
X78976190Y-52954819D01*
X78976190Y-52954819D02*
X79071428Y-52954819D01*
X79071428Y-52954819D02*
X79214285Y-53002438D01*
X79214285Y-53002438D02*
X79261904Y-53050057D01*
X79690476Y-53954819D02*
X79690476Y-53288152D01*
X79690476Y-52954819D02*
X79642857Y-53002438D01*
X79642857Y-53002438D02*
X79690476Y-53050057D01*
X79690476Y-53050057D02*
X79738095Y-53002438D01*
X79738095Y-53002438D02*
X79690476Y-52954819D01*
X79690476Y-52954819D02*
X79690476Y-53050057D01*
X80166666Y-53288152D02*
X80166666Y-53954819D01*
X80166666Y-53383390D02*
X80214285Y-53335771D01*
X80214285Y-53335771D02*
X80309523Y-53288152D01*
X80309523Y-53288152D02*
X80452380Y-53288152D01*
X80452380Y-53288152D02*
X80547618Y-53335771D01*
X80547618Y-53335771D02*
X80595237Y-53431009D01*
X80595237Y-53431009D02*
X80595237Y-53954819D01*
X80833333Y-54050057D02*
X81595237Y-54050057D01*
X81738095Y-52954819D02*
X82357142Y-52954819D01*
X82357142Y-52954819D02*
X82023809Y-53335771D01*
X82023809Y-53335771D02*
X82166666Y-53335771D01*
X82166666Y-53335771D02*
X82261904Y-53383390D01*
X82261904Y-53383390D02*
X82309523Y-53431009D01*
X82309523Y-53431009D02*
X82357142Y-53526247D01*
X82357142Y-53526247D02*
X82357142Y-53764342D01*
X82357142Y-53764342D02*
X82309523Y-53859580D01*
X82309523Y-53859580D02*
X82261904Y-53907200D01*
X82261904Y-53907200D02*
X82166666Y-53954819D01*
X82166666Y-53954819D02*
X81880952Y-53954819D01*
X81880952Y-53954819D02*
X81785714Y-53907200D01*
X81785714Y-53907200D02*
X81738095Y-53859580D01*
X68166667Y-102909200D02*
X68309524Y-102956819D01*
X68309524Y-102956819D02*
X68547619Y-102956819D01*
X68547619Y-102956819D02*
X68642857Y-102909200D01*
X68642857Y-102909200D02*
X68690476Y-102861580D01*
X68690476Y-102861580D02*
X68738095Y-102766342D01*
X68738095Y-102766342D02*
X68738095Y-102671104D01*
X68738095Y-102671104D02*
X68690476Y-102575866D01*
X68690476Y-102575866D02*
X68642857Y-102528247D01*
X68642857Y-102528247D02*
X68547619Y-102480628D01*
X68547619Y-102480628D02*
X68357143Y-102433009D01*
X68357143Y-102433009D02*
X68261905Y-102385390D01*
X68261905Y-102385390D02*
X68214286Y-102337771D01*
X68214286Y-102337771D02*
X68166667Y-102242533D01*
X68166667Y-102242533D02*
X68166667Y-102147295D01*
X68166667Y-102147295D02*
X68214286Y-102052057D01*
X68214286Y-102052057D02*
X68261905Y-102004438D01*
X68261905Y-102004438D02*
X68357143Y-101956819D01*
X68357143Y-101956819D02*
X68595238Y-101956819D01*
X68595238Y-101956819D02*
X68738095Y-102004438D01*
X69071429Y-101956819D02*
X69309524Y-102956819D01*
X69309524Y-102956819D02*
X69500000Y-102242533D01*
X69500000Y-102242533D02*
X69690476Y-102956819D01*
X69690476Y-102956819D02*
X69928572Y-101956819D01*
X70833333Y-102956819D02*
X70261905Y-102956819D01*
X70547619Y-102956819D02*
X70547619Y-101956819D01*
X70547619Y-101956819D02*
X70452381Y-102099676D01*
X70452381Y-102099676D02*
X70357143Y-102194914D01*
X70357143Y-102194914D02*
X70261905Y-102242533D01*
X116554819Y-43380952D02*
X115554819Y-43380952D01*
X115554819Y-43380952D02*
X115554819Y-43142857D01*
X115554819Y-43142857D02*
X115602438Y-43000000D01*
X115602438Y-43000000D02*
X115697676Y-42904762D01*
X115697676Y-42904762D02*
X115792914Y-42857143D01*
X115792914Y-42857143D02*
X115983390Y-42809524D01*
X115983390Y-42809524D02*
X116126247Y-42809524D01*
X116126247Y-42809524D02*
X116316723Y-42857143D01*
X116316723Y-42857143D02*
X116411961Y-42904762D01*
X116411961Y-42904762D02*
X116507200Y-43000000D01*
X116507200Y-43000000D02*
X116554819Y-43142857D01*
X116554819Y-43142857D02*
X116554819Y-43380952D01*
X116554819Y-42380952D02*
X115554819Y-42380952D01*
X115935771Y-42380952D02*
X115888152Y-42285714D01*
X115888152Y-42285714D02*
X115888152Y-42095238D01*
X115888152Y-42095238D02*
X115935771Y-42000000D01*
X115935771Y-42000000D02*
X115983390Y-41952381D01*
X115983390Y-41952381D02*
X116078628Y-41904762D01*
X116078628Y-41904762D02*
X116364342Y-41904762D01*
X116364342Y-41904762D02*
X116459580Y-41952381D01*
X116459580Y-41952381D02*
X116507200Y-42000000D01*
X116507200Y-42000000D02*
X116554819Y-42095238D01*
X116554819Y-42095238D02*
X116554819Y-42285714D01*
X116554819Y-42285714D02*
X116507200Y-42380952D01*
X116554819Y-41333333D02*
X116507200Y-41428571D01*
X116507200Y-41428571D02*
X116459580Y-41476190D01*
X116459580Y-41476190D02*
X116364342Y-41523809D01*
X116364342Y-41523809D02*
X116078628Y-41523809D01*
X116078628Y-41523809D02*
X115983390Y-41476190D01*
X115983390Y-41476190D02*
X115935771Y-41428571D01*
X115935771Y-41428571D02*
X115888152Y-41333333D01*
X115888152Y-41333333D02*
X115888152Y-41190476D01*
X115888152Y-41190476D02*
X115935771Y-41095238D01*
X115935771Y-41095238D02*
X115983390Y-41047619D01*
X115983390Y-41047619D02*
X116078628Y-41000000D01*
X116078628Y-41000000D02*
X116364342Y-41000000D01*
X116364342Y-41000000D02*
X116459580Y-41047619D01*
X116459580Y-41047619D02*
X116507200Y-41095238D01*
X116507200Y-41095238D02*
X116554819Y-41190476D01*
X116554819Y-41190476D02*
X116554819Y-41333333D01*
X116554819Y-40428571D02*
X116507200Y-40523809D01*
X116507200Y-40523809D02*
X116459580Y-40571428D01*
X116459580Y-40571428D02*
X116364342Y-40619047D01*
X116364342Y-40619047D02*
X116078628Y-40619047D01*
X116078628Y-40619047D02*
X115983390Y-40571428D01*
X115983390Y-40571428D02*
X115935771Y-40523809D01*
X115935771Y-40523809D02*
X115888152Y-40428571D01*
X115888152Y-40428571D02*
X115888152Y-40285714D01*
X115888152Y-40285714D02*
X115935771Y-40190476D01*
X115935771Y-40190476D02*
X115983390Y-40142857D01*
X115983390Y-40142857D02*
X116078628Y-40095238D01*
X116078628Y-40095238D02*
X116364342Y-40095238D01*
X116364342Y-40095238D02*
X116459580Y-40142857D01*
X116459580Y-40142857D02*
X116507200Y-40190476D01*
X116507200Y-40190476D02*
X116554819Y-40285714D01*
X116554819Y-40285714D02*
X116554819Y-40428571D01*
X115888152Y-39809523D02*
X115888152Y-39428571D01*
X115554819Y-39666666D02*
X116411961Y-39666666D01*
X116411961Y-39666666D02*
X116507200Y-39619047D01*
X116507200Y-39619047D02*
X116554819Y-39523809D01*
X116554819Y-39523809D02*
X116554819Y-39428571D01*
X115650057Y-39142856D02*
X115602438Y-39095237D01*
X115602438Y-39095237D02*
X115554819Y-38999999D01*
X115554819Y-38999999D02*
X115554819Y-38761904D01*
X115554819Y-38761904D02*
X115602438Y-38666666D01*
X115602438Y-38666666D02*
X115650057Y-38619047D01*
X115650057Y-38619047D02*
X115745295Y-38571428D01*
X115745295Y-38571428D02*
X115840533Y-38571428D01*
X115840533Y-38571428D02*
X115983390Y-38619047D01*
X115983390Y-38619047D02*
X116554819Y-39190475D01*
X116554819Y-39190475D02*
X116554819Y-38571428D01*
X85983335Y-44854819D02*
X85650002Y-44378628D01*
X85411907Y-44854819D02*
X85411907Y-43854819D01*
X85411907Y-43854819D02*
X85792859Y-43854819D01*
X85792859Y-43854819D02*
X85888097Y-43902438D01*
X85888097Y-43902438D02*
X85935716Y-43950057D01*
X85935716Y-43950057D02*
X85983335Y-44045295D01*
X85983335Y-44045295D02*
X85983335Y-44188152D01*
X85983335Y-44188152D02*
X85935716Y-44283390D01*
X85935716Y-44283390D02*
X85888097Y-44331009D01*
X85888097Y-44331009D02*
X85792859Y-44378628D01*
X85792859Y-44378628D02*
X85411907Y-44378628D01*
X86840478Y-44807200D02*
X86745240Y-44854819D01*
X86745240Y-44854819D02*
X86554764Y-44854819D01*
X86554764Y-44854819D02*
X86459526Y-44807200D01*
X86459526Y-44807200D02*
X86411907Y-44759580D01*
X86411907Y-44759580D02*
X86364288Y-44664342D01*
X86364288Y-44664342D02*
X86364288Y-44378628D01*
X86364288Y-44378628D02*
X86411907Y-44283390D01*
X86411907Y-44283390D02*
X86459526Y-44235771D01*
X86459526Y-44235771D02*
X86554764Y-44188152D01*
X86554764Y-44188152D02*
X86745240Y-44188152D01*
X86745240Y-44188152D02*
X86840478Y-44235771D01*
X87411907Y-44854819D02*
X87316669Y-44807200D01*
X87316669Y-44807200D02*
X87269050Y-44759580D01*
X87269050Y-44759580D02*
X87221431Y-44664342D01*
X87221431Y-44664342D02*
X87221431Y-44378628D01*
X87221431Y-44378628D02*
X87269050Y-44283390D01*
X87269050Y-44283390D02*
X87316669Y-44235771D01*
X87316669Y-44235771D02*
X87411907Y-44188152D01*
X87411907Y-44188152D02*
X87554764Y-44188152D01*
X87554764Y-44188152D02*
X87650002Y-44235771D01*
X87650002Y-44235771D02*
X87697621Y-44283390D01*
X87697621Y-44283390D02*
X87745240Y-44378628D01*
X87745240Y-44378628D02*
X87745240Y-44664342D01*
X87745240Y-44664342D02*
X87697621Y-44759580D01*
X87697621Y-44759580D02*
X87650002Y-44807200D01*
X87650002Y-44807200D02*
X87554764Y-44854819D01*
X87554764Y-44854819D02*
X87411907Y-44854819D01*
X88173812Y-44854819D02*
X88173812Y-44188152D01*
X88173812Y-44283390D02*
X88221431Y-44235771D01*
X88221431Y-44235771D02*
X88316669Y-44188152D01*
X88316669Y-44188152D02*
X88459526Y-44188152D01*
X88459526Y-44188152D02*
X88554764Y-44235771D01*
X88554764Y-44235771D02*
X88602383Y-44331009D01*
X88602383Y-44331009D02*
X88602383Y-44854819D01*
X88602383Y-44331009D02*
X88650002Y-44235771D01*
X88650002Y-44235771D02*
X88745240Y-44188152D01*
X88745240Y-44188152D02*
X88888097Y-44188152D01*
X88888097Y-44188152D02*
X88983336Y-44235771D01*
X88983336Y-44235771D02*
X89030955Y-44331009D01*
X89030955Y-44331009D02*
X89030955Y-44854819D01*
X89507145Y-44188152D02*
X89507145Y-45188152D01*
X89507145Y-44235771D02*
X89602383Y-44188152D01*
X89602383Y-44188152D02*
X89792859Y-44188152D01*
X89792859Y-44188152D02*
X89888097Y-44235771D01*
X89888097Y-44235771D02*
X89935716Y-44283390D01*
X89935716Y-44283390D02*
X89983335Y-44378628D01*
X89983335Y-44378628D02*
X89983335Y-44664342D01*
X89983335Y-44664342D02*
X89935716Y-44759580D01*
X89935716Y-44759580D02*
X89888097Y-44807200D01*
X89888097Y-44807200D02*
X89792859Y-44854819D01*
X89792859Y-44854819D02*
X89602383Y-44854819D01*
X89602383Y-44854819D02*
X89507145Y-44807200D01*
X90935716Y-44854819D02*
X90364288Y-44854819D01*
X90650002Y-44854819D02*
X90650002Y-43854819D01*
X90650002Y-43854819D02*
X90554764Y-43997676D01*
X90554764Y-43997676D02*
X90459526Y-44092914D01*
X90459526Y-44092914D02*
X90364288Y-44140533D01*
X96190475Y-33634581D02*
X96142856Y-33682201D01*
X96142856Y-33682201D02*
X95999999Y-33729820D01*
X95999999Y-33729820D02*
X95904761Y-33729820D01*
X95904761Y-33729820D02*
X95761904Y-33682201D01*
X95761904Y-33682201D02*
X95666666Y-33586962D01*
X95666666Y-33586962D02*
X95619047Y-33491724D01*
X95619047Y-33491724D02*
X95571428Y-33301248D01*
X95571428Y-33301248D02*
X95571428Y-33158391D01*
X95571428Y-33158391D02*
X95619047Y-32967915D01*
X95619047Y-32967915D02*
X95666666Y-32872677D01*
X95666666Y-32872677D02*
X95761904Y-32777439D01*
X95761904Y-32777439D02*
X95904761Y-32729820D01*
X95904761Y-32729820D02*
X95999999Y-32729820D01*
X95999999Y-32729820D02*
X96142856Y-32777439D01*
X96142856Y-32777439D02*
X96190475Y-32825058D01*
X96619047Y-33729820D02*
X96619047Y-32729820D01*
X96619047Y-33110772D02*
X96714285Y-33063153D01*
X96714285Y-33063153D02*
X96904761Y-33063153D01*
X96904761Y-33063153D02*
X96999999Y-33110772D01*
X96999999Y-33110772D02*
X97047618Y-33158391D01*
X97047618Y-33158391D02*
X97095237Y-33253629D01*
X97095237Y-33253629D02*
X97095237Y-33539343D01*
X97095237Y-33539343D02*
X97047618Y-33634581D01*
X97047618Y-33634581D02*
X96999999Y-33682201D01*
X96999999Y-33682201D02*
X96904761Y-33729820D01*
X96904761Y-33729820D02*
X96714285Y-33729820D01*
X96714285Y-33729820D02*
X96619047Y-33682201D01*
X97666666Y-33729820D02*
X97571428Y-33682201D01*
X97571428Y-33682201D02*
X97523809Y-33634581D01*
X97523809Y-33634581D02*
X97476190Y-33539343D01*
X97476190Y-33539343D02*
X97476190Y-33253629D01*
X97476190Y-33253629D02*
X97523809Y-33158391D01*
X97523809Y-33158391D02*
X97571428Y-33110772D01*
X97571428Y-33110772D02*
X97666666Y-33063153D01*
X97666666Y-33063153D02*
X97809523Y-33063153D01*
X97809523Y-33063153D02*
X97904761Y-33110772D01*
X97904761Y-33110772D02*
X97952380Y-33158391D01*
X97952380Y-33158391D02*
X97999999Y-33253629D01*
X97999999Y-33253629D02*
X97999999Y-33539343D01*
X97999999Y-33539343D02*
X97952380Y-33634581D01*
X97952380Y-33634581D02*
X97904761Y-33682201D01*
X97904761Y-33682201D02*
X97809523Y-33729820D01*
X97809523Y-33729820D02*
X97666666Y-33729820D01*
X98571428Y-33729820D02*
X98476190Y-33682201D01*
X98476190Y-33682201D02*
X98428571Y-33634581D01*
X98428571Y-33634581D02*
X98380952Y-33539343D01*
X98380952Y-33539343D02*
X98380952Y-33253629D01*
X98380952Y-33253629D02*
X98428571Y-33158391D01*
X98428571Y-33158391D02*
X98476190Y-33110772D01*
X98476190Y-33110772D02*
X98571428Y-33063153D01*
X98571428Y-33063153D02*
X98714285Y-33063153D01*
X98714285Y-33063153D02*
X98809523Y-33110772D01*
X98809523Y-33110772D02*
X98857142Y-33158391D01*
X98857142Y-33158391D02*
X98904761Y-33253629D01*
X98904761Y-33253629D02*
X98904761Y-33539343D01*
X98904761Y-33539343D02*
X98857142Y-33634581D01*
X98857142Y-33634581D02*
X98809523Y-33682201D01*
X98809523Y-33682201D02*
X98714285Y-33729820D01*
X98714285Y-33729820D02*
X98571428Y-33729820D01*
X99190476Y-33063153D02*
X99571428Y-33063153D01*
X99333333Y-32729820D02*
X99333333Y-33586962D01*
X99333333Y-33586962D02*
X99380952Y-33682201D01*
X99380952Y-33682201D02*
X99476190Y-33729820D01*
X99476190Y-33729820D02*
X99571428Y-33729820D01*
X100428571Y-33729820D02*
X99857143Y-33729820D01*
X100142857Y-33729820D02*
X100142857Y-32729820D01*
X100142857Y-32729820D02*
X100047619Y-32872677D01*
X100047619Y-32872677D02*
X99952381Y-32967915D01*
X99952381Y-32967915D02*
X99857143Y-33015534D01*
X93130476Y-74424963D02*
X93130476Y-73424963D01*
X93130476Y-73424963D02*
X93463809Y-74139248D01*
X93463809Y-74139248D02*
X93797142Y-73424963D01*
X93797142Y-73424963D02*
X93797142Y-74424963D01*
X94701904Y-73758296D02*
X94701904Y-74424963D01*
X94463809Y-73377344D02*
X94225714Y-74091629D01*
X94225714Y-74091629D02*
X94844761Y-74091629D01*
X83670476Y-74424963D02*
X83670476Y-73424963D01*
X83670476Y-73424963D02*
X84003809Y-74139248D01*
X84003809Y-74139248D02*
X84337142Y-73424963D01*
X84337142Y-73424963D02*
X84337142Y-74424963D01*
X84765714Y-73520201D02*
X84813333Y-73472582D01*
X84813333Y-73472582D02*
X84908571Y-73424963D01*
X84908571Y-73424963D02*
X85146666Y-73424963D01*
X85146666Y-73424963D02*
X85241904Y-73472582D01*
X85241904Y-73472582D02*
X85289523Y-73520201D01*
X85289523Y-73520201D02*
X85337142Y-73615439D01*
X85337142Y-73615439D02*
X85337142Y-73710677D01*
X85337142Y-73710677D02*
X85289523Y-73853534D01*
X85289523Y-73853534D02*
X84718095Y-74424963D01*
X84718095Y-74424963D02*
X85337142Y-74424963D01*
X80047618Y-29659580D02*
X79999999Y-29707200D01*
X79999999Y-29707200D02*
X79857142Y-29754819D01*
X79857142Y-29754819D02*
X79761904Y-29754819D01*
X79761904Y-29754819D02*
X79619047Y-29707200D01*
X79619047Y-29707200D02*
X79523809Y-29611961D01*
X79523809Y-29611961D02*
X79476190Y-29516723D01*
X79476190Y-29516723D02*
X79428571Y-29326247D01*
X79428571Y-29326247D02*
X79428571Y-29183390D01*
X79428571Y-29183390D02*
X79476190Y-28992914D01*
X79476190Y-28992914D02*
X79523809Y-28897676D01*
X79523809Y-28897676D02*
X79619047Y-28802438D01*
X79619047Y-28802438D02*
X79761904Y-28754819D01*
X79761904Y-28754819D02*
X79857142Y-28754819D01*
X79857142Y-28754819D02*
X79999999Y-28802438D01*
X79999999Y-28802438D02*
X80047618Y-28850057D01*
X80333333Y-29088152D02*
X80714285Y-29088152D01*
X80476190Y-29754819D02*
X80476190Y-28897676D01*
X80476190Y-28897676D02*
X80523809Y-28802438D01*
X80523809Y-28802438D02*
X80619047Y-28754819D01*
X80619047Y-28754819D02*
X80714285Y-28754819D01*
X81571428Y-29754819D02*
X81000000Y-29754819D01*
X81285714Y-29754819D02*
X81285714Y-28754819D01*
X81285714Y-28754819D02*
X81190476Y-28897676D01*
X81190476Y-28897676D02*
X81095238Y-28992914D01*
X81095238Y-28992914D02*
X81000000Y-29040533D01*
X98773333Y-74454819D02*
X98773333Y-73454819D01*
X98773333Y-73454819D02*
X99106666Y-74169104D01*
X99106666Y-74169104D02*
X99439999Y-73454819D01*
X99439999Y-73454819D02*
X99439999Y-74454819D01*
X100344761Y-73788152D02*
X100344761Y-74454819D01*
X100106666Y-73407200D02*
X99868571Y-74121485D01*
X99868571Y-74121485D02*
X100487618Y-74121485D01*
X100630476Y-74550057D02*
X101392380Y-74550057D01*
X101582857Y-73550057D02*
X101630476Y-73502438D01*
X101630476Y-73502438D02*
X101725714Y-73454819D01*
X101725714Y-73454819D02*
X101963809Y-73454819D01*
X101963809Y-73454819D02*
X102059047Y-73502438D01*
X102059047Y-73502438D02*
X102106666Y-73550057D01*
X102106666Y-73550057D02*
X102154285Y-73645295D01*
X102154285Y-73645295D02*
X102154285Y-73740533D01*
X102154285Y-73740533D02*
X102106666Y-73883390D01*
X102106666Y-73883390D02*
X101535238Y-74454819D01*
X101535238Y-74454819D02*
X102154285Y-74454819D01*
D13*
%TO.C,Rfbt1*%
X86504724Y-48477500D02*
X85995276Y-48477500D01*
X86504724Y-49522500D02*
X85995276Y-49522500D01*
D14*
%TO.C,M3*%
X105218000Y-72208073D02*
X105218000Y-78262071D01*
X110472000Y-78262071D02*
X110472000Y-72208073D01*
X106016200Y-79326473D02*
G75*
G02*
X105863800Y-79326473I-76200J0D01*
G01*
X105863800Y-79326473D02*
G75*
G02*
X106016200Y-79326473I76200J0D01*
G01*
%TO.C,Cout1*%
X104860300Y-55164100D02*
X104860300Y-63927100D01*
X104860300Y-63927100D02*
X108159760Y-63927100D01*
X108159760Y-55164100D02*
X104860300Y-55164100D01*
X108860800Y-65768600D02*
X109622800Y-65768600D01*
X109241800Y-65387600D02*
X109241800Y-66149600D01*
X110323840Y-63927100D02*
X113623300Y-63927100D01*
X113623300Y-55164100D02*
X110323840Y-55164100D01*
X113623300Y-63927100D02*
X113623300Y-55164100D01*
%TO.C,Vin (15 to 28V)*%
X20621008Y-69980200D02*
X20621008Y-83086600D01*
X20621008Y-83086600D02*
X36877008Y-83086600D01*
X36877008Y-69980200D02*
X20621008Y-69980200D01*
X36877008Y-83086600D02*
X36877008Y-69980200D01*
D15*
X34881000Y-69345200D02*
G75*
G02*
X34119000Y-69345200I-381000J0D01*
G01*
X34119000Y-69345200D02*
G75*
G02*
X34881000Y-69345200I381000J0D01*
G01*
D13*
%TO.C,Ccomp1*%
X80961252Y-42365000D02*
X80438748Y-42365000D01*
X80961252Y-43835000D02*
X80438748Y-43835000D01*
%TO.C,Ccomp2*%
X80415835Y-44840000D02*
X80184165Y-44840000D01*
X80415835Y-45560000D02*
X80184165Y-45560000D01*
%TO.C,Rcsg1*%
X97077498Y-51470275D02*
X97077498Y-51979723D01*
X98122498Y-51470275D02*
X98122498Y-51979723D01*
D14*
%TO.C,Cin1*%
X56118500Y-55164100D02*
X56118500Y-63927100D01*
X56118500Y-63927100D02*
X59417960Y-63927100D01*
X59417960Y-55164100D02*
X56118500Y-55164100D01*
X60119000Y-65768600D02*
X60881000Y-65768600D01*
X60500000Y-65387600D02*
X60500000Y-66149600D01*
X61582040Y-63927100D02*
X64881500Y-63927100D01*
X64881500Y-55164100D02*
X61582040Y-55164100D01*
X64881500Y-63927100D02*
X64881500Y-55164100D01*
D13*
%TO.C,GND*%
X42700000Y-46000000D02*
G75*
G02*
X40300000Y-46000000I-1200000J0D01*
G01*
X40300000Y-46000000D02*
G75*
G02*
X42700000Y-46000000I1200000J0D01*
G01*
%TO.C,Cvcc1*%
X105316231Y-44214999D02*
X105608765Y-44214999D01*
X105316231Y-45234999D02*
X105608765Y-45234999D01*
%TO.C,Css1*%
X80961252Y-39765000D02*
X80438748Y-39765000D01*
X80961252Y-41235000D02*
X80438748Y-41235000D01*
%TO.C,Vin*%
X43200000Y-80000000D02*
G75*
G02*
X40800000Y-80000000I-1200000J0D01*
G01*
X40800000Y-80000000D02*
G75*
G02*
X43200000Y-80000000I1200000J0D01*
G01*
%TO.C,Rt1*%
X80854724Y-35877500D02*
X80345276Y-35877500D01*
X80854724Y-36922500D02*
X80345276Y-36922500D01*
%TO.C,GND*%
X134700000Y-46000000D02*
G75*
G02*
X132300000Y-46000000I-1200000J0D01*
G01*
X132300000Y-46000000D02*
G75*
G02*
X134700000Y-46000000I1200000J0D01*
G01*
D14*
%TO.C,Cin_5*%
X66118500Y-55164100D02*
X66118500Y-63927100D01*
X66118500Y-63927100D02*
X69417960Y-63927100D01*
X69417960Y-55164100D02*
X66118500Y-55164100D01*
X70119000Y-65768600D02*
X70881000Y-65768600D01*
X70500000Y-65387600D02*
X70500000Y-66149600D01*
X71582040Y-63927100D02*
X74881500Y-63927100D01*
X74881500Y-55164100D02*
X71582040Y-55164100D01*
X74881500Y-63927100D02*
X74881500Y-55164100D01*
D13*
%TO.C,Dboot1*%
X117250000Y-33990000D02*
X117250000Y-45300000D01*
X117250000Y-33990000D02*
X123750000Y-33990000D01*
X123750000Y-33990000D02*
X123750000Y-45300000D01*
D14*
%TO.C,Cin_4*%
X36118500Y-55164100D02*
X36118500Y-63927100D01*
X36118500Y-63927100D02*
X39417960Y-63927100D01*
X39417960Y-55164100D02*
X36118500Y-55164100D01*
X40119000Y-65768600D02*
X40881000Y-65768600D01*
X40500000Y-65387600D02*
X40500000Y-66149600D01*
X41582040Y-63927100D02*
X44881500Y-63927100D01*
X44881500Y-55164100D02*
X41582040Y-55164100D01*
X44881500Y-63927100D02*
X44881500Y-55164100D01*
D13*
%TO.C,Ccs1*%
X97246265Y-47214999D02*
X96953731Y-47214999D01*
X97246265Y-48234999D02*
X96953731Y-48234999D01*
D14*
%TO.C,Cout_4*%
X135868500Y-55164100D02*
X135868500Y-63927100D01*
X135868500Y-63927100D02*
X139167960Y-63927100D01*
X139167960Y-55164100D02*
X135868500Y-55164100D01*
X139869000Y-65768600D02*
X140631000Y-65768600D01*
X140250000Y-65387600D02*
X140250000Y-66149600D01*
X141332040Y-63927100D02*
X144631500Y-63927100D01*
X144631500Y-55164100D02*
X141332040Y-55164100D01*
X144631500Y-63927100D02*
X144631500Y-55164100D01*
D13*
%TO.C,L1*%
X82250000Y-105750000D02*
X86250000Y-105750000D01*
X72890000Y-105510000D02*
X109110000Y-105510000D01*
X109110000Y-83590000D01*
X72890000Y-83590000D01*
X72890000Y-105510000D01*
%TO.C,Rf1*%
X90727500Y-32745276D02*
X90727500Y-33254724D01*
X91772500Y-32745276D02*
X91772500Y-33254724D01*
D14*
%TO.C,M1_2*%
X72968000Y-72208073D02*
X72968000Y-78262071D01*
X78222000Y-78262071D02*
X78222000Y-72208073D01*
X73766200Y-79326473D02*
G75*
G02*
X73613800Y-79326473I-76200J0D01*
G01*
X73613800Y-79326473D02*
G75*
G02*
X73766200Y-79326473I76200J0D01*
G01*
D13*
%TO.C,Cslope1*%
X80646267Y-37690000D02*
X80353733Y-37690000D01*
X80646267Y-38710000D02*
X80353733Y-38710000D01*
D16*
%TO.C,Cbulk1*%
X27700000Y-63750000D02*
X27700000Y-56050000D01*
X34300000Y-61000000D02*
X34300000Y-56050000D01*
D14*
%TO.C,M1*%
X66778000Y-72237929D02*
X66778000Y-78291927D01*
X72032000Y-78291927D02*
X72032000Y-72237929D01*
X67576200Y-79356329D02*
G75*
G02*
X67423800Y-79356329I-76200J0D01*
G01*
X67423800Y-79356329D02*
G75*
G02*
X67576200Y-79356329I76200J0D01*
G01*
%TO.C,Cout_3*%
X125699100Y-55164100D02*
X125699100Y-63927100D01*
X125699100Y-63927100D02*
X128998560Y-63927100D01*
X128998560Y-55164100D02*
X125699100Y-55164100D01*
X129699600Y-65768600D02*
X130461600Y-65768600D01*
X130080600Y-65387600D02*
X130080600Y-66149600D01*
X131162640Y-63927100D02*
X134462100Y-63927100D01*
X134462100Y-55164100D02*
X131162640Y-55164100D01*
X134462100Y-63927100D02*
X134462100Y-55164100D01*
%TO.C,Vout (24V)*%
X136872000Y-70413400D02*
X136872000Y-83519800D01*
X136872000Y-83519800D02*
X153128000Y-83519800D01*
X153128000Y-70413400D02*
X136872000Y-70413400D01*
X153128000Y-83519800D02*
X153128000Y-70413400D01*
D15*
X139630008Y-84154800D02*
G75*
G02*
X138868008Y-84154800I-381000J0D01*
G01*
X138868008Y-84154800D02*
G75*
G02*
X139630008Y-84154800I381000J0D01*
G01*
D13*
%TO.C,Rcsp1*%
X99227500Y-51470275D02*
X99227500Y-51979723D01*
X100272500Y-51470275D02*
X100272500Y-51979723D01*
%TO.C,Cbias1*%
X103103733Y-35490000D02*
X103396267Y-35490000D01*
X103103733Y-36510000D02*
X103396267Y-36510000D01*
%TO.C,Ruvt1*%
X85242224Y-31977500D02*
X84732776Y-31977500D01*
X85242224Y-33022500D02*
X84732776Y-33022500D01*
D14*
%TO.C,Rsense1*%
X90829000Y-58462750D02*
X90829000Y-63537250D01*
X96671000Y-63537250D02*
X96671000Y-58462750D01*
%TO.C,Cin_2*%
X46118500Y-55118500D02*
X46118500Y-63881500D01*
X46118500Y-63881500D02*
X49417960Y-63881500D01*
X49417960Y-55118500D02*
X46118500Y-55118500D01*
X50119000Y-65723000D02*
X50881000Y-65723000D01*
X50500000Y-65342000D02*
X50500000Y-66104000D01*
X51582040Y-63881500D02*
X54881500Y-63881500D01*
X54881500Y-55118500D02*
X51582040Y-55118500D01*
X54881500Y-63881500D02*
X54881500Y-55118500D01*
D13*
%TO.C,Vout*%
X125700000Y-82000000D02*
G75*
G02*
X123300000Y-82000000I-1200000J0D01*
G01*
X123300000Y-82000000D02*
G75*
G02*
X125700000Y-82000000I1200000J0D01*
G01*
D14*
%TO.C,M3_2*%
X112218000Y-72208073D02*
X112218000Y-78262071D01*
X117472000Y-78262071D02*
X117472000Y-72208073D01*
X113016200Y-79326473D02*
G75*
G02*
X112863800Y-79326473I-76200J0D01*
G01*
X112863800Y-79326473D02*
G75*
G02*
X113016200Y-79326473I76200J0D01*
G01*
D13*
%TO.C,Rfbb1*%
X80354724Y-48177500D02*
X79845276Y-48177500D01*
X80354724Y-49222500D02*
X79845276Y-49222500D01*
%TO.C,Cboot2*%
X104488748Y-38265000D02*
X105011252Y-38265000D01*
X104488748Y-39735000D02*
X105011252Y-39735000D01*
D16*
%TO.C,U1*%
X92150000Y-36599999D02*
X95350001Y-36599999D01*
X92150000Y-46399999D02*
X95350001Y-46399999D01*
D17*
X90950000Y-36699998D02*
G75*
G02*
X90699998Y-36699998I-125001J0D01*
G01*
X90699998Y-36699998D02*
G75*
G02*
X90950000Y-36699998I125001J0D01*
G01*
D13*
%TO.C,Rpg1*%
X101854722Y-44202499D02*
X101345274Y-44202499D01*
X101854722Y-45247499D02*
X101345274Y-45247499D01*
D14*
%TO.C,Cout_2*%
X115529700Y-55164100D02*
X115529700Y-63927100D01*
X115529700Y-63927100D02*
X118829160Y-63927100D01*
X118829160Y-55164100D02*
X115529700Y-55164100D01*
X119530200Y-65768600D02*
X120292200Y-65768600D01*
X119911200Y-65387600D02*
X119911200Y-66149600D01*
X120993240Y-63927100D02*
X124292700Y-63927100D01*
X124292700Y-55164100D02*
X120993240Y-55164100D01*
X124292700Y-63927100D02*
X124292700Y-55164100D01*
D13*
%TO.C,Rmode1*%
X80954724Y-33877500D02*
X80445276Y-33877500D01*
X80954724Y-34922500D02*
X80445276Y-34922500D01*
%TO.C,Ruvb1*%
X80904724Y-31977500D02*
X80395276Y-31977500D01*
X80904724Y-33022500D02*
X80395276Y-33022500D01*
%TO.C,SW2*%
X113700000Y-104500000D02*
G75*
G02*
X111300000Y-104500000I-1200000J0D01*
G01*
X111300000Y-104500000D02*
G75*
G02*
X113700000Y-104500000I1200000J0D01*
G01*
D14*
%TO.C,Cin_3*%
X76118500Y-55164100D02*
X76118500Y-63927100D01*
X76118500Y-63927100D02*
X79417960Y-63927100D01*
X79417960Y-55164100D02*
X76118500Y-55164100D01*
X80119000Y-65768600D02*
X80881000Y-65768600D01*
X80500000Y-65387600D02*
X80500000Y-66149600D01*
X81582040Y-63927100D02*
X84881500Y-63927100D01*
X84881500Y-55164100D02*
X81582040Y-55164100D01*
X84881500Y-63927100D02*
X84881500Y-55164100D01*
D13*
%TO.C,SW1*%
X70700000Y-104500000D02*
G75*
G02*
X68300000Y-104500000I-1200000J0D01*
G01*
X68300000Y-104500000D02*
G75*
G02*
X70700000Y-104500000I1200000J0D01*
G01*
%TO.C,Dboot2*%
X108750000Y-34090000D02*
X108750000Y-45400000D01*
X108750000Y-34090000D02*
X115250000Y-34090000D01*
X115250000Y-34090000D02*
X115250000Y-45400000D01*
%TO.C,Rcomp1*%
X87254724Y-42377500D02*
X86745276Y-42377500D01*
X87254724Y-43422500D02*
X86745276Y-43422500D01*
%TO.C,Cboot1*%
X99011252Y-34265000D02*
X98488748Y-34265000D01*
X99011252Y-35735000D02*
X98488748Y-35735000D01*
D14*
%TO.C,M4*%
X91218000Y-75708073D02*
X91218000Y-81762071D01*
X96472000Y-81762071D02*
X96472000Y-75708073D01*
X95826200Y-74643671D02*
G75*
G02*
X95673800Y-74643671I-76200J0D01*
G01*
X95673800Y-74643671D02*
G75*
G02*
X95826200Y-74643671I76200J0D01*
G01*
%TO.C,M2*%
X81718000Y-75708073D02*
X81718000Y-81762071D01*
X86972000Y-81762071D02*
X86972000Y-75708073D01*
X86326200Y-74643671D02*
G75*
G02*
X86173800Y-74643671I-76200J0D01*
G01*
X86173800Y-74643671D02*
G75*
G02*
X86326200Y-74643671I76200J0D01*
G01*
D13*
%TO.C,Cf1*%
X80746267Y-30290000D02*
X80453733Y-30290000D01*
X80746267Y-31310000D02*
X80453733Y-31310000D01*
D18*
%TO.C,G\u002A\u002A\u002A*%
G36*
X40911100Y-89584127D02*
G01*
X40917260Y-89602025D01*
X40849807Y-89608860D01*
X40780196Y-89601154D01*
X40788514Y-89584127D01*
X40888905Y-89577651D01*
X40911100Y-89584127D01*
G37*
G36*
X51693651Y-93645754D02*
G01*
X51723382Y-93690548D01*
X51710387Y-93796814D01*
X51692581Y-93895278D01*
X51661137Y-94071717D01*
X51619355Y-94307509D01*
X51570535Y-94584034D01*
X51521377Y-94863320D01*
X51465417Y-95179779D01*
X51422227Y-95412727D01*
X51387675Y-95575256D01*
X51357625Y-95680455D01*
X51327944Y-95741417D01*
X51294498Y-95771231D01*
X51253152Y-95782989D01*
X51230007Y-95785979D01*
X51133443Y-95784600D01*
X51096695Y-95761461D01*
X51104382Y-95703321D01*
X51126661Y-95563241D01*
X51161089Y-95355860D01*
X51205223Y-95095820D01*
X51256621Y-94797758D01*
X51277222Y-94679440D01*
X51459125Y-93637451D01*
X51599545Y-93637451D01*
X51693651Y-93645754D01*
G37*
G36*
X52394600Y-93654748D02*
G01*
X52421975Y-93695488D01*
X52413574Y-93763379D01*
X52390347Y-93910237D01*
X52355221Y-94118577D01*
X52311125Y-94370917D01*
X52275633Y-94569112D01*
X52226582Y-94846520D01*
X52184431Y-95096645D01*
X52152180Y-95300739D01*
X52132826Y-95440056D01*
X52128562Y-95488513D01*
X52132444Y-95537483D01*
X52156481Y-95569285D01*
X52218040Y-95587622D01*
X52334488Y-95596195D01*
X52523192Y-95598704D01*
X52646260Y-95598841D01*
X52877233Y-95600301D01*
X53026562Y-95606550D01*
X53110651Y-95620392D01*
X53145906Y-95644631D01*
X53148732Y-95682073D01*
X53148257Y-95684652D01*
X53131835Y-95719358D01*
X53087936Y-95744056D01*
X53001332Y-95760930D01*
X52856795Y-95772170D01*
X52639098Y-95779962D01*
X52455690Y-95784122D01*
X51779587Y-95797780D01*
X51809428Y-95637017D01*
X51827322Y-95538082D01*
X51858847Y-95361206D01*
X51900698Y-95125045D01*
X51949567Y-94848254D01*
X51998700Y-94569112D01*
X52054661Y-94252653D01*
X52097850Y-94019705D01*
X52132403Y-93857176D01*
X52162452Y-93751977D01*
X52192133Y-93691015D01*
X52225580Y-93661201D01*
X52266925Y-93649443D01*
X52290070Y-93646453D01*
X52394600Y-93654748D01*
G37*
G36*
X61456700Y-93758483D02*
G01*
X61442935Y-93811263D01*
X61413894Y-93846466D01*
X61351846Y-93868310D01*
X61239062Y-93881011D01*
X61057809Y-93888787D01*
X60889751Y-93893329D01*
X60345939Y-93907143D01*
X60290599Y-94213610D01*
X60235259Y-94520077D01*
X60741761Y-94520077D01*
X61248263Y-94520077D01*
X61248263Y-94642664D01*
X61248263Y-94765251D01*
X60718861Y-94765251D01*
X60189460Y-94765251D01*
X60130444Y-95109404D01*
X60093357Y-95320727D01*
X60077975Y-95460773D01*
X60098573Y-95544088D01*
X60169429Y-95585218D01*
X60304819Y-95598708D01*
X60519019Y-95599105D01*
X60610811Y-95598841D01*
X60846866Y-95599970D01*
X61001812Y-95605410D01*
X61092602Y-95618245D01*
X61136190Y-95641557D01*
X61149529Y-95678428D01*
X61150193Y-95696911D01*
X61145247Y-95735126D01*
X61120538Y-95761872D01*
X61061264Y-95779187D01*
X60952620Y-95789111D01*
X60779802Y-95793684D01*
X60528008Y-95794944D01*
X60438255Y-95794980D01*
X59726317Y-95794980D01*
X59751505Y-95684652D01*
X59767854Y-95601612D01*
X59797512Y-95440010D01*
X59837237Y-95217948D01*
X59883784Y-94953526D01*
X59925040Y-94716216D01*
X59974735Y-94430472D01*
X60020215Y-94172147D01*
X60058250Y-93959340D01*
X60085610Y-93810152D01*
X60097860Y-93747780D01*
X60111238Y-93703948D01*
X60139091Y-93673596D01*
X60197191Y-93654247D01*
X60301314Y-93643428D01*
X60467233Y-93638664D01*
X60710722Y-93637479D01*
X60801084Y-93637451D01*
X61479837Y-93637451D01*
X61456700Y-93758483D01*
G37*
G36*
X40682072Y-93619162D02*
G01*
X40862321Y-93639482D01*
X41018500Y-93667319D01*
X41118755Y-93698783D01*
X41133906Y-93709066D01*
X41139843Y-93767519D01*
X41125110Y-93853206D01*
X41100691Y-93929244D01*
X41060136Y-93950784D01*
X40973076Y-93924411D01*
X40912270Y-93899349D01*
X40689798Y-93840497D01*
X40466787Y-93839339D01*
X40263244Y-93888806D01*
X40099177Y-93981829D01*
X39994593Y-94111338D01*
X39967181Y-94233285D01*
X40000046Y-94359187D01*
X40105307Y-94456910D01*
X40292967Y-94533750D01*
X40425759Y-94567724D01*
X40707064Y-94654341D01*
X40898573Y-94771594D01*
X41005296Y-94925033D01*
X41032245Y-95120213D01*
X41019275Y-95225314D01*
X40930227Y-95453497D01*
X40765409Y-95634267D01*
X40537497Y-95762585D01*
X40259166Y-95833412D01*
X39943090Y-95841706D01*
X39611680Y-95785041D01*
X39472836Y-95722240D01*
X39426963Y-95630412D01*
X39471078Y-95508406D01*
X39516004Y-95469716D01*
X39590791Y-95484314D01*
X39654207Y-95514112D01*
X39878843Y-95594861D01*
X40113889Y-95624543D01*
X40334244Y-95605137D01*
X40514802Y-95538626D01*
X40624176Y-95437553D01*
X40711149Y-95245464D01*
X40707552Y-95086930D01*
X40612453Y-94960424D01*
X40424917Y-94864424D01*
X40243582Y-94815678D01*
X39973245Y-94730325D01*
X39787331Y-94605351D01*
X39688924Y-94443371D01*
X39673156Y-94331838D01*
X39719350Y-94095532D01*
X39848044Y-93890591D01*
X40045164Y-93731320D01*
X40296634Y-93632026D01*
X40376786Y-93616630D01*
X40509608Y-93610249D01*
X40682072Y-93619162D01*
G37*
G36*
X40633389Y-90842471D02*
G01*
X40786047Y-90845443D01*
X40862378Y-90860925D01*
X40884090Y-90898771D01*
X40876494Y-90952799D01*
X40838746Y-91139033D01*
X40796625Y-91369398D01*
X40753940Y-91620094D01*
X40714502Y-91867321D01*
X40682118Y-92087278D01*
X40660599Y-92256165D01*
X40653668Y-92345049D01*
X40691271Y-92517164D01*
X40799157Y-92623535D01*
X40954603Y-92656756D01*
X41162737Y-92618583D01*
X41310003Y-92505834D01*
X41344971Y-92451618D01*
X41373022Y-92367890D01*
X41412835Y-92207265D01*
X41459986Y-91989570D01*
X41510051Y-91734634D01*
X41533454Y-91606892D01*
X41665837Y-90866988D01*
X41948429Y-90852159D01*
X42106635Y-90846998D01*
X42187573Y-90856777D01*
X42211618Y-90887338D01*
X42205077Y-90925712D01*
X42186850Y-91006906D01*
X42156483Y-91162336D01*
X42118228Y-91369549D01*
X42076956Y-91602509D01*
X42005123Y-91985132D01*
X41934110Y-92283500D01*
X41857031Y-92511124D01*
X41767001Y-92681515D01*
X41657133Y-92808185D01*
X41520540Y-92904645D01*
X41378505Y-92972881D01*
X41172162Y-93027410D01*
X40924049Y-93047534D01*
X40674426Y-93033660D01*
X40463549Y-92986190D01*
X40409176Y-92963147D01*
X40284928Y-92884823D01*
X40196582Y-92784697D01*
X40142326Y-92650174D01*
X40120350Y-92468657D01*
X40128842Y-92227549D01*
X40165990Y-91914255D01*
X40214320Y-91607957D01*
X40262400Y-91320436D01*
X40299387Y-91115351D01*
X40332858Y-90978862D01*
X40370390Y-90897129D01*
X40419559Y-90856312D01*
X40487942Y-90842570D01*
X40583116Y-90842065D01*
X40633389Y-90842471D01*
G37*
G36*
X44456409Y-93651631D02*
G01*
X44702822Y-93696631D01*
X44871601Y-93778468D01*
X44971297Y-93902883D01*
X45010461Y-94075620D01*
X45006252Y-94230319D01*
X44943147Y-94497219D01*
X44810500Y-94697041D01*
X44606578Y-94831125D01*
X44329649Y-94900814D01*
X44126181Y-94912279D01*
X43973486Y-94912239D01*
X43871579Y-94923155D01*
X43806756Y-94961705D01*
X43765314Y-95044568D01*
X43733549Y-95188424D01*
X43697758Y-95409951D01*
X43693035Y-95439478D01*
X43661872Y-95621896D01*
X43633686Y-95728002D01*
X43596814Y-95778454D01*
X43539591Y-95793910D01*
X43492319Y-95794980D01*
X43392596Y-95784186D01*
X43365504Y-95736723D01*
X43373183Y-95684652D01*
X43389298Y-95601614D01*
X43418754Y-95440016D01*
X43458322Y-95217959D01*
X43504770Y-94953544D01*
X43546003Y-94716216D01*
X43568110Y-94589200D01*
X43847288Y-94589200D01*
X43858448Y-94669708D01*
X43903876Y-94706098D01*
X43989342Y-94715862D01*
X44066431Y-94716216D01*
X44245852Y-94698905D01*
X44414482Y-94655805D01*
X44451915Y-94640301D01*
X44617304Y-94511816D01*
X44707719Y-94323642D01*
X44723552Y-94182126D01*
X44691342Y-94030397D01*
X44590255Y-93935460D01*
X44413610Y-93893217D01*
X44251163Y-93892272D01*
X43963889Y-93907143D01*
X43904697Y-94225868D01*
X43864627Y-94447084D01*
X43847288Y-94589200D01*
X43568110Y-94589200D01*
X43595737Y-94430468D01*
X43641327Y-94172139D01*
X43679527Y-93959331D01*
X43707095Y-93810145D01*
X43719538Y-93747780D01*
X43739568Y-93692054D01*
X43782570Y-93659116D01*
X43870227Y-93643064D01*
X44024221Y-93637994D01*
X44123811Y-93637725D01*
X44456409Y-93651631D01*
G37*
G36*
X56486728Y-93647032D02*
G01*
X56540383Y-93670475D01*
X56541279Y-93674227D01*
X56550877Y-93731083D01*
X56577535Y-93869506D01*
X56618371Y-94075041D01*
X56670500Y-94333236D01*
X56731042Y-94629636D01*
X56756419Y-94752992D01*
X56971207Y-95794980D01*
X56832923Y-95794980D01*
X56751124Y-95787680D01*
X56698269Y-95752069D01*
X56661842Y-95667585D01*
X56629328Y-95513666D01*
X56616539Y-95439478D01*
X56585518Y-95255598D01*
X56085133Y-95255715D01*
X55584749Y-95255831D01*
X55443892Y-95525406D01*
X55358464Y-95677021D01*
X55289888Y-95758749D01*
X55216647Y-95790953D01*
X55159048Y-95794980D01*
X55063845Y-95784397D01*
X55034256Y-95758873D01*
X55034588Y-95758204D01*
X55062906Y-95706729D01*
X55132061Y-95581705D01*
X55235296Y-95395330D01*
X55365852Y-95159799D01*
X55448695Y-95010424D01*
X55716546Y-95010424D01*
X56132041Y-95010424D01*
X56333827Y-95008471D01*
X56455207Y-95000028D01*
X56513810Y-94981221D01*
X56527263Y-94948174D01*
X56522426Y-94924614D01*
X56502992Y-94840138D01*
X56471994Y-94685820D01*
X56434713Y-94488427D01*
X56415958Y-94385231D01*
X56379284Y-94189242D01*
X56347691Y-94035850D01*
X56325682Y-93946175D01*
X56319226Y-93931660D01*
X56291376Y-93972114D01*
X56226427Y-94082572D01*
X56133751Y-94246677D01*
X56022718Y-94448073D01*
X56010199Y-94471042D01*
X55716546Y-95010424D01*
X55448695Y-95010424D01*
X55516972Y-94887312D01*
X55632299Y-94679440D01*
X55812920Y-94354481D01*
X55953186Y-94105259D01*
X56060267Y-93921726D01*
X56141331Y-93793834D01*
X56203549Y-93711534D01*
X56254088Y-93664778D01*
X56300117Y-93643518D01*
X56348807Y-93637705D01*
X56375706Y-93637451D01*
X56486728Y-93647032D01*
G37*
G36*
X43222620Y-93653844D02*
G01*
X43252510Y-93691286D01*
X43244288Y-93758922D01*
X43221670Y-93904301D01*
X43187728Y-94108665D01*
X43145533Y-94353257D01*
X43125930Y-94464361D01*
X43055343Y-94830236D01*
X42986885Y-95112156D01*
X42915745Y-95323991D01*
X42837111Y-95479610D01*
X42746174Y-95592883D01*
X42728809Y-95609230D01*
X42515992Y-95742830D01*
X42253705Y-95821159D01*
X41976507Y-95839514D01*
X41718955Y-95793195D01*
X41634363Y-95758128D01*
X41496788Y-95658936D01*
X41412234Y-95509851D01*
X41398753Y-95470252D01*
X41376320Y-95384735D01*
X41365615Y-95292563D01*
X41367935Y-95176230D01*
X41384580Y-95018230D01*
X41416847Y-94801057D01*
X41466035Y-94507204D01*
X41473294Y-94465040D01*
X41524637Y-94169798D01*
X41564034Y-93957256D01*
X41596129Y-93813459D01*
X41625564Y-93724452D01*
X41656985Y-93676277D01*
X41695034Y-93654981D01*
X41744356Y-93646607D01*
X41745680Y-93646453D01*
X41842722Y-93647715D01*
X41879832Y-93670970D01*
X41872071Y-93730743D01*
X41850446Y-93869777D01*
X41817767Y-94070693D01*
X41776844Y-94316111D01*
X41749322Y-94478535D01*
X41699715Y-94778126D01*
X41667628Y-94998143D01*
X41651813Y-95155271D01*
X41651016Y-95266191D01*
X41663989Y-95347586D01*
X41680541Y-95395806D01*
X41784062Y-95535022D01*
X41937719Y-95610700D01*
X42120077Y-95626352D01*
X42309703Y-95585488D01*
X42485161Y-95491617D01*
X42625017Y-95348250D01*
X42686343Y-95231081D01*
X42707753Y-95149827D01*
X42742074Y-94991620D01*
X42785298Y-94776108D01*
X42833417Y-94522936D01*
X42856408Y-94397490D01*
X42907804Y-94116838D01*
X42947162Y-93918156D01*
X42979619Y-93786859D01*
X43010317Y-93708362D01*
X43044393Y-93668083D01*
X43086988Y-93651436D01*
X43121060Y-93646453D01*
X43222620Y-93653844D01*
G37*
G36*
X58951762Y-93638655D02*
G01*
X59144874Y-93680724D01*
X59298934Y-93738826D01*
X59394032Y-93805541D01*
X59411496Y-93870483D01*
X59386627Y-93979616D01*
X59384942Y-94007843D01*
X59361268Y-94036814D01*
X59281468Y-94015754D01*
X59156983Y-93954798D01*
X58882206Y-93854875D01*
X58598970Y-93833092D01*
X58330981Y-93887480D01*
X58101943Y-94016068D01*
X58068491Y-94045254D01*
X57921264Y-94235240D01*
X57808565Y-94483104D01*
X57737816Y-94757809D01*
X57716440Y-95028319D01*
X57751859Y-95263600D01*
X57767113Y-95305399D01*
X57884691Y-95467676D01*
X58071416Y-95575339D01*
X58311658Y-95623073D01*
X58589785Y-95605563D01*
X58628091Y-95598180D01*
X58770771Y-95564435D01*
X58859721Y-95520763D01*
X58912226Y-95444326D01*
X58945572Y-95312288D01*
X58970921Y-95145270D01*
X59003799Y-94912355D01*
X58774165Y-94912355D01*
X58635345Y-94907919D01*
X58570752Y-94886458D01*
X58556661Y-94835735D01*
X58560200Y-94802027D01*
X58575665Y-94746296D01*
X58616532Y-94711985D01*
X58703745Y-94692558D01*
X58858250Y-94681480D01*
X58959870Y-94677306D01*
X59151732Y-94672057D01*
X59264042Y-94676640D01*
X59315130Y-94694812D01*
X59323325Y-94730335D01*
X59318523Y-94750858D01*
X59299115Y-94839884D01*
X59270893Y-94995163D01*
X59239394Y-95185933D01*
X59233833Y-95221476D01*
X59202164Y-95413554D01*
X59171363Y-95534082D01*
X59127795Y-95608501D01*
X59057824Y-95662252D01*
X58973250Y-95707688D01*
X58727328Y-95791080D01*
X58404247Y-95831126D01*
X58195633Y-95837139D01*
X58046996Y-95824030D01*
X57921130Y-95785824D01*
X57819458Y-95737192D01*
X57614720Y-95587569D01*
X57486341Y-95388292D01*
X57428366Y-95128390D01*
X57423552Y-95007831D01*
X57465508Y-94616019D01*
X57590598Y-94273266D01*
X57767468Y-94016086D01*
X58007801Y-93803693D01*
X58287543Y-93673740D01*
X58618897Y-93621254D01*
X58739509Y-93620042D01*
X58951762Y-93638655D01*
G37*
G36*
X46427847Y-93638566D02*
G01*
X46616793Y-93643000D01*
X46735395Y-93652385D01*
X46797511Y-93668356D01*
X46816995Y-93692544D01*
X46812775Y-93715014D01*
X46786316Y-93808433D01*
X46783012Y-93837601D01*
X46737300Y-93855774D01*
X46613421Y-93870434D01*
X46431261Y-93879906D01*
X46248876Y-93882625D01*
X46005470Y-93883091D01*
X45842152Y-93892010D01*
X45740979Y-93920668D01*
X45684010Y-93980349D01*
X45653303Y-94082339D01*
X45630917Y-94237922D01*
X45626146Y-94274306D01*
X45593543Y-94520077D01*
X46090208Y-94520077D01*
X46314438Y-94520833D01*
X46458389Y-94525987D01*
X46539852Y-94539873D01*
X46576617Y-94566821D01*
X46586475Y-94611163D01*
X46586873Y-94641005D01*
X46583688Y-94694389D01*
X46562625Y-94729705D01*
X46506419Y-94751372D01*
X46397805Y-94763808D01*
X46219518Y-94771433D01*
X46060041Y-94775850D01*
X45533209Y-94789768D01*
X45473913Y-95108494D01*
X45433808Y-95319868D01*
X45416558Y-95460066D01*
X45436224Y-95543587D01*
X45506869Y-95584932D01*
X45642553Y-95598602D01*
X45857341Y-95599097D01*
X45949421Y-95598841D01*
X46185476Y-95599970D01*
X46340422Y-95605410D01*
X46431212Y-95618245D01*
X46474800Y-95641557D01*
X46488139Y-95678428D01*
X46488803Y-95696911D01*
X46483826Y-95735252D01*
X46458987Y-95762042D01*
X46399426Y-95779344D01*
X46290282Y-95789221D01*
X46116695Y-95793735D01*
X45863803Y-95794950D01*
X45782390Y-95794980D01*
X45505785Y-95794088D01*
X45312994Y-95790223D01*
X45189767Y-95781608D01*
X45121856Y-95766464D01*
X45095011Y-95743011D01*
X45094984Y-95709471D01*
X45095051Y-95709170D01*
X45109355Y-95634512D01*
X45137196Y-95480675D01*
X45175470Y-95265125D01*
X45221071Y-95005328D01*
X45262842Y-94765251D01*
X45312988Y-94477267D01*
X45359177Y-94214538D01*
X45398079Y-93995804D01*
X45426367Y-93839803D01*
X45439212Y-93772297D01*
X45466866Y-93637451D01*
X46154702Y-93637451D01*
X46427847Y-93638566D01*
G37*
G36*
X47928490Y-93647208D02*
G01*
X48201743Y-93689813D01*
X48393440Y-93776193D01*
X48507559Y-93908201D01*
X48548079Y-94087691D01*
X48548263Y-94102628D01*
X48512418Y-94344291D01*
X48414145Y-94553338D01*
X48267330Y-94700822D01*
X48258633Y-94706263D01*
X48164217Y-94771072D01*
X48145049Y-94818352D01*
X48186334Y-94872655D01*
X48236097Y-94952345D01*
X48302958Y-95099008D01*
X48375138Y-95285893D01*
X48400749Y-95359623D01*
X48539035Y-95770463D01*
X48415088Y-95786555D01*
X48332013Y-95791007D01*
X48272068Y-95767208D01*
X48221899Y-95698019D01*
X48168155Y-95566303D01*
X48110917Y-95396141D01*
X48026589Y-95171823D01*
X47936787Y-95025649D01*
X47822030Y-94938701D01*
X47662835Y-94892059D01*
X47579566Y-94880118D01*
X47464047Y-94866940D01*
X47385177Y-94870160D01*
X47332654Y-94905138D01*
X47296175Y-94987232D01*
X47265434Y-95131800D01*
X47230129Y-95354199D01*
X47220748Y-95414961D01*
X47189709Y-95604983D01*
X47162445Y-95717995D01*
X47128350Y-95773997D01*
X47076819Y-95792991D01*
X47019236Y-95794980D01*
X46923552Y-95786760D01*
X46892971Y-95742160D01*
X46905333Y-95635617D01*
X46922862Y-95537158D01*
X46954076Y-95360728D01*
X46995689Y-95124946D01*
X47044414Y-94848433D01*
X47085436Y-94615333D01*
X47371429Y-94615333D01*
X47414660Y-94648769D01*
X47524628Y-94664634D01*
X47671745Y-94663775D01*
X47826424Y-94647038D01*
X47959077Y-94615270D01*
X48001769Y-94597306D01*
X48142118Y-94481318D01*
X48226852Y-94324091D01*
X48247921Y-94155022D01*
X48197276Y-94003507D01*
X48172902Y-93972297D01*
X48095711Y-93918016D01*
X47972567Y-93890155D01*
X47787810Y-93882625D01*
X47483870Y-93882625D01*
X47427649Y-94223055D01*
X47399586Y-94399951D01*
X47379435Y-94540265D01*
X47371436Y-94614413D01*
X47371429Y-94615333D01*
X47085436Y-94615333D01*
X47093570Y-94569112D01*
X47253113Y-93661969D01*
X47569703Y-93646522D01*
X47928490Y-93647208D01*
G37*
G36*
X54809791Y-93638558D02*
G01*
X54999602Y-93642957D01*
X55119003Y-93652269D01*
X55181819Y-93668112D01*
X55201872Y-93692108D01*
X55197717Y-93715014D01*
X55171258Y-93808433D01*
X55167954Y-93837601D01*
X55122236Y-93855744D01*
X54998315Y-93870390D01*
X54816040Y-93879871D01*
X54631876Y-93882625D01*
X54390761Y-93882559D01*
X54229487Y-93890266D01*
X54129912Y-93917603D01*
X54073893Y-93976427D01*
X54043285Y-94078593D01*
X54019948Y-94235960D01*
X54012863Y-94287162D01*
X53979985Y-94520077D01*
X54505663Y-94520077D01*
X54738881Y-94521692D01*
X54889508Y-94528149D01*
X54972995Y-94541864D01*
X55004792Y-94565253D01*
X55001578Y-94597639D01*
X54975153Y-94689973D01*
X54971815Y-94718567D01*
X54926122Y-94737403D01*
X54802404Y-94754855D01*
X54620701Y-94768741D01*
X54445716Y-94775850D01*
X53919618Y-94789768D01*
X53860313Y-95133011D01*
X53830350Y-95312301D01*
X53808042Y-95456845D01*
X53798064Y-95536285D01*
X53797994Y-95537548D01*
X53824419Y-95566268D01*
X53914605Y-95585192D01*
X54079894Y-95595618D01*
X54331628Y-95598841D01*
X54334363Y-95598841D01*
X54570418Y-95599970D01*
X54725364Y-95605410D01*
X54816154Y-95618245D01*
X54859743Y-95641557D01*
X54873081Y-95678428D01*
X54873745Y-95696911D01*
X54868653Y-95735719D01*
X54843328Y-95762670D01*
X54782699Y-95779917D01*
X54671696Y-95789614D01*
X54495248Y-95793914D01*
X54238283Y-95794969D01*
X54187259Y-95794980D01*
X53914284Y-95793951D01*
X53724534Y-95789627D01*
X53603174Y-95780152D01*
X53535370Y-95763674D01*
X53506287Y-95738336D01*
X53500927Y-95709170D01*
X53509347Y-95636002D01*
X53532717Y-95482654D01*
X53568359Y-95265417D01*
X53613590Y-95000582D01*
X53665730Y-94704439D01*
X53672394Y-94667181D01*
X53724911Y-94372321D01*
X53770932Y-94110614D01*
X53807821Y-93897327D01*
X53832942Y-93747724D01*
X53843658Y-93677072D01*
X53843860Y-93674227D01*
X53890037Y-93661057D01*
X54016794Y-93649974D01*
X54206649Y-93641909D01*
X54442122Y-93637789D01*
X54535748Y-93637451D01*
X54809791Y-93638558D01*
G37*
G36*
X49413725Y-93644978D02*
G01*
X49459794Y-93675235D01*
X49496076Y-93741689D01*
X49529257Y-93858239D01*
X49566026Y-94038785D01*
X49613072Y-94297226D01*
X49631179Y-94397490D01*
X49675101Y-94630499D01*
X49716014Y-94830739D01*
X49749364Y-94976967D01*
X49770596Y-95047943D01*
X49770688Y-95048117D01*
X49804757Y-95030066D01*
X49877608Y-94933170D01*
X49983649Y-94766038D01*
X50117288Y-94537283D01*
X50208472Y-94373890D01*
X50613371Y-93637451D01*
X50826612Y-93637451D01*
X50959799Y-93643867D01*
X51017192Y-93669536D01*
X51020779Y-93723262D01*
X51006475Y-93797919D01*
X50978634Y-93951757D01*
X50940360Y-94167307D01*
X50894759Y-94427103D01*
X50852988Y-94667181D01*
X50790963Y-95025892D01*
X50743103Y-95299543D01*
X50706132Y-95499582D01*
X50676776Y-95637455D01*
X50651758Y-95724610D01*
X50627803Y-95772493D01*
X50601636Y-95792551D01*
X50569981Y-95796232D01*
X50530274Y-95794980D01*
X50433637Y-95767904D01*
X50411583Y-95718666D01*
X50419935Y-95647045D01*
X50443077Y-95496411D01*
X50478143Y-95284217D01*
X50522262Y-95027916D01*
X50561546Y-94806210D01*
X50609546Y-94532969D01*
X50649376Y-94295338D01*
X50678528Y-94109210D01*
X50694493Y-93990475D01*
X50695945Y-93954503D01*
X50668482Y-93989911D01*
X50602233Y-94097786D01*
X50505215Y-94264416D01*
X50385449Y-94476089D01*
X50284194Y-94658562D01*
X50136231Y-94924980D01*
X50025063Y-95117094D01*
X49941583Y-95247263D01*
X49876679Y-95327846D01*
X49821244Y-95371201D01*
X49766166Y-95389686D01*
X49742985Y-95392806D01*
X49597964Y-95407426D01*
X49455661Y-94668508D01*
X49405037Y-94419779D01*
X49358045Y-94214805D01*
X49318497Y-94068293D01*
X49290202Y-93994948D01*
X49280346Y-93991918D01*
X49261303Y-94059523D01*
X49230000Y-94206082D01*
X49189928Y-94413751D01*
X49144582Y-94664690D01*
X49114566Y-94838803D01*
X49059290Y-95165065D01*
X49016913Y-95407227D01*
X48983509Y-95577806D01*
X48955152Y-95689315D01*
X48927917Y-95754272D01*
X48897878Y-95785191D01*
X48861110Y-95794589D01*
X48814649Y-95794980D01*
X48723798Y-95782041D01*
X48694802Y-95758204D01*
X48702714Y-95701053D01*
X48725164Y-95561897D01*
X48759705Y-95355318D01*
X48803887Y-95095897D01*
X48855262Y-94798216D01*
X48875928Y-94679440D01*
X49057618Y-93637451D01*
X49265466Y-93637451D01*
X49351178Y-93637016D01*
X49413725Y-93644978D01*
G37*
G36*
X41367947Y-89638690D02*
G01*
X41462741Y-89644727D01*
X41706755Y-89663089D01*
X42034185Y-89690759D01*
X42430961Y-89726355D01*
X42883014Y-89768494D01*
X43376275Y-89815794D01*
X43896674Y-89866870D01*
X44430141Y-89920342D01*
X44962608Y-89974825D01*
X45480005Y-90028938D01*
X45968263Y-90081297D01*
X46413312Y-90130520D01*
X46464286Y-90136279D01*
X48153158Y-90335421D01*
X49755156Y-90540313D01*
X51269379Y-90750773D01*
X52694929Y-90966617D01*
X54030906Y-91187661D01*
X55276411Y-91413722D01*
X56430544Y-91644618D01*
X57492406Y-91880164D01*
X58461096Y-92120176D01*
X59335717Y-92364473D01*
X60115368Y-92612869D01*
X60799151Y-92865183D01*
X61386165Y-93121230D01*
X61582604Y-93218917D01*
X61900818Y-93394917D01*
X62142540Y-93557835D01*
X62325441Y-93722006D01*
X62467189Y-93901763D01*
X62510956Y-93972046D01*
X62591194Y-94129904D01*
X62631473Y-94281037D01*
X62643142Y-94472534D01*
X62643039Y-94520077D01*
X62632436Y-94718215D01*
X62596206Y-94882288D01*
X62521824Y-95058759D01*
X62471417Y-95156763D01*
X62318739Y-95395473D01*
X62110726Y-95655294D01*
X61875208Y-95905362D01*
X61640014Y-96114812D01*
X61542471Y-96187059D01*
X61489228Y-96214906D01*
X61505313Y-96177941D01*
X61591361Y-96075291D01*
X61743984Y-95910332D01*
X62045594Y-95558163D01*
X62258501Y-95230058D01*
X62386757Y-94918225D01*
X62434408Y-94614870D01*
X62434903Y-94580483D01*
X62408565Y-94312547D01*
X62321896Y-94077276D01*
X62163413Y-93851835D01*
X61970641Y-93657222D01*
X61708221Y-93451372D01*
X61389603Y-93263344D01*
X61007207Y-93090293D01*
X60553451Y-92929375D01*
X60020754Y-92777747D01*
X59401536Y-92632562D01*
X59042611Y-92558625D01*
X58592238Y-92470929D01*
X58197897Y-92398311D01*
X57843659Y-92339461D01*
X57513596Y-92293068D01*
X57191781Y-92257820D01*
X56862285Y-92232405D01*
X56509179Y-92215513D01*
X56116537Y-92205832D01*
X55668429Y-92202051D01*
X55148928Y-92202859D01*
X54751158Y-92205328D01*
X54180504Y-92209192D01*
X53694225Y-92210586D01*
X53278629Y-92207814D01*
X52920026Y-92199178D01*
X52604723Y-92182982D01*
X52319030Y-92157528D01*
X52049254Y-92121120D01*
X51781704Y-92072060D01*
X51502690Y-92008651D01*
X51198519Y-91929197D01*
X50855500Y-91832000D01*
X50459941Y-91715364D01*
X50219505Y-91643649D01*
X49489345Y-91425734D01*
X48842021Y-91233269D01*
X48266378Y-91063725D01*
X47751256Y-90914578D01*
X47285500Y-90783300D01*
X46857951Y-90667364D01*
X46457453Y-90564244D01*
X46072847Y-90471413D01*
X45692977Y-90386343D01*
X45306685Y-90306509D01*
X44902813Y-90229384D01*
X44470205Y-90152440D01*
X43997703Y-90073151D01*
X43474150Y-89988990D01*
X42888387Y-89897431D01*
X42229259Y-89795947D01*
X41707915Y-89716068D01*
X41464477Y-89678199D01*
X41313439Y-89652887D01*
X41250123Y-89638773D01*
X41269851Y-89634494D01*
X41367947Y-89638690D01*
G37*
G36*
X45526087Y-90831407D02*
G01*
X45744997Y-90860128D01*
X45880818Y-90905583D01*
X45978849Y-90966406D01*
X46013505Y-91035247D01*
X46003380Y-91153376D01*
X46000368Y-91170935D01*
X45969223Y-91286722D01*
X45931843Y-91344733D01*
X45921867Y-91346374D01*
X45851130Y-91324361D01*
X45725236Y-91281319D01*
X45658607Y-91257750D01*
X45385165Y-91205215D01*
X45130593Y-91246993D01*
X44902957Y-91381698D01*
X44894391Y-91389118D01*
X44737977Y-91574642D01*
X44633848Y-91796796D01*
X44585008Y-92032173D01*
X44594464Y-92257366D01*
X44665222Y-92448967D01*
X44745980Y-92544810D01*
X44906421Y-92626304D01*
X45120144Y-92657985D01*
X45355079Y-92638331D01*
X45541729Y-92582561D01*
X45659032Y-92540081D01*
X45731707Y-92525975D01*
X45739455Y-92528515D01*
X45744706Y-92585182D01*
X45731383Y-92698124D01*
X45727574Y-92719410D01*
X45682749Y-92844507D01*
X45593235Y-92931936D01*
X45444148Y-92988750D01*
X45220603Y-93022002D01*
X45066795Y-93032486D01*
X44810829Y-93034329D01*
X44623533Y-93007515D01*
X44527413Y-92973872D01*
X44301070Y-92835506D01*
X44137698Y-92660108D01*
X44054901Y-92466763D01*
X44022481Y-92293948D01*
X43909326Y-92550344D01*
X43827276Y-92706892D01*
X43728760Y-92823051D01*
X43598708Y-92904527D01*
X43422048Y-92957025D01*
X43183710Y-92986250D01*
X42868624Y-92997909D01*
X42724452Y-92998923D01*
X42461629Y-92998905D01*
X42281918Y-92996086D01*
X42170361Y-92987858D01*
X42112001Y-92971610D01*
X42091880Y-92944732D01*
X42095041Y-92904616D01*
X42098279Y-92889671D01*
X42114395Y-92806633D01*
X42143851Y-92645035D01*
X42173220Y-92480214D01*
X42720799Y-92480214D01*
X42721155Y-92587873D01*
X42757296Y-92639443D01*
X42841138Y-92655548D01*
X42952869Y-92656756D01*
X43168215Y-92632089D01*
X43294021Y-92570946D01*
X43384571Y-92455765D01*
X43425587Y-92357338D01*
X43423289Y-92216327D01*
X43337480Y-92122650D01*
X43166627Y-92075171D01*
X43035016Y-92068339D01*
X42775492Y-92068339D01*
X42744310Y-92295840D01*
X42720799Y-92480214D01*
X42173220Y-92480214D01*
X42183418Y-92422979D01*
X42229867Y-92158563D01*
X42271099Y-91921235D01*
X42320950Y-91634959D01*
X42321690Y-91630774D01*
X42868346Y-91630774D01*
X42898313Y-91663476D01*
X42990029Y-91674865D01*
X43096184Y-91676061D01*
X43302634Y-91655544D01*
X43423291Y-91596345D01*
X43479520Y-91487580D01*
X43488087Y-91387947D01*
X43472006Y-91314863D01*
X43428881Y-91274343D01*
X43333909Y-91254408D01*
X43191216Y-91244560D01*
X43032451Y-91239119D01*
X42948036Y-91249468D01*
X42914551Y-91283732D01*
X42908597Y-91342630D01*
X42894608Y-91487111D01*
X42878361Y-91565733D01*
X42868346Y-91630774D01*
X42321690Y-91630774D01*
X42366787Y-91375602D01*
X42405331Y-91161414D01*
X42433305Y-91010645D01*
X42446071Y-90947075D01*
X42459598Y-90899756D01*
X42485463Y-90867995D01*
X42540066Y-90849401D01*
X42639804Y-90841584D01*
X42801075Y-90842151D01*
X43040279Y-90848712D01*
X43106546Y-90850771D01*
X43376980Y-90861135D01*
X43568699Y-90874547D01*
X43701059Y-90894046D01*
X43793416Y-90922672D01*
X43865125Y-90963467D01*
X43876473Y-90971695D01*
X43988631Y-91110487D01*
X44034628Y-91290334D01*
X44016946Y-91482250D01*
X43938068Y-91657249D01*
X43807038Y-91782449D01*
X43678405Y-91860499D01*
X43786949Y-91918590D01*
X43888763Y-92006915D01*
X43935088Y-92083717D01*
X43960506Y-92129614D01*
X43984608Y-92106601D01*
X44014175Y-92003413D01*
X44032265Y-91922261D01*
X44151781Y-91561459D01*
X44342104Y-91268055D01*
X44605247Y-91039554D01*
X44848778Y-90910468D01*
X45041811Y-90856747D01*
X45279636Y-90830337D01*
X45526087Y-90831407D01*
G37*
D14*
%TO.C,M4_2*%
X97718000Y-75708073D02*
X97718000Y-81762071D01*
X102972000Y-81762071D02*
X102972000Y-75708073D01*
X102326200Y-74643671D02*
G75*
G02*
X102173800Y-74643671I-76200J0D01*
G01*
X102173800Y-74643671D02*
G75*
G02*
X102326200Y-74643671I76200J0D01*
G01*
%TD*%
%LPC*%
D18*
%TO.C,M3*%
G36*
X106335000Y-72885000D02*
G01*
X105545000Y-72885000D01*
X105545000Y-72115000D01*
X106335000Y-72115000D01*
X106335000Y-72885000D01*
G37*
G36*
X106335000Y-78355144D02*
G01*
X105545000Y-78355144D01*
X105545000Y-77585144D01*
X106335000Y-77585144D01*
X106335000Y-78355144D01*
G37*
G36*
X107845000Y-76780271D02*
G01*
X105615001Y-76780271D01*
X105615001Y-72489871D01*
X107845000Y-72489871D01*
X107845000Y-76780271D01*
G37*
G36*
X107605000Y-72885000D02*
G01*
X106815000Y-72885000D01*
X106815000Y-72115000D01*
X107605000Y-72115000D01*
X107605000Y-72885000D01*
G37*
G36*
X107605000Y-78355144D02*
G01*
X106815000Y-78355144D01*
X106815000Y-77585144D01*
X107605000Y-77585144D01*
X107605000Y-78355144D01*
G37*
G36*
X108875000Y-72885000D02*
G01*
X108085000Y-72885000D01*
X108085000Y-72115000D01*
X108875000Y-72115000D01*
X108875000Y-72885000D01*
G37*
G36*
X108875000Y-78355144D02*
G01*
X108085000Y-78355144D01*
X108085000Y-77585144D01*
X108875000Y-77585144D01*
X108875000Y-78355144D01*
G37*
G36*
X110145000Y-72885000D02*
G01*
X109355000Y-72885000D01*
X109355000Y-72115000D01*
X110145000Y-72115000D01*
X110145000Y-72885000D01*
G37*
G36*
X110145000Y-78355144D02*
G01*
X109355000Y-78355144D01*
X109355000Y-77585144D01*
X110145000Y-77585144D01*
X110145000Y-78355144D01*
G37*
G36*
X110074999Y-76780271D02*
G01*
X107845000Y-76780271D01*
X107845000Y-72489871D01*
X110074999Y-72489871D01*
X110074999Y-76780271D01*
G37*
%TO.C,M1_2*%
G36*
X74085000Y-72885000D02*
G01*
X73295000Y-72885000D01*
X73295000Y-72115000D01*
X74085000Y-72115000D01*
X74085000Y-72885000D01*
G37*
G36*
X74085000Y-78355144D02*
G01*
X73295000Y-78355144D01*
X73295000Y-77585144D01*
X74085000Y-77585144D01*
X74085000Y-78355144D01*
G37*
G36*
X75595000Y-76780271D02*
G01*
X73365001Y-76780271D01*
X73365001Y-72489871D01*
X75595000Y-72489871D01*
X75595000Y-76780271D01*
G37*
G36*
X75355000Y-72885000D02*
G01*
X74565000Y-72885000D01*
X74565000Y-72115000D01*
X75355000Y-72115000D01*
X75355000Y-72885000D01*
G37*
G36*
X75355000Y-78355144D02*
G01*
X74565000Y-78355144D01*
X74565000Y-77585144D01*
X75355000Y-77585144D01*
X75355000Y-78355144D01*
G37*
G36*
X76625000Y-72885000D02*
G01*
X75835000Y-72885000D01*
X75835000Y-72115000D01*
X76625000Y-72115000D01*
X76625000Y-72885000D01*
G37*
G36*
X76625000Y-78355144D02*
G01*
X75835000Y-78355144D01*
X75835000Y-77585144D01*
X76625000Y-77585144D01*
X76625000Y-78355144D01*
G37*
G36*
X77895000Y-72885000D02*
G01*
X77105000Y-72885000D01*
X77105000Y-72115000D01*
X77895000Y-72115000D01*
X77895000Y-72885000D01*
G37*
G36*
X77895000Y-78355144D02*
G01*
X77105000Y-78355144D01*
X77105000Y-77585144D01*
X77895000Y-77585144D01*
X77895000Y-78355144D01*
G37*
G36*
X77824999Y-76780271D02*
G01*
X75595000Y-76780271D01*
X75595000Y-72489871D01*
X77824999Y-72489871D01*
X77824999Y-76780271D01*
G37*
%TO.C,M1*%
G36*
X67895000Y-72914856D02*
G01*
X67105000Y-72914856D01*
X67105000Y-72144856D01*
X67895000Y-72144856D01*
X67895000Y-72914856D01*
G37*
G36*
X67895000Y-78385000D02*
G01*
X67105000Y-78385000D01*
X67105000Y-77615000D01*
X67895000Y-77615000D01*
X67895000Y-78385000D01*
G37*
G36*
X69405000Y-76810127D02*
G01*
X67175001Y-76810127D01*
X67175001Y-72519727D01*
X69405000Y-72519727D01*
X69405000Y-76810127D01*
G37*
G36*
X69165000Y-72914856D02*
G01*
X68375000Y-72914856D01*
X68375000Y-72144856D01*
X69165000Y-72144856D01*
X69165000Y-72914856D01*
G37*
G36*
X69165000Y-78385000D02*
G01*
X68375000Y-78385000D01*
X68375000Y-77615000D01*
X69165000Y-77615000D01*
X69165000Y-78385000D01*
G37*
G36*
X70435000Y-72914856D02*
G01*
X69645000Y-72914856D01*
X69645000Y-72144856D01*
X70435000Y-72144856D01*
X70435000Y-72914856D01*
G37*
G36*
X70435000Y-78385000D02*
G01*
X69645000Y-78385000D01*
X69645000Y-77615000D01*
X70435000Y-77615000D01*
X70435000Y-78385000D01*
G37*
G36*
X71705000Y-72914856D02*
G01*
X70915000Y-72914856D01*
X70915000Y-72144856D01*
X71705000Y-72144856D01*
X71705000Y-72914856D01*
G37*
G36*
X71705000Y-78385000D02*
G01*
X70915000Y-78385000D01*
X70915000Y-77615000D01*
X71705000Y-77615000D01*
X71705000Y-78385000D01*
G37*
G36*
X71634999Y-76810127D02*
G01*
X69405000Y-76810127D01*
X69405000Y-72519727D01*
X71634999Y-72519727D01*
X71634999Y-76810127D01*
G37*
%TO.C,M3_2*%
G36*
X113335000Y-72885000D02*
G01*
X112545000Y-72885000D01*
X112545000Y-72115000D01*
X113335000Y-72115000D01*
X113335000Y-72885000D01*
G37*
G36*
X113335000Y-78355144D02*
G01*
X112545000Y-78355144D01*
X112545000Y-77585144D01*
X113335000Y-77585144D01*
X113335000Y-78355144D01*
G37*
G36*
X114845000Y-76780271D02*
G01*
X112615001Y-76780271D01*
X112615001Y-72489871D01*
X114845000Y-72489871D01*
X114845000Y-76780271D01*
G37*
G36*
X114605000Y-72885000D02*
G01*
X113815000Y-72885000D01*
X113815000Y-72115000D01*
X114605000Y-72115000D01*
X114605000Y-72885000D01*
G37*
G36*
X114605000Y-78355144D02*
G01*
X113815000Y-78355144D01*
X113815000Y-77585144D01*
X114605000Y-77585144D01*
X114605000Y-78355144D01*
G37*
G36*
X115875000Y-72885000D02*
G01*
X115085000Y-72885000D01*
X115085000Y-72115000D01*
X115875000Y-72115000D01*
X115875000Y-72885000D01*
G37*
G36*
X115875000Y-78355144D02*
G01*
X115085000Y-78355144D01*
X115085000Y-77585144D01*
X115875000Y-77585144D01*
X115875000Y-78355144D01*
G37*
G36*
X117145000Y-72885000D02*
G01*
X116355000Y-72885000D01*
X116355000Y-72115000D01*
X117145000Y-72115000D01*
X117145000Y-72885000D01*
G37*
G36*
X117145000Y-78355144D02*
G01*
X116355000Y-78355144D01*
X116355000Y-77585144D01*
X117145000Y-77585144D01*
X117145000Y-78355144D01*
G37*
G36*
X117074999Y-76780271D02*
G01*
X114845000Y-76780271D01*
X114845000Y-72489871D01*
X117074999Y-72489871D01*
X117074999Y-76780271D01*
G37*
%TO.C,M4*%
G36*
X93845000Y-81480273D02*
G01*
X91615001Y-81480273D01*
X91615001Y-77189873D01*
X93845000Y-77189873D01*
X93845000Y-81480273D01*
G37*
G36*
X92335000Y-76385000D02*
G01*
X91545000Y-76385000D01*
X91545000Y-75615000D01*
X92335000Y-75615000D01*
X92335000Y-76385000D01*
G37*
G36*
X92335000Y-81855144D02*
G01*
X91545000Y-81855144D01*
X91545000Y-81085144D01*
X92335000Y-81085144D01*
X92335000Y-81855144D01*
G37*
G36*
X93605000Y-76385000D02*
G01*
X92815000Y-76385000D01*
X92815000Y-75615000D01*
X93605000Y-75615000D01*
X93605000Y-76385000D01*
G37*
G36*
X93605000Y-81855144D02*
G01*
X92815000Y-81855144D01*
X92815000Y-81085144D01*
X93605000Y-81085144D01*
X93605000Y-81855144D01*
G37*
G36*
X94875000Y-76385000D02*
G01*
X94085000Y-76385000D01*
X94085000Y-75615000D01*
X94875000Y-75615000D01*
X94875000Y-76385000D01*
G37*
G36*
X94875000Y-81855144D02*
G01*
X94085000Y-81855144D01*
X94085000Y-81085144D01*
X94875000Y-81085144D01*
X94875000Y-81855144D01*
G37*
G36*
X96074999Y-81480273D02*
G01*
X93845000Y-81480273D01*
X93845000Y-77189873D01*
X96074999Y-77189873D01*
X96074999Y-81480273D01*
G37*
G36*
X96145000Y-76385000D02*
G01*
X95355000Y-76385000D01*
X95355000Y-75615000D01*
X96145000Y-75615000D01*
X96145000Y-76385000D01*
G37*
G36*
X96145000Y-81855144D02*
G01*
X95355000Y-81855144D01*
X95355000Y-81085144D01*
X96145000Y-81085144D01*
X96145000Y-81855144D01*
G37*
%TO.C,M2*%
G36*
X84345000Y-81480273D02*
G01*
X82115001Y-81480273D01*
X82115001Y-77189873D01*
X84345000Y-77189873D01*
X84345000Y-81480273D01*
G37*
G36*
X82835000Y-76385000D02*
G01*
X82045000Y-76385000D01*
X82045000Y-75615000D01*
X82835000Y-75615000D01*
X82835000Y-76385000D01*
G37*
G36*
X82835000Y-81855144D02*
G01*
X82045000Y-81855144D01*
X82045000Y-81085144D01*
X82835000Y-81085144D01*
X82835000Y-81855144D01*
G37*
G36*
X84105000Y-76385000D02*
G01*
X83315000Y-76385000D01*
X83315000Y-75615000D01*
X84105000Y-75615000D01*
X84105000Y-76385000D01*
G37*
G36*
X84105000Y-81855144D02*
G01*
X83315000Y-81855144D01*
X83315000Y-81085144D01*
X84105000Y-81085144D01*
X84105000Y-81855144D01*
G37*
G36*
X85375000Y-76385000D02*
G01*
X84585000Y-76385000D01*
X84585000Y-75615000D01*
X85375000Y-75615000D01*
X85375000Y-76385000D01*
G37*
G36*
X85375000Y-81855144D02*
G01*
X84585000Y-81855144D01*
X84585000Y-81085144D01*
X85375000Y-81085144D01*
X85375000Y-81855144D01*
G37*
G36*
X86574999Y-81480273D02*
G01*
X84345000Y-81480273D01*
X84345000Y-77189873D01*
X86574999Y-77189873D01*
X86574999Y-81480273D01*
G37*
G36*
X86645000Y-76385000D02*
G01*
X85855000Y-76385000D01*
X85855000Y-75615000D01*
X86645000Y-75615000D01*
X86645000Y-76385000D01*
G37*
G36*
X86645000Y-81855144D02*
G01*
X85855000Y-81855144D01*
X85855000Y-81085144D01*
X86645000Y-81085144D01*
X86645000Y-81855144D01*
G37*
%TO.C,M4_2*%
G36*
X100345000Y-81480273D02*
G01*
X98115001Y-81480273D01*
X98115001Y-77189873D01*
X100345000Y-77189873D01*
X100345000Y-81480273D01*
G37*
G36*
X98835000Y-76385000D02*
G01*
X98045000Y-76385000D01*
X98045000Y-75615000D01*
X98835000Y-75615000D01*
X98835000Y-76385000D01*
G37*
G36*
X98835000Y-81855144D02*
G01*
X98045000Y-81855144D01*
X98045000Y-81085144D01*
X98835000Y-81085144D01*
X98835000Y-81855144D01*
G37*
G36*
X100105000Y-76385000D02*
G01*
X99315000Y-76385000D01*
X99315000Y-75615000D01*
X100105000Y-75615000D01*
X100105000Y-76385000D01*
G37*
G36*
X100105000Y-81855144D02*
G01*
X99315000Y-81855144D01*
X99315000Y-81085144D01*
X100105000Y-81085144D01*
X100105000Y-81855144D01*
G37*
G36*
X101375000Y-76385000D02*
G01*
X100585000Y-76385000D01*
X100585000Y-75615000D01*
X101375000Y-75615000D01*
X101375000Y-76385000D01*
G37*
G36*
X101375000Y-81855144D02*
G01*
X100585000Y-81855144D01*
X100585000Y-81085144D01*
X101375000Y-81085144D01*
X101375000Y-81855144D01*
G37*
G36*
X102574999Y-81480273D02*
G01*
X100345000Y-81480273D01*
X100345000Y-77189873D01*
X102574999Y-77189873D01*
X102574999Y-81480273D01*
G37*
G36*
X102645000Y-76385000D02*
G01*
X101855000Y-76385000D01*
X101855000Y-75615000D01*
X102645000Y-75615000D01*
X102645000Y-76385000D01*
G37*
G36*
X102645000Y-81855144D02*
G01*
X101855000Y-81855144D01*
X101855000Y-81085144D01*
X102645000Y-81085144D01*
X102645000Y-81855144D01*
G37*
%TD*%
D19*
%TO.C,Rfbt1*%
X87162500Y-49000000D03*
X85337500Y-49000000D03*
%TD*%
D20*
%TO.C,M3*%
X105940000Y-77970144D03*
X107210000Y-77970144D03*
X108480000Y-77970144D03*
X109750000Y-77970144D03*
D21*
X107845001Y-74640136D03*
D20*
X105940000Y-72500000D03*
X107210000Y-72500000D03*
X108480000Y-72500000D03*
X109750000Y-72500000D03*
%TD*%
D22*
%TO.C,Cout1*%
X109241800Y-63000000D03*
X109241800Y-56091200D03*
%TD*%
D23*
%TO.C,Vin (15 to 28V)*%
X34500000Y-73287202D03*
X25500018Y-79637202D03*
%TD*%
D24*
%TO.C,Ccomp1*%
X81737500Y-43100000D03*
X79662500Y-43100000D03*
%TD*%
D25*
%TO.C,Ccomp2*%
X80867500Y-45200000D03*
X79732500Y-45200000D03*
%TD*%
D26*
%TO.C,Rcsg1*%
X97599998Y-50812499D03*
X97599998Y-52637499D03*
%TD*%
D22*
%TO.C,Cin1*%
X60500000Y-63000000D03*
X60500000Y-56091200D03*
%TD*%
D27*
%TO.C,GND*%
X41500000Y-46000000D03*
%TD*%
D28*
%TO.C,Cvcc1*%
X104599998Y-44724999D03*
X106324998Y-44724999D03*
%TD*%
D24*
%TO.C,Css1*%
X81737500Y-40500000D03*
X79662500Y-40500000D03*
%TD*%
D27*
%TO.C,Vin*%
X42000000Y-80000000D03*
%TD*%
D19*
%TO.C,Rt1*%
X81512500Y-36400000D03*
X79687500Y-36400000D03*
%TD*%
D27*
%TO.C,GND*%
X133500000Y-46000000D03*
%TD*%
D22*
%TO.C,Cin_5*%
X70500000Y-63000000D03*
X70500000Y-56091200D03*
%TD*%
D29*
%TO.C,Dboot1*%
X120500000Y-36500000D03*
X120500000Y-45300000D03*
%TD*%
D22*
%TO.C,Cin_4*%
X40500000Y-63000000D03*
X40500000Y-56091200D03*
%TD*%
D30*
%TO.C,Ccs1*%
X97962498Y-47724999D03*
X96237498Y-47724999D03*
%TD*%
D22*
%TO.C,Cout_4*%
X140250000Y-63000000D03*
X140250000Y-56091200D03*
%TD*%
D31*
%TO.C,L1*%
X97750000Y-99000000D03*
X84250000Y-90100000D03*
D32*
X84250000Y-99000000D03*
D33*
X97750000Y-90100000D03*
%TD*%
D26*
%TO.C,Rf1*%
X91250000Y-32087500D03*
X91250000Y-33912500D03*
%TD*%
D20*
%TO.C,M1_2*%
X73690000Y-77970144D03*
X74960000Y-77970144D03*
X76230000Y-77970144D03*
X77500000Y-77970144D03*
D21*
X75595001Y-74640136D03*
D20*
X73690000Y-72500000D03*
X74960000Y-72500000D03*
X76230000Y-72500000D03*
X77500000Y-72500000D03*
%TD*%
D30*
%TO.C,Cslope1*%
X81362500Y-38200000D03*
X79637500Y-38200000D03*
%TD*%
D34*
%TO.C,Cbulk1*%
X31000000Y-62000000D03*
X31000000Y-56700000D03*
%TD*%
D20*
%TO.C,M1*%
X67500000Y-78000000D03*
X68770000Y-78000000D03*
X70040000Y-78000000D03*
X71310000Y-78000000D03*
D21*
X69405001Y-74669992D03*
D20*
X67500000Y-72529856D03*
X68770000Y-72529856D03*
X70040000Y-72529856D03*
X71310000Y-72529856D03*
%TD*%
D22*
%TO.C,Cout_3*%
X130080600Y-63000000D03*
X130080600Y-56091200D03*
%TD*%
D23*
%TO.C,Vout (24V)*%
X139249008Y-80212798D03*
X148248990Y-73862798D03*
%TD*%
D26*
%TO.C,Rcsp1*%
X99750000Y-50812499D03*
X99750000Y-52637499D03*
%TD*%
D28*
%TO.C,Cbias1*%
X102387500Y-36000000D03*
X104112500Y-36000000D03*
%TD*%
D19*
%TO.C,Ruvt1*%
X85900000Y-32500000D03*
X84075000Y-32500000D03*
%TD*%
D35*
%TO.C,Rsense1*%
X93750000Y-56910600D03*
X93750000Y-65089400D03*
%TD*%
D22*
%TO.C,Cin_2*%
X50500000Y-62954400D03*
X50500000Y-56045600D03*
%TD*%
D27*
%TO.C,Vout*%
X124500000Y-82000000D03*
%TD*%
D20*
%TO.C,M3_2*%
X112940000Y-77970144D03*
X114210000Y-77970144D03*
X115480000Y-77970144D03*
X116750000Y-77970144D03*
D21*
X114845001Y-74640136D03*
D20*
X112940000Y-72500000D03*
X114210000Y-72500000D03*
X115480000Y-72500000D03*
X116750000Y-72500000D03*
%TD*%
D19*
%TO.C,Rfbb1*%
X81012500Y-48700000D03*
X79187500Y-48700000D03*
%TD*%
D36*
%TO.C,Cboot2*%
X103712500Y-39000000D03*
X105787500Y-39000000D03*
%TD*%
D37*
%TO.C,U1*%
X90900000Y-37274999D03*
X90900000Y-37925000D03*
X90900000Y-38574999D03*
X90900000Y-39225000D03*
X90900000Y-39874998D03*
X90900000Y-40525000D03*
X90900000Y-41174998D03*
X90900000Y-41825000D03*
X90900000Y-42474998D03*
X90900000Y-43125000D03*
X90900000Y-43774998D03*
X90900000Y-44424999D03*
X90900000Y-45074998D03*
X90900000Y-45724999D03*
X96599998Y-45724999D03*
X96599998Y-45074998D03*
X96599998Y-44424999D03*
X96599998Y-43774998D03*
X96599998Y-43125000D03*
X96599998Y-42474998D03*
X96599998Y-41825000D03*
X96599998Y-41174998D03*
X96599998Y-40525000D03*
X96599998Y-39874998D03*
X96599998Y-39225000D03*
X96599998Y-38574999D03*
X96599998Y-37925000D03*
X96599998Y-37274999D03*
D38*
X93749999Y-41499999D03*
%TD*%
D19*
%TO.C,Rpg1*%
X102512498Y-44724999D03*
X100687498Y-44724999D03*
%TD*%
D22*
%TO.C,Cout_2*%
X119911200Y-63000000D03*
X119911200Y-56091200D03*
%TD*%
D19*
%TO.C,Rmode1*%
X81612500Y-34400000D03*
X79787500Y-34400000D03*
%TD*%
%TO.C,Ruvb1*%
X81562500Y-32500000D03*
X79737500Y-32500000D03*
%TD*%
D27*
%TO.C,SW2*%
X112500000Y-104500000D03*
%TD*%
D22*
%TO.C,Cin_3*%
X80500000Y-63000000D03*
X80500000Y-56091200D03*
%TD*%
D27*
%TO.C,SW1*%
X69500000Y-104500000D03*
%TD*%
D29*
%TO.C,Dboot2*%
X112000000Y-36600000D03*
X112000000Y-45400000D03*
%TD*%
D19*
%TO.C,Rcomp1*%
X87912500Y-42900000D03*
X86087500Y-42900000D03*
%TD*%
D24*
%TO.C,Cboot1*%
X99787500Y-35000000D03*
X97712500Y-35000000D03*
%TD*%
D20*
%TO.C,M4*%
X95750000Y-76000000D03*
X94480000Y-76000000D03*
X93210000Y-76000000D03*
X91940000Y-76000000D03*
D21*
X93844999Y-79330008D03*
D20*
X95750000Y-81470144D03*
X94480000Y-81470144D03*
X93210000Y-81470144D03*
X91940000Y-81470144D03*
%TD*%
%TO.C,M2*%
X86250000Y-76000000D03*
X84980000Y-76000000D03*
X83710000Y-76000000D03*
X82440000Y-76000000D03*
D21*
X84344999Y-79330008D03*
D20*
X86250000Y-81470144D03*
X84980000Y-81470144D03*
X83710000Y-81470144D03*
X82440000Y-81470144D03*
%TD*%
D30*
%TO.C,Cf1*%
X81462500Y-30800000D03*
X79737500Y-30800000D03*
%TD*%
D20*
%TO.C,M4_2*%
X102250000Y-76000000D03*
X100980000Y-76000000D03*
X99710000Y-76000000D03*
X98440000Y-76000000D03*
D21*
X100344999Y-79330008D03*
D20*
X102250000Y-81470144D03*
X100980000Y-81470144D03*
X99710000Y-81470144D03*
X98440000Y-81470144D03*
%TD*%
%LPD*%
M02*
