%TF.GenerationSoftware,KiCad,Pcbnew,8.0.7*%
%TF.CreationDate,2025-01-13T19:37:05-08:00*%
%TF.ProjectId,DCDCv2,44434443-7632-42e6-9b69-6361645f7063,rev?*%
%TF.SameCoordinates,Original*%
%TF.FileFunction,Paste,Top*%
%TF.FilePolarity,Positive*%
%FSLAX46Y46*%
G04 Gerber Fmt 4.6, Leading zero omitted, Abs format (unit mm)*
G04 Created by KiCad (PCBNEW 8.0.7) date 2025-01-13 19:37:05*
%MOMM*%
%LPD*%
G01*
G04 APERTURE LIST*
G04 Aperture macros list*
%AMRoundRect*
0 Rectangle with rounded corners*
0 $1 Rounding radius*
0 $2 $3 $4 $5 $6 $7 $8 $9 X,Y pos of 4 corners*
0 Add a 4 corners polygon primitive as box body*
4,1,4,$2,$3,$4,$5,$6,$7,$8,$9,$2,$3,0*
0 Add four circle primitives for the rounded corners*
1,1,$1+$1,$2,$3*
1,1,$1+$1,$4,$5*
1,1,$1+$1,$6,$7*
1,1,$1+$1,$8,$9*
0 Add four rect primitives between the rounded corners*
20,1,$1+$1,$2,$3,$4,$5,0*
20,1,$1+$1,$4,$5,$6,$7,0*
20,1,$1+$1,$6,$7,$8,$9,0*
20,1,$1+$1,$8,$9,$2,$3,0*%
G04 Aperture macros list end*
%ADD10C,0.000000*%
%ADD11RoundRect,0.237500X0.250000X0.237500X-0.250000X0.237500X-0.250000X-0.237500X0.250000X-0.237500X0*%
%ADD12R,0.650000X0.630000*%
%ADD13R,4.459998X4.280271*%
%ADD14R,1.498600X3.302000*%
%ADD15RoundRect,0.250000X0.337500X0.475000X-0.337500X0.475000X-0.337500X-0.475000X0.337500X-0.475000X0*%
%ADD16RoundRect,0.155000X0.212500X0.155000X-0.212500X0.155000X-0.212500X-0.155000X0.212500X-0.155000X0*%
%ADD17RoundRect,0.237500X-0.237500X0.250000X-0.237500X-0.250000X0.237500X-0.250000X0.237500X0.250000X0*%
%ADD18RoundRect,0.237500X-0.300000X-0.237500X0.300000X-0.237500X0.300000X0.237500X-0.300000X0.237500X0*%
%ADD19RoundRect,0.250000X-1.400000X-2.000000X1.400000X-2.000000X1.400000X2.000000X-1.400000X2.000000X0*%
%ADD20RoundRect,0.237500X0.300000X0.237500X-0.300000X0.237500X-0.300000X-0.237500X0.300000X-0.237500X0*%
%ADD21R,1.850000X3.500000*%
%ADD22R,5.588000X2.489200*%
%ADD23RoundRect,0.250000X-0.337500X-0.475000X0.337500X-0.475000X0.337500X0.475000X-0.337500X0.475000X0*%
%ADD24O,1.699999X0.349999*%
%ADD25R,3.099999X5.180000*%
G04 APERTURE END LIST*
D10*
%TO.C,M3*%
G36*
X107535120Y-74915032D02*
G01*
X105965400Y-74915032D01*
X105965400Y-73330072D01*
X107535120Y-73330072D01*
X107535120Y-74915032D01*
G37*
G36*
X107535120Y-76650106D02*
G01*
X105965400Y-76650106D01*
X105965400Y-75415158D01*
X107535120Y-75415158D01*
X107535120Y-76650106D01*
G37*
G36*
X109724600Y-74915032D02*
G01*
X108154880Y-74915032D01*
X108154880Y-73330072D01*
X109724600Y-73330072D01*
X109724600Y-74915032D01*
G37*
G36*
X109724600Y-76650106D02*
G01*
X108154880Y-76650106D01*
X108154880Y-75415158D01*
X109724600Y-75415158D01*
X109724600Y-76650106D01*
G37*
%TO.C,M1_2*%
G36*
X75285120Y-74915032D02*
G01*
X73715400Y-74915032D01*
X73715400Y-73330072D01*
X75285120Y-73330072D01*
X75285120Y-74915032D01*
G37*
G36*
X75285120Y-76650106D02*
G01*
X73715400Y-76650106D01*
X73715400Y-75415158D01*
X75285120Y-75415158D01*
X75285120Y-76650106D01*
G37*
G36*
X77474600Y-74915032D02*
G01*
X75904880Y-74915032D01*
X75904880Y-73330072D01*
X77474600Y-73330072D01*
X77474600Y-74915032D01*
G37*
G36*
X77474600Y-76650106D02*
G01*
X75904880Y-76650106D01*
X75904880Y-75415158D01*
X77474600Y-75415158D01*
X77474600Y-76650106D01*
G37*
%TO.C,M1*%
G36*
X69095120Y-74944888D02*
G01*
X67525400Y-74944888D01*
X67525400Y-73359928D01*
X69095120Y-73359928D01*
X69095120Y-74944888D01*
G37*
G36*
X69095120Y-76679962D02*
G01*
X67525400Y-76679962D01*
X67525400Y-75445014D01*
X69095120Y-75445014D01*
X69095120Y-76679962D01*
G37*
G36*
X71284600Y-74944888D02*
G01*
X69714880Y-74944888D01*
X69714880Y-73359928D01*
X71284600Y-73359928D01*
X71284600Y-74944888D01*
G37*
G36*
X71284600Y-76679962D02*
G01*
X69714880Y-76679962D01*
X69714880Y-75445014D01*
X71284600Y-75445014D01*
X71284600Y-76679962D01*
G37*
%TO.C,M3_2*%
G36*
X114535120Y-74915032D02*
G01*
X112965400Y-74915032D01*
X112965400Y-73330072D01*
X114535120Y-73330072D01*
X114535120Y-74915032D01*
G37*
G36*
X114535120Y-76650106D02*
G01*
X112965400Y-76650106D01*
X112965400Y-75415158D01*
X114535120Y-75415158D01*
X114535120Y-76650106D01*
G37*
G36*
X116724600Y-74915032D02*
G01*
X115154880Y-74915032D01*
X115154880Y-73330072D01*
X116724600Y-73330072D01*
X116724600Y-74915032D01*
G37*
G36*
X116724600Y-76650106D02*
G01*
X115154880Y-76650106D01*
X115154880Y-75415158D01*
X116724600Y-75415158D01*
X116724600Y-76650106D01*
G37*
%TO.C,M4*%
G36*
X93535120Y-78554986D02*
G01*
X91965400Y-78554986D01*
X91965400Y-77320038D01*
X93535120Y-77320038D01*
X93535120Y-78554986D01*
G37*
G36*
X93535120Y-80640072D02*
G01*
X91965400Y-80640072D01*
X91965400Y-79055112D01*
X93535120Y-79055112D01*
X93535120Y-80640072D01*
G37*
G36*
X95724600Y-78554986D02*
G01*
X94154880Y-78554986D01*
X94154880Y-77320038D01*
X95724600Y-77320038D01*
X95724600Y-78554986D01*
G37*
G36*
X95724600Y-80640072D02*
G01*
X94154880Y-80640072D01*
X94154880Y-79055112D01*
X95724600Y-79055112D01*
X95724600Y-80640072D01*
G37*
%TO.C,M2*%
G36*
X84035120Y-78554986D02*
G01*
X82465400Y-78554986D01*
X82465400Y-77320038D01*
X84035120Y-77320038D01*
X84035120Y-78554986D01*
G37*
G36*
X84035120Y-80640072D02*
G01*
X82465400Y-80640072D01*
X82465400Y-79055112D01*
X84035120Y-79055112D01*
X84035120Y-80640072D01*
G37*
G36*
X86224600Y-78554986D02*
G01*
X84654880Y-78554986D01*
X84654880Y-77320038D01*
X86224600Y-77320038D01*
X86224600Y-78554986D01*
G37*
G36*
X86224600Y-80640072D02*
G01*
X84654880Y-80640072D01*
X84654880Y-79055112D01*
X86224600Y-79055112D01*
X86224600Y-80640072D01*
G37*
%TO.C,M4_2*%
G36*
X100035120Y-78554986D02*
G01*
X98465400Y-78554986D01*
X98465400Y-77320038D01*
X100035120Y-77320038D01*
X100035120Y-78554986D01*
G37*
G36*
X100035120Y-80640072D02*
G01*
X98465400Y-80640072D01*
X98465400Y-79055112D01*
X100035120Y-79055112D01*
X100035120Y-80640072D01*
G37*
G36*
X102224600Y-78554986D02*
G01*
X100654880Y-78554986D01*
X100654880Y-77320038D01*
X102224600Y-77320038D01*
X102224600Y-78554986D01*
G37*
G36*
X102224600Y-80640072D02*
G01*
X100654880Y-80640072D01*
X100654880Y-79055112D01*
X102224600Y-79055112D01*
X102224600Y-80640072D01*
G37*
%TD*%
D11*
%TO.C,Rfbt1*%
X87162500Y-49000000D03*
X85337500Y-49000000D03*
%TD*%
D12*
%TO.C,M3*%
X105940000Y-77970144D03*
X107210000Y-77970144D03*
X108480000Y-77970144D03*
X109750000Y-77970144D03*
D13*
X107845001Y-74640136D03*
D12*
X105940000Y-72500000D03*
X107210000Y-72500000D03*
X108480000Y-72500000D03*
X109750000Y-72500000D03*
%TD*%
D14*
%TO.C,Cout1*%
X109241800Y-63000000D03*
X109241800Y-56091200D03*
%TD*%
D15*
%TO.C,Ccomp1*%
X81737500Y-43100000D03*
X79662500Y-43100000D03*
%TD*%
D16*
%TO.C,Ccomp2*%
X80867500Y-45200000D03*
X79732500Y-45200000D03*
%TD*%
D17*
%TO.C,Rcsg1*%
X97599998Y-50812499D03*
X97599998Y-52637499D03*
%TD*%
D14*
%TO.C,Cin1*%
X60500000Y-63000000D03*
X60500000Y-56091200D03*
%TD*%
D18*
%TO.C,Cvcc1*%
X104599998Y-44724999D03*
X106324998Y-44724999D03*
%TD*%
D15*
%TO.C,Css1*%
X81737500Y-40500000D03*
X79662500Y-40500000D03*
%TD*%
D11*
%TO.C,Rt1*%
X81512500Y-36400000D03*
X79687500Y-36400000D03*
%TD*%
D14*
%TO.C,Cin_5*%
X70500000Y-63000000D03*
X70500000Y-56091200D03*
%TD*%
D19*
%TO.C,Dboot1*%
X120500000Y-36500000D03*
X120500000Y-45300000D03*
%TD*%
D14*
%TO.C,Cin_4*%
X40500000Y-63000000D03*
X40500000Y-56091200D03*
%TD*%
D20*
%TO.C,Ccs1*%
X97962498Y-47724999D03*
X96237498Y-47724999D03*
%TD*%
D14*
%TO.C,Cout_4*%
X140250000Y-63000000D03*
X140250000Y-56091200D03*
%TD*%
D17*
%TO.C,Rf1*%
X91250000Y-32087500D03*
X91250000Y-33912500D03*
%TD*%
D12*
%TO.C,M1_2*%
X73690000Y-77970144D03*
X74960000Y-77970144D03*
X76230000Y-77970144D03*
X77500000Y-77970144D03*
D13*
X75595001Y-74640136D03*
D12*
X73690000Y-72500000D03*
X74960000Y-72500000D03*
X76230000Y-72500000D03*
X77500000Y-72500000D03*
%TD*%
D20*
%TO.C,Cslope1*%
X81362500Y-38200000D03*
X79637500Y-38200000D03*
%TD*%
D21*
%TO.C,Cbulk1*%
X31000000Y-62000000D03*
X31000000Y-56700000D03*
%TD*%
D12*
%TO.C,M1*%
X67500000Y-78000000D03*
X68770000Y-78000000D03*
X70040000Y-78000000D03*
X71310000Y-78000000D03*
D13*
X69405001Y-74669992D03*
D12*
X67500000Y-72529856D03*
X68770000Y-72529856D03*
X70040000Y-72529856D03*
X71310000Y-72529856D03*
%TD*%
D14*
%TO.C,Cout_3*%
X130080600Y-63000000D03*
X130080600Y-56091200D03*
%TD*%
D17*
%TO.C,Rcsp1*%
X99750000Y-50812499D03*
X99750000Y-52637499D03*
%TD*%
D18*
%TO.C,Cbias1*%
X102387500Y-36000000D03*
X104112500Y-36000000D03*
%TD*%
D11*
%TO.C,Ruvt1*%
X85900000Y-32500000D03*
X84075000Y-32500000D03*
%TD*%
D22*
%TO.C,Rsense1*%
X93750000Y-56910600D03*
X93750000Y-65089400D03*
%TD*%
D14*
%TO.C,Cin_2*%
X50500000Y-62954400D03*
X50500000Y-56045600D03*
%TD*%
D12*
%TO.C,M3_2*%
X112940000Y-77970144D03*
X114210000Y-77970144D03*
X115480000Y-77970144D03*
X116750000Y-77970144D03*
D13*
X114845001Y-74640136D03*
D12*
X112940000Y-72500000D03*
X114210000Y-72500000D03*
X115480000Y-72500000D03*
X116750000Y-72500000D03*
%TD*%
D11*
%TO.C,Rfbb1*%
X81012500Y-48700000D03*
X79187500Y-48700000D03*
%TD*%
D23*
%TO.C,Cboot2*%
X103712500Y-39000000D03*
X105787500Y-39000000D03*
%TD*%
D24*
%TO.C,U1*%
X90900000Y-37274999D03*
X90900000Y-37925000D03*
X90900000Y-38574999D03*
X90900000Y-39225000D03*
X90900000Y-39874998D03*
X90900000Y-40525000D03*
X90900000Y-41174998D03*
X90900000Y-41825000D03*
X90900000Y-42474998D03*
X90900000Y-43125000D03*
X90900000Y-43774998D03*
X90900000Y-44424999D03*
X90900000Y-45074998D03*
X90900000Y-45724999D03*
X96599998Y-45724999D03*
X96599998Y-45074998D03*
X96599998Y-44424999D03*
X96599998Y-43774998D03*
X96599998Y-43125000D03*
X96599998Y-42474998D03*
X96599998Y-41825000D03*
X96599998Y-41174998D03*
X96599998Y-40525000D03*
X96599998Y-39874998D03*
X96599998Y-39225000D03*
X96599998Y-38574999D03*
X96599998Y-37925000D03*
X96599998Y-37274999D03*
D25*
X93749999Y-41499999D03*
%TD*%
D11*
%TO.C,Rpg1*%
X102512498Y-44724999D03*
X100687498Y-44724999D03*
%TD*%
D14*
%TO.C,Cout_2*%
X119911200Y-63000000D03*
X119911200Y-56091200D03*
%TD*%
D11*
%TO.C,Rmode1*%
X81612500Y-34400000D03*
X79787500Y-34400000D03*
%TD*%
%TO.C,Ruvb1*%
X81562500Y-32500000D03*
X79737500Y-32500000D03*
%TD*%
D14*
%TO.C,Cin_3*%
X80500000Y-63000000D03*
X80500000Y-56091200D03*
%TD*%
D19*
%TO.C,Dboot2*%
X112000000Y-36600000D03*
X112000000Y-45400000D03*
%TD*%
D11*
%TO.C,Rcomp1*%
X87912500Y-42900000D03*
X86087500Y-42900000D03*
%TD*%
D15*
%TO.C,Cboot1*%
X99787500Y-35000000D03*
X97712500Y-35000000D03*
%TD*%
D12*
%TO.C,M4*%
X95750000Y-76000000D03*
X94480000Y-76000000D03*
X93210000Y-76000000D03*
X91940000Y-76000000D03*
D13*
X93844999Y-79330008D03*
D12*
X95750000Y-81470144D03*
X94480000Y-81470144D03*
X93210000Y-81470144D03*
X91940000Y-81470144D03*
%TD*%
%TO.C,M2*%
X86250000Y-76000000D03*
X84980000Y-76000000D03*
X83710000Y-76000000D03*
X82440000Y-76000000D03*
D13*
X84344999Y-79330008D03*
D12*
X86250000Y-81470144D03*
X84980000Y-81470144D03*
X83710000Y-81470144D03*
X82440000Y-81470144D03*
%TD*%
D20*
%TO.C,Cf1*%
X81462500Y-30800000D03*
X79737500Y-30800000D03*
%TD*%
D12*
%TO.C,M4_2*%
X102250000Y-76000000D03*
X100980000Y-76000000D03*
X99710000Y-76000000D03*
X98440000Y-76000000D03*
D13*
X100344999Y-79330008D03*
D12*
X102250000Y-81470144D03*
X100980000Y-81470144D03*
X99710000Y-81470144D03*
X98440000Y-81470144D03*
%TD*%
M02*
