%TF.GenerationSoftware,KiCad,Pcbnew,8.0.7*%
%TF.CreationDate,2025-01-13T19:37:05-08:00*%
%TF.ProjectId,DCDCv2,44434443-7632-42e6-9b69-6361645f7063,rev?*%
%TF.SameCoordinates,Original*%
%TF.FileFunction,Copper,L3,Inr*%
%TF.FilePolarity,Positive*%
%FSLAX46Y46*%
G04 Gerber Fmt 4.6, Leading zero omitted, Abs format (unit mm)*
G04 Created by KiCad (PCBNEW 8.0.7) date 2025-01-13 19:37:05*
%MOMM*%
%LPD*%
G01*
G04 APERTURE LIST*
%TA.AperFunction,ComponentPad*%
%ADD10C,1.803400*%
%TD*%
%TA.AperFunction,ComponentPad*%
%ADD11C,2.000000*%
%TD*%
%TA.AperFunction,ComponentPad*%
%ADD12C,3.750000*%
%TD*%
%TA.AperFunction,ComponentPad*%
%ADD13R,10.000000X5.000000*%
%TD*%
%TA.AperFunction,ComponentPad*%
%ADD14O,10.000000X5.000000*%
%TD*%
%TA.AperFunction,ViaPad*%
%ADD15C,0.600000*%
%TD*%
%TA.AperFunction,Conductor*%
%ADD16C,0.200000*%
%TD*%
G04 APERTURE END LIST*
D10*
%TO.N,Vin*%
%TO.C,Vin (15 to 28V)*%
X34500000Y-73287202D03*
%TO.N,GND*%
X25500018Y-79637202D03*
%TD*%
D11*
%TO.N,GND*%
%TO.C,GND*%
X41500000Y-46000000D03*
%TD*%
%TO.N,Vin*%
%TO.C,Vin*%
X42000000Y-80000000D03*
%TD*%
%TO.N,GND*%
%TO.C,GND*%
X133500000Y-46000000D03*
%TD*%
D12*
%TO.N,*%
%TO.C,L1*%
X97750000Y-99000000D03*
X84250000Y-90100000D03*
D13*
%TO.N,/sw1*%
X84250000Y-99000000D03*
D14*
%TO.N,/sw2*%
X97750000Y-90100000D03*
%TD*%
D10*
%TO.N,Vout*%
%TO.C,Vout (24V)*%
X139249008Y-80212798D03*
%TO.N,GND*%
X148248990Y-73862798D03*
%TD*%
D11*
%TO.N,Vout*%
%TO.C,Vout*%
X124500000Y-82000000D03*
%TD*%
%TO.N,/sw2*%
%TO.C,SW2*%
X112500000Y-104500000D03*
%TD*%
%TO.N,/sw1*%
%TO.C,SW1*%
X69500000Y-104500000D03*
%TD*%
D15*
%TO.N,GND*%
X52250000Y-50500000D03*
X35250000Y-50500000D03*
X43250000Y-51500000D03*
X119750000Y-53000000D03*
X103500000Y-53000000D03*
X51250000Y-51500000D03*
X52250000Y-51500000D03*
X32250000Y-52500000D03*
X48250000Y-50500000D03*
X46250000Y-52500000D03*
X64250000Y-51500000D03*
X112750000Y-51000000D03*
X129750000Y-51000000D03*
X133750000Y-52000000D03*
X142750000Y-50000000D03*
X30250000Y-52500000D03*
X63250000Y-53500000D03*
X109750000Y-53000000D03*
X92775000Y-43500000D03*
X47250000Y-51500000D03*
X135750000Y-50000000D03*
X138750000Y-53000000D03*
X94775000Y-43500000D03*
X41250000Y-53500000D03*
X33250000Y-51500000D03*
X30250000Y-51500000D03*
X134750000Y-51000000D03*
X54250000Y-52500000D03*
X62250000Y-50500000D03*
X138750000Y-50000000D03*
X33250000Y-50500000D03*
X138750000Y-51000000D03*
X92000000Y-54500000D03*
X141750000Y-51000000D03*
X130750000Y-50000000D03*
X110750000Y-53000000D03*
X36250000Y-51500000D03*
X106000000Y-35500000D03*
X39250000Y-50500000D03*
X60250000Y-51500000D03*
X44250000Y-51500000D03*
X139750000Y-53000000D03*
X61250000Y-51500000D03*
X45250000Y-52500000D03*
X136750000Y-52000000D03*
X120750000Y-52000000D03*
X109000000Y-35500000D03*
X109000000Y-34500000D03*
X135750000Y-51000000D03*
X36250000Y-53500000D03*
X120750000Y-50000000D03*
X31250000Y-51500000D03*
X114750000Y-51000000D03*
X40250000Y-53500000D03*
X93775000Y-41500000D03*
X49250000Y-51500000D03*
X58250000Y-52500000D03*
X122750000Y-52000000D03*
X37250000Y-53500000D03*
X87000000Y-54500000D03*
X127750000Y-53000000D03*
X137750000Y-51000000D03*
X115750000Y-53000000D03*
X93775000Y-39500000D03*
X101500000Y-55000000D03*
X118750000Y-51000000D03*
X38250000Y-50500000D03*
X42250000Y-52500000D03*
X121750000Y-50000000D03*
X132750000Y-52000000D03*
X147750000Y-52000000D03*
X60250000Y-53500000D03*
X117750000Y-50000000D03*
X132750000Y-51000000D03*
X38250000Y-53500000D03*
X60250000Y-52500000D03*
X145750000Y-52000000D03*
X52250000Y-52500000D03*
X140750000Y-52000000D03*
X61250000Y-52500000D03*
X32250000Y-50500000D03*
X112750000Y-52000000D03*
X125750000Y-50000000D03*
X45250000Y-50500000D03*
X34250000Y-51500000D03*
X137750000Y-52000000D03*
X148750000Y-51000000D03*
X63250000Y-51500000D03*
X44250000Y-53500000D03*
X54250000Y-51500000D03*
X43250000Y-52500000D03*
X51250000Y-50500000D03*
X43250000Y-50500000D03*
X93775000Y-43500000D03*
X38250000Y-51500000D03*
X135750000Y-52000000D03*
X48250000Y-53500000D03*
X116750000Y-51000000D03*
X92775000Y-42500000D03*
X103500000Y-54000000D03*
X133750000Y-51000000D03*
X34250000Y-50500000D03*
X51250000Y-52500000D03*
X139750000Y-52000000D03*
X124750000Y-52000000D03*
X147750000Y-51000000D03*
X58250000Y-50500000D03*
X148750000Y-53000000D03*
X66250000Y-50500000D03*
X63250000Y-52500000D03*
X42250000Y-51500000D03*
X101500000Y-56000000D03*
X135750000Y-53000000D03*
X127750000Y-52000000D03*
X39250000Y-51500000D03*
X142750000Y-52000000D03*
X123750000Y-52000000D03*
X124750000Y-50000000D03*
X110750000Y-51000000D03*
X66250000Y-51500000D03*
X45250000Y-51500000D03*
X37250000Y-51500000D03*
X122750000Y-51000000D03*
X47250000Y-52500000D03*
X123750000Y-51000000D03*
X91000000Y-53500000D03*
X109750000Y-50000000D03*
X29250000Y-52500000D03*
X127750000Y-50000000D03*
X119750000Y-51000000D03*
X128750000Y-53000000D03*
X120750000Y-53000000D03*
X131750000Y-51000000D03*
X28250000Y-51500000D03*
X48250000Y-51500000D03*
X112750000Y-53000000D03*
X47250000Y-53500000D03*
X46250000Y-53500000D03*
X86000000Y-54500000D03*
X50250000Y-50500000D03*
X117750000Y-52000000D03*
X38250000Y-52500000D03*
X141750000Y-50000000D03*
X121750000Y-52000000D03*
X146750000Y-51000000D03*
X143750000Y-52000000D03*
X59250000Y-53500000D03*
X117750000Y-53000000D03*
X93775000Y-40500000D03*
X88000000Y-53500000D03*
X51250000Y-53500000D03*
X90000000Y-53500000D03*
X145750000Y-53000000D03*
X58250000Y-51500000D03*
X55250000Y-51500000D03*
X137750000Y-53000000D03*
X89000000Y-53500000D03*
X145750000Y-50000000D03*
X142750000Y-53000000D03*
X102500000Y-55000000D03*
X44250000Y-52500000D03*
X145750000Y-51000000D03*
X65250000Y-50500000D03*
X55250000Y-50500000D03*
X48250000Y-52500000D03*
X119750000Y-52000000D03*
X115750000Y-52000000D03*
X66250000Y-52500000D03*
X110750000Y-50000000D03*
X94775000Y-41500000D03*
X125750000Y-52000000D03*
X97599998Y-54500000D03*
X142750000Y-51000000D03*
X85000000Y-54500000D03*
X131750000Y-50000000D03*
X133750000Y-50000000D03*
X85000000Y-53500000D03*
X125750000Y-51000000D03*
X61250000Y-53500000D03*
X121750000Y-53000000D03*
X129750000Y-52000000D03*
X113750000Y-50000000D03*
X102500000Y-54000000D03*
X108000000Y-34500000D03*
X144750000Y-50000000D03*
X109750000Y-51000000D03*
X128750000Y-50000000D03*
X53250000Y-52500000D03*
X122750000Y-50000000D03*
X91000000Y-54500000D03*
X62250000Y-52500000D03*
X118750000Y-52000000D03*
X126750000Y-51000000D03*
X28250000Y-52500000D03*
X126750000Y-50000000D03*
X148750000Y-50000000D03*
X39250000Y-53500000D03*
X55250000Y-52500000D03*
X61250000Y-50500000D03*
X136750000Y-51000000D03*
X111750000Y-52000000D03*
X44250000Y-50500000D03*
X29250000Y-51500000D03*
X56250000Y-50500000D03*
X111750000Y-50000000D03*
X47250000Y-50500000D03*
X27250000Y-52500000D03*
X118750000Y-50000000D03*
X111750000Y-51000000D03*
X124750000Y-51000000D03*
X58250000Y-53500000D03*
X35250000Y-51500000D03*
X88000000Y-54500000D03*
X134750000Y-52000000D03*
X139750000Y-50000000D03*
X49250000Y-52500000D03*
X123750000Y-50000000D03*
X115750000Y-51000000D03*
X32250000Y-51500000D03*
X41250000Y-51500000D03*
X64250000Y-50500000D03*
X31250000Y-53500000D03*
X34250000Y-52500000D03*
X116750000Y-50000000D03*
X129750000Y-53000000D03*
X29250000Y-50500000D03*
X113750000Y-52000000D03*
X126750000Y-53000000D03*
X128750000Y-52000000D03*
X140750000Y-50000000D03*
X130750000Y-52000000D03*
X28250000Y-53500000D03*
X62250000Y-53500000D03*
X89000000Y-54500000D03*
X116750000Y-52000000D03*
X109750000Y-52000000D03*
X64250000Y-53500000D03*
X124750000Y-53000000D03*
X50250000Y-53500000D03*
X29250000Y-53500000D03*
X136750000Y-50000000D03*
X141750000Y-52000000D03*
X110750000Y-52000000D03*
X55250000Y-53500000D03*
X59250000Y-52500000D03*
X146750000Y-52000000D03*
X146750000Y-50000000D03*
X36250000Y-52500000D03*
X129750000Y-50000000D03*
X30250000Y-53500000D03*
X133750000Y-53000000D03*
X37250000Y-52500000D03*
X39250000Y-52500000D03*
X37250000Y-50500000D03*
X40250000Y-51500000D03*
X86000000Y-53500000D03*
X27250000Y-50500000D03*
X114750000Y-53000000D03*
X139750000Y-51000000D03*
X41250000Y-52500000D03*
X52250000Y-53500000D03*
X59250000Y-51500000D03*
X118750000Y-53000000D03*
X33250000Y-52500000D03*
X56250000Y-53500000D03*
X65250000Y-51500000D03*
X117750000Y-51000000D03*
X56250000Y-52500000D03*
X54250000Y-53500000D03*
X35250000Y-53500000D03*
X114750000Y-50000000D03*
X49250000Y-53500000D03*
X65250000Y-53500000D03*
X136750000Y-53000000D03*
X115750000Y-50000000D03*
X32250000Y-53500000D03*
X97750000Y-60500000D03*
X107000000Y-35500000D03*
X27250000Y-53500000D03*
X143750000Y-53000000D03*
X140750000Y-53000000D03*
X92775000Y-39500000D03*
X134750000Y-50000000D03*
X53250000Y-53500000D03*
X87000000Y-53500000D03*
X66250000Y-53500000D03*
X65250000Y-52500000D03*
X144750000Y-53000000D03*
X30250000Y-50500000D03*
X143750000Y-50000000D03*
X57250000Y-50500000D03*
X128750000Y-51000000D03*
X127750000Y-51000000D03*
X31250000Y-52500000D03*
X57250000Y-53500000D03*
X57250000Y-51500000D03*
X50250000Y-51500000D03*
X102500000Y-56000000D03*
X144750000Y-52000000D03*
X63250000Y-50500000D03*
X148750000Y-52000000D03*
X46250000Y-50500000D03*
X56250000Y-51500000D03*
X40250000Y-50500000D03*
X59250000Y-50500000D03*
X143750000Y-51000000D03*
X102500000Y-53000000D03*
X140750000Y-51000000D03*
X28250000Y-50500000D03*
X92775000Y-41500000D03*
X60250000Y-50500000D03*
X131750000Y-53000000D03*
X101500000Y-53000000D03*
X43250000Y-53500000D03*
X107000000Y-34500000D03*
X41250000Y-50500000D03*
X130750000Y-53000000D03*
X125750000Y-53000000D03*
X134750000Y-53000000D03*
X123750000Y-53000000D03*
X147750000Y-53000000D03*
X54250000Y-50500000D03*
X42250000Y-53500000D03*
X111750000Y-53000000D03*
X45250000Y-53500000D03*
X49250000Y-50500000D03*
X106000000Y-34500000D03*
X147750000Y-50000000D03*
X27250000Y-51500000D03*
X108000000Y-35500000D03*
X40250000Y-52500000D03*
X31250000Y-50500000D03*
X46250000Y-51500000D03*
X132750000Y-53000000D03*
X33250000Y-53500000D03*
X53250000Y-51500000D03*
X93775000Y-42500000D03*
X121750000Y-51000000D03*
X132750000Y-50000000D03*
X57250000Y-52500000D03*
X36250000Y-50500000D03*
X94775000Y-42500000D03*
X92775000Y-40500000D03*
X113750000Y-51000000D03*
X113750000Y-53000000D03*
X120750000Y-51000000D03*
X64250000Y-52500000D03*
X90000000Y-54500000D03*
X137750000Y-50000000D03*
X141750000Y-53000000D03*
X130750000Y-51000000D03*
X35250000Y-52500000D03*
X62250000Y-51500000D03*
X103500000Y-55000000D03*
X126750000Y-52000000D03*
X101500000Y-54000000D03*
X50250000Y-52500000D03*
X138750000Y-52000000D03*
X122750000Y-53000000D03*
X94775000Y-39500000D03*
X103500000Y-56000000D03*
X131750000Y-52000000D03*
X114750000Y-52000000D03*
X42250000Y-50500000D03*
X146750000Y-53000000D03*
X144750000Y-51000000D03*
X94775000Y-40500000D03*
X116750000Y-53000000D03*
X112750000Y-50000000D03*
X34250000Y-53500000D03*
X119750000Y-50000000D03*
X92000000Y-53500000D03*
X53250000Y-50500000D03*
%TO.N,/sw1*%
X70750000Y-89000000D03*
X81000000Y-78000000D03*
X73500000Y-83000000D03*
X77500000Y-81000000D03*
X67750000Y-90000000D03*
X70750000Y-94000000D03*
X76500000Y-82000000D03*
X68750000Y-94000000D03*
X69750000Y-92000000D03*
X69750000Y-95000000D03*
X73500000Y-80000000D03*
X67750000Y-95000000D03*
X70750000Y-87000000D03*
X70750000Y-91000000D03*
X73500000Y-81000000D03*
X79500000Y-83000000D03*
X70750000Y-100000000D03*
X76500000Y-80000000D03*
X68750000Y-101000000D03*
X74500000Y-82000000D03*
X70750000Y-92000000D03*
X67750000Y-94000000D03*
X68750000Y-88000000D03*
X67750000Y-101000000D03*
X68750000Y-87000000D03*
X68750000Y-92000000D03*
X67750000Y-99000000D03*
X67750000Y-96000000D03*
X70750000Y-97000000D03*
X67750000Y-86000000D03*
X76500000Y-81000000D03*
X70750000Y-99000000D03*
X80500000Y-82000000D03*
X68750000Y-97000000D03*
X67750000Y-89000000D03*
X68750000Y-96000000D03*
X78500000Y-83000000D03*
X69750000Y-96000000D03*
X70750000Y-95000000D03*
X69750000Y-87000000D03*
X75500000Y-82000000D03*
X80500000Y-81000000D03*
X69750000Y-91000000D03*
X69750000Y-90000000D03*
X67750000Y-91000000D03*
X70750000Y-101000000D03*
X77500000Y-83000000D03*
X79500000Y-82000000D03*
X67750000Y-93000000D03*
X74500000Y-81000000D03*
X68750000Y-99000000D03*
X68750000Y-86000000D03*
X77500000Y-80000000D03*
X96250000Y-35000000D03*
X75500000Y-81000000D03*
X70750000Y-88000000D03*
X69750000Y-88000000D03*
X78500000Y-82000000D03*
X73500000Y-82000000D03*
X69750000Y-89000000D03*
X74500000Y-83000000D03*
X75500000Y-83000000D03*
X70750000Y-96000000D03*
X69750000Y-100000000D03*
X79500000Y-80000000D03*
X76500000Y-83000000D03*
X78500000Y-80000000D03*
X70750000Y-86000000D03*
X68750000Y-93000000D03*
X68750000Y-98000000D03*
X67750000Y-97000000D03*
X80500000Y-80000000D03*
X69750000Y-101000000D03*
X77500000Y-82000000D03*
X69750000Y-94000000D03*
X68750000Y-95000000D03*
X68750000Y-91000000D03*
X69750000Y-97000000D03*
X79500000Y-81000000D03*
X69750000Y-93000000D03*
X69750000Y-86000000D03*
X67750000Y-98000000D03*
X80500000Y-83000000D03*
X70750000Y-90000000D03*
X67750000Y-88000000D03*
X75500000Y-80000000D03*
X67750000Y-100000000D03*
X69750000Y-98000000D03*
X74500000Y-80000000D03*
X67750000Y-87000000D03*
X68750000Y-100000000D03*
X78500000Y-81000000D03*
X68750000Y-89000000D03*
X68750000Y-90000000D03*
X70750000Y-93000000D03*
X67750000Y-92000000D03*
X69750000Y-99000000D03*
X70750000Y-98000000D03*
%TO.N,/sw2*%
X114250000Y-96500000D03*
X113250000Y-86500000D03*
X111250000Y-94500000D03*
X112250000Y-85500000D03*
X114250000Y-100500000D03*
X111250000Y-88500000D03*
X112250000Y-99500000D03*
X113250000Y-85500000D03*
X111250000Y-91500000D03*
X112250000Y-90500000D03*
X112250000Y-93500000D03*
X114250000Y-92500000D03*
X114250000Y-91500000D03*
X112250000Y-92500000D03*
X114250000Y-98500000D03*
X112250000Y-87500000D03*
X111250000Y-100500000D03*
X111250000Y-96500000D03*
X112250000Y-97500000D03*
X111250000Y-92500000D03*
X113250000Y-89500000D03*
X114250000Y-87500000D03*
X113250000Y-94500000D03*
X111250000Y-89500000D03*
X111250000Y-90500000D03*
X114250000Y-95500000D03*
X113250000Y-100500000D03*
X113250000Y-92500000D03*
X113250000Y-96500000D03*
X111250000Y-97500000D03*
X111250000Y-93500000D03*
X107250000Y-39000000D03*
X112250000Y-94500000D03*
X111250000Y-87500000D03*
X112250000Y-86500000D03*
X113250000Y-98500000D03*
X114250000Y-99500000D03*
X113250000Y-88500000D03*
X114250000Y-97500000D03*
X113250000Y-87500000D03*
X111250000Y-99500000D03*
X114250000Y-86500000D03*
X113250000Y-90500000D03*
X114250000Y-90500000D03*
X111250000Y-98500000D03*
X114250000Y-89500000D03*
X111250000Y-85500000D03*
X112250000Y-98500000D03*
X112250000Y-91500000D03*
X114250000Y-94500000D03*
X112250000Y-88500000D03*
X114250000Y-93500000D03*
X112250000Y-89500000D03*
X112250000Y-95500000D03*
X111250000Y-86500000D03*
X104000000Y-78000000D03*
X112250000Y-96500000D03*
X113250000Y-91500000D03*
X114250000Y-88500000D03*
X112250000Y-100500000D03*
X111250000Y-95500000D03*
X113250000Y-99500000D03*
X113250000Y-93500000D03*
X113250000Y-95500000D03*
X113250000Y-97500000D03*
X114250000Y-85500000D03*
%TO.N,Vin*%
X47500000Y-74000000D03*
X53500000Y-75000000D03*
X59500000Y-74000000D03*
X56500000Y-72000000D03*
X53500000Y-74000000D03*
X63500000Y-72000000D03*
X46500000Y-72000000D03*
X55500000Y-75000000D03*
X48500000Y-73000000D03*
X57500000Y-72000000D03*
X40500000Y-74000000D03*
X55500000Y-72000000D03*
X49500000Y-75000000D03*
X61500000Y-72000000D03*
X57500000Y-75000000D03*
X48500000Y-75000000D03*
X40500000Y-73000000D03*
X57500000Y-74000000D03*
X46500000Y-73000000D03*
X45500000Y-73000000D03*
X55500000Y-73000000D03*
X41500000Y-75000000D03*
X62500000Y-72000000D03*
X54500000Y-72000000D03*
X45500000Y-74000000D03*
X44500000Y-72000000D03*
X61500000Y-73000000D03*
X43500000Y-72000000D03*
X54500000Y-73000000D03*
X60500000Y-74000000D03*
X51500000Y-75000000D03*
X56500000Y-74000000D03*
X58500000Y-72000000D03*
X46500000Y-75000000D03*
X52500000Y-74000000D03*
X56500000Y-73000000D03*
X51500000Y-72000000D03*
X40500000Y-72000000D03*
X63500000Y-75000000D03*
X49500000Y-73000000D03*
X58500000Y-74000000D03*
X42500000Y-74000000D03*
X51500000Y-73000000D03*
X59500000Y-73000000D03*
X50500000Y-72000000D03*
X85900000Y-33500000D03*
X50500000Y-74000000D03*
X41500000Y-73000000D03*
X59500000Y-75000000D03*
X87400000Y-37200000D03*
X44500000Y-75000000D03*
X47500000Y-75000000D03*
X54500000Y-75000000D03*
X57500000Y-73000000D03*
X60500000Y-72000000D03*
X61500000Y-75000000D03*
X52500000Y-75000000D03*
X50500000Y-75000000D03*
X47500000Y-72000000D03*
X43500000Y-73000000D03*
X61500000Y-74000000D03*
X41500000Y-74000000D03*
X53500000Y-73000000D03*
X51500000Y-74000000D03*
X43500000Y-74000000D03*
X59500000Y-72000000D03*
X58500000Y-75000000D03*
X62500000Y-75000000D03*
X43500000Y-75000000D03*
X62500000Y-74000000D03*
X40500000Y-75000000D03*
X46500000Y-74000000D03*
X45500000Y-75000000D03*
X45500000Y-72000000D03*
X52500000Y-73000000D03*
X44500000Y-74000000D03*
X49500000Y-74000000D03*
X63500000Y-73000000D03*
X42500000Y-75000000D03*
X55500000Y-74000000D03*
X52500000Y-72000000D03*
X62500000Y-73000000D03*
X58500000Y-73000000D03*
X50500000Y-73000000D03*
X56500000Y-75000000D03*
X42500000Y-72000000D03*
X63500000Y-74000000D03*
X53500000Y-72000000D03*
X60500000Y-73000000D03*
X60500000Y-75000000D03*
X47500000Y-73000000D03*
X49500000Y-72000000D03*
X42500000Y-73000000D03*
X48500000Y-74000000D03*
X44500000Y-73000000D03*
X48500000Y-72000000D03*
X54500000Y-74000000D03*
X41500000Y-72000000D03*
%TO.N,Net-(Dboot1-A)*%
X104000000Y-43500000D03*
X98750000Y-40500000D03*
%TO.N,/rcs2*%
X85000000Y-64000000D03*
X87000000Y-64000000D03*
X85000000Y-67000000D03*
X97750000Y-61500000D03*
X85000000Y-65000000D03*
X86000000Y-64000000D03*
X88000000Y-65000000D03*
X87000000Y-67000000D03*
X88000000Y-66000000D03*
X85000000Y-66000000D03*
X87000000Y-66000000D03*
X99750000Y-54500000D03*
X88000000Y-64000000D03*
X86000000Y-67000000D03*
X87000000Y-65000000D03*
X86000000Y-66000000D03*
X88000000Y-67000000D03*
X86000000Y-65000000D03*
%TO.N,/hdrv1*%
X78520000Y-79000000D03*
X98750000Y-37925000D03*
X72250000Y-79000000D03*
%TO.N,/hdrv2*%
X110625000Y-77625000D03*
X117625000Y-77625000D03*
X98625000Y-43125000D03*
%TO.N,/ldrv2*%
X90750000Y-75000000D03*
X98575000Y-41825000D03*
X97250000Y-75000000D03*
%TO.N,/ldrv1*%
X81250000Y-75000000D03*
X98750000Y-39225000D03*
%TO.N,Vout*%
X131750000Y-68500000D03*
X113750000Y-67500000D03*
X118750000Y-68500000D03*
X119750000Y-66500000D03*
X129750000Y-66500000D03*
X102500000Y-35000000D03*
X125750000Y-69500000D03*
X120750000Y-67500000D03*
X123750000Y-68500000D03*
X119750000Y-67500000D03*
X127750000Y-67500000D03*
X111750000Y-69500000D03*
X132750000Y-68500000D03*
X115750000Y-68500000D03*
X131750000Y-67500000D03*
X107500000Y-66500000D03*
X128750000Y-68500000D03*
X121750000Y-66500000D03*
X134750000Y-68500000D03*
X122750000Y-66500000D03*
X113750000Y-69500000D03*
X117750000Y-69500000D03*
X122750000Y-68500000D03*
X113750000Y-68500000D03*
X123750000Y-66500000D03*
X133750000Y-69500000D03*
X114750000Y-67500000D03*
X132750000Y-69500000D03*
X130750000Y-67500000D03*
X105500000Y-65500000D03*
X118750000Y-67500000D03*
X105500000Y-66500000D03*
X130750000Y-68500000D03*
X133750000Y-68500000D03*
X112750000Y-69500000D03*
X121750000Y-69500000D03*
X119750000Y-68500000D03*
X128750000Y-69500000D03*
X118750000Y-69500000D03*
X121750000Y-68500000D03*
X111750000Y-66500000D03*
X131750000Y-66500000D03*
X106500000Y-65500000D03*
X133750000Y-67500000D03*
X115750000Y-69500000D03*
X122750000Y-67500000D03*
X107500000Y-64500000D03*
X132750000Y-67500000D03*
X124750000Y-69500000D03*
X133750000Y-66500000D03*
X112750000Y-67500000D03*
X112750000Y-68500000D03*
X134750000Y-67500000D03*
X129750000Y-67500000D03*
X120750000Y-68500000D03*
X126750000Y-69500000D03*
X105500000Y-64500000D03*
X106500000Y-66500000D03*
X120750000Y-66500000D03*
X116750000Y-69500000D03*
X127750000Y-68500000D03*
X128750000Y-66500000D03*
X117750000Y-67500000D03*
X88250000Y-52000000D03*
X126750000Y-68500000D03*
X116750000Y-66500000D03*
X125750000Y-67500000D03*
X107500000Y-65500000D03*
X111750000Y-67500000D03*
X106500000Y-64500000D03*
X130750000Y-69500000D03*
X116750000Y-67500000D03*
X126750000Y-67500000D03*
X117750000Y-66500000D03*
X123750000Y-69500000D03*
X130750000Y-66500000D03*
X115750000Y-66500000D03*
X113750000Y-66500000D03*
X111750000Y-68500000D03*
X129750000Y-69500000D03*
X129750000Y-68500000D03*
X124750000Y-66500000D03*
X134750000Y-69500000D03*
X131750000Y-69500000D03*
X116750000Y-68500000D03*
X120750000Y-69500000D03*
X117750000Y-68500000D03*
X114750000Y-69500000D03*
X112750000Y-66500000D03*
X114750000Y-66500000D03*
X134750000Y-66500000D03*
X127750000Y-66500000D03*
X125750000Y-68500000D03*
X125750000Y-66500000D03*
X122750000Y-69500000D03*
X132750000Y-66500000D03*
X124750000Y-67500000D03*
X127750000Y-69500000D03*
X119750000Y-69500000D03*
X124750000Y-68500000D03*
X121750000Y-67500000D03*
X115750000Y-67500000D03*
X126750000Y-66500000D03*
X128750000Y-67500000D03*
X118750000Y-66500000D03*
X114750000Y-68500000D03*
X123750000Y-67500000D03*
%TD*%
D16*
%TO.N,GND*%
X98750000Y-55650002D02*
X97599998Y-54500000D01*
X98750000Y-59500000D02*
X98750000Y-55650002D01*
X97750000Y-60500000D02*
X98750000Y-59500000D01*
%TO.N,Vin*%
X85900000Y-33500000D02*
X85900000Y-35700000D01*
X85900000Y-35700000D02*
X87400000Y-37200000D01*
%TO.N,/rcs2*%
X100250000Y-60000000D02*
X100250000Y-55000000D01*
X97750000Y-61500000D02*
X98750000Y-61500000D01*
X100250000Y-55000000D02*
X99750000Y-54500000D01*
X98750000Y-61500000D02*
X100250000Y-60000000D01*
%TD*%
%TA.AperFunction,Conductor*%
%TO.N,/sw2*%
G36*
X110065553Y-77489829D02*
G01*
X110111308Y-77542633D01*
X110121252Y-77611790D01*
X110119353Y-77624998D01*
X110119353Y-77624999D01*
X110139834Y-77767456D01*
X110177640Y-77850237D01*
X110199623Y-77898373D01*
X110293872Y-78007143D01*
X110414947Y-78084953D01*
X110414950Y-78084954D01*
X110414949Y-78084954D01*
X110553036Y-78125499D01*
X110553038Y-78125500D01*
X110553039Y-78125500D01*
X110696962Y-78125500D01*
X110696962Y-78125499D01*
X110835053Y-78084953D01*
X110956128Y-78007143D01*
X111050377Y-77898373D01*
X111110165Y-77767457D01*
X111130647Y-77625000D01*
X111128748Y-77611790D01*
X111138692Y-77542631D01*
X111184448Y-77489828D01*
X111251486Y-77470144D01*
X116126000Y-77470144D01*
X116193039Y-77489829D01*
X116238794Y-77542633D01*
X116250000Y-77594144D01*
X116250000Y-106346144D01*
X116230315Y-106413183D01*
X116177511Y-106458938D01*
X116126000Y-106470144D01*
X91124000Y-106470144D01*
X91056961Y-106450459D01*
X91011206Y-106397655D01*
X91000000Y-106346144D01*
X91000000Y-98000000D01*
X95250000Y-98000000D01*
X95250000Y-101500000D01*
X100250000Y-101500000D01*
X100250000Y-96500000D01*
X95250000Y-96500000D01*
X95250000Y-98000000D01*
X91000000Y-98000000D01*
X91000000Y-77594144D01*
X91019685Y-77527105D01*
X91072489Y-77481350D01*
X91124000Y-77470144D01*
X109998514Y-77470144D01*
X110065553Y-77489829D01*
G37*
%TD.AperFunction*%
%TD*%
%TA.AperFunction,Conductor*%
%TO.N,Vin*%
G36*
X81443039Y-60019685D02*
G01*
X81488794Y-60072489D01*
X81500000Y-60124000D01*
X81500000Y-65876000D01*
X81480315Y-65943039D01*
X81427511Y-65988794D01*
X81376000Y-66000000D01*
X79000000Y-66000000D01*
X79000000Y-76876000D01*
X78980315Y-76943039D01*
X78927511Y-76988794D01*
X78876000Y-77000000D01*
X65500000Y-77000000D01*
X65500000Y-82776000D01*
X65480315Y-82843039D01*
X65427511Y-82888794D01*
X65376000Y-82900000D01*
X28324000Y-82900000D01*
X28256961Y-82880315D01*
X28211206Y-82827511D01*
X28200000Y-82776000D01*
X28200000Y-60124000D01*
X28219685Y-60056961D01*
X28272489Y-60011206D01*
X28324000Y-60000000D01*
X81376000Y-60000000D01*
X81443039Y-60019685D01*
G37*
%TD.AperFunction*%
%TD*%
%TA.AperFunction,Conductor*%
%TO.N,GND*%
G36*
X140942961Y-25928882D02*
G01*
X140988756Y-25981652D01*
X141000000Y-26033248D01*
X141000000Y-40500000D01*
X153088352Y-40500000D01*
X153155391Y-40519685D01*
X153201146Y-40572489D01*
X153212352Y-40623896D01*
X153249896Y-85375896D01*
X153230268Y-85442952D01*
X153177502Y-85488751D01*
X153125896Y-85500000D01*
X145874000Y-85500000D01*
X145806961Y-85480315D01*
X145761206Y-85427511D01*
X145750000Y-85376000D01*
X145750000Y-59000000D01*
X100974500Y-59000000D01*
X100907461Y-58980315D01*
X100861706Y-58927511D01*
X100850500Y-58876000D01*
X100850500Y-55089060D01*
X100850501Y-55089047D01*
X100850501Y-54920944D01*
X100831363Y-54849522D01*
X100809577Y-54768216D01*
X100785401Y-54726342D01*
X100730524Y-54631290D01*
X100730522Y-54631287D01*
X100730521Y-54631286D01*
X100730520Y-54631284D01*
X100580698Y-54481463D01*
X100547215Y-54420142D01*
X100545163Y-54407686D01*
X100535368Y-54320745D01*
X100475789Y-54150478D01*
X100379816Y-53997738D01*
X100252262Y-53870184D01*
X100099523Y-53774211D01*
X99929254Y-53714631D01*
X99929249Y-53714630D01*
X99750004Y-53694435D01*
X99749996Y-53694435D01*
X99570750Y-53714630D01*
X99570745Y-53714631D01*
X99400476Y-53774211D01*
X99247737Y-53870184D01*
X99120184Y-53997737D01*
X99024211Y-54150476D01*
X98964631Y-54320745D01*
X98964630Y-54320750D01*
X98944435Y-54499996D01*
X98944435Y-54500004D01*
X98960622Y-54643676D01*
X98948567Y-54712498D01*
X98901218Y-54763877D01*
X98833607Y-54781501D01*
X98767202Y-54759774D01*
X98734228Y-54726342D01*
X98270826Y-54031238D01*
X98250018Y-53964539D01*
X98250000Y-53962455D01*
X98250000Y-51500000D01*
X96750000Y-51500000D01*
X96750000Y-55000000D01*
X98194784Y-55963189D01*
X98239644Y-56016753D01*
X98250000Y-56066362D01*
X98250000Y-58876000D01*
X98230315Y-58943039D01*
X98177511Y-58988794D01*
X98126000Y-59000000D01*
X27500000Y-59000000D01*
X27500000Y-82876000D01*
X27480315Y-82943039D01*
X27427511Y-82988794D01*
X27376000Y-83000000D01*
X20024109Y-83000000D01*
X19957070Y-82980315D01*
X19911315Y-82927511D01*
X19900109Y-82875891D01*
X19927193Y-51999996D01*
X87444435Y-51999996D01*
X87444435Y-52000003D01*
X87464630Y-52179249D01*
X87464631Y-52179254D01*
X87524211Y-52349523D01*
X87620184Y-52502262D01*
X87747738Y-52629816D01*
X87900478Y-52725789D01*
X88070745Y-52785368D01*
X88070750Y-52785369D01*
X88249996Y-52805565D01*
X88250000Y-52805565D01*
X88250004Y-52805565D01*
X88429249Y-52785369D01*
X88429252Y-52785368D01*
X88429255Y-52785368D01*
X88599522Y-52725789D01*
X88752262Y-52629816D01*
X88879816Y-52502262D01*
X88975789Y-52349522D01*
X89035368Y-52179255D01*
X89055565Y-52000000D01*
X89035368Y-51820745D01*
X88975789Y-51650478D01*
X88879816Y-51497738D01*
X88752262Y-51370184D01*
X88599523Y-51274211D01*
X88429254Y-51214631D01*
X88429249Y-51214630D01*
X88250004Y-51194435D01*
X88249996Y-51194435D01*
X88070750Y-51214630D01*
X88070745Y-51214631D01*
X87900476Y-51274211D01*
X87747737Y-51370184D01*
X87620184Y-51497737D01*
X87524211Y-51650476D01*
X87464631Y-51820745D01*
X87464630Y-51820750D01*
X87444435Y-51999996D01*
X19927193Y-51999996D01*
X19936118Y-41824996D01*
X97769435Y-41824996D01*
X97769435Y-41825003D01*
X97789630Y-42004249D01*
X97789631Y-42004254D01*
X97849211Y-42174523D01*
X97945184Y-42327262D01*
X98030241Y-42412319D01*
X98063726Y-42473642D01*
X98058742Y-42543334D01*
X98030241Y-42587681D01*
X97995184Y-42622737D01*
X97899211Y-42775476D01*
X97839631Y-42945745D01*
X97839630Y-42945750D01*
X97819435Y-43124996D01*
X97819435Y-43125003D01*
X97839630Y-43304249D01*
X97839631Y-43304254D01*
X97899211Y-43474523D01*
X97995184Y-43627262D01*
X98122738Y-43754816D01*
X98213080Y-43811582D01*
X98273461Y-43849522D01*
X98275478Y-43850789D01*
X98445745Y-43910368D01*
X98445750Y-43910369D01*
X98624996Y-43930565D01*
X98625000Y-43930565D01*
X98625004Y-43930565D01*
X98804249Y-43910369D01*
X98804252Y-43910368D01*
X98804255Y-43910368D01*
X98974522Y-43850789D01*
X99127262Y-43754816D01*
X99254816Y-43627262D01*
X99334783Y-43499996D01*
X103194435Y-43499996D01*
X103194435Y-43500003D01*
X103214630Y-43679249D01*
X103214631Y-43679254D01*
X103274211Y-43849523D01*
X103370184Y-44002262D01*
X103497738Y-44129816D01*
X103650478Y-44225789D01*
X103820745Y-44285368D01*
X103820750Y-44285369D01*
X103999996Y-44305565D01*
X104000000Y-44305565D01*
X104000004Y-44305565D01*
X104179249Y-44285369D01*
X104179252Y-44285368D01*
X104179255Y-44285368D01*
X104349522Y-44225789D01*
X104502262Y-44129816D01*
X104629816Y-44002262D01*
X104725789Y-43849522D01*
X104785368Y-43679255D01*
X104805565Y-43500000D01*
X104802694Y-43474523D01*
X104785369Y-43320750D01*
X104785368Y-43320745D01*
X104725788Y-43150476D01*
X104629815Y-42997737D01*
X104502262Y-42870184D01*
X104349523Y-42774211D01*
X104179254Y-42714631D01*
X104179249Y-42714630D01*
X104000004Y-42694435D01*
X103999996Y-42694435D01*
X103820750Y-42714630D01*
X103820745Y-42714631D01*
X103650476Y-42774211D01*
X103497737Y-42870184D01*
X103370184Y-42997737D01*
X103274211Y-43150476D01*
X103214631Y-43320745D01*
X103214630Y-43320750D01*
X103194435Y-43499996D01*
X99334783Y-43499996D01*
X99350789Y-43474522D01*
X99410368Y-43304255D01*
X99410369Y-43304249D01*
X99430565Y-43125003D01*
X99430565Y-43124996D01*
X99410369Y-42945750D01*
X99410368Y-42945745D01*
X99350788Y-42775476D01*
X99254815Y-42622737D01*
X99169759Y-42537681D01*
X99136274Y-42476358D01*
X99141258Y-42406666D01*
X99169759Y-42362319D01*
X99204816Y-42327262D01*
X99300789Y-42174522D01*
X99360368Y-42004255D01*
X99380565Y-41825000D01*
X99360368Y-41645745D01*
X99300789Y-41475478D01*
X99204816Y-41322738D01*
X99204812Y-41322734D01*
X99204672Y-41322558D01*
X99204615Y-41322418D01*
X99201111Y-41316842D01*
X99202088Y-41316228D01*
X99178265Y-41257870D01*
X99191023Y-41189175D01*
X99235651Y-41140253D01*
X99252262Y-41129816D01*
X99379816Y-41002262D01*
X99475789Y-40849522D01*
X99535368Y-40679255D01*
X99541606Y-40623896D01*
X99555565Y-40500000D01*
X99555565Y-40499996D01*
X99535369Y-40320750D01*
X99535368Y-40320745D01*
X99475788Y-40150476D01*
X99379815Y-39997737D01*
X99332259Y-39950181D01*
X99298774Y-39888858D01*
X99303758Y-39819166D01*
X99332259Y-39774819D01*
X99379816Y-39727262D01*
X99475789Y-39574522D01*
X99535368Y-39404255D01*
X99555565Y-39225000D01*
X99550410Y-39179249D01*
X99535369Y-39045750D01*
X99535368Y-39045745D01*
X99519360Y-38999996D01*
X106444435Y-38999996D01*
X106444435Y-39000003D01*
X106464630Y-39179249D01*
X106464631Y-39179254D01*
X106524211Y-39349523D01*
X106558598Y-39404249D01*
X106620184Y-39502262D01*
X106747738Y-39629816D01*
X106900478Y-39725789D01*
X106904688Y-39727262D01*
X107070745Y-39785368D01*
X107070750Y-39785369D01*
X107249996Y-39805565D01*
X107250000Y-39805565D01*
X107250004Y-39805565D01*
X107429249Y-39785369D01*
X107429252Y-39785368D01*
X107429255Y-39785368D01*
X107599522Y-39725789D01*
X107752262Y-39629816D01*
X107879816Y-39502262D01*
X107975789Y-39349522D01*
X108035368Y-39179255D01*
X108035369Y-39179249D01*
X108055565Y-39000003D01*
X108055565Y-38999996D01*
X108035369Y-38820750D01*
X108035368Y-38820745D01*
X108001074Y-38722738D01*
X107975789Y-38650478D01*
X107879816Y-38497738D01*
X107752262Y-38370184D01*
X107599523Y-38274211D01*
X107429254Y-38214631D01*
X107429249Y-38214630D01*
X107250004Y-38194435D01*
X107249996Y-38194435D01*
X107070750Y-38214630D01*
X107070745Y-38214631D01*
X106900476Y-38274211D01*
X106747737Y-38370184D01*
X106620184Y-38497737D01*
X106524211Y-38650476D01*
X106464631Y-38820745D01*
X106464630Y-38820750D01*
X106444435Y-38999996D01*
X99519360Y-38999996D01*
X99475788Y-38875476D01*
X99379815Y-38722737D01*
X99319759Y-38662681D01*
X99286274Y-38601358D01*
X99291258Y-38531666D01*
X99319759Y-38487319D01*
X99379816Y-38427262D01*
X99475789Y-38274522D01*
X99535368Y-38104255D01*
X99548763Y-37985369D01*
X99555565Y-37925003D01*
X99555565Y-37924996D01*
X99535369Y-37745750D01*
X99535368Y-37745745D01*
X99475788Y-37575476D01*
X99379815Y-37422737D01*
X99252262Y-37295184D01*
X99099523Y-37199211D01*
X98929254Y-37139631D01*
X98929249Y-37139630D01*
X98750004Y-37119435D01*
X98749996Y-37119435D01*
X98570750Y-37139630D01*
X98570745Y-37139631D01*
X98400476Y-37199211D01*
X98247737Y-37295184D01*
X98120184Y-37422737D01*
X98024211Y-37575476D01*
X97964631Y-37745745D01*
X97964630Y-37745750D01*
X97944435Y-37924996D01*
X97944435Y-37925003D01*
X97964630Y-38104249D01*
X97964631Y-38104254D01*
X98024211Y-38274523D01*
X98120184Y-38427262D01*
X98180241Y-38487319D01*
X98213726Y-38548642D01*
X98208742Y-38618334D01*
X98180241Y-38662681D01*
X98120184Y-38722737D01*
X98024211Y-38875476D01*
X97964631Y-39045745D01*
X97964630Y-39045750D01*
X97944435Y-39224996D01*
X97944435Y-39225003D01*
X97964630Y-39404249D01*
X97964631Y-39404254D01*
X98024211Y-39574523D01*
X98120184Y-39727262D01*
X98167741Y-39774819D01*
X98201226Y-39836142D01*
X98196242Y-39905834D01*
X98167741Y-39950181D01*
X98120184Y-39997737D01*
X98024211Y-40150476D01*
X97964631Y-40320745D01*
X97964630Y-40320750D01*
X97944435Y-40499996D01*
X97944435Y-40500000D01*
X97964630Y-40679249D01*
X97964631Y-40679254D01*
X98024211Y-40849523D01*
X98077028Y-40933580D01*
X98120184Y-41002262D01*
X98120189Y-41002267D01*
X98120322Y-41002434D01*
X98120377Y-41002568D01*
X98123889Y-41008158D01*
X98122910Y-41008773D01*
X98146733Y-41067120D01*
X98133980Y-41135815D01*
X98089354Y-41184742D01*
X98072742Y-41195180D01*
X98072737Y-41195184D01*
X97945184Y-41322737D01*
X97849211Y-41475476D01*
X97789631Y-41645745D01*
X97789630Y-41645750D01*
X97769435Y-41824996D01*
X19936118Y-41824996D01*
X19937172Y-40623891D01*
X19956915Y-40556869D01*
X20009760Y-40511160D01*
X20061172Y-40500000D01*
X33500000Y-40500000D01*
X33500000Y-33499996D01*
X85094435Y-33499996D01*
X85094435Y-33500003D01*
X85114630Y-33679249D01*
X85114631Y-33679254D01*
X85174211Y-33849523D01*
X85270185Y-34002263D01*
X85272445Y-34005097D01*
X85273334Y-34007275D01*
X85273889Y-34008158D01*
X85273734Y-34008255D01*
X85298855Y-34069783D01*
X85299500Y-34082412D01*
X85299500Y-35613330D01*
X85299499Y-35613348D01*
X85299499Y-35779054D01*
X85299498Y-35779054D01*
X85340423Y-35931785D01*
X85369358Y-35981900D01*
X85369359Y-35981904D01*
X85369360Y-35981904D01*
X85419479Y-36068714D01*
X85419481Y-36068717D01*
X85538349Y-36187585D01*
X85538355Y-36187590D01*
X86569298Y-37218533D01*
X86602783Y-37279856D01*
X86604837Y-37292330D01*
X86614630Y-37379249D01*
X86674210Y-37549521D01*
X86690519Y-37575476D01*
X86770184Y-37702262D01*
X86897738Y-37829816D01*
X87050478Y-37925789D01*
X87220745Y-37985368D01*
X87220750Y-37985369D01*
X87399996Y-38005565D01*
X87400000Y-38005565D01*
X87400004Y-38005565D01*
X87579249Y-37985369D01*
X87579252Y-37985368D01*
X87579255Y-37985368D01*
X87749522Y-37925789D01*
X87902262Y-37829816D01*
X88029816Y-37702262D01*
X88125789Y-37549522D01*
X88185368Y-37379255D01*
X88185369Y-37379249D01*
X88205565Y-37200003D01*
X88205565Y-37199996D01*
X88185369Y-37020750D01*
X88185368Y-37020745D01*
X88125788Y-36850476D01*
X88029815Y-36697737D01*
X87902262Y-36570184D01*
X87749521Y-36474210D01*
X87579249Y-36414630D01*
X87492330Y-36404837D01*
X87427916Y-36377770D01*
X87418533Y-36369298D01*
X86536819Y-35487584D01*
X86503334Y-35426261D01*
X86500500Y-35399903D01*
X86500500Y-34999996D01*
X95444435Y-34999996D01*
X95444435Y-35000003D01*
X95464630Y-35179249D01*
X95464631Y-35179254D01*
X95524211Y-35349523D01*
X95572429Y-35426261D01*
X95620184Y-35502262D01*
X95747738Y-35629816D01*
X95900478Y-35725789D01*
X96052701Y-35779054D01*
X96070745Y-35785368D01*
X96070750Y-35785369D01*
X96249996Y-35805565D01*
X96250000Y-35805565D01*
X96250004Y-35805565D01*
X96429249Y-35785369D01*
X96429252Y-35785368D01*
X96429255Y-35785368D01*
X96599522Y-35725789D01*
X96752262Y-35629816D01*
X96879816Y-35502262D01*
X96975789Y-35349522D01*
X97035368Y-35179255D01*
X97055565Y-35000000D01*
X97055565Y-34999996D01*
X101694435Y-34999996D01*
X101694435Y-35000003D01*
X101714630Y-35179249D01*
X101714631Y-35179254D01*
X101774211Y-35349523D01*
X101822429Y-35426261D01*
X101870184Y-35502262D01*
X101997738Y-35629816D01*
X102150478Y-35725789D01*
X102302701Y-35779054D01*
X102320745Y-35785368D01*
X102320750Y-35785369D01*
X102499996Y-35805565D01*
X102500000Y-35805565D01*
X102500004Y-35805565D01*
X102679249Y-35785369D01*
X102679252Y-35785368D01*
X102679255Y-35785368D01*
X102849522Y-35725789D01*
X103002262Y-35629816D01*
X103129816Y-35502262D01*
X103225789Y-35349522D01*
X103285368Y-35179255D01*
X103305565Y-35000000D01*
X103285368Y-34820745D01*
X103225789Y-34650478D01*
X103129816Y-34497738D01*
X103002262Y-34370184D01*
X102849523Y-34274211D01*
X102679254Y-34214631D01*
X102679249Y-34214630D01*
X102500004Y-34194435D01*
X102499996Y-34194435D01*
X102320750Y-34214630D01*
X102320745Y-34214631D01*
X102150476Y-34274211D01*
X101997737Y-34370184D01*
X101870184Y-34497737D01*
X101774211Y-34650476D01*
X101714631Y-34820745D01*
X101714630Y-34820750D01*
X101694435Y-34999996D01*
X97055565Y-34999996D01*
X97035368Y-34820745D01*
X96975789Y-34650478D01*
X96879816Y-34497738D01*
X96752262Y-34370184D01*
X96599523Y-34274211D01*
X96429254Y-34214631D01*
X96429249Y-34214630D01*
X96250004Y-34194435D01*
X96249996Y-34194435D01*
X96070750Y-34214630D01*
X96070745Y-34214631D01*
X95900476Y-34274211D01*
X95747737Y-34370184D01*
X95620184Y-34497737D01*
X95524211Y-34650476D01*
X95464631Y-34820745D01*
X95464630Y-34820750D01*
X95444435Y-34999996D01*
X86500500Y-34999996D01*
X86500500Y-34082412D01*
X86520185Y-34015373D01*
X86527555Y-34005097D01*
X86529810Y-34002267D01*
X86529816Y-34002262D01*
X86625789Y-33849522D01*
X86685368Y-33679255D01*
X86705565Y-33500000D01*
X86685368Y-33320745D01*
X86625789Y-33150478D01*
X86529816Y-32997738D01*
X86402262Y-32870184D01*
X86249523Y-32774211D01*
X86079254Y-32714631D01*
X86079249Y-32714630D01*
X85900004Y-32694435D01*
X85899996Y-32694435D01*
X85720750Y-32714630D01*
X85720745Y-32714631D01*
X85550476Y-32774211D01*
X85397737Y-32870184D01*
X85270184Y-32997737D01*
X85174211Y-33150476D01*
X85114631Y-33320745D01*
X85114630Y-33320750D01*
X85094435Y-33499996D01*
X33500000Y-33499996D01*
X33500000Y-31999999D01*
X89094722Y-31999999D01*
X89094722Y-32000000D01*
X89113762Y-32156818D01*
X89169780Y-32304523D01*
X89259517Y-32434530D01*
X89377760Y-32539283D01*
X89377762Y-32539284D01*
X89517634Y-32612696D01*
X89671014Y-32650500D01*
X89671015Y-32650500D01*
X89828985Y-32650500D01*
X89982365Y-32612696D01*
X90122240Y-32539283D01*
X90240483Y-32434530D01*
X90330220Y-32304523D01*
X90386237Y-32156818D01*
X90405278Y-32000000D01*
X90386237Y-31843182D01*
X90330220Y-31695477D01*
X90240483Y-31565470D01*
X90122240Y-31460717D01*
X90122238Y-31460716D01*
X90122237Y-31460715D01*
X89982365Y-31387303D01*
X89828986Y-31349500D01*
X89828985Y-31349500D01*
X89671015Y-31349500D01*
X89671014Y-31349500D01*
X89517634Y-31387303D01*
X89377762Y-31460715D01*
X89259516Y-31565471D01*
X89169781Y-31695475D01*
X89169780Y-31695476D01*
X89113762Y-31843181D01*
X89094722Y-31999999D01*
X33500000Y-31999999D01*
X33500000Y-26113738D01*
X33519685Y-26046699D01*
X33572489Y-26000944D01*
X33623906Y-25989738D01*
X140875909Y-25909248D01*
X140942961Y-25928882D01*
G37*
%TD.AperFunction*%
%TD*%
%TA.AperFunction,Conductor*%
%TO.N,Vout*%
G36*
X144943039Y-60519685D02*
G01*
X144988794Y-60572489D01*
X145000000Y-60624000D01*
X145000000Y-85376000D01*
X144980315Y-85443039D01*
X144927511Y-85488794D01*
X144876000Y-85500000D01*
X117874000Y-85500000D01*
X117806961Y-85480315D01*
X117761206Y-85427511D01*
X117750000Y-85376000D01*
X117750000Y-78202752D01*
X117769685Y-78135713D01*
X117822489Y-78089958D01*
X117831243Y-78086692D01*
X117835047Y-78084954D01*
X117835053Y-78084953D01*
X117956128Y-78007143D01*
X118050377Y-77898373D01*
X118110165Y-77767457D01*
X118130647Y-77625000D01*
X118110165Y-77482543D01*
X118050377Y-77351627D01*
X117956128Y-77242857D01*
X117835053Y-77165047D01*
X117826989Y-77161365D01*
X117828011Y-77159124D01*
X117780278Y-77128440D01*
X117751260Y-77064881D01*
X117750000Y-77047248D01*
X117750000Y-77000000D01*
X104874000Y-77000000D01*
X104806961Y-76980315D01*
X104761206Y-76927511D01*
X104750000Y-76876000D01*
X104750000Y-60624000D01*
X104769685Y-60556961D01*
X104822489Y-60511206D01*
X104874000Y-60500000D01*
X144876000Y-60500000D01*
X144943039Y-60519685D01*
G37*
%TD.AperFunction*%
%TD*%
%TA.AperFunction,Conductor*%
%TO.N,/sw1*%
G36*
X70943039Y-77519685D02*
G01*
X70988794Y-77572489D01*
X71000000Y-77624000D01*
X71000000Y-79500000D01*
X72000000Y-79500000D01*
X72165693Y-79500000D01*
X72172684Y-79500500D01*
X72178039Y-79500500D01*
X72327316Y-79500500D01*
X72334307Y-79500000D01*
X78000000Y-79500000D01*
X78000000Y-79487851D01*
X78019685Y-79420812D01*
X78072489Y-79375057D01*
X78141647Y-79365113D01*
X78191040Y-79383536D01*
X78309948Y-79459954D01*
X78428108Y-79494647D01*
X78446336Y-79500000D01*
X78448036Y-79500499D01*
X78448038Y-79500500D01*
X78448039Y-79500500D01*
X78591962Y-79500500D01*
X78591962Y-79500499D01*
X78730053Y-79459953D01*
X78851128Y-79382143D01*
X78945377Y-79273373D01*
X79005165Y-79142457D01*
X79025647Y-79000000D01*
X79005165Y-78857543D01*
X78945377Y-78726627D01*
X78851128Y-78617857D01*
X78730053Y-78540047D01*
X78730051Y-78540046D01*
X78730049Y-78540045D01*
X78730050Y-78540045D01*
X78591963Y-78499500D01*
X78591961Y-78499500D01*
X78448039Y-78499500D01*
X78448036Y-78499500D01*
X78309949Y-78540045D01*
X78191039Y-78616464D01*
X78123999Y-78636148D01*
X78056960Y-78616463D01*
X78011205Y-78563659D01*
X78000000Y-78512148D01*
X78000000Y-77624000D01*
X78019685Y-77556961D01*
X78072489Y-77511206D01*
X78124000Y-77500000D01*
X88126000Y-77500000D01*
X88193039Y-77519685D01*
X88238794Y-77572489D01*
X88250000Y-77624000D01*
X88250000Y-83000000D01*
X90126000Y-83000000D01*
X90193039Y-83019685D01*
X90238794Y-83072489D01*
X90250000Y-83124000D01*
X90250000Y-106526000D01*
X90230315Y-106593039D01*
X90177511Y-106638794D01*
X90126000Y-106650000D01*
X66374000Y-106650000D01*
X66306961Y-106630315D01*
X66261206Y-106577511D01*
X66250000Y-106526000D01*
X66250000Y-89150000D01*
X81750000Y-89150000D01*
X81750000Y-92650000D01*
X86750000Y-92650000D01*
X86750000Y-87650000D01*
X81750000Y-87650000D01*
X81750000Y-89150000D01*
X66250000Y-89150000D01*
X66250000Y-77624000D01*
X66269685Y-77556961D01*
X66322489Y-77511206D01*
X66374000Y-77500000D01*
X70876000Y-77500000D01*
X70943039Y-77519685D01*
G37*
%TD.AperFunction*%
%TD*%
M02*
