%TF.GenerationSoftware,KiCad,Pcbnew,8.0.7*%
%TF.CreationDate,2025-01-13T19:37:05-08:00*%
%TF.ProjectId,DCDCv2,44434443-7632-42e6-9b69-6361645f7063,rev?*%
%TF.SameCoordinates,Original*%
%TF.FileFunction,Legend,Bot*%
%TF.FilePolarity,Positive*%
%FSLAX46Y46*%
G04 Gerber Fmt 4.6, Leading zero omitted, Abs format (unit mm)*
G04 Created by KiCad (PCBNEW 8.0.7) date 2025-01-13 19:37:05*
%MOMM*%
%LPD*%
G01*
G04 APERTURE LIST*
G04 Aperture macros list*
%AMRoundRect*
0 Rectangle with rounded corners*
0 $1 Rounding radius*
0 $2 $3 $4 $5 $6 $7 $8 $9 X,Y pos of 4 corners*
0 Add a 4 corners polygon primitive as box body*
4,1,4,$2,$3,$4,$5,$6,$7,$8,$9,$2,$3,0*
0 Add four circle primitives for the rounded corners*
1,1,$1+$1,$2,$3*
1,1,$1+$1,$4,$5*
1,1,$1+$1,$6,$7*
1,1,$1+$1,$8,$9*
0 Add four rect primitives between the rounded corners*
20,1,$1+$1,$2,$3,$4,$5,0*
20,1,$1+$1,$4,$5,$6,$7,0*
20,1,$1+$1,$6,$7,$8,$9,0*
20,1,$1+$1,$8,$9,$2,$3,0*%
G04 Aperture macros list end*
%ADD10C,0.150000*%
%ADD11C,0.508000*%
%ADD12C,0.120000*%
%ADD13C,1.803400*%
%ADD14C,2.000000*%
%ADD15C,3.750000*%
%ADD16R,10.000000X5.000000*%
%ADD17O,10.000000X5.000000*%
%ADD18RoundRect,0.250000X1.100000X-0.412500X1.100000X0.412500X-1.100000X0.412500X-1.100000X-0.412500X0*%
%ADD19RoundRect,0.250000X-1.400000X-2.000000X1.400000X-2.000000X1.400000X2.000000X-1.400000X2.000000X0*%
%ADD20RoundRect,0.250000X1.400000X2.000000X-1.400000X2.000000X-1.400000X-2.000000X1.400000X-2.000000X0*%
%ADD21RoundRect,0.250000X0.350000X-0.850000X0.350000X0.850000X-0.350000X0.850000X-0.350000X-0.850000X0*%
%ADD22RoundRect,0.249997X2.650003X-2.950003X2.650003X2.950003X-2.650003X2.950003X-2.650003X-2.950003X0*%
G04 APERTURE END LIST*
D10*
X139409580Y-57800594D02*
X139457200Y-57752975D01*
X139457200Y-57752975D02*
X139504819Y-57610118D01*
X139504819Y-57610118D02*
X139504819Y-57514880D01*
X139504819Y-57514880D02*
X139457200Y-57372023D01*
X139457200Y-57372023D02*
X139361961Y-57276785D01*
X139361961Y-57276785D02*
X139266723Y-57229166D01*
X139266723Y-57229166D02*
X139076247Y-57181547D01*
X139076247Y-57181547D02*
X138933390Y-57181547D01*
X138933390Y-57181547D02*
X138742914Y-57229166D01*
X138742914Y-57229166D02*
X138647676Y-57276785D01*
X138647676Y-57276785D02*
X138552438Y-57372023D01*
X138552438Y-57372023D02*
X138504819Y-57514880D01*
X138504819Y-57514880D02*
X138504819Y-57610118D01*
X138504819Y-57610118D02*
X138552438Y-57752975D01*
X138552438Y-57752975D02*
X138600057Y-57800594D01*
X139504819Y-58372023D02*
X139457200Y-58276785D01*
X139457200Y-58276785D02*
X139409580Y-58229166D01*
X139409580Y-58229166D02*
X139314342Y-58181547D01*
X139314342Y-58181547D02*
X139028628Y-58181547D01*
X139028628Y-58181547D02*
X138933390Y-58229166D01*
X138933390Y-58229166D02*
X138885771Y-58276785D01*
X138885771Y-58276785D02*
X138838152Y-58372023D01*
X138838152Y-58372023D02*
X138838152Y-58514880D01*
X138838152Y-58514880D02*
X138885771Y-58610118D01*
X138885771Y-58610118D02*
X138933390Y-58657737D01*
X138933390Y-58657737D02*
X139028628Y-58705356D01*
X139028628Y-58705356D02*
X139314342Y-58705356D01*
X139314342Y-58705356D02*
X139409580Y-58657737D01*
X139409580Y-58657737D02*
X139457200Y-58610118D01*
X139457200Y-58610118D02*
X139504819Y-58514880D01*
X139504819Y-58514880D02*
X139504819Y-58372023D01*
X138838152Y-59562499D02*
X139504819Y-59562499D01*
X138838152Y-59133928D02*
X139361961Y-59133928D01*
X139361961Y-59133928D02*
X139457200Y-59181547D01*
X139457200Y-59181547D02*
X139504819Y-59276785D01*
X139504819Y-59276785D02*
X139504819Y-59419642D01*
X139504819Y-59419642D02*
X139457200Y-59514880D01*
X139457200Y-59514880D02*
X139409580Y-59562499D01*
X138838152Y-59895833D02*
X138838152Y-60276785D01*
X138504819Y-60038690D02*
X139361961Y-60038690D01*
X139361961Y-60038690D02*
X139457200Y-60086309D01*
X139457200Y-60086309D02*
X139504819Y-60181547D01*
X139504819Y-60181547D02*
X139504819Y-60276785D01*
X139504819Y-60514881D02*
X138838152Y-61038690D01*
X138838152Y-60514881D02*
X139504819Y-61038690D01*
X138504819Y-61324405D02*
X138504819Y-61943452D01*
X138504819Y-61943452D02*
X138885771Y-61610119D01*
X138885771Y-61610119D02*
X138885771Y-61752976D01*
X138885771Y-61752976D02*
X138933390Y-61848214D01*
X138933390Y-61848214D02*
X138981009Y-61895833D01*
X138981009Y-61895833D02*
X139076247Y-61943452D01*
X139076247Y-61943452D02*
X139314342Y-61943452D01*
X139314342Y-61943452D02*
X139409580Y-61895833D01*
X139409580Y-61895833D02*
X139457200Y-61848214D01*
X139457200Y-61848214D02*
X139504819Y-61752976D01*
X139504819Y-61752976D02*
X139504819Y-61467262D01*
X139504819Y-61467262D02*
X139457200Y-61372024D01*
X139457200Y-61372024D02*
X139409580Y-61324405D01*
X90054819Y-75661905D02*
X89054819Y-75661905D01*
X89054819Y-75661905D02*
X89054819Y-75900000D01*
X89054819Y-75900000D02*
X89102438Y-76042857D01*
X89102438Y-76042857D02*
X89197676Y-76138095D01*
X89197676Y-76138095D02*
X89292914Y-76185714D01*
X89292914Y-76185714D02*
X89483390Y-76233333D01*
X89483390Y-76233333D02*
X89626247Y-76233333D01*
X89626247Y-76233333D02*
X89816723Y-76185714D01*
X89816723Y-76185714D02*
X89911961Y-76138095D01*
X89911961Y-76138095D02*
X90007200Y-76042857D01*
X90007200Y-76042857D02*
X90054819Y-75900000D01*
X90054819Y-75900000D02*
X90054819Y-75661905D01*
X89150057Y-76614286D02*
X89102438Y-76661905D01*
X89102438Y-76661905D02*
X89054819Y-76757143D01*
X89054819Y-76757143D02*
X89054819Y-76995238D01*
X89054819Y-76995238D02*
X89102438Y-77090476D01*
X89102438Y-77090476D02*
X89150057Y-77138095D01*
X89150057Y-77138095D02*
X89245295Y-77185714D01*
X89245295Y-77185714D02*
X89340533Y-77185714D01*
X89340533Y-77185714D02*
X89483390Y-77138095D01*
X89483390Y-77138095D02*
X90054819Y-76566667D01*
X90054819Y-76566667D02*
X90054819Y-77185714D01*
X113909580Y-57419642D02*
X113957200Y-57372023D01*
X113957200Y-57372023D02*
X114004819Y-57229166D01*
X114004819Y-57229166D02*
X114004819Y-57133928D01*
X114004819Y-57133928D02*
X113957200Y-56991071D01*
X113957200Y-56991071D02*
X113861961Y-56895833D01*
X113861961Y-56895833D02*
X113766723Y-56848214D01*
X113766723Y-56848214D02*
X113576247Y-56800595D01*
X113576247Y-56800595D02*
X113433390Y-56800595D01*
X113433390Y-56800595D02*
X113242914Y-56848214D01*
X113242914Y-56848214D02*
X113147676Y-56895833D01*
X113147676Y-56895833D02*
X113052438Y-56991071D01*
X113052438Y-56991071D02*
X113004819Y-57133928D01*
X113004819Y-57133928D02*
X113004819Y-57229166D01*
X113004819Y-57229166D02*
X113052438Y-57372023D01*
X113052438Y-57372023D02*
X113100057Y-57419642D01*
X114004819Y-57991071D02*
X113957200Y-57895833D01*
X113957200Y-57895833D02*
X113909580Y-57848214D01*
X113909580Y-57848214D02*
X113814342Y-57800595D01*
X113814342Y-57800595D02*
X113528628Y-57800595D01*
X113528628Y-57800595D02*
X113433390Y-57848214D01*
X113433390Y-57848214D02*
X113385771Y-57895833D01*
X113385771Y-57895833D02*
X113338152Y-57991071D01*
X113338152Y-57991071D02*
X113338152Y-58133928D01*
X113338152Y-58133928D02*
X113385771Y-58229166D01*
X113385771Y-58229166D02*
X113433390Y-58276785D01*
X113433390Y-58276785D02*
X113528628Y-58324404D01*
X113528628Y-58324404D02*
X113814342Y-58324404D01*
X113814342Y-58324404D02*
X113909580Y-58276785D01*
X113909580Y-58276785D02*
X113957200Y-58229166D01*
X113957200Y-58229166D02*
X114004819Y-58133928D01*
X114004819Y-58133928D02*
X114004819Y-57991071D01*
X113338152Y-59181547D02*
X114004819Y-59181547D01*
X113338152Y-58752976D02*
X113861961Y-58752976D01*
X113861961Y-58752976D02*
X113957200Y-58800595D01*
X113957200Y-58800595D02*
X114004819Y-58895833D01*
X114004819Y-58895833D02*
X114004819Y-59038690D01*
X114004819Y-59038690D02*
X113957200Y-59133928D01*
X113957200Y-59133928D02*
X113909580Y-59181547D01*
X113338152Y-59514881D02*
X113338152Y-59895833D01*
X113004819Y-59657738D02*
X113861961Y-59657738D01*
X113861961Y-59657738D02*
X113957200Y-59705357D01*
X113957200Y-59705357D02*
X114004819Y-59800595D01*
X114004819Y-59800595D02*
X114004819Y-59895833D01*
X114004819Y-60133929D02*
X113338152Y-60657738D01*
X113338152Y-60133929D02*
X114004819Y-60657738D01*
X114100057Y-60800596D02*
X114100057Y-61562500D01*
X113004819Y-61705358D02*
X113004819Y-62324405D01*
X113004819Y-62324405D02*
X113385771Y-61991072D01*
X113385771Y-61991072D02*
X113385771Y-62133929D01*
X113385771Y-62133929D02*
X113433390Y-62229167D01*
X113433390Y-62229167D02*
X113481009Y-62276786D01*
X113481009Y-62276786D02*
X113576247Y-62324405D01*
X113576247Y-62324405D02*
X113814342Y-62324405D01*
X113814342Y-62324405D02*
X113909580Y-62276786D01*
X113909580Y-62276786D02*
X113957200Y-62229167D01*
X113957200Y-62229167D02*
X114004819Y-62133929D01*
X114004819Y-62133929D02*
X114004819Y-61848215D01*
X114004819Y-61848215D02*
X113957200Y-61752977D01*
X113957200Y-61752977D02*
X113909580Y-61705358D01*
X118159580Y-57419642D02*
X118207200Y-57372023D01*
X118207200Y-57372023D02*
X118254819Y-57229166D01*
X118254819Y-57229166D02*
X118254819Y-57133928D01*
X118254819Y-57133928D02*
X118207200Y-56991071D01*
X118207200Y-56991071D02*
X118111961Y-56895833D01*
X118111961Y-56895833D02*
X118016723Y-56848214D01*
X118016723Y-56848214D02*
X117826247Y-56800595D01*
X117826247Y-56800595D02*
X117683390Y-56800595D01*
X117683390Y-56800595D02*
X117492914Y-56848214D01*
X117492914Y-56848214D02*
X117397676Y-56895833D01*
X117397676Y-56895833D02*
X117302438Y-56991071D01*
X117302438Y-56991071D02*
X117254819Y-57133928D01*
X117254819Y-57133928D02*
X117254819Y-57229166D01*
X117254819Y-57229166D02*
X117302438Y-57372023D01*
X117302438Y-57372023D02*
X117350057Y-57419642D01*
X118254819Y-57991071D02*
X118207200Y-57895833D01*
X118207200Y-57895833D02*
X118159580Y-57848214D01*
X118159580Y-57848214D02*
X118064342Y-57800595D01*
X118064342Y-57800595D02*
X117778628Y-57800595D01*
X117778628Y-57800595D02*
X117683390Y-57848214D01*
X117683390Y-57848214D02*
X117635771Y-57895833D01*
X117635771Y-57895833D02*
X117588152Y-57991071D01*
X117588152Y-57991071D02*
X117588152Y-58133928D01*
X117588152Y-58133928D02*
X117635771Y-58229166D01*
X117635771Y-58229166D02*
X117683390Y-58276785D01*
X117683390Y-58276785D02*
X117778628Y-58324404D01*
X117778628Y-58324404D02*
X118064342Y-58324404D01*
X118064342Y-58324404D02*
X118159580Y-58276785D01*
X118159580Y-58276785D02*
X118207200Y-58229166D01*
X118207200Y-58229166D02*
X118254819Y-58133928D01*
X118254819Y-58133928D02*
X118254819Y-57991071D01*
X117588152Y-59181547D02*
X118254819Y-59181547D01*
X117588152Y-58752976D02*
X118111961Y-58752976D01*
X118111961Y-58752976D02*
X118207200Y-58800595D01*
X118207200Y-58800595D02*
X118254819Y-58895833D01*
X118254819Y-58895833D02*
X118254819Y-59038690D01*
X118254819Y-59038690D02*
X118207200Y-59133928D01*
X118207200Y-59133928D02*
X118159580Y-59181547D01*
X117588152Y-59514881D02*
X117588152Y-59895833D01*
X117254819Y-59657738D02*
X118111961Y-59657738D01*
X118111961Y-59657738D02*
X118207200Y-59705357D01*
X118207200Y-59705357D02*
X118254819Y-59800595D01*
X118254819Y-59800595D02*
X118254819Y-59895833D01*
X118254819Y-60133929D02*
X117588152Y-60657738D01*
X117588152Y-60133929D02*
X118254819Y-60657738D01*
X118350057Y-60800596D02*
X118350057Y-61562500D01*
X117350057Y-61752977D02*
X117302438Y-61800596D01*
X117302438Y-61800596D02*
X117254819Y-61895834D01*
X117254819Y-61895834D02*
X117254819Y-62133929D01*
X117254819Y-62133929D02*
X117302438Y-62229167D01*
X117302438Y-62229167D02*
X117350057Y-62276786D01*
X117350057Y-62276786D02*
X117445295Y-62324405D01*
X117445295Y-62324405D02*
X117540533Y-62324405D01*
X117540533Y-62324405D02*
X117683390Y-62276786D01*
X117683390Y-62276786D02*
X118254819Y-61705358D01*
X118254819Y-61705358D02*
X118254819Y-62324405D01*
X130909580Y-56943451D02*
X130957200Y-56895832D01*
X130957200Y-56895832D02*
X131004819Y-56752975D01*
X131004819Y-56752975D02*
X131004819Y-56657737D01*
X131004819Y-56657737D02*
X130957200Y-56514880D01*
X130957200Y-56514880D02*
X130861961Y-56419642D01*
X130861961Y-56419642D02*
X130766723Y-56372023D01*
X130766723Y-56372023D02*
X130576247Y-56324404D01*
X130576247Y-56324404D02*
X130433390Y-56324404D01*
X130433390Y-56324404D02*
X130242914Y-56372023D01*
X130242914Y-56372023D02*
X130147676Y-56419642D01*
X130147676Y-56419642D02*
X130052438Y-56514880D01*
X130052438Y-56514880D02*
X130004819Y-56657737D01*
X130004819Y-56657737D02*
X130004819Y-56752975D01*
X130004819Y-56752975D02*
X130052438Y-56895832D01*
X130052438Y-56895832D02*
X130100057Y-56943451D01*
X131004819Y-57514880D02*
X130957200Y-57419642D01*
X130957200Y-57419642D02*
X130909580Y-57372023D01*
X130909580Y-57372023D02*
X130814342Y-57324404D01*
X130814342Y-57324404D02*
X130528628Y-57324404D01*
X130528628Y-57324404D02*
X130433390Y-57372023D01*
X130433390Y-57372023D02*
X130385771Y-57419642D01*
X130385771Y-57419642D02*
X130338152Y-57514880D01*
X130338152Y-57514880D02*
X130338152Y-57657737D01*
X130338152Y-57657737D02*
X130385771Y-57752975D01*
X130385771Y-57752975D02*
X130433390Y-57800594D01*
X130433390Y-57800594D02*
X130528628Y-57848213D01*
X130528628Y-57848213D02*
X130814342Y-57848213D01*
X130814342Y-57848213D02*
X130909580Y-57800594D01*
X130909580Y-57800594D02*
X130957200Y-57752975D01*
X130957200Y-57752975D02*
X131004819Y-57657737D01*
X131004819Y-57657737D02*
X131004819Y-57514880D01*
X130338152Y-58705356D02*
X131004819Y-58705356D01*
X130338152Y-58276785D02*
X130861961Y-58276785D01*
X130861961Y-58276785D02*
X130957200Y-58324404D01*
X130957200Y-58324404D02*
X131004819Y-58419642D01*
X131004819Y-58419642D02*
X131004819Y-58562499D01*
X131004819Y-58562499D02*
X130957200Y-58657737D01*
X130957200Y-58657737D02*
X130909580Y-58705356D01*
X130338152Y-59038690D02*
X130338152Y-59419642D01*
X130004819Y-59181547D02*
X130861961Y-59181547D01*
X130861961Y-59181547D02*
X130957200Y-59229166D01*
X130957200Y-59229166D02*
X131004819Y-59324404D01*
X131004819Y-59324404D02*
X131004819Y-59419642D01*
X131004819Y-59657738D02*
X130338152Y-60181547D01*
X130338152Y-59657738D02*
X131004819Y-60181547D01*
X130100057Y-60514881D02*
X130052438Y-60562500D01*
X130052438Y-60562500D02*
X130004819Y-60657738D01*
X130004819Y-60657738D02*
X130004819Y-60895833D01*
X130004819Y-60895833D02*
X130052438Y-60991071D01*
X130052438Y-60991071D02*
X130100057Y-61038690D01*
X130100057Y-61038690D02*
X130195295Y-61086309D01*
X130195295Y-61086309D02*
X130290533Y-61086309D01*
X130290533Y-61086309D02*
X130433390Y-61038690D01*
X130433390Y-61038690D02*
X131004819Y-60467262D01*
X131004819Y-60467262D02*
X131004819Y-61086309D01*
X131100057Y-61276786D02*
X131100057Y-62038690D01*
X130004819Y-62181548D02*
X130004819Y-62800595D01*
X130004819Y-62800595D02*
X130385771Y-62467262D01*
X130385771Y-62467262D02*
X130385771Y-62610119D01*
X130385771Y-62610119D02*
X130433390Y-62705357D01*
X130433390Y-62705357D02*
X130481009Y-62752976D01*
X130481009Y-62752976D02*
X130576247Y-62800595D01*
X130576247Y-62800595D02*
X130814342Y-62800595D01*
X130814342Y-62800595D02*
X130909580Y-62752976D01*
X130909580Y-62752976D02*
X130957200Y-62705357D01*
X130957200Y-62705357D02*
X131004819Y-62610119D01*
X131004819Y-62610119D02*
X131004819Y-62324405D01*
X131004819Y-62324405D02*
X130957200Y-62229167D01*
X130957200Y-62229167D02*
X130909580Y-62181548D01*
X122409580Y-56943451D02*
X122457200Y-56895832D01*
X122457200Y-56895832D02*
X122504819Y-56752975D01*
X122504819Y-56752975D02*
X122504819Y-56657737D01*
X122504819Y-56657737D02*
X122457200Y-56514880D01*
X122457200Y-56514880D02*
X122361961Y-56419642D01*
X122361961Y-56419642D02*
X122266723Y-56372023D01*
X122266723Y-56372023D02*
X122076247Y-56324404D01*
X122076247Y-56324404D02*
X121933390Y-56324404D01*
X121933390Y-56324404D02*
X121742914Y-56372023D01*
X121742914Y-56372023D02*
X121647676Y-56419642D01*
X121647676Y-56419642D02*
X121552438Y-56514880D01*
X121552438Y-56514880D02*
X121504819Y-56657737D01*
X121504819Y-56657737D02*
X121504819Y-56752975D01*
X121504819Y-56752975D02*
X121552438Y-56895832D01*
X121552438Y-56895832D02*
X121600057Y-56943451D01*
X122504819Y-57514880D02*
X122457200Y-57419642D01*
X122457200Y-57419642D02*
X122409580Y-57372023D01*
X122409580Y-57372023D02*
X122314342Y-57324404D01*
X122314342Y-57324404D02*
X122028628Y-57324404D01*
X122028628Y-57324404D02*
X121933390Y-57372023D01*
X121933390Y-57372023D02*
X121885771Y-57419642D01*
X121885771Y-57419642D02*
X121838152Y-57514880D01*
X121838152Y-57514880D02*
X121838152Y-57657737D01*
X121838152Y-57657737D02*
X121885771Y-57752975D01*
X121885771Y-57752975D02*
X121933390Y-57800594D01*
X121933390Y-57800594D02*
X122028628Y-57848213D01*
X122028628Y-57848213D02*
X122314342Y-57848213D01*
X122314342Y-57848213D02*
X122409580Y-57800594D01*
X122409580Y-57800594D02*
X122457200Y-57752975D01*
X122457200Y-57752975D02*
X122504819Y-57657737D01*
X122504819Y-57657737D02*
X122504819Y-57514880D01*
X121838152Y-58705356D02*
X122504819Y-58705356D01*
X121838152Y-58276785D02*
X122361961Y-58276785D01*
X122361961Y-58276785D02*
X122457200Y-58324404D01*
X122457200Y-58324404D02*
X122504819Y-58419642D01*
X122504819Y-58419642D02*
X122504819Y-58562499D01*
X122504819Y-58562499D02*
X122457200Y-58657737D01*
X122457200Y-58657737D02*
X122409580Y-58705356D01*
X121838152Y-59038690D02*
X121838152Y-59419642D01*
X121504819Y-59181547D02*
X122361961Y-59181547D01*
X122361961Y-59181547D02*
X122457200Y-59229166D01*
X122457200Y-59229166D02*
X122504819Y-59324404D01*
X122504819Y-59324404D02*
X122504819Y-59419642D01*
X122504819Y-59657738D02*
X121838152Y-60181547D01*
X121838152Y-59657738D02*
X122504819Y-60181547D01*
X121504819Y-60467262D02*
X121504819Y-61086309D01*
X121504819Y-61086309D02*
X121885771Y-60752976D01*
X121885771Y-60752976D02*
X121885771Y-60895833D01*
X121885771Y-60895833D02*
X121933390Y-60991071D01*
X121933390Y-60991071D02*
X121981009Y-61038690D01*
X121981009Y-61038690D02*
X122076247Y-61086309D01*
X122076247Y-61086309D02*
X122314342Y-61086309D01*
X122314342Y-61086309D02*
X122409580Y-61038690D01*
X122409580Y-61038690D02*
X122457200Y-60991071D01*
X122457200Y-60991071D02*
X122504819Y-60895833D01*
X122504819Y-60895833D02*
X122504819Y-60610119D01*
X122504819Y-60610119D02*
X122457200Y-60514881D01*
X122457200Y-60514881D02*
X122409580Y-60467262D01*
X122600057Y-61276786D02*
X122600057Y-62038690D01*
X121504819Y-62181548D02*
X121504819Y-62800595D01*
X121504819Y-62800595D02*
X121885771Y-62467262D01*
X121885771Y-62467262D02*
X121885771Y-62610119D01*
X121885771Y-62610119D02*
X121933390Y-62705357D01*
X121933390Y-62705357D02*
X121981009Y-62752976D01*
X121981009Y-62752976D02*
X122076247Y-62800595D01*
X122076247Y-62800595D02*
X122314342Y-62800595D01*
X122314342Y-62800595D02*
X122409580Y-62752976D01*
X122409580Y-62752976D02*
X122457200Y-62705357D01*
X122457200Y-62705357D02*
X122504819Y-62610119D01*
X122504819Y-62610119D02*
X122504819Y-62324405D01*
X122504819Y-62324405D02*
X122457200Y-62229167D01*
X122457200Y-62229167D02*
X122409580Y-62181548D01*
X80204819Y-55976190D02*
X79204819Y-55976190D01*
X79204819Y-55976190D02*
X79204819Y-56214285D01*
X79204819Y-56214285D02*
X79252438Y-56357142D01*
X79252438Y-56357142D02*
X79347676Y-56452380D01*
X79347676Y-56452380D02*
X79442914Y-56499999D01*
X79442914Y-56499999D02*
X79633390Y-56547618D01*
X79633390Y-56547618D02*
X79776247Y-56547618D01*
X79776247Y-56547618D02*
X79966723Y-56499999D01*
X79966723Y-56499999D02*
X80061961Y-56452380D01*
X80061961Y-56452380D02*
X80157200Y-56357142D01*
X80157200Y-56357142D02*
X80204819Y-56214285D01*
X80204819Y-56214285D02*
X80204819Y-55976190D01*
X79538152Y-56833333D02*
X79538152Y-57214285D01*
X80204819Y-56976190D02*
X79347676Y-56976190D01*
X79347676Y-56976190D02*
X79252438Y-57023809D01*
X79252438Y-57023809D02*
X79204819Y-57119047D01*
X79204819Y-57119047D02*
X79204819Y-57214285D01*
X80204819Y-58071428D02*
X80204819Y-57500000D01*
X80204819Y-57785714D02*
X79204819Y-57785714D01*
X79204819Y-57785714D02*
X79347676Y-57690476D01*
X79347676Y-57690476D02*
X79442914Y-57595238D01*
X79442914Y-57595238D02*
X79490533Y-57500000D01*
X113229819Y-74196905D02*
X112229819Y-74196905D01*
X112229819Y-74196905D02*
X112229819Y-74435000D01*
X112229819Y-74435000D02*
X112277438Y-74577857D01*
X112277438Y-74577857D02*
X112372676Y-74673095D01*
X112372676Y-74673095D02*
X112467914Y-74720714D01*
X112467914Y-74720714D02*
X112658390Y-74768333D01*
X112658390Y-74768333D02*
X112801247Y-74768333D01*
X112801247Y-74768333D02*
X112991723Y-74720714D01*
X112991723Y-74720714D02*
X113086961Y-74673095D01*
X113086961Y-74673095D02*
X113182200Y-74577857D01*
X113182200Y-74577857D02*
X113229819Y-74435000D01*
X113229819Y-74435000D02*
X113229819Y-74196905D01*
X112229819Y-75101667D02*
X112229819Y-75720714D01*
X112229819Y-75720714D02*
X112610771Y-75387381D01*
X112610771Y-75387381D02*
X112610771Y-75530238D01*
X112610771Y-75530238D02*
X112658390Y-75625476D01*
X112658390Y-75625476D02*
X112706009Y-75673095D01*
X112706009Y-75673095D02*
X112801247Y-75720714D01*
X112801247Y-75720714D02*
X113039342Y-75720714D01*
X113039342Y-75720714D02*
X113134580Y-75673095D01*
X113134580Y-75673095D02*
X113182200Y-75625476D01*
X113182200Y-75625476D02*
X113229819Y-75530238D01*
X113229819Y-75530238D02*
X113229819Y-75244524D01*
X113229819Y-75244524D02*
X113182200Y-75149286D01*
X113182200Y-75149286D02*
X113134580Y-75101667D01*
X135159580Y-56943451D02*
X135207200Y-56895832D01*
X135207200Y-56895832D02*
X135254819Y-56752975D01*
X135254819Y-56752975D02*
X135254819Y-56657737D01*
X135254819Y-56657737D02*
X135207200Y-56514880D01*
X135207200Y-56514880D02*
X135111961Y-56419642D01*
X135111961Y-56419642D02*
X135016723Y-56372023D01*
X135016723Y-56372023D02*
X134826247Y-56324404D01*
X134826247Y-56324404D02*
X134683390Y-56324404D01*
X134683390Y-56324404D02*
X134492914Y-56372023D01*
X134492914Y-56372023D02*
X134397676Y-56419642D01*
X134397676Y-56419642D02*
X134302438Y-56514880D01*
X134302438Y-56514880D02*
X134254819Y-56657737D01*
X134254819Y-56657737D02*
X134254819Y-56752975D01*
X134254819Y-56752975D02*
X134302438Y-56895832D01*
X134302438Y-56895832D02*
X134350057Y-56943451D01*
X135254819Y-57514880D02*
X135207200Y-57419642D01*
X135207200Y-57419642D02*
X135159580Y-57372023D01*
X135159580Y-57372023D02*
X135064342Y-57324404D01*
X135064342Y-57324404D02*
X134778628Y-57324404D01*
X134778628Y-57324404D02*
X134683390Y-57372023D01*
X134683390Y-57372023D02*
X134635771Y-57419642D01*
X134635771Y-57419642D02*
X134588152Y-57514880D01*
X134588152Y-57514880D02*
X134588152Y-57657737D01*
X134588152Y-57657737D02*
X134635771Y-57752975D01*
X134635771Y-57752975D02*
X134683390Y-57800594D01*
X134683390Y-57800594D02*
X134778628Y-57848213D01*
X134778628Y-57848213D02*
X135064342Y-57848213D01*
X135064342Y-57848213D02*
X135159580Y-57800594D01*
X135159580Y-57800594D02*
X135207200Y-57752975D01*
X135207200Y-57752975D02*
X135254819Y-57657737D01*
X135254819Y-57657737D02*
X135254819Y-57514880D01*
X134588152Y-58705356D02*
X135254819Y-58705356D01*
X134588152Y-58276785D02*
X135111961Y-58276785D01*
X135111961Y-58276785D02*
X135207200Y-58324404D01*
X135207200Y-58324404D02*
X135254819Y-58419642D01*
X135254819Y-58419642D02*
X135254819Y-58562499D01*
X135254819Y-58562499D02*
X135207200Y-58657737D01*
X135207200Y-58657737D02*
X135159580Y-58705356D01*
X134588152Y-59038690D02*
X134588152Y-59419642D01*
X134254819Y-59181547D02*
X135111961Y-59181547D01*
X135111961Y-59181547D02*
X135207200Y-59229166D01*
X135207200Y-59229166D02*
X135254819Y-59324404D01*
X135254819Y-59324404D02*
X135254819Y-59419642D01*
X135254819Y-59657738D02*
X134588152Y-60181547D01*
X134588152Y-59657738D02*
X135254819Y-60181547D01*
X134350057Y-60514881D02*
X134302438Y-60562500D01*
X134302438Y-60562500D02*
X134254819Y-60657738D01*
X134254819Y-60657738D02*
X134254819Y-60895833D01*
X134254819Y-60895833D02*
X134302438Y-60991071D01*
X134302438Y-60991071D02*
X134350057Y-61038690D01*
X134350057Y-61038690D02*
X134445295Y-61086309D01*
X134445295Y-61086309D02*
X134540533Y-61086309D01*
X134540533Y-61086309D02*
X134683390Y-61038690D01*
X134683390Y-61038690D02*
X135254819Y-60467262D01*
X135254819Y-60467262D02*
X135254819Y-61086309D01*
X135350057Y-61276786D02*
X135350057Y-62038690D01*
X134350057Y-62229167D02*
X134302438Y-62276786D01*
X134302438Y-62276786D02*
X134254819Y-62372024D01*
X134254819Y-62372024D02*
X134254819Y-62610119D01*
X134254819Y-62610119D02*
X134302438Y-62705357D01*
X134302438Y-62705357D02*
X134350057Y-62752976D01*
X134350057Y-62752976D02*
X134445295Y-62800595D01*
X134445295Y-62800595D02*
X134540533Y-62800595D01*
X134540533Y-62800595D02*
X134683390Y-62752976D01*
X134683390Y-62752976D02*
X135254819Y-62181548D01*
X135254819Y-62181548D02*
X135254819Y-62800595D01*
X126659580Y-56943451D02*
X126707200Y-56895832D01*
X126707200Y-56895832D02*
X126754819Y-56752975D01*
X126754819Y-56752975D02*
X126754819Y-56657737D01*
X126754819Y-56657737D02*
X126707200Y-56514880D01*
X126707200Y-56514880D02*
X126611961Y-56419642D01*
X126611961Y-56419642D02*
X126516723Y-56372023D01*
X126516723Y-56372023D02*
X126326247Y-56324404D01*
X126326247Y-56324404D02*
X126183390Y-56324404D01*
X126183390Y-56324404D02*
X125992914Y-56372023D01*
X125992914Y-56372023D02*
X125897676Y-56419642D01*
X125897676Y-56419642D02*
X125802438Y-56514880D01*
X125802438Y-56514880D02*
X125754819Y-56657737D01*
X125754819Y-56657737D02*
X125754819Y-56752975D01*
X125754819Y-56752975D02*
X125802438Y-56895832D01*
X125802438Y-56895832D02*
X125850057Y-56943451D01*
X126754819Y-57514880D02*
X126707200Y-57419642D01*
X126707200Y-57419642D02*
X126659580Y-57372023D01*
X126659580Y-57372023D02*
X126564342Y-57324404D01*
X126564342Y-57324404D02*
X126278628Y-57324404D01*
X126278628Y-57324404D02*
X126183390Y-57372023D01*
X126183390Y-57372023D02*
X126135771Y-57419642D01*
X126135771Y-57419642D02*
X126088152Y-57514880D01*
X126088152Y-57514880D02*
X126088152Y-57657737D01*
X126088152Y-57657737D02*
X126135771Y-57752975D01*
X126135771Y-57752975D02*
X126183390Y-57800594D01*
X126183390Y-57800594D02*
X126278628Y-57848213D01*
X126278628Y-57848213D02*
X126564342Y-57848213D01*
X126564342Y-57848213D02*
X126659580Y-57800594D01*
X126659580Y-57800594D02*
X126707200Y-57752975D01*
X126707200Y-57752975D02*
X126754819Y-57657737D01*
X126754819Y-57657737D02*
X126754819Y-57514880D01*
X126088152Y-58705356D02*
X126754819Y-58705356D01*
X126088152Y-58276785D02*
X126611961Y-58276785D01*
X126611961Y-58276785D02*
X126707200Y-58324404D01*
X126707200Y-58324404D02*
X126754819Y-58419642D01*
X126754819Y-58419642D02*
X126754819Y-58562499D01*
X126754819Y-58562499D02*
X126707200Y-58657737D01*
X126707200Y-58657737D02*
X126659580Y-58705356D01*
X126088152Y-59038690D02*
X126088152Y-59419642D01*
X125754819Y-59181547D02*
X126611961Y-59181547D01*
X126611961Y-59181547D02*
X126707200Y-59229166D01*
X126707200Y-59229166D02*
X126754819Y-59324404D01*
X126754819Y-59324404D02*
X126754819Y-59419642D01*
X126754819Y-59657738D02*
X126088152Y-60181547D01*
X126088152Y-59657738D02*
X126754819Y-60181547D01*
X125754819Y-60467262D02*
X125754819Y-61086309D01*
X125754819Y-61086309D02*
X126135771Y-60752976D01*
X126135771Y-60752976D02*
X126135771Y-60895833D01*
X126135771Y-60895833D02*
X126183390Y-60991071D01*
X126183390Y-60991071D02*
X126231009Y-61038690D01*
X126231009Y-61038690D02*
X126326247Y-61086309D01*
X126326247Y-61086309D02*
X126564342Y-61086309D01*
X126564342Y-61086309D02*
X126659580Y-61038690D01*
X126659580Y-61038690D02*
X126707200Y-60991071D01*
X126707200Y-60991071D02*
X126754819Y-60895833D01*
X126754819Y-60895833D02*
X126754819Y-60610119D01*
X126754819Y-60610119D02*
X126707200Y-60514881D01*
X126707200Y-60514881D02*
X126659580Y-60467262D01*
X126850057Y-61276786D02*
X126850057Y-62038690D01*
X125850057Y-62229167D02*
X125802438Y-62276786D01*
X125802438Y-62276786D02*
X125754819Y-62372024D01*
X125754819Y-62372024D02*
X125754819Y-62610119D01*
X125754819Y-62610119D02*
X125802438Y-62705357D01*
X125802438Y-62705357D02*
X125850057Y-62752976D01*
X125850057Y-62752976D02*
X125945295Y-62800595D01*
X125945295Y-62800595D02*
X126040533Y-62800595D01*
X126040533Y-62800595D02*
X126183390Y-62752976D01*
X126183390Y-62752976D02*
X126754819Y-62181548D01*
X126754819Y-62181548D02*
X126754819Y-62800595D01*
X143659580Y-57863094D02*
X143707200Y-57815475D01*
X143707200Y-57815475D02*
X143754819Y-57672618D01*
X143754819Y-57672618D02*
X143754819Y-57577380D01*
X143754819Y-57577380D02*
X143707200Y-57434523D01*
X143707200Y-57434523D02*
X143611961Y-57339285D01*
X143611961Y-57339285D02*
X143516723Y-57291666D01*
X143516723Y-57291666D02*
X143326247Y-57244047D01*
X143326247Y-57244047D02*
X143183390Y-57244047D01*
X143183390Y-57244047D02*
X142992914Y-57291666D01*
X142992914Y-57291666D02*
X142897676Y-57339285D01*
X142897676Y-57339285D02*
X142802438Y-57434523D01*
X142802438Y-57434523D02*
X142754819Y-57577380D01*
X142754819Y-57577380D02*
X142754819Y-57672618D01*
X142754819Y-57672618D02*
X142802438Y-57815475D01*
X142802438Y-57815475D02*
X142850057Y-57863094D01*
X143754819Y-58434523D02*
X143707200Y-58339285D01*
X143707200Y-58339285D02*
X143659580Y-58291666D01*
X143659580Y-58291666D02*
X143564342Y-58244047D01*
X143564342Y-58244047D02*
X143278628Y-58244047D01*
X143278628Y-58244047D02*
X143183390Y-58291666D01*
X143183390Y-58291666D02*
X143135771Y-58339285D01*
X143135771Y-58339285D02*
X143088152Y-58434523D01*
X143088152Y-58434523D02*
X143088152Y-58577380D01*
X143088152Y-58577380D02*
X143135771Y-58672618D01*
X143135771Y-58672618D02*
X143183390Y-58720237D01*
X143183390Y-58720237D02*
X143278628Y-58767856D01*
X143278628Y-58767856D02*
X143564342Y-58767856D01*
X143564342Y-58767856D02*
X143659580Y-58720237D01*
X143659580Y-58720237D02*
X143707200Y-58672618D01*
X143707200Y-58672618D02*
X143754819Y-58577380D01*
X143754819Y-58577380D02*
X143754819Y-58434523D01*
X143088152Y-59624999D02*
X143754819Y-59624999D01*
X143088152Y-59196428D02*
X143611961Y-59196428D01*
X143611961Y-59196428D02*
X143707200Y-59244047D01*
X143707200Y-59244047D02*
X143754819Y-59339285D01*
X143754819Y-59339285D02*
X143754819Y-59482142D01*
X143754819Y-59482142D02*
X143707200Y-59577380D01*
X143707200Y-59577380D02*
X143659580Y-59624999D01*
X143088152Y-59958333D02*
X143088152Y-60339285D01*
X142754819Y-60101190D02*
X143611961Y-60101190D01*
X143611961Y-60101190D02*
X143707200Y-60148809D01*
X143707200Y-60148809D02*
X143754819Y-60244047D01*
X143754819Y-60244047D02*
X143754819Y-60339285D01*
X143754819Y-60577381D02*
X143088152Y-61101190D01*
X143088152Y-60577381D02*
X143754819Y-61101190D01*
X143754819Y-62005952D02*
X143754819Y-61434524D01*
X143754819Y-61720238D02*
X142754819Y-61720238D01*
X142754819Y-61720238D02*
X142897676Y-61625000D01*
X142897676Y-61625000D02*
X142992914Y-61529762D01*
X142992914Y-61529762D02*
X143040533Y-61434524D01*
X109909580Y-57738094D02*
X109957200Y-57690475D01*
X109957200Y-57690475D02*
X110004819Y-57547618D01*
X110004819Y-57547618D02*
X110004819Y-57452380D01*
X110004819Y-57452380D02*
X109957200Y-57309523D01*
X109957200Y-57309523D02*
X109861961Y-57214285D01*
X109861961Y-57214285D02*
X109766723Y-57166666D01*
X109766723Y-57166666D02*
X109576247Y-57119047D01*
X109576247Y-57119047D02*
X109433390Y-57119047D01*
X109433390Y-57119047D02*
X109242914Y-57166666D01*
X109242914Y-57166666D02*
X109147676Y-57214285D01*
X109147676Y-57214285D02*
X109052438Y-57309523D01*
X109052438Y-57309523D02*
X109004819Y-57452380D01*
X109004819Y-57452380D02*
X109004819Y-57547618D01*
X109004819Y-57547618D02*
X109052438Y-57690475D01*
X109052438Y-57690475D02*
X109100057Y-57738094D01*
X110004819Y-58309523D02*
X109957200Y-58214285D01*
X109957200Y-58214285D02*
X109909580Y-58166666D01*
X109909580Y-58166666D02*
X109814342Y-58119047D01*
X109814342Y-58119047D02*
X109528628Y-58119047D01*
X109528628Y-58119047D02*
X109433390Y-58166666D01*
X109433390Y-58166666D02*
X109385771Y-58214285D01*
X109385771Y-58214285D02*
X109338152Y-58309523D01*
X109338152Y-58309523D02*
X109338152Y-58452380D01*
X109338152Y-58452380D02*
X109385771Y-58547618D01*
X109385771Y-58547618D02*
X109433390Y-58595237D01*
X109433390Y-58595237D02*
X109528628Y-58642856D01*
X109528628Y-58642856D02*
X109814342Y-58642856D01*
X109814342Y-58642856D02*
X109909580Y-58595237D01*
X109909580Y-58595237D02*
X109957200Y-58547618D01*
X109957200Y-58547618D02*
X110004819Y-58452380D01*
X110004819Y-58452380D02*
X110004819Y-58309523D01*
X109338152Y-59499999D02*
X110004819Y-59499999D01*
X109338152Y-59071428D02*
X109861961Y-59071428D01*
X109861961Y-59071428D02*
X109957200Y-59119047D01*
X109957200Y-59119047D02*
X110004819Y-59214285D01*
X110004819Y-59214285D02*
X110004819Y-59357142D01*
X110004819Y-59357142D02*
X109957200Y-59452380D01*
X109957200Y-59452380D02*
X109909580Y-59499999D01*
X109338152Y-59833333D02*
X109338152Y-60214285D01*
X109004819Y-59976190D02*
X109861961Y-59976190D01*
X109861961Y-59976190D02*
X109957200Y-60023809D01*
X109957200Y-60023809D02*
X110004819Y-60119047D01*
X110004819Y-60119047D02*
X110004819Y-60214285D01*
X110004819Y-60452381D02*
X109338152Y-60976190D01*
X109338152Y-60452381D02*
X110004819Y-60976190D01*
X109100057Y-61309524D02*
X109052438Y-61357143D01*
X109052438Y-61357143D02*
X109004819Y-61452381D01*
X109004819Y-61452381D02*
X109004819Y-61690476D01*
X109004819Y-61690476D02*
X109052438Y-61785714D01*
X109052438Y-61785714D02*
X109100057Y-61833333D01*
X109100057Y-61833333D02*
X109195295Y-61880952D01*
X109195295Y-61880952D02*
X109290533Y-61880952D01*
X109290533Y-61880952D02*
X109433390Y-61833333D01*
X109433390Y-61833333D02*
X110004819Y-61261905D01*
X110004819Y-61261905D02*
X110004819Y-61880952D01*
D11*
%TO.C,Vin (15 to 28V)*%
X34881000Y-69345200D02*
G75*
G02*
X34119000Y-69345200I-381000J0D01*
G01*
X34119000Y-69345200D02*
G75*
G02*
X34881000Y-69345200I381000J0D01*
G01*
%TO.C,Vout (24V)*%
X139630008Y-84154800D02*
G75*
G02*
X138868008Y-84154800I-381000J0D01*
G01*
X138868008Y-84154800D02*
G75*
G02*
X139630008Y-84154800I381000J0D01*
G01*
D12*
%TO.C,Coutx3*%
X135390000Y-58851248D02*
X135390000Y-60273752D01*
X138110000Y-58851248D02*
X138110000Y-60273752D01*
%TO.C,D2*%
X82250000Y-72000000D02*
X82250000Y-83310000D01*
X88750000Y-72000000D02*
X88750000Y-83310000D01*
X88750000Y-83310000D02*
X82250000Y-83310000D01*
%TO.C,Coutx_3*%
X109890000Y-58851248D02*
X109890000Y-60273752D01*
X112610000Y-58851248D02*
X112610000Y-60273752D01*
%TO.C,Coutx_2*%
X114140000Y-58851248D02*
X114140000Y-60273752D01*
X116860000Y-58851248D02*
X116860000Y-60273752D01*
%TO.C,Coutx2_3*%
X126890000Y-58851248D02*
X126890000Y-60273752D01*
X129610000Y-58851248D02*
X129610000Y-60273752D01*
%TO.C,Coutx3_3*%
X118390000Y-58851248D02*
X118390000Y-60273752D01*
X121110000Y-58851248D02*
X121110000Y-60273752D01*
%TO.C,Df1*%
X76500000Y-50090000D02*
X83000000Y-50090000D01*
X76500000Y-61400000D02*
X76500000Y-50090000D01*
X83000000Y-61400000D02*
X83000000Y-50090000D01*
%TO.C,D3*%
X104825000Y-78245000D02*
X104825000Y-71825000D01*
X105095000Y-78245000D02*
X104825000Y-78245000D01*
X111455000Y-78245000D02*
X111725000Y-78245000D01*
X111725000Y-78245000D02*
X111725000Y-71825000D01*
X111885000Y-80315000D02*
X111415000Y-79975000D01*
X111885000Y-79635000D01*
X111885000Y-80315000D01*
G36*
X111885000Y-80315000D02*
G01*
X111415000Y-79975000D01*
X111885000Y-79635000D01*
X111885000Y-80315000D01*
G37*
%TO.C,Coutx2_2*%
X131140000Y-58851248D02*
X131140000Y-60273752D01*
X133860000Y-58851248D02*
X133860000Y-60273752D01*
%TO.C,Coutx3_2*%
X122640000Y-58851248D02*
X122640000Y-60273752D01*
X125360000Y-58851248D02*
X125360000Y-60273752D01*
%TO.C,Coutx1*%
X139640000Y-58913748D02*
X139640000Y-60336252D01*
X142360000Y-58913748D02*
X142360000Y-60336252D01*
%TO.C,Coutx2*%
X105890000Y-58788748D02*
X105890000Y-60211252D01*
X108610000Y-58788748D02*
X108610000Y-60211252D01*
%TD*%
%LPC*%
D13*
%TO.C,Vin (15 to 28V)*%
X34500000Y-73287202D03*
X25500018Y-79637202D03*
%TD*%
D14*
%TO.C,GND*%
X41500000Y-46000000D03*
%TD*%
%TO.C,Vin*%
X42000000Y-80000000D03*
%TD*%
%TO.C,GND*%
X133500000Y-46000000D03*
%TD*%
D15*
%TO.C,L1*%
X97750000Y-99000000D03*
X84250000Y-90100000D03*
D16*
X84250000Y-99000000D03*
D17*
X97750000Y-90100000D03*
%TD*%
D13*
%TO.C,Vout (24V)*%
X139249008Y-80212798D03*
X148248990Y-73862798D03*
%TD*%
D14*
%TO.C,Vout*%
X124500000Y-82000000D03*
%TD*%
%TO.C,SW2*%
X112500000Y-104500000D03*
%TD*%
%TO.C,SW1*%
X69500000Y-104500000D03*
%TD*%
D18*
%TO.C,Coutx3*%
X136750000Y-61125000D03*
X136750000Y-58000000D03*
%TD*%
D19*
%TO.C,D2*%
X85500000Y-80800000D03*
X85500000Y-72000000D03*
%TD*%
D18*
%TO.C,Coutx_3*%
X111250000Y-61125000D03*
X111250000Y-58000000D03*
%TD*%
%TO.C,Coutx_2*%
X115500000Y-61125000D03*
X115500000Y-58000000D03*
%TD*%
%TO.C,Coutx2_3*%
X128250000Y-61125000D03*
X128250000Y-58000000D03*
%TD*%
%TO.C,Coutx3_3*%
X119750000Y-61125000D03*
X119750000Y-58000000D03*
%TD*%
D20*
%TO.C,Df1*%
X79750000Y-52600000D03*
X79750000Y-61400000D03*
%TD*%
D21*
%TO.C,D3*%
X110555000Y-79975000D03*
D22*
X108275000Y-73675000D03*
D21*
X105995000Y-79975000D03*
%TD*%
D18*
%TO.C,Coutx2_2*%
X132500000Y-61125000D03*
X132500000Y-58000000D03*
%TD*%
%TO.C,Coutx3_2*%
X124000000Y-61125000D03*
X124000000Y-58000000D03*
%TD*%
%TO.C,Coutx1*%
X141000000Y-61187500D03*
X141000000Y-58062500D03*
%TD*%
%TO.C,Coutx2*%
X107250000Y-61062500D03*
X107250000Y-57937500D03*
%TD*%
%LPD*%
M02*
