%TF.GenerationSoftware,KiCad,Pcbnew,8.0.7*%
%TF.CreationDate,2025-01-13T19:37:05-08:00*%
%TF.ProjectId,DCDCv2,44434443-7632-42e6-9b69-6361645f7063,rev?*%
%TF.SameCoordinates,Original*%
%TF.FileFunction,Copper,L2,Inr*%
%TF.FilePolarity,Positive*%
%FSLAX46Y46*%
G04 Gerber Fmt 4.6, Leading zero omitted, Abs format (unit mm)*
G04 Created by KiCad (PCBNEW 8.0.7) date 2025-01-13 19:37:05*
%MOMM*%
%LPD*%
G01*
G04 APERTURE LIST*
%TA.AperFunction,ComponentPad*%
%ADD10C,1.803400*%
%TD*%
%TA.AperFunction,ComponentPad*%
%ADD11C,2.000000*%
%TD*%
%TA.AperFunction,ComponentPad*%
%ADD12C,3.750000*%
%TD*%
%TA.AperFunction,ComponentPad*%
%ADD13R,10.000000X5.000000*%
%TD*%
%TA.AperFunction,ComponentPad*%
%ADD14O,10.000000X5.000000*%
%TD*%
%TA.AperFunction,ViaPad*%
%ADD15C,0.600000*%
%TD*%
%TA.AperFunction,Conductor*%
%ADD16C,0.200000*%
%TD*%
G04 APERTURE END LIST*
D10*
%TO.N,Vin*%
%TO.C,Vin (15 to 28V)*%
X34500000Y-73287202D03*
%TO.N,GND*%
X25500018Y-79637202D03*
%TD*%
D11*
%TO.N,GND*%
%TO.C,GND*%
X41500000Y-46000000D03*
%TD*%
%TO.N,Vin*%
%TO.C,Vin*%
X42000000Y-80000000D03*
%TD*%
%TO.N,GND*%
%TO.C,GND*%
X133500000Y-46000000D03*
%TD*%
D12*
%TO.N,*%
%TO.C,L1*%
X97750000Y-99000000D03*
X84250000Y-90100000D03*
D13*
%TO.N,/sw1*%
X84250000Y-99000000D03*
D14*
%TO.N,/sw2*%
X97750000Y-90100000D03*
%TD*%
D10*
%TO.N,Vout*%
%TO.C,Vout (24V)*%
X139249008Y-80212798D03*
%TO.N,GND*%
X148248990Y-73862798D03*
%TD*%
D11*
%TO.N,Vout*%
%TO.C,Vout*%
X124500000Y-82000000D03*
%TD*%
%TO.N,/sw2*%
%TO.C,SW2*%
X112500000Y-104500000D03*
%TD*%
%TO.N,/sw1*%
%TO.C,SW1*%
X69500000Y-104500000D03*
%TD*%
D15*
%TO.N,GND*%
X52250000Y-50500000D03*
X35250000Y-50500000D03*
X43250000Y-51500000D03*
X119750000Y-53000000D03*
X103500000Y-53000000D03*
X51250000Y-51500000D03*
X52250000Y-51500000D03*
X32250000Y-52500000D03*
X48250000Y-50500000D03*
X46250000Y-52500000D03*
X64250000Y-51500000D03*
X112750000Y-51000000D03*
X129750000Y-51000000D03*
X133750000Y-52000000D03*
X142750000Y-50000000D03*
X30250000Y-52500000D03*
X63250000Y-53500000D03*
X109750000Y-53000000D03*
X92775000Y-43500000D03*
X47250000Y-51500000D03*
X135750000Y-50000000D03*
X138750000Y-53000000D03*
X94775000Y-43500000D03*
X41250000Y-53500000D03*
X33250000Y-51500000D03*
X30250000Y-51500000D03*
X134750000Y-51000000D03*
X54250000Y-52500000D03*
X62250000Y-50500000D03*
X138750000Y-50000000D03*
X33250000Y-50500000D03*
X138750000Y-51000000D03*
X92000000Y-54500000D03*
X141750000Y-51000000D03*
X130750000Y-50000000D03*
X110750000Y-53000000D03*
X36250000Y-51500000D03*
X106000000Y-35500000D03*
X39250000Y-50500000D03*
X60250000Y-51500000D03*
X44250000Y-51500000D03*
X139750000Y-53000000D03*
X61250000Y-51500000D03*
X45250000Y-52500000D03*
X136750000Y-52000000D03*
X120750000Y-52000000D03*
X109000000Y-35500000D03*
X109000000Y-34500000D03*
X135750000Y-51000000D03*
X36250000Y-53500000D03*
X120750000Y-50000000D03*
X31250000Y-51500000D03*
X114750000Y-51000000D03*
X40250000Y-53500000D03*
X93775000Y-41500000D03*
X49250000Y-51500000D03*
X58250000Y-52500000D03*
X122750000Y-52000000D03*
X37250000Y-53500000D03*
X87000000Y-54500000D03*
X127750000Y-53000000D03*
X137750000Y-51000000D03*
X115750000Y-53000000D03*
X93775000Y-39500000D03*
X101500000Y-55000000D03*
X118750000Y-51000000D03*
X38250000Y-50500000D03*
X42250000Y-52500000D03*
X121750000Y-50000000D03*
X132750000Y-52000000D03*
X147750000Y-52000000D03*
X60250000Y-53500000D03*
X117750000Y-50000000D03*
X132750000Y-51000000D03*
X38250000Y-53500000D03*
X60250000Y-52500000D03*
X145750000Y-52000000D03*
X52250000Y-52500000D03*
X140750000Y-52000000D03*
X61250000Y-52500000D03*
X32250000Y-50500000D03*
X112750000Y-52000000D03*
X125750000Y-50000000D03*
X45250000Y-50500000D03*
X34250000Y-51500000D03*
X137750000Y-52000000D03*
X148750000Y-51000000D03*
X63250000Y-51500000D03*
X44250000Y-53500000D03*
X54250000Y-51500000D03*
X43250000Y-52500000D03*
X51250000Y-50500000D03*
X43250000Y-50500000D03*
X93775000Y-43500000D03*
X38250000Y-51500000D03*
X135750000Y-52000000D03*
X48250000Y-53500000D03*
X116750000Y-51000000D03*
X92775000Y-42500000D03*
X103500000Y-54000000D03*
X133750000Y-51000000D03*
X34250000Y-50500000D03*
X51250000Y-52500000D03*
X139750000Y-52000000D03*
X124750000Y-52000000D03*
X147750000Y-51000000D03*
X58250000Y-50500000D03*
X148750000Y-53000000D03*
X66250000Y-50500000D03*
X63250000Y-52500000D03*
X42250000Y-51500000D03*
X101500000Y-56000000D03*
X135750000Y-53000000D03*
X127750000Y-52000000D03*
X39250000Y-51500000D03*
X142750000Y-52000000D03*
X123750000Y-52000000D03*
X124750000Y-50000000D03*
X110750000Y-51000000D03*
X66250000Y-51500000D03*
X45250000Y-51500000D03*
X37250000Y-51500000D03*
X122750000Y-51000000D03*
X47250000Y-52500000D03*
X123750000Y-51000000D03*
X91000000Y-53500000D03*
X109750000Y-50000000D03*
X29250000Y-52500000D03*
X127750000Y-50000000D03*
X119750000Y-51000000D03*
X128750000Y-53000000D03*
X120750000Y-53000000D03*
X131750000Y-51000000D03*
X28250000Y-51500000D03*
X48250000Y-51500000D03*
X112750000Y-53000000D03*
X47250000Y-53500000D03*
X46250000Y-53500000D03*
X86000000Y-54500000D03*
X50250000Y-50500000D03*
X117750000Y-52000000D03*
X38250000Y-52500000D03*
X141750000Y-50000000D03*
X121750000Y-52000000D03*
X146750000Y-51000000D03*
X143750000Y-52000000D03*
X59250000Y-53500000D03*
X117750000Y-53000000D03*
X93775000Y-40500000D03*
X88000000Y-53500000D03*
X51250000Y-53500000D03*
X90000000Y-53500000D03*
X145750000Y-53000000D03*
X58250000Y-51500000D03*
X55250000Y-51500000D03*
X137750000Y-53000000D03*
X89000000Y-53500000D03*
X145750000Y-50000000D03*
X142750000Y-53000000D03*
X102500000Y-55000000D03*
X44250000Y-52500000D03*
X145750000Y-51000000D03*
X65250000Y-50500000D03*
X55250000Y-50500000D03*
X48250000Y-52500000D03*
X119750000Y-52000000D03*
X115750000Y-52000000D03*
X66250000Y-52500000D03*
X110750000Y-50000000D03*
X94775000Y-41500000D03*
X125750000Y-52000000D03*
X97599998Y-54500000D03*
X142750000Y-51000000D03*
X85000000Y-54500000D03*
X131750000Y-50000000D03*
X133750000Y-50000000D03*
X85000000Y-53500000D03*
X125750000Y-51000000D03*
X61250000Y-53500000D03*
X121750000Y-53000000D03*
X129750000Y-52000000D03*
X113750000Y-50000000D03*
X102500000Y-54000000D03*
X108000000Y-34500000D03*
X144750000Y-50000000D03*
X109750000Y-51000000D03*
X128750000Y-50000000D03*
X53250000Y-52500000D03*
X122750000Y-50000000D03*
X91000000Y-54500000D03*
X62250000Y-52500000D03*
X118750000Y-52000000D03*
X126750000Y-51000000D03*
X28250000Y-52500000D03*
X126750000Y-50000000D03*
X148750000Y-50000000D03*
X39250000Y-53500000D03*
X55250000Y-52500000D03*
X61250000Y-50500000D03*
X136750000Y-51000000D03*
X111750000Y-52000000D03*
X44250000Y-50500000D03*
X29250000Y-51500000D03*
X56250000Y-50500000D03*
X111750000Y-50000000D03*
X47250000Y-50500000D03*
X27250000Y-52500000D03*
X118750000Y-50000000D03*
X111750000Y-51000000D03*
X124750000Y-51000000D03*
X58250000Y-53500000D03*
X35250000Y-51500000D03*
X88000000Y-54500000D03*
X134750000Y-52000000D03*
X139750000Y-50000000D03*
X49250000Y-52500000D03*
X123750000Y-50000000D03*
X115750000Y-51000000D03*
X32250000Y-51500000D03*
X41250000Y-51500000D03*
X64250000Y-50500000D03*
X31250000Y-53500000D03*
X34250000Y-52500000D03*
X116750000Y-50000000D03*
X129750000Y-53000000D03*
X29250000Y-50500000D03*
X113750000Y-52000000D03*
X126750000Y-53000000D03*
X128750000Y-52000000D03*
X140750000Y-50000000D03*
X130750000Y-52000000D03*
X28250000Y-53500000D03*
X62250000Y-53500000D03*
X89000000Y-54500000D03*
X116750000Y-52000000D03*
X109750000Y-52000000D03*
X64250000Y-53500000D03*
X124750000Y-53000000D03*
X50250000Y-53500000D03*
X29250000Y-53500000D03*
X136750000Y-50000000D03*
X141750000Y-52000000D03*
X110750000Y-52000000D03*
X55250000Y-53500000D03*
X59250000Y-52500000D03*
X146750000Y-52000000D03*
X146750000Y-50000000D03*
X36250000Y-52500000D03*
X129750000Y-50000000D03*
X30250000Y-53500000D03*
X133750000Y-53000000D03*
X37250000Y-52500000D03*
X39250000Y-52500000D03*
X37250000Y-50500000D03*
X40250000Y-51500000D03*
X86000000Y-53500000D03*
X27250000Y-50500000D03*
X114750000Y-53000000D03*
X139750000Y-51000000D03*
X41250000Y-52500000D03*
X52250000Y-53500000D03*
X59250000Y-51500000D03*
X118750000Y-53000000D03*
X33250000Y-52500000D03*
X56250000Y-53500000D03*
X65250000Y-51500000D03*
X117750000Y-51000000D03*
X56250000Y-52500000D03*
X54250000Y-53500000D03*
X35250000Y-53500000D03*
X114750000Y-50000000D03*
X49250000Y-53500000D03*
X65250000Y-53500000D03*
X136750000Y-53000000D03*
X115750000Y-50000000D03*
X32250000Y-53500000D03*
X97750000Y-60500000D03*
X107000000Y-35500000D03*
X27250000Y-53500000D03*
X143750000Y-53000000D03*
X140750000Y-53000000D03*
X92775000Y-39500000D03*
X134750000Y-50000000D03*
X53250000Y-53500000D03*
X87000000Y-53500000D03*
X66250000Y-53500000D03*
X65250000Y-52500000D03*
X144750000Y-53000000D03*
X30250000Y-50500000D03*
X143750000Y-50000000D03*
X57250000Y-50500000D03*
X128750000Y-51000000D03*
X127750000Y-51000000D03*
X31250000Y-52500000D03*
X57250000Y-53500000D03*
X57250000Y-51500000D03*
X50250000Y-51500000D03*
X102500000Y-56000000D03*
X144750000Y-52000000D03*
X63250000Y-50500000D03*
X148750000Y-52000000D03*
X46250000Y-50500000D03*
X56250000Y-51500000D03*
X40250000Y-50500000D03*
X59250000Y-50500000D03*
X143750000Y-51000000D03*
X102500000Y-53000000D03*
X140750000Y-51000000D03*
X28250000Y-50500000D03*
X92775000Y-41500000D03*
X60250000Y-50500000D03*
X131750000Y-53000000D03*
X101500000Y-53000000D03*
X43250000Y-53500000D03*
X107000000Y-34500000D03*
X41250000Y-50500000D03*
X130750000Y-53000000D03*
X125750000Y-53000000D03*
X134750000Y-53000000D03*
X123750000Y-53000000D03*
X147750000Y-53000000D03*
X54250000Y-50500000D03*
X42250000Y-53500000D03*
X111750000Y-53000000D03*
X45250000Y-53500000D03*
X49250000Y-50500000D03*
X106000000Y-34500000D03*
X147750000Y-50000000D03*
X27250000Y-51500000D03*
X108000000Y-35500000D03*
X40250000Y-52500000D03*
X31250000Y-50500000D03*
X46250000Y-51500000D03*
X132750000Y-53000000D03*
X33250000Y-53500000D03*
X53250000Y-51500000D03*
X93775000Y-42500000D03*
X121750000Y-51000000D03*
X132750000Y-50000000D03*
X57250000Y-52500000D03*
X36250000Y-50500000D03*
X94775000Y-42500000D03*
X92775000Y-40500000D03*
X113750000Y-51000000D03*
X113750000Y-53000000D03*
X120750000Y-51000000D03*
X64250000Y-52500000D03*
X90000000Y-54500000D03*
X137750000Y-50000000D03*
X141750000Y-53000000D03*
X130750000Y-51000000D03*
X35250000Y-52500000D03*
X62250000Y-51500000D03*
X103500000Y-55000000D03*
X126750000Y-52000000D03*
X101500000Y-54000000D03*
X50250000Y-52500000D03*
X138750000Y-52000000D03*
X122750000Y-53000000D03*
X94775000Y-39500000D03*
X103500000Y-56000000D03*
X131750000Y-52000000D03*
X114750000Y-52000000D03*
X42250000Y-50500000D03*
X146750000Y-53000000D03*
X144750000Y-51000000D03*
X94775000Y-40500000D03*
X116750000Y-53000000D03*
X112750000Y-50000000D03*
X34250000Y-53500000D03*
X119750000Y-50000000D03*
X92000000Y-53500000D03*
X53250000Y-50500000D03*
%TO.N,/sw1*%
X70750000Y-89000000D03*
X81000000Y-78000000D03*
X73500000Y-83000000D03*
X77500000Y-81000000D03*
X67750000Y-90000000D03*
X70750000Y-94000000D03*
X76500000Y-82000000D03*
X68750000Y-94000000D03*
X69750000Y-92000000D03*
X69750000Y-95000000D03*
X73500000Y-80000000D03*
X67750000Y-95000000D03*
X70750000Y-87000000D03*
X70750000Y-91000000D03*
X73500000Y-81000000D03*
X79500000Y-83000000D03*
X70750000Y-100000000D03*
X76500000Y-80000000D03*
X68750000Y-101000000D03*
X74500000Y-82000000D03*
X70750000Y-92000000D03*
X67750000Y-94000000D03*
X68750000Y-88000000D03*
X67750000Y-101000000D03*
X68750000Y-87000000D03*
X68750000Y-92000000D03*
X67750000Y-99000000D03*
X67750000Y-96000000D03*
X70750000Y-97000000D03*
X67750000Y-86000000D03*
X76500000Y-81000000D03*
X70750000Y-99000000D03*
X80500000Y-82000000D03*
X68750000Y-97000000D03*
X67750000Y-89000000D03*
X68750000Y-96000000D03*
X78500000Y-83000000D03*
X69750000Y-96000000D03*
X70750000Y-95000000D03*
X69750000Y-87000000D03*
X75500000Y-82000000D03*
X80500000Y-81000000D03*
X69750000Y-91000000D03*
X69750000Y-90000000D03*
X67750000Y-91000000D03*
X70750000Y-101000000D03*
X77500000Y-83000000D03*
X79500000Y-82000000D03*
X67750000Y-93000000D03*
X74500000Y-81000000D03*
X68750000Y-99000000D03*
X68750000Y-86000000D03*
X77500000Y-80000000D03*
X96250000Y-35000000D03*
X75500000Y-81000000D03*
X70750000Y-88000000D03*
X69750000Y-88000000D03*
X78500000Y-82000000D03*
X73500000Y-82000000D03*
X69750000Y-89000000D03*
X74500000Y-83000000D03*
X75500000Y-83000000D03*
X70750000Y-96000000D03*
X69750000Y-100000000D03*
X79500000Y-80000000D03*
X76500000Y-83000000D03*
X78500000Y-80000000D03*
X70750000Y-86000000D03*
X68750000Y-93000000D03*
X68750000Y-98000000D03*
X67750000Y-97000000D03*
X80500000Y-80000000D03*
X69750000Y-101000000D03*
X77500000Y-82000000D03*
X69750000Y-94000000D03*
X68750000Y-95000000D03*
X68750000Y-91000000D03*
X69750000Y-97000000D03*
X79500000Y-81000000D03*
X69750000Y-93000000D03*
X69750000Y-86000000D03*
X67750000Y-98000000D03*
X80500000Y-83000000D03*
X70750000Y-90000000D03*
X67750000Y-88000000D03*
X75500000Y-80000000D03*
X67750000Y-100000000D03*
X69750000Y-98000000D03*
X74500000Y-80000000D03*
X67750000Y-87000000D03*
X68750000Y-100000000D03*
X78500000Y-81000000D03*
X68750000Y-89000000D03*
X68750000Y-90000000D03*
X70750000Y-93000000D03*
X67750000Y-92000000D03*
X69750000Y-99000000D03*
X70750000Y-98000000D03*
%TO.N,/sw2*%
X114250000Y-96500000D03*
X113250000Y-86500000D03*
X111250000Y-94500000D03*
X112250000Y-85500000D03*
X114250000Y-100500000D03*
X111250000Y-88500000D03*
X112250000Y-99500000D03*
X113250000Y-85500000D03*
X111250000Y-91500000D03*
X112250000Y-90500000D03*
X112250000Y-93500000D03*
X114250000Y-92500000D03*
X114250000Y-91500000D03*
X112250000Y-92500000D03*
X114250000Y-98500000D03*
X112250000Y-87500000D03*
X111250000Y-100500000D03*
X111250000Y-96500000D03*
X112250000Y-97500000D03*
X111250000Y-92500000D03*
X113250000Y-89500000D03*
X114250000Y-87500000D03*
X113250000Y-94500000D03*
X111250000Y-89500000D03*
X111250000Y-90500000D03*
X114250000Y-95500000D03*
X113250000Y-100500000D03*
X113250000Y-92500000D03*
X113250000Y-96500000D03*
X111250000Y-97500000D03*
X111250000Y-93500000D03*
X107250000Y-39000000D03*
X112250000Y-94500000D03*
X111250000Y-87500000D03*
X112250000Y-86500000D03*
X113250000Y-98500000D03*
X114250000Y-99500000D03*
X113250000Y-88500000D03*
X114250000Y-97500000D03*
X113250000Y-87500000D03*
X111250000Y-99500000D03*
X114250000Y-86500000D03*
X113250000Y-90500000D03*
X114250000Y-90500000D03*
X111250000Y-98500000D03*
X114250000Y-89500000D03*
X111250000Y-85500000D03*
X112250000Y-98500000D03*
X112250000Y-91500000D03*
X114250000Y-94500000D03*
X112250000Y-88500000D03*
X114250000Y-93500000D03*
X112250000Y-89500000D03*
X112250000Y-95500000D03*
X111250000Y-86500000D03*
X104000000Y-78000000D03*
X112250000Y-96500000D03*
X113250000Y-91500000D03*
X114250000Y-88500000D03*
X112250000Y-100500000D03*
X111250000Y-95500000D03*
X113250000Y-99500000D03*
X113250000Y-93500000D03*
X113250000Y-95500000D03*
X113250000Y-97500000D03*
X114250000Y-85500000D03*
%TO.N,Vin*%
X47500000Y-74000000D03*
X53500000Y-75000000D03*
X59500000Y-74000000D03*
X56500000Y-72000000D03*
X53500000Y-74000000D03*
X63500000Y-72000000D03*
X46500000Y-72000000D03*
X55500000Y-75000000D03*
X48500000Y-73000000D03*
X57500000Y-72000000D03*
X40500000Y-74000000D03*
X55500000Y-72000000D03*
X49500000Y-75000000D03*
X61500000Y-72000000D03*
X57500000Y-75000000D03*
X48500000Y-75000000D03*
X40500000Y-73000000D03*
X57500000Y-74000000D03*
X46500000Y-73000000D03*
X45500000Y-73000000D03*
X55500000Y-73000000D03*
X41500000Y-75000000D03*
X62500000Y-72000000D03*
X54500000Y-72000000D03*
X45500000Y-74000000D03*
X44500000Y-72000000D03*
X61500000Y-73000000D03*
X43500000Y-72000000D03*
X54500000Y-73000000D03*
X60500000Y-74000000D03*
X51500000Y-75000000D03*
X56500000Y-74000000D03*
X58500000Y-72000000D03*
X46500000Y-75000000D03*
X52500000Y-74000000D03*
X56500000Y-73000000D03*
X51500000Y-72000000D03*
X40500000Y-72000000D03*
X63500000Y-75000000D03*
X49500000Y-73000000D03*
X58500000Y-74000000D03*
X42500000Y-74000000D03*
X51500000Y-73000000D03*
X59500000Y-73000000D03*
X50500000Y-72000000D03*
X85900000Y-33500000D03*
X50500000Y-74000000D03*
X41500000Y-73000000D03*
X59500000Y-75000000D03*
X87400000Y-37200000D03*
X44500000Y-75000000D03*
X47500000Y-75000000D03*
X54500000Y-75000000D03*
X57500000Y-73000000D03*
X60500000Y-72000000D03*
X61500000Y-75000000D03*
X52500000Y-75000000D03*
X50500000Y-75000000D03*
X47500000Y-72000000D03*
X43500000Y-73000000D03*
X61500000Y-74000000D03*
X41500000Y-74000000D03*
X53500000Y-73000000D03*
X51500000Y-74000000D03*
X43500000Y-74000000D03*
X59500000Y-72000000D03*
X58500000Y-75000000D03*
X62500000Y-75000000D03*
X43500000Y-75000000D03*
X62500000Y-74000000D03*
X40500000Y-75000000D03*
X46500000Y-74000000D03*
X45500000Y-75000000D03*
X45500000Y-72000000D03*
X52500000Y-73000000D03*
X44500000Y-74000000D03*
X49500000Y-74000000D03*
X63500000Y-73000000D03*
X42500000Y-75000000D03*
X55500000Y-74000000D03*
X52500000Y-72000000D03*
X62500000Y-73000000D03*
X58500000Y-73000000D03*
X50500000Y-73000000D03*
X56500000Y-75000000D03*
X42500000Y-72000000D03*
X63500000Y-74000000D03*
X53500000Y-72000000D03*
X60500000Y-73000000D03*
X60500000Y-75000000D03*
X47500000Y-73000000D03*
X49500000Y-72000000D03*
X42500000Y-73000000D03*
X48500000Y-74000000D03*
X44500000Y-73000000D03*
X48500000Y-72000000D03*
X54500000Y-74000000D03*
X41500000Y-72000000D03*
%TO.N,Net-(Dboot1-A)*%
X104000000Y-43500000D03*
X98750000Y-40500000D03*
%TO.N,/rcs2*%
X85000000Y-64000000D03*
X87000000Y-64000000D03*
X85000000Y-67000000D03*
X97750000Y-61500000D03*
X85000000Y-65000000D03*
X86000000Y-64000000D03*
X88000000Y-65000000D03*
X87000000Y-67000000D03*
X88000000Y-66000000D03*
X85000000Y-66000000D03*
X87000000Y-66000000D03*
X99750000Y-54500000D03*
X88000000Y-64000000D03*
X86000000Y-67000000D03*
X87000000Y-65000000D03*
X86000000Y-66000000D03*
X88000000Y-67000000D03*
X86000000Y-65000000D03*
%TO.N,/hdrv1*%
X78520000Y-79000000D03*
X98750000Y-37925000D03*
X72250000Y-79000000D03*
%TO.N,/hdrv2*%
X110625000Y-77625000D03*
X117625000Y-77625000D03*
X98625000Y-43125000D03*
%TO.N,/ldrv2*%
X90750000Y-75000000D03*
X98575000Y-41825000D03*
X97250000Y-75000000D03*
%TO.N,/ldrv1*%
X81250000Y-75000000D03*
X98750000Y-39225000D03*
%TO.N,Vout*%
X131750000Y-68500000D03*
X113750000Y-67500000D03*
X118750000Y-68500000D03*
X119750000Y-66500000D03*
X129750000Y-66500000D03*
X102500000Y-35000000D03*
X125750000Y-69500000D03*
X120750000Y-67500000D03*
X123750000Y-68500000D03*
X119750000Y-67500000D03*
X127750000Y-67500000D03*
X111750000Y-69500000D03*
X132750000Y-68500000D03*
X115750000Y-68500000D03*
X131750000Y-67500000D03*
X107500000Y-66500000D03*
X128750000Y-68500000D03*
X121750000Y-66500000D03*
X134750000Y-68500000D03*
X122750000Y-66500000D03*
X113750000Y-69500000D03*
X117750000Y-69500000D03*
X122750000Y-68500000D03*
X113750000Y-68500000D03*
X123750000Y-66500000D03*
X133750000Y-69500000D03*
X114750000Y-67500000D03*
X132750000Y-69500000D03*
X130750000Y-67500000D03*
X105500000Y-65500000D03*
X118750000Y-67500000D03*
X105500000Y-66500000D03*
X130750000Y-68500000D03*
X133750000Y-68500000D03*
X112750000Y-69500000D03*
X121750000Y-69500000D03*
X119750000Y-68500000D03*
X128750000Y-69500000D03*
X118750000Y-69500000D03*
X121750000Y-68500000D03*
X111750000Y-66500000D03*
X131750000Y-66500000D03*
X106500000Y-65500000D03*
X133750000Y-67500000D03*
X115750000Y-69500000D03*
X122750000Y-67500000D03*
X107500000Y-64500000D03*
X132750000Y-67500000D03*
X124750000Y-69500000D03*
X133750000Y-66500000D03*
X112750000Y-67500000D03*
X112750000Y-68500000D03*
X134750000Y-67500000D03*
X129750000Y-67500000D03*
X120750000Y-68500000D03*
X126750000Y-69500000D03*
X105500000Y-64500000D03*
X106500000Y-66500000D03*
X120750000Y-66500000D03*
X116750000Y-69500000D03*
X127750000Y-68500000D03*
X128750000Y-66500000D03*
X117750000Y-67500000D03*
X88250000Y-52000000D03*
X126750000Y-68500000D03*
X116750000Y-66500000D03*
X125750000Y-67500000D03*
X107500000Y-65500000D03*
X111750000Y-67500000D03*
X106500000Y-64500000D03*
X130750000Y-69500000D03*
X116750000Y-67500000D03*
X126750000Y-67500000D03*
X117750000Y-66500000D03*
X123750000Y-69500000D03*
X130750000Y-66500000D03*
X115750000Y-66500000D03*
X113750000Y-66500000D03*
X111750000Y-68500000D03*
X129750000Y-69500000D03*
X129750000Y-68500000D03*
X124750000Y-66500000D03*
X134750000Y-69500000D03*
X131750000Y-69500000D03*
X116750000Y-68500000D03*
X120750000Y-69500000D03*
X117750000Y-68500000D03*
X114750000Y-69500000D03*
X112750000Y-66500000D03*
X114750000Y-66500000D03*
X134750000Y-66500000D03*
X127750000Y-66500000D03*
X125750000Y-68500000D03*
X125750000Y-66500000D03*
X122750000Y-69500000D03*
X132750000Y-66500000D03*
X124750000Y-67500000D03*
X127750000Y-69500000D03*
X119750000Y-69500000D03*
X124750000Y-68500000D03*
X121750000Y-67500000D03*
X115750000Y-67500000D03*
X126750000Y-66500000D03*
X128750000Y-67500000D03*
X118750000Y-66500000D03*
X114750000Y-68500000D03*
X123750000Y-67500000D03*
%TD*%
D16*
%TO.N,Net-(Dboot1-A)*%
X103950000Y-43500000D02*
X100950000Y-40500000D01*
X100950000Y-40500000D02*
X98750000Y-40500000D01*
X104000000Y-43500000D02*
X103950000Y-43500000D01*
%TO.N,/hdrv1*%
X83500000Y-43184314D02*
X83500000Y-71901471D01*
X98750000Y-37925000D02*
X96650000Y-35825000D01*
X78520000Y-79000000D02*
X78120000Y-79400000D01*
X83500000Y-71901471D02*
X78520000Y-76881471D01*
X78520000Y-76881471D02*
X78520000Y-79000000D01*
X90859314Y-35825000D02*
X83500000Y-43184314D01*
X96650000Y-35825000D02*
X90859314Y-35825000D01*
X72650000Y-79400000D02*
X72250000Y-79000000D01*
X78120000Y-79400000D02*
X72650000Y-79400000D01*
%TO.N,/hdrv2*%
X110000000Y-77000000D02*
X105500000Y-77000000D01*
X105400000Y-57514215D02*
X105400000Y-49900000D01*
X117625000Y-77625000D02*
X117250000Y-78000000D01*
X117250000Y-78000000D02*
X111000000Y-78000000D01*
X104000000Y-58914215D02*
X105400000Y-57514215D01*
X105500000Y-77000000D02*
X104000000Y-75500000D01*
X104000000Y-75500000D02*
X104000000Y-58914215D01*
X110625000Y-77625000D02*
X110000000Y-77000000D01*
X105400000Y-49900000D02*
X98625000Y-43125000D01*
X111000000Y-78000000D02*
X110625000Y-77625000D01*
%TO.N,/ldrv2*%
X105000000Y-50550000D02*
X98025000Y-43575000D01*
X103500000Y-58848529D02*
X105000000Y-57348529D01*
X105000000Y-57348529D02*
X105000000Y-50550000D01*
X98025000Y-43575000D02*
X98025000Y-42375000D01*
X97250000Y-75000000D02*
X90750000Y-75000000D01*
X103500000Y-73750000D02*
X103500000Y-58848529D01*
X98025000Y-42375000D02*
X98575000Y-41825000D01*
X97250000Y-75000000D02*
X102250000Y-75000000D01*
X102250000Y-75000000D02*
X103500000Y-73750000D01*
%TO.N,/ldrv1*%
X98750000Y-39225000D02*
X95750000Y-36225000D01*
X95750000Y-36225000D02*
X91025000Y-36225000D01*
X91025000Y-36225000D02*
X84000000Y-43250000D01*
X84000000Y-43250000D02*
X84000000Y-72250000D01*
X84000000Y-72250000D02*
X81250000Y-75000000D01*
%TD*%
%TA.AperFunction,Conductor*%
%TO.N,/sw2*%
G36*
X110060850Y-77489829D02*
G01*
X110081492Y-77506463D01*
X110085604Y-77510575D01*
X110119089Y-77571898D01*
X110120661Y-77615902D01*
X110119353Y-77624999D01*
X110139834Y-77767456D01*
X110177640Y-77850237D01*
X110199623Y-77898373D01*
X110293872Y-78007143D01*
X110414947Y-78084953D01*
X110414950Y-78084954D01*
X110414949Y-78084954D01*
X110520647Y-78115989D01*
X110550280Y-78124690D01*
X110553036Y-78125499D01*
X110553038Y-78125500D01*
X110649167Y-78125500D01*
X110716206Y-78145185D01*
X110736848Y-78161819D01*
X110759540Y-78184511D01*
X110815489Y-78240460D01*
X110815491Y-78240461D01*
X110815495Y-78240464D01*
X110884004Y-78280017D01*
X110884011Y-78280021D01*
X110960438Y-78300500D01*
X110960440Y-78300500D01*
X116126000Y-78300500D01*
X116193039Y-78320185D01*
X116238794Y-78372989D01*
X116250000Y-78424500D01*
X116250000Y-106346144D01*
X116230315Y-106413183D01*
X116177511Y-106458938D01*
X116126000Y-106470144D01*
X91124000Y-106470144D01*
X91056961Y-106450459D01*
X91011206Y-106397655D01*
X91000000Y-106346144D01*
X91000000Y-98000000D01*
X95250000Y-98000000D01*
X95250000Y-101500000D01*
X100250000Y-101500000D01*
X100250000Y-96500000D01*
X95250000Y-96500000D01*
X95250000Y-98000000D01*
X91000000Y-98000000D01*
X91000000Y-77594144D01*
X91019685Y-77527105D01*
X91072489Y-77481350D01*
X91124000Y-77470144D01*
X109993811Y-77470144D01*
X110060850Y-77489829D01*
G37*
%TD.AperFunction*%
%TD*%
%TA.AperFunction,Conductor*%
%TO.N,Vin*%
G36*
X81443039Y-60019685D02*
G01*
X81488794Y-60072489D01*
X81500000Y-60124000D01*
X81500000Y-65876000D01*
X81480315Y-65943039D01*
X81427511Y-65988794D01*
X81376000Y-66000000D01*
X79000000Y-66000000D01*
X79000000Y-75925138D01*
X78980315Y-75992177D01*
X78963681Y-76012819D01*
X78279541Y-76696958D01*
X78279535Y-76696966D01*
X78239982Y-76765475D01*
X78239979Y-76765480D01*
X78219500Y-76841910D01*
X78219500Y-76876000D01*
X78199815Y-76943039D01*
X78147011Y-76988794D01*
X78095500Y-77000000D01*
X65500000Y-77000000D01*
X65500000Y-82776000D01*
X65480315Y-82843039D01*
X65427511Y-82888794D01*
X65376000Y-82900000D01*
X28324000Y-82900000D01*
X28256961Y-82880315D01*
X28211206Y-82827511D01*
X28200000Y-82776000D01*
X28200000Y-60124000D01*
X28219685Y-60056961D01*
X28272489Y-60011206D01*
X28324000Y-60000000D01*
X81376000Y-60000000D01*
X81443039Y-60019685D01*
G37*
%TD.AperFunction*%
%TD*%
%TA.AperFunction,Conductor*%
%TO.N,GND*%
G36*
X140942961Y-25928882D02*
G01*
X140988756Y-25981652D01*
X141000000Y-26033248D01*
X141000000Y-40500000D01*
X153088352Y-40500000D01*
X153155391Y-40519685D01*
X153201146Y-40572489D01*
X153212352Y-40623896D01*
X153249896Y-85375896D01*
X153230268Y-85442952D01*
X153177502Y-85488751D01*
X153125896Y-85500000D01*
X145874000Y-85500000D01*
X145806961Y-85480315D01*
X145761206Y-85427511D01*
X145750000Y-85376000D01*
X145750000Y-59000000D01*
X105062812Y-59000000D01*
X104995773Y-58980315D01*
X104950018Y-58927511D01*
X104940074Y-58858353D01*
X104969099Y-58794797D01*
X104975131Y-58788319D01*
X105395442Y-58368007D01*
X105768713Y-57994736D01*
X105768716Y-57994735D01*
X105880520Y-57882931D01*
X105930639Y-57796119D01*
X105959577Y-57746000D01*
X106000501Y-57593272D01*
X106000501Y-57435158D01*
X106000501Y-57427563D01*
X106000500Y-57427545D01*
X106000500Y-49989059D01*
X106000501Y-49989046D01*
X106000501Y-49820945D01*
X106000501Y-49820943D01*
X105959577Y-49668215D01*
X105930639Y-49618095D01*
X105880520Y-49531284D01*
X105768716Y-49419480D01*
X105768715Y-49419479D01*
X105764385Y-49415149D01*
X105764374Y-49415139D01*
X99455700Y-43106465D01*
X99422215Y-43045142D01*
X99420163Y-43032686D01*
X99410368Y-42945745D01*
X99350789Y-42775478D01*
X99254816Y-42622738D01*
X99169759Y-42537681D01*
X99136274Y-42476358D01*
X99141258Y-42406666D01*
X99169759Y-42362319D01*
X99204816Y-42327262D01*
X99300789Y-42174522D01*
X99360368Y-42004255D01*
X99380565Y-41825000D01*
X99377419Y-41797082D01*
X99360369Y-41645750D01*
X99360368Y-41645745D01*
X99300788Y-41475476D01*
X99272953Y-41431177D01*
X99204816Y-41322738D01*
X99204812Y-41322734D01*
X99204672Y-41322558D01*
X99204615Y-41322418D01*
X99201111Y-41316842D01*
X99202088Y-41316228D01*
X99178265Y-41257870D01*
X99191023Y-41189175D01*
X99235651Y-41140253D01*
X99252262Y-41129816D01*
X99252268Y-41129809D01*
X99255097Y-41127555D01*
X99257275Y-41126665D01*
X99258163Y-41126108D01*
X99258260Y-41126263D01*
X99319783Y-41101145D01*
X99332412Y-41100500D01*
X100649903Y-41100500D01*
X100716942Y-41120185D01*
X100737584Y-41136819D01*
X103175647Y-43574883D01*
X103209132Y-43636206D01*
X103211186Y-43648679D01*
X103214630Y-43679249D01*
X103274210Y-43849521D01*
X103333397Y-43943716D01*
X103370184Y-44002262D01*
X103497738Y-44129816D01*
X103650478Y-44225789D01*
X103820745Y-44285368D01*
X103820750Y-44285369D01*
X103999996Y-44305565D01*
X104000000Y-44305565D01*
X104000004Y-44305565D01*
X104179249Y-44285369D01*
X104179252Y-44285368D01*
X104179255Y-44285368D01*
X104349522Y-44225789D01*
X104502262Y-44129816D01*
X104629816Y-44002262D01*
X104725789Y-43849522D01*
X104785368Y-43679255D01*
X104788207Y-43654057D01*
X104805565Y-43500003D01*
X104805565Y-43499996D01*
X104785369Y-43320750D01*
X104785368Y-43320745D01*
X104725788Y-43150476D01*
X104629815Y-42997737D01*
X104502262Y-42870184D01*
X104349523Y-42774211D01*
X104179254Y-42714631D01*
X104179249Y-42714630D01*
X104035984Y-42698489D01*
X103971570Y-42671423D01*
X103962186Y-42662950D01*
X101437590Y-40138355D01*
X101437588Y-40138352D01*
X101318717Y-40019481D01*
X101318709Y-40019475D01*
X101199740Y-39950789D01*
X101199740Y-39950788D01*
X101199737Y-39950788D01*
X101181785Y-39940423D01*
X101029057Y-39899499D01*
X100870943Y-39899499D01*
X100863347Y-39899499D01*
X100863331Y-39899500D01*
X99495953Y-39899500D01*
X99428914Y-39879815D01*
X99383159Y-39827011D01*
X99373215Y-39757853D01*
X99390959Y-39709528D01*
X99475788Y-39574523D01*
X99475789Y-39574522D01*
X99535368Y-39404255D01*
X99545162Y-39317331D01*
X99555565Y-39225003D01*
X99555565Y-39224996D01*
X99535369Y-39045750D01*
X99535368Y-39045745D01*
X99519360Y-38999996D01*
X106444435Y-38999996D01*
X106444435Y-39000003D01*
X106464630Y-39179249D01*
X106464631Y-39179254D01*
X106524211Y-39349523D01*
X106558598Y-39404249D01*
X106620184Y-39502262D01*
X106747738Y-39629816D01*
X106900478Y-39725789D01*
X106904688Y-39727262D01*
X107070745Y-39785368D01*
X107070750Y-39785369D01*
X107249996Y-39805565D01*
X107250000Y-39805565D01*
X107250004Y-39805565D01*
X107429249Y-39785369D01*
X107429252Y-39785368D01*
X107429255Y-39785368D01*
X107599522Y-39725789D01*
X107752262Y-39629816D01*
X107879816Y-39502262D01*
X107975789Y-39349522D01*
X108035368Y-39179255D01*
X108035369Y-39179249D01*
X108055565Y-39000003D01*
X108055565Y-38999996D01*
X108035369Y-38820750D01*
X108035368Y-38820745D01*
X108001074Y-38722738D01*
X107975789Y-38650478D01*
X107879816Y-38497738D01*
X107752262Y-38370184D01*
X107599523Y-38274211D01*
X107429254Y-38214631D01*
X107429249Y-38214630D01*
X107250004Y-38194435D01*
X107249996Y-38194435D01*
X107070750Y-38214630D01*
X107070745Y-38214631D01*
X106900476Y-38274211D01*
X106747737Y-38370184D01*
X106620184Y-38497737D01*
X106524211Y-38650476D01*
X106464631Y-38820745D01*
X106464630Y-38820750D01*
X106444435Y-38999996D01*
X99519360Y-38999996D01*
X99475788Y-38875476D01*
X99379815Y-38722737D01*
X99319759Y-38662681D01*
X99286274Y-38601358D01*
X99291258Y-38531666D01*
X99319759Y-38487319D01*
X99379816Y-38427262D01*
X99475789Y-38274522D01*
X99535368Y-38104255D01*
X99548763Y-37985369D01*
X99555565Y-37925003D01*
X99555565Y-37924996D01*
X99535369Y-37745750D01*
X99535368Y-37745745D01*
X99475788Y-37575476D01*
X99407601Y-37466958D01*
X99379816Y-37422738D01*
X99252262Y-37295184D01*
X99099521Y-37199210D01*
X98929249Y-37139630D01*
X98842330Y-37129837D01*
X98777916Y-37102770D01*
X98768533Y-37094298D01*
X97137590Y-35463355D01*
X97137588Y-35463352D01*
X97043316Y-35369080D01*
X97009831Y-35307757D01*
X97013955Y-35240447D01*
X97035368Y-35179255D01*
X97055565Y-35000000D01*
X97055565Y-34999996D01*
X101694435Y-34999996D01*
X101694435Y-35000003D01*
X101714630Y-35179249D01*
X101714631Y-35179254D01*
X101774211Y-35349523D01*
X101786500Y-35369080D01*
X101870184Y-35502262D01*
X101997738Y-35629816D01*
X102150478Y-35725789D01*
X102320745Y-35785368D01*
X102320750Y-35785369D01*
X102499996Y-35805565D01*
X102500000Y-35805565D01*
X102500004Y-35805565D01*
X102679249Y-35785369D01*
X102679252Y-35785368D01*
X102679255Y-35785368D01*
X102849522Y-35725789D01*
X103002262Y-35629816D01*
X103129816Y-35502262D01*
X103225789Y-35349522D01*
X103285368Y-35179255D01*
X103305565Y-35000000D01*
X103285368Y-34820745D01*
X103225789Y-34650478D01*
X103129816Y-34497738D01*
X103002262Y-34370184D01*
X102899422Y-34305565D01*
X102849523Y-34274211D01*
X102679254Y-34214631D01*
X102679249Y-34214630D01*
X102500004Y-34194435D01*
X102499996Y-34194435D01*
X102320750Y-34214630D01*
X102320745Y-34214631D01*
X102150476Y-34274211D01*
X101997737Y-34370184D01*
X101870184Y-34497737D01*
X101774211Y-34650476D01*
X101714631Y-34820745D01*
X101714630Y-34820750D01*
X101694435Y-34999996D01*
X97055565Y-34999996D01*
X97035368Y-34820745D01*
X96975789Y-34650478D01*
X96879816Y-34497738D01*
X96752262Y-34370184D01*
X96649422Y-34305565D01*
X96599523Y-34274211D01*
X96429254Y-34214631D01*
X96429249Y-34214630D01*
X96250004Y-34194435D01*
X96249996Y-34194435D01*
X96070750Y-34214630D01*
X96070745Y-34214631D01*
X95900476Y-34274211D01*
X95747737Y-34370184D01*
X95620184Y-34497737D01*
X95524211Y-34650476D01*
X95464631Y-34820745D01*
X95464630Y-34820750D01*
X95444435Y-34999996D01*
X95444435Y-35000002D01*
X95454194Y-35086616D01*
X95442140Y-35155438D01*
X95394791Y-35206818D01*
X95330974Y-35224500D01*
X90945984Y-35224500D01*
X90945968Y-35224499D01*
X90938372Y-35224499D01*
X90780257Y-35224499D01*
X90720755Y-35240443D01*
X90627528Y-35265423D01*
X90627523Y-35265426D01*
X90490604Y-35344475D01*
X90490596Y-35344481D01*
X88401604Y-37433473D01*
X88340281Y-37466958D01*
X88270589Y-37461974D01*
X88214656Y-37420102D01*
X88190239Y-37354638D01*
X88190703Y-37331909D01*
X88205565Y-37200003D01*
X88205565Y-37199996D01*
X88185369Y-37020750D01*
X88185368Y-37020745D01*
X88125788Y-36850476D01*
X88029815Y-36697737D01*
X87902262Y-36570184D01*
X87749523Y-36474211D01*
X87579254Y-36414631D01*
X87579249Y-36414630D01*
X87400004Y-36394435D01*
X87399996Y-36394435D01*
X87220750Y-36414630D01*
X87220745Y-36414631D01*
X87050476Y-36474211D01*
X86897737Y-36570184D01*
X86770184Y-36697737D01*
X86674211Y-36850476D01*
X86614631Y-37020745D01*
X86614630Y-37020750D01*
X86594435Y-37199996D01*
X86594435Y-37200003D01*
X86614630Y-37379249D01*
X86614631Y-37379254D01*
X86674211Y-37549523D01*
X86690520Y-37575478D01*
X86770184Y-37702262D01*
X86897738Y-37829816D01*
X87050478Y-37925789D01*
X87220745Y-37985368D01*
X87220750Y-37985369D01*
X87399996Y-38005565D01*
X87400000Y-38005565D01*
X87400004Y-38005565D01*
X87531909Y-37990703D01*
X87600730Y-38002757D01*
X87652110Y-38050107D01*
X87669734Y-38117717D01*
X87648007Y-38184123D01*
X87633473Y-38201604D01*
X83131286Y-42703792D01*
X83019481Y-42815596D01*
X83019479Y-42815598D01*
X83005722Y-42839427D01*
X82999907Y-42849500D01*
X82940423Y-42952529D01*
X82899499Y-43105257D01*
X82899499Y-43105259D01*
X82899499Y-43273360D01*
X82899500Y-43273373D01*
X82899500Y-58876000D01*
X82879815Y-58943039D01*
X82827011Y-58988794D01*
X82775500Y-59000000D01*
X27500000Y-59000000D01*
X27500000Y-82876000D01*
X27480315Y-82943039D01*
X27427511Y-82988794D01*
X27376000Y-83000000D01*
X20024109Y-83000000D01*
X19957070Y-82980315D01*
X19911315Y-82927511D01*
X19900109Y-82875891D01*
X19937172Y-40623891D01*
X19956915Y-40556869D01*
X20009760Y-40511160D01*
X20061172Y-40500000D01*
X33500000Y-40500000D01*
X33500000Y-33499996D01*
X85094435Y-33499996D01*
X85094435Y-33500003D01*
X85114630Y-33679249D01*
X85114631Y-33679254D01*
X85174211Y-33849523D01*
X85270184Y-34002262D01*
X85397738Y-34129816D01*
X85488080Y-34186582D01*
X85532721Y-34214632D01*
X85550478Y-34225789D01*
X85688860Y-34274211D01*
X85720745Y-34285368D01*
X85720750Y-34285369D01*
X85899996Y-34305565D01*
X85900000Y-34305565D01*
X85900004Y-34305565D01*
X86079249Y-34285369D01*
X86079252Y-34285368D01*
X86079255Y-34285368D01*
X86249522Y-34225789D01*
X86402262Y-34129816D01*
X86529816Y-34002262D01*
X86625789Y-33849522D01*
X86685368Y-33679255D01*
X86705565Y-33500000D01*
X86685368Y-33320745D01*
X86625789Y-33150478D01*
X86529816Y-32997738D01*
X86402262Y-32870184D01*
X86249523Y-32774211D01*
X86079254Y-32714631D01*
X86079249Y-32714630D01*
X85900004Y-32694435D01*
X85899996Y-32694435D01*
X85720750Y-32714630D01*
X85720745Y-32714631D01*
X85550476Y-32774211D01*
X85397737Y-32870184D01*
X85270184Y-32997737D01*
X85174211Y-33150476D01*
X85114631Y-33320745D01*
X85114630Y-33320750D01*
X85094435Y-33499996D01*
X33500000Y-33499996D01*
X33500000Y-31999999D01*
X89094722Y-31999999D01*
X89094722Y-32000000D01*
X89113762Y-32156818D01*
X89169780Y-32304523D01*
X89259517Y-32434530D01*
X89377760Y-32539283D01*
X89377762Y-32539284D01*
X89517634Y-32612696D01*
X89671014Y-32650500D01*
X89671015Y-32650500D01*
X89828985Y-32650500D01*
X89982365Y-32612696D01*
X90122240Y-32539283D01*
X90240483Y-32434530D01*
X90330220Y-32304523D01*
X90386237Y-32156818D01*
X90405278Y-32000000D01*
X90386237Y-31843182D01*
X90330220Y-31695477D01*
X90240483Y-31565470D01*
X90122240Y-31460717D01*
X90122238Y-31460716D01*
X90122237Y-31460715D01*
X89982365Y-31387303D01*
X89828986Y-31349500D01*
X89828985Y-31349500D01*
X89671015Y-31349500D01*
X89671014Y-31349500D01*
X89517634Y-31387303D01*
X89377762Y-31460715D01*
X89259516Y-31565471D01*
X89169781Y-31695475D01*
X89169780Y-31695476D01*
X89113762Y-31843181D01*
X89094722Y-31999999D01*
X33500000Y-31999999D01*
X33500000Y-26113738D01*
X33519685Y-26046699D01*
X33572489Y-26000944D01*
X33623906Y-25989738D01*
X140875909Y-25909248D01*
X140942961Y-25928882D01*
G37*
%TD.AperFunction*%
%TA.AperFunction,Conductor*%
G36*
X95516942Y-36845185D02*
G01*
X95537583Y-36861818D01*
X96780013Y-38104249D01*
X97919298Y-39243534D01*
X97952783Y-39304857D01*
X97954837Y-39317331D01*
X97964630Y-39404249D01*
X98024210Y-39574521D01*
X98120184Y-39727262D01*
X98167741Y-39774819D01*
X98201226Y-39836142D01*
X98196242Y-39905834D01*
X98167741Y-39950181D01*
X98120184Y-39997737D01*
X98024211Y-40150476D01*
X97964631Y-40320745D01*
X97964630Y-40320750D01*
X97944435Y-40499996D01*
X97944435Y-40500000D01*
X97964630Y-40679249D01*
X97964631Y-40679254D01*
X98024211Y-40849523D01*
X98077028Y-40933580D01*
X98120184Y-41002262D01*
X98120189Y-41002267D01*
X98120322Y-41002434D01*
X98120377Y-41002568D01*
X98123889Y-41008158D01*
X98122910Y-41008773D01*
X98146733Y-41067120D01*
X98133980Y-41135815D01*
X98089354Y-41184742D01*
X98072742Y-41195180D01*
X98072737Y-41195184D01*
X97945184Y-41322737D01*
X97849210Y-41475478D01*
X97789630Y-41645750D01*
X97779837Y-41732668D01*
X97752770Y-41797082D01*
X97744299Y-41806465D01*
X97656286Y-41894478D01*
X97544481Y-42006282D01*
X97544479Y-42006285D01*
X97515325Y-42056783D01*
X97515324Y-42056785D01*
X97465423Y-42143214D01*
X97465423Y-42143215D01*
X97424499Y-42295943D01*
X97424499Y-42295945D01*
X97424499Y-42464046D01*
X97424500Y-42464059D01*
X97424500Y-43488330D01*
X97424499Y-43488348D01*
X97424499Y-43654054D01*
X97424498Y-43654054D01*
X97465422Y-43806783D01*
X97490663Y-43850502D01*
X97544477Y-43943712D01*
X97544481Y-43943717D01*
X97663349Y-44062585D01*
X97663355Y-44062590D01*
X104363181Y-50762416D01*
X104396666Y-50823739D01*
X104399500Y-50850097D01*
X104399500Y-57048431D01*
X104379815Y-57115470D01*
X104363181Y-57136112D01*
X103019481Y-58479811D01*
X103019479Y-58479814D01*
X102981558Y-58545497D01*
X102981557Y-58545499D01*
X102940423Y-58616743D01*
X102940423Y-58616744D01*
X102899499Y-58769472D01*
X102899499Y-58769474D01*
X102899499Y-58876000D01*
X102879814Y-58943039D01*
X102827010Y-58988794D01*
X102775499Y-59000000D01*
X99374000Y-59000000D01*
X99306961Y-58980315D01*
X99261206Y-58927511D01*
X99250000Y-58876000D01*
X99250000Y-55499999D01*
X99148235Y-55347353D01*
X99127427Y-55280654D01*
X99145982Y-55213293D01*
X99198009Y-55166657D01*
X99266991Y-55155553D01*
X99317381Y-55173576D01*
X99400476Y-55225788D01*
X99400478Y-55225789D01*
X99557273Y-55280654D01*
X99570745Y-55285368D01*
X99570750Y-55285369D01*
X99749996Y-55305565D01*
X99750000Y-55305565D01*
X99750004Y-55305565D01*
X99929249Y-55285369D01*
X99929252Y-55285368D01*
X99929255Y-55285368D01*
X100099522Y-55225789D01*
X100252262Y-55129816D01*
X100379816Y-55002262D01*
X100475789Y-54849522D01*
X100535368Y-54679255D01*
X100555565Y-54500000D01*
X100535368Y-54320745D01*
X100475789Y-54150478D01*
X100379816Y-53997738D01*
X100252262Y-53870184D01*
X100099523Y-53774211D01*
X99929254Y-53714631D01*
X99929249Y-53714630D01*
X99750004Y-53694435D01*
X99749996Y-53694435D01*
X99570750Y-53714630D01*
X99570745Y-53714631D01*
X99400476Y-53774211D01*
X99247737Y-53870184D01*
X99120184Y-53997737D01*
X99024211Y-54150476D01*
X98964631Y-54320745D01*
X98964630Y-54320750D01*
X98944435Y-54499996D01*
X98944435Y-54500004D01*
X98960622Y-54643676D01*
X98948567Y-54712498D01*
X98901218Y-54763877D01*
X98833607Y-54781501D01*
X98767202Y-54759774D01*
X98734228Y-54726342D01*
X98270826Y-54031238D01*
X98250018Y-53964539D01*
X98250000Y-53962455D01*
X98250000Y-51500000D01*
X96750000Y-51500000D01*
X96750000Y-55000000D01*
X98194784Y-55963189D01*
X98239644Y-56016753D01*
X98250000Y-56066362D01*
X98250000Y-58876000D01*
X98230315Y-58943039D01*
X98177511Y-58988794D01*
X98126000Y-59000000D01*
X84724500Y-59000000D01*
X84657461Y-58980315D01*
X84611706Y-58927511D01*
X84600500Y-58876000D01*
X84600500Y-51999996D01*
X87444435Y-51999996D01*
X87444435Y-52000003D01*
X87464630Y-52179249D01*
X87464631Y-52179254D01*
X87524211Y-52349523D01*
X87620184Y-52502262D01*
X87747738Y-52629816D01*
X87900478Y-52725789D01*
X88070745Y-52785368D01*
X88070750Y-52785369D01*
X88249996Y-52805565D01*
X88250000Y-52805565D01*
X88250004Y-52805565D01*
X88429249Y-52785369D01*
X88429252Y-52785368D01*
X88429255Y-52785368D01*
X88599522Y-52725789D01*
X88752262Y-52629816D01*
X88879816Y-52502262D01*
X88975789Y-52349522D01*
X89035368Y-52179255D01*
X89055565Y-52000000D01*
X89035368Y-51820745D01*
X88975789Y-51650478D01*
X88879816Y-51497738D01*
X88752262Y-51370184D01*
X88599523Y-51274211D01*
X88429254Y-51214631D01*
X88429249Y-51214630D01*
X88250004Y-51194435D01*
X88249996Y-51194435D01*
X88070750Y-51214630D01*
X88070745Y-51214631D01*
X87900476Y-51274211D01*
X87747737Y-51370184D01*
X87620184Y-51497737D01*
X87524211Y-51650476D01*
X87464631Y-51820745D01*
X87464630Y-51820750D01*
X87444435Y-51999996D01*
X84600500Y-51999996D01*
X84600500Y-43550097D01*
X84620185Y-43483058D01*
X84636819Y-43462416D01*
X91237416Y-36861819D01*
X91298739Y-36828334D01*
X91325097Y-36825500D01*
X95449903Y-36825500D01*
X95516942Y-36845185D01*
G37*
%TD.AperFunction*%
%TD*%
%TA.AperFunction,Conductor*%
%TO.N,Vout*%
G36*
X144943039Y-60519685D02*
G01*
X144988794Y-60572489D01*
X145000000Y-60624000D01*
X145000000Y-85376000D01*
X144980315Y-85443039D01*
X144927511Y-85488794D01*
X144876000Y-85500000D01*
X117874000Y-85500000D01*
X117806961Y-85480315D01*
X117761206Y-85427511D01*
X117750000Y-85376000D01*
X117750000Y-78202752D01*
X117769685Y-78135713D01*
X117822489Y-78089958D01*
X117831243Y-78086692D01*
X117835047Y-78084954D01*
X117835053Y-78084953D01*
X117956128Y-78007143D01*
X118050377Y-77898373D01*
X118110165Y-77767457D01*
X118130647Y-77625000D01*
X118110165Y-77482543D01*
X118050377Y-77351627D01*
X117956128Y-77242857D01*
X117835053Y-77165047D01*
X117826989Y-77161365D01*
X117828011Y-77159124D01*
X117780278Y-77128440D01*
X117751260Y-77064881D01*
X117750000Y-77047248D01*
X117750000Y-77000000D01*
X110476333Y-77000000D01*
X110409294Y-76980315D01*
X110388652Y-76963681D01*
X110184512Y-76759541D01*
X110184504Y-76759535D01*
X110115995Y-76719982D01*
X110115990Y-76719979D01*
X110090513Y-76713152D01*
X110039562Y-76699500D01*
X110039560Y-76699500D01*
X105675833Y-76699500D01*
X105608794Y-76679815D01*
X105588152Y-76663181D01*
X104786319Y-75861348D01*
X104752834Y-75800025D01*
X104750000Y-75773667D01*
X104750000Y-60624000D01*
X104769685Y-60556961D01*
X104822489Y-60511206D01*
X104874000Y-60500000D01*
X144876000Y-60500000D01*
X144943039Y-60519685D01*
G37*
%TD.AperFunction*%
%TD*%
%TA.AperFunction,Conductor*%
%TO.N,/sw1*%
G36*
X70943039Y-77519685D02*
G01*
X70988794Y-77572489D01*
X71000000Y-77624000D01*
X71000000Y-79500000D01*
X72000000Y-79500000D01*
X72165693Y-79500000D01*
X72172684Y-79500500D01*
X72274167Y-79500500D01*
X72341206Y-79520185D01*
X72361848Y-79536819D01*
X72409540Y-79584511D01*
X72465489Y-79640460D01*
X72465491Y-79640461D01*
X72465495Y-79640464D01*
X72534004Y-79680017D01*
X72534011Y-79680021D01*
X72610438Y-79700500D01*
X72610440Y-79700500D01*
X78159560Y-79700500D01*
X78159562Y-79700500D01*
X78235989Y-79680021D01*
X78304511Y-79640460D01*
X78360460Y-79584511D01*
X78381924Y-79563046D01*
X78408152Y-79536819D01*
X78469475Y-79503334D01*
X78495833Y-79500500D01*
X78591962Y-79500500D01*
X78591962Y-79500499D01*
X78730053Y-79459953D01*
X78851128Y-79382143D01*
X78945377Y-79273373D01*
X79005165Y-79142457D01*
X79025647Y-79000000D01*
X79005165Y-78857543D01*
X78945377Y-78726627D01*
X78945375Y-78726625D01*
X78945374Y-78726622D01*
X78850787Y-78617462D01*
X78821762Y-78553906D01*
X78820500Y-78536260D01*
X78820500Y-77624000D01*
X78840185Y-77556961D01*
X78892989Y-77511206D01*
X78944500Y-77500000D01*
X88126000Y-77500000D01*
X88193039Y-77519685D01*
X88238794Y-77572489D01*
X88250000Y-77624000D01*
X88250000Y-83000000D01*
X90126000Y-83000000D01*
X90193039Y-83019685D01*
X90238794Y-83072489D01*
X90250000Y-83124000D01*
X90250000Y-106526000D01*
X90230315Y-106593039D01*
X90177511Y-106638794D01*
X90126000Y-106650000D01*
X66374000Y-106650000D01*
X66306961Y-106630315D01*
X66261206Y-106577511D01*
X66250000Y-106526000D01*
X66250000Y-89150000D01*
X81750000Y-89150000D01*
X81750000Y-92650000D01*
X86750000Y-92650000D01*
X86750000Y-87650000D01*
X81750000Y-87650000D01*
X81750000Y-89150000D01*
X66250000Y-89150000D01*
X66250000Y-77624000D01*
X66269685Y-77556961D01*
X66322489Y-77511206D01*
X66374000Y-77500000D01*
X70876000Y-77500000D01*
X70943039Y-77519685D01*
G37*
%TD.AperFunction*%
%TD*%
M02*
