%TF.GenerationSoftware,KiCad,Pcbnew,8.0.7*%
%TF.CreationDate,2025-01-13T19:37:49-08:00*%
%TF.ProjectId,DCDCv2,44434443-7632-42e6-9b69-6361645f7063,rev?*%
%TF.SameCoordinates,Original*%
%TF.FileFunction,Drillmap*%
%TF.FilePolarity,Positive*%
%FSLAX45Y45*%
G04 Gerber Fmt 4.5, Leading zero omitted, Abs format (unit mm)*
G04 Created by KiCad (PCBNEW 8.0.7) date 2025-01-13 19:37:49*
%MOMM*%
%LPD*%
G01*
G04 APERTURE LIST*
%ADD10C,0.050000*%
%ADD11C,0.200000*%
%ADD12C,0.100000*%
%ADD13C,0.129540*%
%ADD14C,0.250000*%
%ADD15C,0.300000*%
G04 APERTURE END LIST*
D10*
X1825000Y-2540000D02*
X15600000Y-2540000D01*
X15600000Y-10800000D01*
X1825000Y-10800000D01*
X1825000Y-2540000D01*
D11*
D12*
X2710000Y-5035000D02*
X2740000Y-5065000D01*
X2740000Y-5035000D02*
X2710000Y-5065000D01*
X2710000Y-5135000D02*
X2740000Y-5165000D01*
X2740000Y-5135000D02*
X2710000Y-5165000D01*
X2710000Y-5235000D02*
X2740000Y-5265000D01*
X2740000Y-5235000D02*
X2710000Y-5265000D01*
X2710000Y-5335000D02*
X2740000Y-5365000D01*
X2740000Y-5335000D02*
X2710000Y-5365000D01*
X2810000Y-5035000D02*
X2840000Y-5065000D01*
X2840000Y-5035000D02*
X2810000Y-5065000D01*
X2810000Y-5135000D02*
X2840000Y-5165000D01*
X2840000Y-5135000D02*
X2810000Y-5165000D01*
X2810000Y-5235000D02*
X2840000Y-5265000D01*
X2840000Y-5235000D02*
X2810000Y-5265000D01*
X2810000Y-5335000D02*
X2840000Y-5365000D01*
X2840000Y-5335000D02*
X2810000Y-5365000D01*
X2910000Y-5035000D02*
X2940000Y-5065000D01*
X2940000Y-5035000D02*
X2910000Y-5065000D01*
X2910000Y-5135000D02*
X2940000Y-5165000D01*
X2940000Y-5135000D02*
X2910000Y-5165000D01*
X2910000Y-5235000D02*
X2940000Y-5265000D01*
X2940000Y-5235000D02*
X2910000Y-5265000D01*
X2910000Y-5335000D02*
X2940000Y-5365000D01*
X2940000Y-5335000D02*
X2910000Y-5365000D01*
X3010000Y-5035000D02*
X3040000Y-5065000D01*
X3040000Y-5035000D02*
X3010000Y-5065000D01*
X3010000Y-5135000D02*
X3040000Y-5165000D01*
X3040000Y-5135000D02*
X3010000Y-5165000D01*
X3010000Y-5235000D02*
X3040000Y-5265000D01*
X3040000Y-5235000D02*
X3010000Y-5265000D01*
X3010000Y-5335000D02*
X3040000Y-5365000D01*
X3040000Y-5335000D02*
X3010000Y-5365000D01*
X3110000Y-5035000D02*
X3140000Y-5065000D01*
X3140000Y-5035000D02*
X3110000Y-5065000D01*
X3110000Y-5135000D02*
X3140000Y-5165000D01*
X3140000Y-5135000D02*
X3110000Y-5165000D01*
X3110000Y-5235000D02*
X3140000Y-5265000D01*
X3140000Y-5235000D02*
X3110000Y-5265000D01*
X3110000Y-5335000D02*
X3140000Y-5365000D01*
X3140000Y-5335000D02*
X3110000Y-5365000D01*
X3210000Y-5035000D02*
X3240000Y-5065000D01*
X3240000Y-5035000D02*
X3210000Y-5065000D01*
X3210000Y-5135000D02*
X3240000Y-5165000D01*
X3240000Y-5135000D02*
X3210000Y-5165000D01*
X3210000Y-5235000D02*
X3240000Y-5265000D01*
X3240000Y-5235000D02*
X3210000Y-5265000D01*
X3210000Y-5335000D02*
X3240000Y-5365000D01*
X3240000Y-5335000D02*
X3210000Y-5365000D01*
X3310000Y-5035000D02*
X3340000Y-5065000D01*
X3340000Y-5035000D02*
X3310000Y-5065000D01*
X3310000Y-5135000D02*
X3340000Y-5165000D01*
X3340000Y-5135000D02*
X3310000Y-5165000D01*
X3310000Y-5235000D02*
X3340000Y-5265000D01*
X3340000Y-5235000D02*
X3310000Y-5265000D01*
X3310000Y-5335000D02*
X3340000Y-5365000D01*
X3340000Y-5335000D02*
X3310000Y-5365000D01*
X3410000Y-5035000D02*
X3440000Y-5065000D01*
X3440000Y-5035000D02*
X3410000Y-5065000D01*
X3410000Y-5135000D02*
X3440000Y-5165000D01*
X3440000Y-5135000D02*
X3410000Y-5165000D01*
X3410000Y-5235000D02*
X3440000Y-5265000D01*
X3440000Y-5235000D02*
X3410000Y-5265000D01*
X3410000Y-5335000D02*
X3440000Y-5365000D01*
X3440000Y-5335000D02*
X3410000Y-5365000D01*
X3510000Y-5035000D02*
X3540000Y-5065000D01*
X3540000Y-5035000D02*
X3510000Y-5065000D01*
X3510000Y-5135000D02*
X3540000Y-5165000D01*
X3540000Y-5135000D02*
X3510000Y-5165000D01*
X3510000Y-5235000D02*
X3540000Y-5265000D01*
X3540000Y-5235000D02*
X3510000Y-5265000D01*
X3510000Y-5335000D02*
X3540000Y-5365000D01*
X3540000Y-5335000D02*
X3510000Y-5365000D01*
X3610000Y-5035000D02*
X3640000Y-5065000D01*
X3640000Y-5035000D02*
X3610000Y-5065000D01*
X3610000Y-5135000D02*
X3640000Y-5165000D01*
X3640000Y-5135000D02*
X3610000Y-5165000D01*
X3610000Y-5235000D02*
X3640000Y-5265000D01*
X3640000Y-5235000D02*
X3610000Y-5265000D01*
X3610000Y-5335000D02*
X3640000Y-5365000D01*
X3640000Y-5335000D02*
X3610000Y-5365000D01*
X3710000Y-5035000D02*
X3740000Y-5065000D01*
X3740000Y-5035000D02*
X3710000Y-5065000D01*
X3710000Y-5135000D02*
X3740000Y-5165000D01*
X3740000Y-5135000D02*
X3710000Y-5165000D01*
X3710000Y-5235000D02*
X3740000Y-5265000D01*
X3740000Y-5235000D02*
X3710000Y-5265000D01*
X3710000Y-5335000D02*
X3740000Y-5365000D01*
X3740000Y-5335000D02*
X3710000Y-5365000D01*
X3810000Y-5035000D02*
X3840000Y-5065000D01*
X3840000Y-5035000D02*
X3810000Y-5065000D01*
X3810000Y-5135000D02*
X3840000Y-5165000D01*
X3840000Y-5135000D02*
X3810000Y-5165000D01*
X3810000Y-5235000D02*
X3840000Y-5265000D01*
X3840000Y-5235000D02*
X3810000Y-5265000D01*
X3810000Y-5335000D02*
X3840000Y-5365000D01*
X3840000Y-5335000D02*
X3810000Y-5365000D01*
X3910000Y-5035000D02*
X3940000Y-5065000D01*
X3940000Y-5035000D02*
X3910000Y-5065000D01*
X3910000Y-5135000D02*
X3940000Y-5165000D01*
X3940000Y-5135000D02*
X3910000Y-5165000D01*
X3910000Y-5235000D02*
X3940000Y-5265000D01*
X3940000Y-5235000D02*
X3910000Y-5265000D01*
X3910000Y-5335000D02*
X3940000Y-5365000D01*
X3940000Y-5335000D02*
X3910000Y-5365000D01*
X4010000Y-5035000D02*
X4040000Y-5065000D01*
X4040000Y-5035000D02*
X4010000Y-5065000D01*
X4010000Y-5135000D02*
X4040000Y-5165000D01*
X4040000Y-5135000D02*
X4010000Y-5165000D01*
X4010000Y-5235000D02*
X4040000Y-5265000D01*
X4040000Y-5235000D02*
X4010000Y-5265000D01*
X4010000Y-5335000D02*
X4040000Y-5365000D01*
X4040000Y-5335000D02*
X4010000Y-5365000D01*
X4035000Y-7185000D02*
X4065000Y-7215000D01*
X4065000Y-7185000D02*
X4035000Y-7215000D01*
X4035000Y-7285000D02*
X4065000Y-7315000D01*
X4065000Y-7285000D02*
X4035000Y-7315000D01*
X4035000Y-7385000D02*
X4065000Y-7415000D01*
X4065000Y-7385000D02*
X4035000Y-7415000D01*
X4035000Y-7485000D02*
X4065000Y-7515000D01*
X4065000Y-7485000D02*
X4035000Y-7515000D01*
X4110000Y-5035000D02*
X4140000Y-5065000D01*
X4140000Y-5035000D02*
X4110000Y-5065000D01*
X4110000Y-5135000D02*
X4140000Y-5165000D01*
X4140000Y-5135000D02*
X4110000Y-5165000D01*
X4110000Y-5235000D02*
X4140000Y-5265000D01*
X4140000Y-5235000D02*
X4110000Y-5265000D01*
X4110000Y-5335000D02*
X4140000Y-5365000D01*
X4140000Y-5335000D02*
X4110000Y-5365000D01*
X4135000Y-7185000D02*
X4165000Y-7215000D01*
X4165000Y-7185000D02*
X4135000Y-7215000D01*
X4135000Y-7285000D02*
X4165000Y-7315000D01*
X4165000Y-7285000D02*
X4135000Y-7315000D01*
X4135000Y-7385000D02*
X4165000Y-7415000D01*
X4165000Y-7385000D02*
X4135000Y-7415000D01*
X4135000Y-7485000D02*
X4165000Y-7515000D01*
X4165000Y-7485000D02*
X4135000Y-7515000D01*
X4210000Y-5035000D02*
X4240000Y-5065000D01*
X4240000Y-5035000D02*
X4210000Y-5065000D01*
X4210000Y-5135000D02*
X4240000Y-5165000D01*
X4240000Y-5135000D02*
X4210000Y-5165000D01*
X4210000Y-5235000D02*
X4240000Y-5265000D01*
X4240000Y-5235000D02*
X4210000Y-5265000D01*
X4210000Y-5335000D02*
X4240000Y-5365000D01*
X4240000Y-5335000D02*
X4210000Y-5365000D01*
X4235000Y-7185000D02*
X4265000Y-7215000D01*
X4265000Y-7185000D02*
X4235000Y-7215000D01*
X4235000Y-7285000D02*
X4265000Y-7315000D01*
X4265000Y-7285000D02*
X4235000Y-7315000D01*
X4235000Y-7385000D02*
X4265000Y-7415000D01*
X4265000Y-7385000D02*
X4235000Y-7415000D01*
X4235000Y-7485000D02*
X4265000Y-7515000D01*
X4265000Y-7485000D02*
X4235000Y-7515000D01*
X4310000Y-5035000D02*
X4340000Y-5065000D01*
X4340000Y-5035000D02*
X4310000Y-5065000D01*
X4310000Y-5135000D02*
X4340000Y-5165000D01*
X4340000Y-5135000D02*
X4310000Y-5165000D01*
X4310000Y-5235000D02*
X4340000Y-5265000D01*
X4340000Y-5235000D02*
X4310000Y-5265000D01*
X4310000Y-5335000D02*
X4340000Y-5365000D01*
X4340000Y-5335000D02*
X4310000Y-5365000D01*
X4335000Y-7185000D02*
X4365000Y-7215000D01*
X4365000Y-7185000D02*
X4335000Y-7215000D01*
X4335000Y-7285000D02*
X4365000Y-7315000D01*
X4365000Y-7285000D02*
X4335000Y-7315000D01*
X4335000Y-7385000D02*
X4365000Y-7415000D01*
X4365000Y-7385000D02*
X4335000Y-7415000D01*
X4335000Y-7485000D02*
X4365000Y-7515000D01*
X4365000Y-7485000D02*
X4335000Y-7515000D01*
X4410000Y-5035000D02*
X4440000Y-5065000D01*
X4440000Y-5035000D02*
X4410000Y-5065000D01*
X4410000Y-5135000D02*
X4440000Y-5165000D01*
X4440000Y-5135000D02*
X4410000Y-5165000D01*
X4410000Y-5235000D02*
X4440000Y-5265000D01*
X4440000Y-5235000D02*
X4410000Y-5265000D01*
X4410000Y-5335000D02*
X4440000Y-5365000D01*
X4440000Y-5335000D02*
X4410000Y-5365000D01*
X4435000Y-7185000D02*
X4465000Y-7215000D01*
X4465000Y-7185000D02*
X4435000Y-7215000D01*
X4435000Y-7285000D02*
X4465000Y-7315000D01*
X4465000Y-7285000D02*
X4435000Y-7315000D01*
X4435000Y-7385000D02*
X4465000Y-7415000D01*
X4465000Y-7385000D02*
X4435000Y-7415000D01*
X4435000Y-7485000D02*
X4465000Y-7515000D01*
X4465000Y-7485000D02*
X4435000Y-7515000D01*
X4510000Y-5035000D02*
X4540000Y-5065000D01*
X4540000Y-5035000D02*
X4510000Y-5065000D01*
X4510000Y-5135000D02*
X4540000Y-5165000D01*
X4540000Y-5135000D02*
X4510000Y-5165000D01*
X4510000Y-5235000D02*
X4540000Y-5265000D01*
X4540000Y-5235000D02*
X4510000Y-5265000D01*
X4510000Y-5335000D02*
X4540000Y-5365000D01*
X4540000Y-5335000D02*
X4510000Y-5365000D01*
X4535000Y-7185000D02*
X4565000Y-7215000D01*
X4565000Y-7185000D02*
X4535000Y-7215000D01*
X4535000Y-7285000D02*
X4565000Y-7315000D01*
X4565000Y-7285000D02*
X4535000Y-7315000D01*
X4535000Y-7385000D02*
X4565000Y-7415000D01*
X4565000Y-7385000D02*
X4535000Y-7415000D01*
X4535000Y-7485000D02*
X4565000Y-7515000D01*
X4565000Y-7485000D02*
X4535000Y-7515000D01*
X4610000Y-5035000D02*
X4640000Y-5065000D01*
X4640000Y-5035000D02*
X4610000Y-5065000D01*
X4610000Y-5135000D02*
X4640000Y-5165000D01*
X4640000Y-5135000D02*
X4610000Y-5165000D01*
X4610000Y-5235000D02*
X4640000Y-5265000D01*
X4640000Y-5235000D02*
X4610000Y-5265000D01*
X4610000Y-5335000D02*
X4640000Y-5365000D01*
X4640000Y-5335000D02*
X4610000Y-5365000D01*
X4635000Y-7185000D02*
X4665000Y-7215000D01*
X4665000Y-7185000D02*
X4635000Y-7215000D01*
X4635000Y-7285000D02*
X4665000Y-7315000D01*
X4665000Y-7285000D02*
X4635000Y-7315000D01*
X4635000Y-7385000D02*
X4665000Y-7415000D01*
X4665000Y-7385000D02*
X4635000Y-7415000D01*
X4635000Y-7485000D02*
X4665000Y-7515000D01*
X4665000Y-7485000D02*
X4635000Y-7515000D01*
X4710000Y-5035000D02*
X4740000Y-5065000D01*
X4740000Y-5035000D02*
X4710000Y-5065000D01*
X4710000Y-5135000D02*
X4740000Y-5165000D01*
X4740000Y-5135000D02*
X4710000Y-5165000D01*
X4710000Y-5235000D02*
X4740000Y-5265000D01*
X4740000Y-5235000D02*
X4710000Y-5265000D01*
X4710000Y-5335000D02*
X4740000Y-5365000D01*
X4740000Y-5335000D02*
X4710000Y-5365000D01*
X4735000Y-7185000D02*
X4765000Y-7215000D01*
X4765000Y-7185000D02*
X4735000Y-7215000D01*
X4735000Y-7285000D02*
X4765000Y-7315000D01*
X4765000Y-7285000D02*
X4735000Y-7315000D01*
X4735000Y-7385000D02*
X4765000Y-7415000D01*
X4765000Y-7385000D02*
X4735000Y-7415000D01*
X4735000Y-7485000D02*
X4765000Y-7515000D01*
X4765000Y-7485000D02*
X4735000Y-7515000D01*
X4810000Y-5035000D02*
X4840000Y-5065000D01*
X4840000Y-5035000D02*
X4810000Y-5065000D01*
X4810000Y-5135000D02*
X4840000Y-5165000D01*
X4840000Y-5135000D02*
X4810000Y-5165000D01*
X4810000Y-5235000D02*
X4840000Y-5265000D01*
X4840000Y-5235000D02*
X4810000Y-5265000D01*
X4810000Y-5335000D02*
X4840000Y-5365000D01*
X4840000Y-5335000D02*
X4810000Y-5365000D01*
X4835000Y-7185000D02*
X4865000Y-7215000D01*
X4865000Y-7185000D02*
X4835000Y-7215000D01*
X4835000Y-7285000D02*
X4865000Y-7315000D01*
X4865000Y-7285000D02*
X4835000Y-7315000D01*
X4835000Y-7385000D02*
X4865000Y-7415000D01*
X4865000Y-7385000D02*
X4835000Y-7415000D01*
X4835000Y-7485000D02*
X4865000Y-7515000D01*
X4865000Y-7485000D02*
X4835000Y-7515000D01*
X4910000Y-5035000D02*
X4940000Y-5065000D01*
X4940000Y-5035000D02*
X4910000Y-5065000D01*
X4910000Y-5135000D02*
X4940000Y-5165000D01*
X4940000Y-5135000D02*
X4910000Y-5165000D01*
X4910000Y-5235000D02*
X4940000Y-5265000D01*
X4940000Y-5235000D02*
X4910000Y-5265000D01*
X4910000Y-5335000D02*
X4940000Y-5365000D01*
X4940000Y-5335000D02*
X4910000Y-5365000D01*
X4935000Y-7185000D02*
X4965000Y-7215000D01*
X4965000Y-7185000D02*
X4935000Y-7215000D01*
X4935000Y-7285000D02*
X4965000Y-7315000D01*
X4965000Y-7285000D02*
X4935000Y-7315000D01*
X4935000Y-7385000D02*
X4965000Y-7415000D01*
X4965000Y-7385000D02*
X4935000Y-7415000D01*
X4935000Y-7485000D02*
X4965000Y-7515000D01*
X4965000Y-7485000D02*
X4935000Y-7515000D01*
X5010000Y-5035000D02*
X5040000Y-5065000D01*
X5040000Y-5035000D02*
X5010000Y-5065000D01*
X5010000Y-5135000D02*
X5040000Y-5165000D01*
X5040000Y-5135000D02*
X5010000Y-5165000D01*
X5010000Y-5235000D02*
X5040000Y-5265000D01*
X5040000Y-5235000D02*
X5010000Y-5265000D01*
X5010000Y-5335000D02*
X5040000Y-5365000D01*
X5040000Y-5335000D02*
X5010000Y-5365000D01*
X5035000Y-7185000D02*
X5065000Y-7215000D01*
X5065000Y-7185000D02*
X5035000Y-7215000D01*
X5035000Y-7285000D02*
X5065000Y-7315000D01*
X5065000Y-7285000D02*
X5035000Y-7315000D01*
X5035000Y-7385000D02*
X5065000Y-7415000D01*
X5065000Y-7385000D02*
X5035000Y-7415000D01*
X5035000Y-7485000D02*
X5065000Y-7515000D01*
X5065000Y-7485000D02*
X5035000Y-7515000D01*
X5110000Y-5035000D02*
X5140000Y-5065000D01*
X5140000Y-5035000D02*
X5110000Y-5065000D01*
X5110000Y-5135000D02*
X5140000Y-5165000D01*
X5140000Y-5135000D02*
X5110000Y-5165000D01*
X5110000Y-5235000D02*
X5140000Y-5265000D01*
X5140000Y-5235000D02*
X5110000Y-5265000D01*
X5110000Y-5335000D02*
X5140000Y-5365000D01*
X5140000Y-5335000D02*
X5110000Y-5365000D01*
X5135000Y-7185000D02*
X5165000Y-7215000D01*
X5165000Y-7185000D02*
X5135000Y-7215000D01*
X5135000Y-7285000D02*
X5165000Y-7315000D01*
X5165000Y-7285000D02*
X5135000Y-7315000D01*
X5135000Y-7385000D02*
X5165000Y-7415000D01*
X5165000Y-7385000D02*
X5135000Y-7415000D01*
X5135000Y-7485000D02*
X5165000Y-7515000D01*
X5165000Y-7485000D02*
X5135000Y-7515000D01*
X5210000Y-5035000D02*
X5240000Y-5065000D01*
X5240000Y-5035000D02*
X5210000Y-5065000D01*
X5210000Y-5135000D02*
X5240000Y-5165000D01*
X5240000Y-5135000D02*
X5210000Y-5165000D01*
X5210000Y-5235000D02*
X5240000Y-5265000D01*
X5240000Y-5235000D02*
X5210000Y-5265000D01*
X5210000Y-5335000D02*
X5240000Y-5365000D01*
X5240000Y-5335000D02*
X5210000Y-5365000D01*
X5235000Y-7185000D02*
X5265000Y-7215000D01*
X5265000Y-7185000D02*
X5235000Y-7215000D01*
X5235000Y-7285000D02*
X5265000Y-7315000D01*
X5265000Y-7285000D02*
X5235000Y-7315000D01*
X5235000Y-7385000D02*
X5265000Y-7415000D01*
X5265000Y-7385000D02*
X5235000Y-7415000D01*
X5235000Y-7485000D02*
X5265000Y-7515000D01*
X5265000Y-7485000D02*
X5235000Y-7515000D01*
X5310000Y-5035000D02*
X5340000Y-5065000D01*
X5340000Y-5035000D02*
X5310000Y-5065000D01*
X5310000Y-5135000D02*
X5340000Y-5165000D01*
X5340000Y-5135000D02*
X5310000Y-5165000D01*
X5310000Y-5235000D02*
X5340000Y-5265000D01*
X5340000Y-5235000D02*
X5310000Y-5265000D01*
X5310000Y-5335000D02*
X5340000Y-5365000D01*
X5340000Y-5335000D02*
X5310000Y-5365000D01*
X5335000Y-7185000D02*
X5365000Y-7215000D01*
X5365000Y-7185000D02*
X5335000Y-7215000D01*
X5335000Y-7285000D02*
X5365000Y-7315000D01*
X5365000Y-7285000D02*
X5335000Y-7315000D01*
X5335000Y-7385000D02*
X5365000Y-7415000D01*
X5365000Y-7385000D02*
X5335000Y-7415000D01*
X5335000Y-7485000D02*
X5365000Y-7515000D01*
X5365000Y-7485000D02*
X5335000Y-7515000D01*
X5410000Y-5035000D02*
X5440000Y-5065000D01*
X5440000Y-5035000D02*
X5410000Y-5065000D01*
X5410000Y-5135000D02*
X5440000Y-5165000D01*
X5440000Y-5135000D02*
X5410000Y-5165000D01*
X5410000Y-5235000D02*
X5440000Y-5265000D01*
X5440000Y-5235000D02*
X5410000Y-5265000D01*
X5410000Y-5335000D02*
X5440000Y-5365000D01*
X5440000Y-5335000D02*
X5410000Y-5365000D01*
X5435000Y-7185000D02*
X5465000Y-7215000D01*
X5465000Y-7185000D02*
X5435000Y-7215000D01*
X5435000Y-7285000D02*
X5465000Y-7315000D01*
X5465000Y-7285000D02*
X5435000Y-7315000D01*
X5435000Y-7385000D02*
X5465000Y-7415000D01*
X5465000Y-7385000D02*
X5435000Y-7415000D01*
X5435000Y-7485000D02*
X5465000Y-7515000D01*
X5465000Y-7485000D02*
X5435000Y-7515000D01*
X5510000Y-5035000D02*
X5540000Y-5065000D01*
X5540000Y-5035000D02*
X5510000Y-5065000D01*
X5510000Y-5135000D02*
X5540000Y-5165000D01*
X5540000Y-5135000D02*
X5510000Y-5165000D01*
X5510000Y-5235000D02*
X5540000Y-5265000D01*
X5540000Y-5235000D02*
X5510000Y-5265000D01*
X5510000Y-5335000D02*
X5540000Y-5365000D01*
X5540000Y-5335000D02*
X5510000Y-5365000D01*
X5535000Y-7185000D02*
X5565000Y-7215000D01*
X5565000Y-7185000D02*
X5535000Y-7215000D01*
X5535000Y-7285000D02*
X5565000Y-7315000D01*
X5565000Y-7285000D02*
X5535000Y-7315000D01*
X5535000Y-7385000D02*
X5565000Y-7415000D01*
X5565000Y-7385000D02*
X5535000Y-7415000D01*
X5535000Y-7485000D02*
X5565000Y-7515000D01*
X5565000Y-7485000D02*
X5535000Y-7515000D01*
X5610000Y-5035000D02*
X5640000Y-5065000D01*
X5640000Y-5035000D02*
X5610000Y-5065000D01*
X5610000Y-5135000D02*
X5640000Y-5165000D01*
X5640000Y-5135000D02*
X5610000Y-5165000D01*
X5610000Y-5235000D02*
X5640000Y-5265000D01*
X5640000Y-5235000D02*
X5610000Y-5265000D01*
X5610000Y-5335000D02*
X5640000Y-5365000D01*
X5640000Y-5335000D02*
X5610000Y-5365000D01*
X5635000Y-7185000D02*
X5665000Y-7215000D01*
X5665000Y-7185000D02*
X5635000Y-7215000D01*
X5635000Y-7285000D02*
X5665000Y-7315000D01*
X5665000Y-7285000D02*
X5635000Y-7315000D01*
X5635000Y-7385000D02*
X5665000Y-7415000D01*
X5665000Y-7385000D02*
X5635000Y-7415000D01*
X5635000Y-7485000D02*
X5665000Y-7515000D01*
X5665000Y-7485000D02*
X5635000Y-7515000D01*
X5710000Y-5035000D02*
X5740000Y-5065000D01*
X5740000Y-5035000D02*
X5710000Y-5065000D01*
X5710000Y-5135000D02*
X5740000Y-5165000D01*
X5740000Y-5135000D02*
X5710000Y-5165000D01*
X5710000Y-5235000D02*
X5740000Y-5265000D01*
X5740000Y-5235000D02*
X5710000Y-5265000D01*
X5710000Y-5335000D02*
X5740000Y-5365000D01*
X5740000Y-5335000D02*
X5710000Y-5365000D01*
X5735000Y-7185000D02*
X5765000Y-7215000D01*
X5765000Y-7185000D02*
X5735000Y-7215000D01*
X5735000Y-7285000D02*
X5765000Y-7315000D01*
X5765000Y-7285000D02*
X5735000Y-7315000D01*
X5735000Y-7385000D02*
X5765000Y-7415000D01*
X5765000Y-7385000D02*
X5735000Y-7415000D01*
X5735000Y-7485000D02*
X5765000Y-7515000D01*
X5765000Y-7485000D02*
X5735000Y-7515000D01*
X5810000Y-5035000D02*
X5840000Y-5065000D01*
X5840000Y-5035000D02*
X5810000Y-5065000D01*
X5810000Y-5135000D02*
X5840000Y-5165000D01*
X5840000Y-5135000D02*
X5810000Y-5165000D01*
X5810000Y-5235000D02*
X5840000Y-5265000D01*
X5840000Y-5235000D02*
X5810000Y-5265000D01*
X5810000Y-5335000D02*
X5840000Y-5365000D01*
X5840000Y-5335000D02*
X5810000Y-5365000D01*
X5835000Y-7185000D02*
X5865000Y-7215000D01*
X5865000Y-7185000D02*
X5835000Y-7215000D01*
X5835000Y-7285000D02*
X5865000Y-7315000D01*
X5865000Y-7285000D02*
X5835000Y-7315000D01*
X5835000Y-7385000D02*
X5865000Y-7415000D01*
X5865000Y-7385000D02*
X5835000Y-7415000D01*
X5835000Y-7485000D02*
X5865000Y-7515000D01*
X5865000Y-7485000D02*
X5835000Y-7515000D01*
X5910000Y-5035000D02*
X5940000Y-5065000D01*
X5940000Y-5035000D02*
X5910000Y-5065000D01*
X5910000Y-5135000D02*
X5940000Y-5165000D01*
X5940000Y-5135000D02*
X5910000Y-5165000D01*
X5910000Y-5235000D02*
X5940000Y-5265000D01*
X5940000Y-5235000D02*
X5910000Y-5265000D01*
X5910000Y-5335000D02*
X5940000Y-5365000D01*
X5940000Y-5335000D02*
X5910000Y-5365000D01*
X5935000Y-7185000D02*
X5965000Y-7215000D01*
X5965000Y-7185000D02*
X5935000Y-7215000D01*
X5935000Y-7285000D02*
X5965000Y-7315000D01*
X5965000Y-7285000D02*
X5935000Y-7315000D01*
X5935000Y-7385000D02*
X5965000Y-7415000D01*
X5965000Y-7385000D02*
X5935000Y-7415000D01*
X5935000Y-7485000D02*
X5965000Y-7515000D01*
X5965000Y-7485000D02*
X5935000Y-7515000D01*
X6010000Y-5035000D02*
X6040000Y-5065000D01*
X6040000Y-5035000D02*
X6010000Y-5065000D01*
X6010000Y-5135000D02*
X6040000Y-5165000D01*
X6040000Y-5135000D02*
X6010000Y-5165000D01*
X6010000Y-5235000D02*
X6040000Y-5265000D01*
X6040000Y-5235000D02*
X6010000Y-5265000D01*
X6010000Y-5335000D02*
X6040000Y-5365000D01*
X6040000Y-5335000D02*
X6010000Y-5365000D01*
X6035000Y-7185000D02*
X6065000Y-7215000D01*
X6065000Y-7185000D02*
X6035000Y-7215000D01*
X6035000Y-7285000D02*
X6065000Y-7315000D01*
X6065000Y-7285000D02*
X6035000Y-7315000D01*
X6035000Y-7385000D02*
X6065000Y-7415000D01*
X6065000Y-7385000D02*
X6035000Y-7415000D01*
X6035000Y-7485000D02*
X6065000Y-7515000D01*
X6065000Y-7485000D02*
X6035000Y-7515000D01*
X6110000Y-5035000D02*
X6140000Y-5065000D01*
X6140000Y-5035000D02*
X6110000Y-5065000D01*
X6110000Y-5135000D02*
X6140000Y-5165000D01*
X6140000Y-5135000D02*
X6110000Y-5165000D01*
X6110000Y-5235000D02*
X6140000Y-5265000D01*
X6140000Y-5235000D02*
X6110000Y-5265000D01*
X6110000Y-5335000D02*
X6140000Y-5365000D01*
X6140000Y-5335000D02*
X6110000Y-5365000D01*
X6135000Y-7185000D02*
X6165000Y-7215000D01*
X6165000Y-7185000D02*
X6135000Y-7215000D01*
X6135000Y-7285000D02*
X6165000Y-7315000D01*
X6165000Y-7285000D02*
X6135000Y-7315000D01*
X6135000Y-7385000D02*
X6165000Y-7415000D01*
X6165000Y-7385000D02*
X6135000Y-7415000D01*
X6135000Y-7485000D02*
X6165000Y-7515000D01*
X6165000Y-7485000D02*
X6135000Y-7515000D01*
X6210000Y-5035000D02*
X6240000Y-5065000D01*
X6240000Y-5035000D02*
X6210000Y-5065000D01*
X6210000Y-5135000D02*
X6240000Y-5165000D01*
X6240000Y-5135000D02*
X6210000Y-5165000D01*
X6210000Y-5235000D02*
X6240000Y-5265000D01*
X6240000Y-5235000D02*
X6210000Y-5265000D01*
X6210000Y-5335000D02*
X6240000Y-5365000D01*
X6240000Y-5335000D02*
X6210000Y-5365000D01*
X6235000Y-7185000D02*
X6265000Y-7215000D01*
X6265000Y-7185000D02*
X6235000Y-7215000D01*
X6235000Y-7285000D02*
X6265000Y-7315000D01*
X6265000Y-7285000D02*
X6235000Y-7315000D01*
X6235000Y-7385000D02*
X6265000Y-7415000D01*
X6265000Y-7385000D02*
X6235000Y-7415000D01*
X6235000Y-7485000D02*
X6265000Y-7515000D01*
X6265000Y-7485000D02*
X6235000Y-7515000D01*
X6310000Y-5035000D02*
X6340000Y-5065000D01*
X6340000Y-5035000D02*
X6310000Y-5065000D01*
X6310000Y-5135000D02*
X6340000Y-5165000D01*
X6340000Y-5135000D02*
X6310000Y-5165000D01*
X6310000Y-5235000D02*
X6340000Y-5265000D01*
X6340000Y-5235000D02*
X6310000Y-5265000D01*
X6310000Y-5335000D02*
X6340000Y-5365000D01*
X6340000Y-5335000D02*
X6310000Y-5365000D01*
X6335000Y-7185000D02*
X6365000Y-7215000D01*
X6365000Y-7185000D02*
X6335000Y-7215000D01*
X6335000Y-7285000D02*
X6365000Y-7315000D01*
X6365000Y-7285000D02*
X6335000Y-7315000D01*
X6335000Y-7385000D02*
X6365000Y-7415000D01*
X6365000Y-7385000D02*
X6335000Y-7415000D01*
X6335000Y-7485000D02*
X6365000Y-7515000D01*
X6365000Y-7485000D02*
X6335000Y-7515000D01*
X6410000Y-5035000D02*
X6440000Y-5065000D01*
X6440000Y-5035000D02*
X6410000Y-5065000D01*
X6410000Y-5135000D02*
X6440000Y-5165000D01*
X6440000Y-5135000D02*
X6410000Y-5165000D01*
X6410000Y-5235000D02*
X6440000Y-5265000D01*
X6440000Y-5235000D02*
X6410000Y-5265000D01*
X6410000Y-5335000D02*
X6440000Y-5365000D01*
X6440000Y-5335000D02*
X6410000Y-5365000D01*
X6510000Y-5035000D02*
X6540000Y-5065000D01*
X6540000Y-5035000D02*
X6510000Y-5065000D01*
X6510000Y-5135000D02*
X6540000Y-5165000D01*
X6540000Y-5135000D02*
X6510000Y-5165000D01*
X6510000Y-5235000D02*
X6540000Y-5265000D01*
X6540000Y-5235000D02*
X6510000Y-5265000D01*
X6510000Y-5335000D02*
X6540000Y-5365000D01*
X6540000Y-5335000D02*
X6510000Y-5365000D01*
X6610000Y-5035000D02*
X6640000Y-5065000D01*
X6640000Y-5035000D02*
X6610000Y-5065000D01*
X6610000Y-5135000D02*
X6640000Y-5165000D01*
X6640000Y-5135000D02*
X6610000Y-5165000D01*
X6610000Y-5235000D02*
X6640000Y-5265000D01*
X6640000Y-5235000D02*
X6610000Y-5265000D01*
X6610000Y-5335000D02*
X6640000Y-5365000D01*
X6640000Y-5335000D02*
X6610000Y-5365000D01*
X6760000Y-8585000D02*
X6790000Y-8615000D01*
X6790000Y-8585000D02*
X6760000Y-8615000D01*
X6760000Y-8685000D02*
X6790000Y-8715000D01*
X6790000Y-8685000D02*
X6760000Y-8715000D01*
X6760000Y-8785000D02*
X6790000Y-8815000D01*
X6790000Y-8785000D02*
X6760000Y-8815000D01*
X6760000Y-8885000D02*
X6790000Y-8915000D01*
X6790000Y-8885000D02*
X6760000Y-8915000D01*
X6760000Y-8985000D02*
X6790000Y-9015000D01*
X6790000Y-8985000D02*
X6760000Y-9015000D01*
X6760000Y-9085000D02*
X6790000Y-9115000D01*
X6790000Y-9085000D02*
X6760000Y-9115000D01*
X6760000Y-9185000D02*
X6790000Y-9215000D01*
X6790000Y-9185000D02*
X6760000Y-9215000D01*
X6760000Y-9285000D02*
X6790000Y-9315000D01*
X6790000Y-9285000D02*
X6760000Y-9315000D01*
X6760000Y-9385000D02*
X6790000Y-9415000D01*
X6790000Y-9385000D02*
X6760000Y-9415000D01*
X6760000Y-9485000D02*
X6790000Y-9515000D01*
X6790000Y-9485000D02*
X6760000Y-9515000D01*
X6760000Y-9585000D02*
X6790000Y-9615000D01*
X6790000Y-9585000D02*
X6760000Y-9615000D01*
X6760000Y-9685000D02*
X6790000Y-9715000D01*
X6790000Y-9685000D02*
X6760000Y-9715000D01*
X6760000Y-9785000D02*
X6790000Y-9815000D01*
X6790000Y-9785000D02*
X6760000Y-9815000D01*
X6760000Y-9885000D02*
X6790000Y-9915000D01*
X6790000Y-9885000D02*
X6760000Y-9915000D01*
X6760000Y-9985000D02*
X6790000Y-10015000D01*
X6790000Y-9985000D02*
X6760000Y-10015000D01*
X6760000Y-10085000D02*
X6790000Y-10115000D01*
X6790000Y-10085000D02*
X6760000Y-10115000D01*
X6860000Y-8585000D02*
X6890000Y-8615000D01*
X6890000Y-8585000D02*
X6860000Y-8615000D01*
X6860000Y-8685000D02*
X6890000Y-8715000D01*
X6890000Y-8685000D02*
X6860000Y-8715000D01*
X6860000Y-8785000D02*
X6890000Y-8815000D01*
X6890000Y-8785000D02*
X6860000Y-8815000D01*
X6860000Y-8885000D02*
X6890000Y-8915000D01*
X6890000Y-8885000D02*
X6860000Y-8915000D01*
X6860000Y-8985000D02*
X6890000Y-9015000D01*
X6890000Y-8985000D02*
X6860000Y-9015000D01*
X6860000Y-9085000D02*
X6890000Y-9115000D01*
X6890000Y-9085000D02*
X6860000Y-9115000D01*
X6860000Y-9185000D02*
X6890000Y-9215000D01*
X6890000Y-9185000D02*
X6860000Y-9215000D01*
X6860000Y-9285000D02*
X6890000Y-9315000D01*
X6890000Y-9285000D02*
X6860000Y-9315000D01*
X6860000Y-9385000D02*
X6890000Y-9415000D01*
X6890000Y-9385000D02*
X6860000Y-9415000D01*
X6860000Y-9485000D02*
X6890000Y-9515000D01*
X6890000Y-9485000D02*
X6860000Y-9515000D01*
X6860000Y-9585000D02*
X6890000Y-9615000D01*
X6890000Y-9585000D02*
X6860000Y-9615000D01*
X6860000Y-9685000D02*
X6890000Y-9715000D01*
X6890000Y-9685000D02*
X6860000Y-9715000D01*
X6860000Y-9785000D02*
X6890000Y-9815000D01*
X6890000Y-9785000D02*
X6860000Y-9815000D01*
X6860000Y-9885000D02*
X6890000Y-9915000D01*
X6890000Y-9885000D02*
X6860000Y-9915000D01*
X6860000Y-9985000D02*
X6890000Y-10015000D01*
X6890000Y-9985000D02*
X6860000Y-10015000D01*
X6860000Y-10085000D02*
X6890000Y-10115000D01*
X6890000Y-10085000D02*
X6860000Y-10115000D01*
X6960000Y-8585000D02*
X6990000Y-8615000D01*
X6990000Y-8585000D02*
X6960000Y-8615000D01*
X6960000Y-8685000D02*
X6990000Y-8715000D01*
X6990000Y-8685000D02*
X6960000Y-8715000D01*
X6960000Y-8785000D02*
X6990000Y-8815000D01*
X6990000Y-8785000D02*
X6960000Y-8815000D01*
X6960000Y-8885000D02*
X6990000Y-8915000D01*
X6990000Y-8885000D02*
X6960000Y-8915000D01*
X6960000Y-8985000D02*
X6990000Y-9015000D01*
X6990000Y-8985000D02*
X6960000Y-9015000D01*
X6960000Y-9085000D02*
X6990000Y-9115000D01*
X6990000Y-9085000D02*
X6960000Y-9115000D01*
X6960000Y-9185000D02*
X6990000Y-9215000D01*
X6990000Y-9185000D02*
X6960000Y-9215000D01*
X6960000Y-9285000D02*
X6990000Y-9315000D01*
X6990000Y-9285000D02*
X6960000Y-9315000D01*
X6960000Y-9385000D02*
X6990000Y-9415000D01*
X6990000Y-9385000D02*
X6960000Y-9415000D01*
X6960000Y-9485000D02*
X6990000Y-9515000D01*
X6990000Y-9485000D02*
X6960000Y-9515000D01*
X6960000Y-9585000D02*
X6990000Y-9615000D01*
X6990000Y-9585000D02*
X6960000Y-9615000D01*
X6960000Y-9685000D02*
X6990000Y-9715000D01*
X6990000Y-9685000D02*
X6960000Y-9715000D01*
X6960000Y-9785000D02*
X6990000Y-9815000D01*
X6990000Y-9785000D02*
X6960000Y-9815000D01*
X6960000Y-9885000D02*
X6990000Y-9915000D01*
X6990000Y-9885000D02*
X6960000Y-9915000D01*
X6960000Y-9985000D02*
X6990000Y-10015000D01*
X6990000Y-9985000D02*
X6960000Y-10015000D01*
X6960000Y-10085000D02*
X6990000Y-10115000D01*
X6990000Y-10085000D02*
X6960000Y-10115000D01*
X7060000Y-8585000D02*
X7090000Y-8615000D01*
X7090000Y-8585000D02*
X7060000Y-8615000D01*
X7060000Y-8685000D02*
X7090000Y-8715000D01*
X7090000Y-8685000D02*
X7060000Y-8715000D01*
X7060000Y-8785000D02*
X7090000Y-8815000D01*
X7090000Y-8785000D02*
X7060000Y-8815000D01*
X7060000Y-8885000D02*
X7090000Y-8915000D01*
X7090000Y-8885000D02*
X7060000Y-8915000D01*
X7060000Y-8985000D02*
X7090000Y-9015000D01*
X7090000Y-8985000D02*
X7060000Y-9015000D01*
X7060000Y-9085000D02*
X7090000Y-9115000D01*
X7090000Y-9085000D02*
X7060000Y-9115000D01*
X7060000Y-9185000D02*
X7090000Y-9215000D01*
X7090000Y-9185000D02*
X7060000Y-9215000D01*
X7060000Y-9285000D02*
X7090000Y-9315000D01*
X7090000Y-9285000D02*
X7060000Y-9315000D01*
X7060000Y-9385000D02*
X7090000Y-9415000D01*
X7090000Y-9385000D02*
X7060000Y-9415000D01*
X7060000Y-9485000D02*
X7090000Y-9515000D01*
X7090000Y-9485000D02*
X7060000Y-9515000D01*
X7060000Y-9585000D02*
X7090000Y-9615000D01*
X7090000Y-9585000D02*
X7060000Y-9615000D01*
X7060000Y-9685000D02*
X7090000Y-9715000D01*
X7090000Y-9685000D02*
X7060000Y-9715000D01*
X7060000Y-9785000D02*
X7090000Y-9815000D01*
X7090000Y-9785000D02*
X7060000Y-9815000D01*
X7060000Y-9885000D02*
X7090000Y-9915000D01*
X7090000Y-9885000D02*
X7060000Y-9915000D01*
X7060000Y-9985000D02*
X7090000Y-10015000D01*
X7090000Y-9985000D02*
X7060000Y-10015000D01*
X7060000Y-10085000D02*
X7090000Y-10115000D01*
X7090000Y-10085000D02*
X7060000Y-10115000D01*
X7210000Y-7885000D02*
X7240000Y-7915000D01*
X7240000Y-7885000D02*
X7210000Y-7915000D01*
X7335000Y-7985000D02*
X7365000Y-8015000D01*
X7365000Y-7985000D02*
X7335000Y-8015000D01*
X7335000Y-8085000D02*
X7365000Y-8115000D01*
X7365000Y-8085000D02*
X7335000Y-8115000D01*
X7335000Y-8185000D02*
X7365000Y-8215000D01*
X7365000Y-8185000D02*
X7335000Y-8215000D01*
X7335000Y-8285000D02*
X7365000Y-8315000D01*
X7365000Y-8285000D02*
X7335000Y-8315000D01*
X7435000Y-7985000D02*
X7465000Y-8015000D01*
X7465000Y-7985000D02*
X7435000Y-8015000D01*
X7435000Y-8085000D02*
X7465000Y-8115000D01*
X7465000Y-8085000D02*
X7435000Y-8115000D01*
X7435000Y-8185000D02*
X7465000Y-8215000D01*
X7465000Y-8185000D02*
X7435000Y-8215000D01*
X7435000Y-8285000D02*
X7465000Y-8315000D01*
X7465000Y-8285000D02*
X7435000Y-8315000D01*
X7535000Y-7985000D02*
X7565000Y-8015000D01*
X7565000Y-7985000D02*
X7535000Y-8015000D01*
X7535000Y-8085000D02*
X7565000Y-8115000D01*
X7565000Y-8085000D02*
X7535000Y-8115000D01*
X7535000Y-8185000D02*
X7565000Y-8215000D01*
X7565000Y-8185000D02*
X7535000Y-8215000D01*
X7535000Y-8285000D02*
X7565000Y-8315000D01*
X7565000Y-8285000D02*
X7535000Y-8315000D01*
X7635000Y-7985000D02*
X7665000Y-8015000D01*
X7665000Y-7985000D02*
X7635000Y-8015000D01*
X7635000Y-8085000D02*
X7665000Y-8115000D01*
X7665000Y-8085000D02*
X7635000Y-8115000D01*
X7635000Y-8185000D02*
X7665000Y-8215000D01*
X7665000Y-8185000D02*
X7635000Y-8215000D01*
X7635000Y-8285000D02*
X7665000Y-8315000D01*
X7665000Y-8285000D02*
X7635000Y-8315000D01*
X7735000Y-7985000D02*
X7765000Y-8015000D01*
X7765000Y-7985000D02*
X7735000Y-8015000D01*
X7735000Y-8085000D02*
X7765000Y-8115000D01*
X7765000Y-8085000D02*
X7735000Y-8115000D01*
X7735000Y-8185000D02*
X7765000Y-8215000D01*
X7765000Y-8185000D02*
X7735000Y-8215000D01*
X7735000Y-8285000D02*
X7765000Y-8315000D01*
X7765000Y-8285000D02*
X7735000Y-8315000D01*
X7835000Y-7985000D02*
X7865000Y-8015000D01*
X7865000Y-7985000D02*
X7835000Y-8015000D01*
X7835000Y-8085000D02*
X7865000Y-8115000D01*
X7865000Y-8085000D02*
X7835000Y-8115000D01*
X7835000Y-8185000D02*
X7865000Y-8215000D01*
X7865000Y-8185000D02*
X7835000Y-8215000D01*
X7835000Y-8285000D02*
X7865000Y-8315000D01*
X7865000Y-8285000D02*
X7835000Y-8315000D01*
X7837000Y-7885000D02*
X7867000Y-7915000D01*
X7867000Y-7885000D02*
X7837000Y-7915000D01*
X7935000Y-7985000D02*
X7965000Y-8015000D01*
X7965000Y-7985000D02*
X7935000Y-8015000D01*
X7935000Y-8085000D02*
X7965000Y-8115000D01*
X7965000Y-8085000D02*
X7935000Y-8115000D01*
X7935000Y-8185000D02*
X7965000Y-8215000D01*
X7965000Y-8185000D02*
X7935000Y-8215000D01*
X7935000Y-8285000D02*
X7965000Y-8315000D01*
X7965000Y-8285000D02*
X7935000Y-8315000D01*
X8035000Y-7985000D02*
X8065000Y-8015000D01*
X8065000Y-7985000D02*
X8035000Y-8015000D01*
X8035000Y-8085000D02*
X8065000Y-8115000D01*
X8065000Y-8085000D02*
X8035000Y-8115000D01*
X8035000Y-8185000D02*
X8065000Y-8215000D01*
X8065000Y-8185000D02*
X8035000Y-8215000D01*
X8035000Y-8285000D02*
X8065000Y-8315000D01*
X8065000Y-8285000D02*
X8035000Y-8315000D01*
X8085000Y-7785000D02*
X8115000Y-7815000D01*
X8115000Y-7785000D02*
X8085000Y-7815000D01*
X8110000Y-7485000D02*
X8140000Y-7515000D01*
X8140000Y-7485000D02*
X8110000Y-7515000D01*
X8485000Y-5335000D02*
X8515000Y-5365000D01*
X8515000Y-5335000D02*
X8485000Y-5365000D01*
X8485000Y-5435000D02*
X8515000Y-5465000D01*
X8515000Y-5435000D02*
X8485000Y-5465000D01*
X8485000Y-6385000D02*
X8515000Y-6415000D01*
X8515000Y-6385000D02*
X8485000Y-6415000D01*
X8485000Y-6485000D02*
X8515000Y-6515000D01*
X8515000Y-6485000D02*
X8485000Y-6515000D01*
X8485000Y-6585000D02*
X8515000Y-6615000D01*
X8515000Y-6585000D02*
X8485000Y-6615000D01*
X8485000Y-6685000D02*
X8515000Y-6715000D01*
X8515000Y-6685000D02*
X8485000Y-6715000D01*
X8575000Y-3335000D02*
X8605000Y-3365000D01*
X8605000Y-3335000D02*
X8575000Y-3365000D01*
X8585000Y-5335000D02*
X8615000Y-5365000D01*
X8615000Y-5335000D02*
X8585000Y-5365000D01*
X8585000Y-5435000D02*
X8615000Y-5465000D01*
X8615000Y-5435000D02*
X8585000Y-5465000D01*
X8585000Y-6385000D02*
X8615000Y-6415000D01*
X8615000Y-6385000D02*
X8585000Y-6415000D01*
X8585000Y-6485000D02*
X8615000Y-6515000D01*
X8615000Y-6485000D02*
X8585000Y-6515000D01*
X8585000Y-6585000D02*
X8615000Y-6615000D01*
X8615000Y-6585000D02*
X8585000Y-6615000D01*
X8585000Y-6685000D02*
X8615000Y-6715000D01*
X8615000Y-6685000D02*
X8585000Y-6715000D01*
X8685000Y-5335000D02*
X8715000Y-5365000D01*
X8715000Y-5335000D02*
X8685000Y-5365000D01*
X8685000Y-5435000D02*
X8715000Y-5465000D01*
X8715000Y-5435000D02*
X8685000Y-5465000D01*
X8685000Y-6385000D02*
X8715000Y-6415000D01*
X8715000Y-6385000D02*
X8685000Y-6415000D01*
X8685000Y-6485000D02*
X8715000Y-6515000D01*
X8715000Y-6485000D02*
X8685000Y-6515000D01*
X8685000Y-6585000D02*
X8715000Y-6615000D01*
X8715000Y-6585000D02*
X8685000Y-6615000D01*
X8685000Y-6685000D02*
X8715000Y-6715000D01*
X8715000Y-6685000D02*
X8685000Y-6715000D01*
X8725000Y-3705000D02*
X8755000Y-3735000D01*
X8755000Y-3705000D02*
X8725000Y-3735000D01*
X8785000Y-5335000D02*
X8815000Y-5365000D01*
X8815000Y-5335000D02*
X8785000Y-5365000D01*
X8785000Y-5435000D02*
X8815000Y-5465000D01*
X8815000Y-5435000D02*
X8785000Y-5465000D01*
X8785000Y-6385000D02*
X8815000Y-6415000D01*
X8815000Y-6385000D02*
X8785000Y-6415000D01*
X8785000Y-6485000D02*
X8815000Y-6515000D01*
X8815000Y-6485000D02*
X8785000Y-6515000D01*
X8785000Y-6585000D02*
X8815000Y-6615000D01*
X8815000Y-6585000D02*
X8785000Y-6615000D01*
X8785000Y-6685000D02*
X8815000Y-6715000D01*
X8815000Y-6685000D02*
X8785000Y-6715000D01*
X8810000Y-5185000D02*
X8840000Y-5215000D01*
X8840000Y-5185000D02*
X8810000Y-5215000D01*
X8885000Y-5335000D02*
X8915000Y-5365000D01*
X8915000Y-5335000D02*
X8885000Y-5365000D01*
X8885000Y-5435000D02*
X8915000Y-5465000D01*
X8915000Y-5435000D02*
X8885000Y-5465000D01*
X8960000Y-3185000D02*
X8990000Y-3215000D01*
X8990000Y-3185000D02*
X8960000Y-3215000D01*
X8985000Y-5335000D02*
X9015000Y-5365000D01*
X9015000Y-5335000D02*
X8985000Y-5365000D01*
X8985000Y-5435000D02*
X9015000Y-5465000D01*
X9015000Y-5435000D02*
X8985000Y-5465000D01*
X9060000Y-7485000D02*
X9090000Y-7515000D01*
X9090000Y-7485000D02*
X9060000Y-7515000D01*
X9085000Y-5335000D02*
X9115000Y-5365000D01*
X9115000Y-5335000D02*
X9085000Y-5365000D01*
X9085000Y-5435000D02*
X9115000Y-5465000D01*
X9115000Y-5435000D02*
X9085000Y-5465000D01*
X9185000Y-5335000D02*
X9215000Y-5365000D01*
X9215000Y-5335000D02*
X9185000Y-5365000D01*
X9185000Y-5435000D02*
X9215000Y-5465000D01*
X9215000Y-5435000D02*
X9185000Y-5465000D01*
X9262500Y-3935000D02*
X9292500Y-3965000D01*
X9292500Y-3935000D02*
X9262500Y-3965000D01*
X9262500Y-4035000D02*
X9292500Y-4065000D01*
X9292500Y-4035000D02*
X9262500Y-4065000D01*
X9262500Y-4135000D02*
X9292500Y-4165000D01*
X9292500Y-4135000D02*
X9262500Y-4165000D01*
X9262500Y-4235000D02*
X9292500Y-4265000D01*
X9292500Y-4235000D02*
X9262500Y-4265000D01*
X9262500Y-4335000D02*
X9292500Y-4365000D01*
X9292500Y-4335000D02*
X9262500Y-4365000D01*
X9362500Y-3935000D02*
X9392500Y-3965000D01*
X9392500Y-3935000D02*
X9362500Y-3965000D01*
X9362500Y-4035000D02*
X9392500Y-4065000D01*
X9392500Y-4035000D02*
X9362500Y-4065000D01*
X9362500Y-4135000D02*
X9392500Y-4165000D01*
X9392500Y-4135000D02*
X9362500Y-4165000D01*
X9362500Y-4235000D02*
X9392500Y-4265000D01*
X9392500Y-4235000D02*
X9362500Y-4265000D01*
X9362500Y-4335000D02*
X9392500Y-4365000D01*
X9392500Y-4335000D02*
X9362500Y-4365000D01*
X9462500Y-3935000D02*
X9492500Y-3965000D01*
X9492500Y-3935000D02*
X9462500Y-3965000D01*
X9462500Y-4035000D02*
X9492500Y-4065000D01*
X9492500Y-4035000D02*
X9462500Y-4065000D01*
X9462500Y-4135000D02*
X9492500Y-4165000D01*
X9492500Y-4135000D02*
X9462500Y-4165000D01*
X9462500Y-4235000D02*
X9492500Y-4265000D01*
X9492500Y-4235000D02*
X9462500Y-4265000D01*
X9462500Y-4335000D02*
X9492500Y-4365000D01*
X9492500Y-4335000D02*
X9462500Y-4365000D01*
X9610000Y-3485000D02*
X9640000Y-3515000D01*
X9640000Y-3485000D02*
X9610000Y-3515000D01*
X9710000Y-7485000D02*
X9740000Y-7515000D01*
X9740000Y-7485000D02*
X9710000Y-7515000D01*
X9745000Y-5435000D02*
X9775000Y-5465000D01*
X9775000Y-5435000D02*
X9745000Y-5465000D01*
X9760000Y-6035000D02*
X9790000Y-6065000D01*
X9790000Y-6035000D02*
X9760000Y-6065000D01*
X9760000Y-6135000D02*
X9790000Y-6165000D01*
X9790000Y-6135000D02*
X9760000Y-6165000D01*
X9842500Y-4167500D02*
X9872500Y-4197500D01*
X9872500Y-4167500D02*
X9842500Y-4197500D01*
X9847500Y-4297500D02*
X9877500Y-4327500D01*
X9877500Y-4297500D02*
X9847500Y-4327500D01*
X9860000Y-3777500D02*
X9890000Y-3807500D01*
X9890000Y-3777500D02*
X9860000Y-3807500D01*
X9860000Y-3907500D02*
X9890000Y-3937500D01*
X9890000Y-3907500D02*
X9860000Y-3937500D01*
X9860000Y-4035000D02*
X9890000Y-4065000D01*
X9890000Y-4035000D02*
X9860000Y-4065000D01*
X9960000Y-5435000D02*
X9990000Y-5465000D01*
X9990000Y-5435000D02*
X9960000Y-5465000D01*
X10135000Y-5285000D02*
X10165000Y-5315000D01*
X10165000Y-5285000D02*
X10135000Y-5315000D01*
X10135000Y-5385000D02*
X10165000Y-5415000D01*
X10165000Y-5385000D02*
X10135000Y-5415000D01*
X10135000Y-5485000D02*
X10165000Y-5515000D01*
X10165000Y-5485000D02*
X10135000Y-5515000D01*
X10135000Y-5585000D02*
X10165000Y-5615000D01*
X10165000Y-5585000D02*
X10135000Y-5615000D01*
X10235000Y-3485000D02*
X10265000Y-3515000D01*
X10265000Y-3485000D02*
X10235000Y-3515000D01*
X10235000Y-5285000D02*
X10265000Y-5315000D01*
X10265000Y-5285000D02*
X10235000Y-5315000D01*
X10235000Y-5385000D02*
X10265000Y-5415000D01*
X10265000Y-5385000D02*
X10235000Y-5415000D01*
X10235000Y-5485000D02*
X10265000Y-5515000D01*
X10265000Y-5485000D02*
X10235000Y-5515000D01*
X10235000Y-5585000D02*
X10265000Y-5615000D01*
X10265000Y-5585000D02*
X10235000Y-5615000D01*
X10335000Y-5285000D02*
X10365000Y-5315000D01*
X10365000Y-5285000D02*
X10335000Y-5315000D01*
X10335000Y-5385000D02*
X10365000Y-5415000D01*
X10365000Y-5385000D02*
X10335000Y-5415000D01*
X10335000Y-5485000D02*
X10365000Y-5515000D01*
X10365000Y-5485000D02*
X10335000Y-5515000D01*
X10335000Y-5585000D02*
X10365000Y-5615000D01*
X10365000Y-5585000D02*
X10335000Y-5615000D01*
X10385000Y-4335000D02*
X10415000Y-4365000D01*
X10415000Y-4335000D02*
X10385000Y-4365000D01*
X10385000Y-7785000D02*
X10415000Y-7815000D01*
X10415000Y-7785000D02*
X10385000Y-7815000D01*
X10535000Y-6435000D02*
X10565000Y-6465000D01*
X10565000Y-6435000D02*
X10535000Y-6465000D01*
X10535000Y-6535000D02*
X10565000Y-6565000D01*
X10565000Y-6535000D02*
X10535000Y-6565000D01*
X10535000Y-6635000D02*
X10565000Y-6665000D01*
X10565000Y-6635000D02*
X10535000Y-6665000D01*
X10585000Y-3435000D02*
X10615000Y-3465000D01*
X10615000Y-3435000D02*
X10585000Y-3465000D01*
X10585000Y-3535000D02*
X10615000Y-3565000D01*
X10615000Y-3535000D02*
X10585000Y-3565000D01*
X10635000Y-6435000D02*
X10665000Y-6465000D01*
X10665000Y-6435000D02*
X10635000Y-6465000D01*
X10635000Y-6535000D02*
X10665000Y-6565000D01*
X10665000Y-6535000D02*
X10635000Y-6565000D01*
X10635000Y-6635000D02*
X10665000Y-6665000D01*
X10665000Y-6635000D02*
X10635000Y-6665000D01*
X10685000Y-3435000D02*
X10715000Y-3465000D01*
X10715000Y-3435000D02*
X10685000Y-3465000D01*
X10685000Y-3535000D02*
X10715000Y-3565000D01*
X10715000Y-3535000D02*
X10685000Y-3565000D01*
X10710000Y-3885000D02*
X10740000Y-3915000D01*
X10740000Y-3885000D02*
X10710000Y-3915000D01*
X10735000Y-6435000D02*
X10765000Y-6465000D01*
X10765000Y-6435000D02*
X10735000Y-6465000D01*
X10735000Y-6535000D02*
X10765000Y-6565000D01*
X10765000Y-6535000D02*
X10735000Y-6565000D01*
X10735000Y-6635000D02*
X10765000Y-6665000D01*
X10765000Y-6635000D02*
X10735000Y-6665000D01*
X10785000Y-3435000D02*
X10815000Y-3465000D01*
X10815000Y-3435000D02*
X10785000Y-3465000D01*
X10785000Y-3535000D02*
X10815000Y-3565000D01*
X10815000Y-3535000D02*
X10785000Y-3565000D01*
X10885000Y-3435000D02*
X10915000Y-3465000D01*
X10915000Y-3435000D02*
X10885000Y-3465000D01*
X10885000Y-3535000D02*
X10915000Y-3565000D01*
X10915000Y-3535000D02*
X10885000Y-3565000D01*
X10960000Y-4985000D02*
X10990000Y-5015000D01*
X10990000Y-4985000D02*
X10960000Y-5015000D01*
X10960000Y-5085000D02*
X10990000Y-5115000D01*
X10990000Y-5085000D02*
X10960000Y-5115000D01*
X10960000Y-5185000D02*
X10990000Y-5215000D01*
X10990000Y-5185000D02*
X10960000Y-5215000D01*
X10960000Y-5285000D02*
X10990000Y-5315000D01*
X10990000Y-5285000D02*
X10960000Y-5315000D01*
X11047500Y-7747500D02*
X11077500Y-7777500D01*
X11077500Y-7747500D02*
X11047500Y-7777500D01*
X11060000Y-4985000D02*
X11090000Y-5015000D01*
X11090000Y-4985000D02*
X11060000Y-5015000D01*
X11060000Y-5085000D02*
X11090000Y-5115000D01*
X11090000Y-5085000D02*
X11060000Y-5115000D01*
X11060000Y-5185000D02*
X11090000Y-5215000D01*
X11090000Y-5185000D02*
X11060000Y-5215000D01*
X11060000Y-5285000D02*
X11090000Y-5315000D01*
X11090000Y-5285000D02*
X11060000Y-5315000D01*
X11110000Y-8535000D02*
X11140000Y-8565000D01*
X11140000Y-8535000D02*
X11110000Y-8565000D01*
X11110000Y-8635000D02*
X11140000Y-8665000D01*
X11140000Y-8635000D02*
X11110000Y-8665000D01*
X11110000Y-8735000D02*
X11140000Y-8765000D01*
X11140000Y-8735000D02*
X11110000Y-8765000D01*
X11110000Y-8835000D02*
X11140000Y-8865000D01*
X11140000Y-8835000D02*
X11110000Y-8865000D01*
X11110000Y-8935000D02*
X11140000Y-8965000D01*
X11140000Y-8935000D02*
X11110000Y-8965000D01*
X11110000Y-9035000D02*
X11140000Y-9065000D01*
X11140000Y-9035000D02*
X11110000Y-9065000D01*
X11110000Y-9135000D02*
X11140000Y-9165000D01*
X11140000Y-9135000D02*
X11110000Y-9165000D01*
X11110000Y-9235000D02*
X11140000Y-9265000D01*
X11140000Y-9235000D02*
X11110000Y-9265000D01*
X11110000Y-9335000D02*
X11140000Y-9365000D01*
X11140000Y-9335000D02*
X11110000Y-9365000D01*
X11110000Y-9435000D02*
X11140000Y-9465000D01*
X11140000Y-9435000D02*
X11110000Y-9465000D01*
X11110000Y-9535000D02*
X11140000Y-9565000D01*
X11140000Y-9535000D02*
X11110000Y-9565000D01*
X11110000Y-9635000D02*
X11140000Y-9665000D01*
X11140000Y-9635000D02*
X11110000Y-9665000D01*
X11110000Y-9735000D02*
X11140000Y-9765000D01*
X11140000Y-9735000D02*
X11110000Y-9765000D01*
X11110000Y-9835000D02*
X11140000Y-9865000D01*
X11140000Y-9835000D02*
X11110000Y-9865000D01*
X11110000Y-9935000D02*
X11140000Y-9965000D01*
X11140000Y-9935000D02*
X11110000Y-9965000D01*
X11110000Y-10035000D02*
X11140000Y-10065000D01*
X11140000Y-10035000D02*
X11110000Y-10065000D01*
X11160000Y-4985000D02*
X11190000Y-5015000D01*
X11190000Y-4985000D02*
X11160000Y-5015000D01*
X11160000Y-5085000D02*
X11190000Y-5115000D01*
X11190000Y-5085000D02*
X11160000Y-5115000D01*
X11160000Y-5185000D02*
X11190000Y-5215000D01*
X11190000Y-5185000D02*
X11160000Y-5215000D01*
X11160000Y-5285000D02*
X11190000Y-5315000D01*
X11190000Y-5285000D02*
X11160000Y-5315000D01*
X11160000Y-6635000D02*
X11190000Y-6665000D01*
X11190000Y-6635000D02*
X11160000Y-6665000D01*
X11160000Y-6735000D02*
X11190000Y-6765000D01*
X11190000Y-6735000D02*
X11160000Y-6765000D01*
X11160000Y-6835000D02*
X11190000Y-6865000D01*
X11190000Y-6835000D02*
X11160000Y-6865000D01*
X11160000Y-6935000D02*
X11190000Y-6965000D01*
X11190000Y-6935000D02*
X11160000Y-6965000D01*
X11210000Y-8535000D02*
X11240000Y-8565000D01*
X11240000Y-8535000D02*
X11210000Y-8565000D01*
X11210000Y-8635000D02*
X11240000Y-8665000D01*
X11240000Y-8635000D02*
X11210000Y-8665000D01*
X11210000Y-8735000D02*
X11240000Y-8765000D01*
X11240000Y-8735000D02*
X11210000Y-8765000D01*
X11210000Y-8835000D02*
X11240000Y-8865000D01*
X11240000Y-8835000D02*
X11210000Y-8865000D01*
X11210000Y-8935000D02*
X11240000Y-8965000D01*
X11240000Y-8935000D02*
X11210000Y-8965000D01*
X11210000Y-9035000D02*
X11240000Y-9065000D01*
X11240000Y-9035000D02*
X11210000Y-9065000D01*
X11210000Y-9135000D02*
X11240000Y-9165000D01*
X11240000Y-9135000D02*
X11210000Y-9165000D01*
X11210000Y-9235000D02*
X11240000Y-9265000D01*
X11240000Y-9235000D02*
X11210000Y-9265000D01*
X11210000Y-9335000D02*
X11240000Y-9365000D01*
X11240000Y-9335000D02*
X11210000Y-9365000D01*
X11210000Y-9435000D02*
X11240000Y-9465000D01*
X11240000Y-9435000D02*
X11210000Y-9465000D01*
X11210000Y-9535000D02*
X11240000Y-9565000D01*
X11240000Y-9535000D02*
X11210000Y-9565000D01*
X11210000Y-9635000D02*
X11240000Y-9665000D01*
X11240000Y-9635000D02*
X11210000Y-9665000D01*
X11210000Y-9735000D02*
X11240000Y-9765000D01*
X11240000Y-9735000D02*
X11210000Y-9765000D01*
X11210000Y-9835000D02*
X11240000Y-9865000D01*
X11240000Y-9835000D02*
X11210000Y-9865000D01*
X11210000Y-9935000D02*
X11240000Y-9965000D01*
X11240000Y-9935000D02*
X11210000Y-9965000D01*
X11210000Y-10035000D02*
X11240000Y-10065000D01*
X11240000Y-10035000D02*
X11210000Y-10065000D01*
X11260000Y-4985000D02*
X11290000Y-5015000D01*
X11290000Y-4985000D02*
X11260000Y-5015000D01*
X11260000Y-5085000D02*
X11290000Y-5115000D01*
X11290000Y-5085000D02*
X11260000Y-5115000D01*
X11260000Y-5185000D02*
X11290000Y-5215000D01*
X11290000Y-5185000D02*
X11260000Y-5215000D01*
X11260000Y-5285000D02*
X11290000Y-5315000D01*
X11290000Y-5285000D02*
X11260000Y-5315000D01*
X11260000Y-6635000D02*
X11290000Y-6665000D01*
X11290000Y-6635000D02*
X11260000Y-6665000D01*
X11260000Y-6735000D02*
X11290000Y-6765000D01*
X11290000Y-6735000D02*
X11260000Y-6765000D01*
X11260000Y-6835000D02*
X11290000Y-6865000D01*
X11290000Y-6835000D02*
X11260000Y-6865000D01*
X11260000Y-6935000D02*
X11290000Y-6965000D01*
X11290000Y-6935000D02*
X11260000Y-6965000D01*
X11310000Y-8535000D02*
X11340000Y-8565000D01*
X11340000Y-8535000D02*
X11310000Y-8565000D01*
X11310000Y-8635000D02*
X11340000Y-8665000D01*
X11340000Y-8635000D02*
X11310000Y-8665000D01*
X11310000Y-8735000D02*
X11340000Y-8765000D01*
X11340000Y-8735000D02*
X11310000Y-8765000D01*
X11310000Y-8835000D02*
X11340000Y-8865000D01*
X11340000Y-8835000D02*
X11310000Y-8865000D01*
X11310000Y-8935000D02*
X11340000Y-8965000D01*
X11340000Y-8935000D02*
X11310000Y-8965000D01*
X11310000Y-9035000D02*
X11340000Y-9065000D01*
X11340000Y-9035000D02*
X11310000Y-9065000D01*
X11310000Y-9135000D02*
X11340000Y-9165000D01*
X11340000Y-9135000D02*
X11310000Y-9165000D01*
X11310000Y-9235000D02*
X11340000Y-9265000D01*
X11340000Y-9235000D02*
X11310000Y-9265000D01*
X11310000Y-9335000D02*
X11340000Y-9365000D01*
X11340000Y-9335000D02*
X11310000Y-9365000D01*
X11310000Y-9435000D02*
X11340000Y-9465000D01*
X11340000Y-9435000D02*
X11310000Y-9465000D01*
X11310000Y-9535000D02*
X11340000Y-9565000D01*
X11340000Y-9535000D02*
X11310000Y-9565000D01*
X11310000Y-9635000D02*
X11340000Y-9665000D01*
X11340000Y-9635000D02*
X11310000Y-9665000D01*
X11310000Y-9735000D02*
X11340000Y-9765000D01*
X11340000Y-9735000D02*
X11310000Y-9765000D01*
X11310000Y-9835000D02*
X11340000Y-9865000D01*
X11340000Y-9835000D02*
X11310000Y-9865000D01*
X11310000Y-9935000D02*
X11340000Y-9965000D01*
X11340000Y-9935000D02*
X11310000Y-9965000D01*
X11310000Y-10035000D02*
X11340000Y-10065000D01*
X11340000Y-10035000D02*
X11310000Y-10065000D01*
X11360000Y-4985000D02*
X11390000Y-5015000D01*
X11390000Y-4985000D02*
X11360000Y-5015000D01*
X11360000Y-5085000D02*
X11390000Y-5115000D01*
X11390000Y-5085000D02*
X11360000Y-5115000D01*
X11360000Y-5185000D02*
X11390000Y-5215000D01*
X11390000Y-5185000D02*
X11360000Y-5215000D01*
X11360000Y-5285000D02*
X11390000Y-5315000D01*
X11390000Y-5285000D02*
X11360000Y-5315000D01*
X11360000Y-6635000D02*
X11390000Y-6665000D01*
X11390000Y-6635000D02*
X11360000Y-6665000D01*
X11360000Y-6735000D02*
X11390000Y-6765000D01*
X11390000Y-6735000D02*
X11360000Y-6765000D01*
X11360000Y-6835000D02*
X11390000Y-6865000D01*
X11390000Y-6835000D02*
X11360000Y-6865000D01*
X11360000Y-6935000D02*
X11390000Y-6965000D01*
X11390000Y-6935000D02*
X11360000Y-6965000D01*
X11410000Y-8535000D02*
X11440000Y-8565000D01*
X11440000Y-8535000D02*
X11410000Y-8565000D01*
X11410000Y-8635000D02*
X11440000Y-8665000D01*
X11440000Y-8635000D02*
X11410000Y-8665000D01*
X11410000Y-8735000D02*
X11440000Y-8765000D01*
X11440000Y-8735000D02*
X11410000Y-8765000D01*
X11410000Y-8835000D02*
X11440000Y-8865000D01*
X11440000Y-8835000D02*
X11410000Y-8865000D01*
X11410000Y-8935000D02*
X11440000Y-8965000D01*
X11440000Y-8935000D02*
X11410000Y-8965000D01*
X11410000Y-9035000D02*
X11440000Y-9065000D01*
X11440000Y-9035000D02*
X11410000Y-9065000D01*
X11410000Y-9135000D02*
X11440000Y-9165000D01*
X11440000Y-9135000D02*
X11410000Y-9165000D01*
X11410000Y-9235000D02*
X11440000Y-9265000D01*
X11440000Y-9235000D02*
X11410000Y-9265000D01*
X11410000Y-9335000D02*
X11440000Y-9365000D01*
X11440000Y-9335000D02*
X11410000Y-9365000D01*
X11410000Y-9435000D02*
X11440000Y-9465000D01*
X11440000Y-9435000D02*
X11410000Y-9465000D01*
X11410000Y-9535000D02*
X11440000Y-9565000D01*
X11440000Y-9535000D02*
X11410000Y-9565000D01*
X11410000Y-9635000D02*
X11440000Y-9665000D01*
X11440000Y-9635000D02*
X11410000Y-9665000D01*
X11410000Y-9735000D02*
X11440000Y-9765000D01*
X11440000Y-9735000D02*
X11410000Y-9765000D01*
X11410000Y-9835000D02*
X11440000Y-9865000D01*
X11440000Y-9835000D02*
X11410000Y-9865000D01*
X11410000Y-9935000D02*
X11440000Y-9965000D01*
X11440000Y-9935000D02*
X11410000Y-9965000D01*
X11410000Y-10035000D02*
X11440000Y-10065000D01*
X11440000Y-10035000D02*
X11410000Y-10065000D01*
X11460000Y-4985000D02*
X11490000Y-5015000D01*
X11490000Y-4985000D02*
X11460000Y-5015000D01*
X11460000Y-5085000D02*
X11490000Y-5115000D01*
X11490000Y-5085000D02*
X11460000Y-5115000D01*
X11460000Y-5185000D02*
X11490000Y-5215000D01*
X11490000Y-5185000D02*
X11460000Y-5215000D01*
X11460000Y-5285000D02*
X11490000Y-5315000D01*
X11490000Y-5285000D02*
X11460000Y-5315000D01*
X11460000Y-6635000D02*
X11490000Y-6665000D01*
X11490000Y-6635000D02*
X11460000Y-6665000D01*
X11460000Y-6735000D02*
X11490000Y-6765000D01*
X11490000Y-6735000D02*
X11460000Y-6765000D01*
X11460000Y-6835000D02*
X11490000Y-6865000D01*
X11490000Y-6835000D02*
X11460000Y-6865000D01*
X11460000Y-6935000D02*
X11490000Y-6965000D01*
X11490000Y-6935000D02*
X11460000Y-6965000D01*
X11560000Y-4985000D02*
X11590000Y-5015000D01*
X11590000Y-4985000D02*
X11560000Y-5015000D01*
X11560000Y-5085000D02*
X11590000Y-5115000D01*
X11590000Y-5085000D02*
X11560000Y-5115000D01*
X11560000Y-5185000D02*
X11590000Y-5215000D01*
X11590000Y-5185000D02*
X11560000Y-5215000D01*
X11560000Y-5285000D02*
X11590000Y-5315000D01*
X11590000Y-5285000D02*
X11560000Y-5315000D01*
X11560000Y-6635000D02*
X11590000Y-6665000D01*
X11590000Y-6635000D02*
X11560000Y-6665000D01*
X11560000Y-6735000D02*
X11590000Y-6765000D01*
X11590000Y-6735000D02*
X11560000Y-6765000D01*
X11560000Y-6835000D02*
X11590000Y-6865000D01*
X11590000Y-6835000D02*
X11560000Y-6865000D01*
X11560000Y-6935000D02*
X11590000Y-6965000D01*
X11590000Y-6935000D02*
X11560000Y-6965000D01*
X11660000Y-4985000D02*
X11690000Y-5015000D01*
X11690000Y-4985000D02*
X11660000Y-5015000D01*
X11660000Y-5085000D02*
X11690000Y-5115000D01*
X11690000Y-5085000D02*
X11660000Y-5115000D01*
X11660000Y-5185000D02*
X11690000Y-5215000D01*
X11690000Y-5185000D02*
X11660000Y-5215000D01*
X11660000Y-5285000D02*
X11690000Y-5315000D01*
X11690000Y-5285000D02*
X11660000Y-5315000D01*
X11660000Y-6635000D02*
X11690000Y-6665000D01*
X11690000Y-6635000D02*
X11660000Y-6665000D01*
X11660000Y-6735000D02*
X11690000Y-6765000D01*
X11690000Y-6735000D02*
X11660000Y-6765000D01*
X11660000Y-6835000D02*
X11690000Y-6865000D01*
X11690000Y-6835000D02*
X11660000Y-6865000D01*
X11660000Y-6935000D02*
X11690000Y-6965000D01*
X11690000Y-6935000D02*
X11660000Y-6965000D01*
X11747500Y-7747500D02*
X11777500Y-7777500D01*
X11777500Y-7747500D02*
X11747500Y-7777500D01*
X11760000Y-4985000D02*
X11790000Y-5015000D01*
X11790000Y-4985000D02*
X11760000Y-5015000D01*
X11760000Y-5085000D02*
X11790000Y-5115000D01*
X11790000Y-5085000D02*
X11760000Y-5115000D01*
X11760000Y-5185000D02*
X11790000Y-5215000D01*
X11790000Y-5185000D02*
X11760000Y-5215000D01*
X11760000Y-5285000D02*
X11790000Y-5315000D01*
X11790000Y-5285000D02*
X11760000Y-5315000D01*
X11760000Y-6635000D02*
X11790000Y-6665000D01*
X11790000Y-6635000D02*
X11760000Y-6665000D01*
X11760000Y-6735000D02*
X11790000Y-6765000D01*
X11790000Y-6735000D02*
X11760000Y-6765000D01*
X11760000Y-6835000D02*
X11790000Y-6865000D01*
X11790000Y-6835000D02*
X11760000Y-6865000D01*
X11760000Y-6935000D02*
X11790000Y-6965000D01*
X11790000Y-6935000D02*
X11760000Y-6965000D01*
X11860000Y-4985000D02*
X11890000Y-5015000D01*
X11890000Y-4985000D02*
X11860000Y-5015000D01*
X11860000Y-5085000D02*
X11890000Y-5115000D01*
X11890000Y-5085000D02*
X11860000Y-5115000D01*
X11860000Y-5185000D02*
X11890000Y-5215000D01*
X11890000Y-5185000D02*
X11860000Y-5215000D01*
X11860000Y-5285000D02*
X11890000Y-5315000D01*
X11890000Y-5285000D02*
X11860000Y-5315000D01*
X11860000Y-6635000D02*
X11890000Y-6665000D01*
X11890000Y-6635000D02*
X11860000Y-6665000D01*
X11860000Y-6735000D02*
X11890000Y-6765000D01*
X11890000Y-6735000D02*
X11860000Y-6765000D01*
X11860000Y-6835000D02*
X11890000Y-6865000D01*
X11890000Y-6835000D02*
X11860000Y-6865000D01*
X11860000Y-6935000D02*
X11890000Y-6965000D01*
X11890000Y-6935000D02*
X11860000Y-6965000D01*
X11960000Y-4985000D02*
X11990000Y-5015000D01*
X11990000Y-4985000D02*
X11960000Y-5015000D01*
X11960000Y-5085000D02*
X11990000Y-5115000D01*
X11990000Y-5085000D02*
X11960000Y-5115000D01*
X11960000Y-5185000D02*
X11990000Y-5215000D01*
X11990000Y-5185000D02*
X11960000Y-5215000D01*
X11960000Y-5285000D02*
X11990000Y-5315000D01*
X11990000Y-5285000D02*
X11960000Y-5315000D01*
X11960000Y-6635000D02*
X11990000Y-6665000D01*
X11990000Y-6635000D02*
X11960000Y-6665000D01*
X11960000Y-6735000D02*
X11990000Y-6765000D01*
X11990000Y-6735000D02*
X11960000Y-6765000D01*
X11960000Y-6835000D02*
X11990000Y-6865000D01*
X11990000Y-6835000D02*
X11960000Y-6865000D01*
X11960000Y-6935000D02*
X11990000Y-6965000D01*
X11990000Y-6935000D02*
X11960000Y-6965000D01*
X12060000Y-4985000D02*
X12090000Y-5015000D01*
X12090000Y-4985000D02*
X12060000Y-5015000D01*
X12060000Y-5085000D02*
X12090000Y-5115000D01*
X12090000Y-5085000D02*
X12060000Y-5115000D01*
X12060000Y-5185000D02*
X12090000Y-5215000D01*
X12090000Y-5185000D02*
X12060000Y-5215000D01*
X12060000Y-5285000D02*
X12090000Y-5315000D01*
X12090000Y-5285000D02*
X12060000Y-5315000D01*
X12060000Y-6635000D02*
X12090000Y-6665000D01*
X12090000Y-6635000D02*
X12060000Y-6665000D01*
X12060000Y-6735000D02*
X12090000Y-6765000D01*
X12090000Y-6735000D02*
X12060000Y-6765000D01*
X12060000Y-6835000D02*
X12090000Y-6865000D01*
X12090000Y-6835000D02*
X12060000Y-6865000D01*
X12060000Y-6935000D02*
X12090000Y-6965000D01*
X12090000Y-6935000D02*
X12060000Y-6965000D01*
X12160000Y-4985000D02*
X12190000Y-5015000D01*
X12190000Y-4985000D02*
X12160000Y-5015000D01*
X12160000Y-5085000D02*
X12190000Y-5115000D01*
X12190000Y-5085000D02*
X12160000Y-5115000D01*
X12160000Y-5185000D02*
X12190000Y-5215000D01*
X12190000Y-5185000D02*
X12160000Y-5215000D01*
X12160000Y-5285000D02*
X12190000Y-5315000D01*
X12190000Y-5285000D02*
X12160000Y-5315000D01*
X12160000Y-6635000D02*
X12190000Y-6665000D01*
X12190000Y-6635000D02*
X12160000Y-6665000D01*
X12160000Y-6735000D02*
X12190000Y-6765000D01*
X12190000Y-6735000D02*
X12160000Y-6765000D01*
X12160000Y-6835000D02*
X12190000Y-6865000D01*
X12190000Y-6835000D02*
X12160000Y-6865000D01*
X12160000Y-6935000D02*
X12190000Y-6965000D01*
X12190000Y-6935000D02*
X12160000Y-6965000D01*
X12260000Y-4985000D02*
X12290000Y-5015000D01*
X12290000Y-4985000D02*
X12260000Y-5015000D01*
X12260000Y-5085000D02*
X12290000Y-5115000D01*
X12290000Y-5085000D02*
X12260000Y-5115000D01*
X12260000Y-5185000D02*
X12290000Y-5215000D01*
X12290000Y-5185000D02*
X12260000Y-5215000D01*
X12260000Y-5285000D02*
X12290000Y-5315000D01*
X12290000Y-5285000D02*
X12260000Y-5315000D01*
X12260000Y-6635000D02*
X12290000Y-6665000D01*
X12290000Y-6635000D02*
X12260000Y-6665000D01*
X12260000Y-6735000D02*
X12290000Y-6765000D01*
X12290000Y-6735000D02*
X12260000Y-6765000D01*
X12260000Y-6835000D02*
X12290000Y-6865000D01*
X12290000Y-6835000D02*
X12260000Y-6865000D01*
X12260000Y-6935000D02*
X12290000Y-6965000D01*
X12290000Y-6935000D02*
X12260000Y-6965000D01*
X12360000Y-4985000D02*
X12390000Y-5015000D01*
X12390000Y-4985000D02*
X12360000Y-5015000D01*
X12360000Y-5085000D02*
X12390000Y-5115000D01*
X12390000Y-5085000D02*
X12360000Y-5115000D01*
X12360000Y-5185000D02*
X12390000Y-5215000D01*
X12390000Y-5185000D02*
X12360000Y-5215000D01*
X12360000Y-5285000D02*
X12390000Y-5315000D01*
X12390000Y-5285000D02*
X12360000Y-5315000D01*
X12360000Y-6635000D02*
X12390000Y-6665000D01*
X12390000Y-6635000D02*
X12360000Y-6665000D01*
X12360000Y-6735000D02*
X12390000Y-6765000D01*
X12390000Y-6735000D02*
X12360000Y-6765000D01*
X12360000Y-6835000D02*
X12390000Y-6865000D01*
X12390000Y-6835000D02*
X12360000Y-6865000D01*
X12360000Y-6935000D02*
X12390000Y-6965000D01*
X12390000Y-6935000D02*
X12360000Y-6965000D01*
X12460000Y-4985000D02*
X12490000Y-5015000D01*
X12490000Y-4985000D02*
X12460000Y-5015000D01*
X12460000Y-5085000D02*
X12490000Y-5115000D01*
X12490000Y-5085000D02*
X12460000Y-5115000D01*
X12460000Y-5185000D02*
X12490000Y-5215000D01*
X12490000Y-5185000D02*
X12460000Y-5215000D01*
X12460000Y-5285000D02*
X12490000Y-5315000D01*
X12490000Y-5285000D02*
X12460000Y-5315000D01*
X12460000Y-6635000D02*
X12490000Y-6665000D01*
X12490000Y-6635000D02*
X12460000Y-6665000D01*
X12460000Y-6735000D02*
X12490000Y-6765000D01*
X12490000Y-6735000D02*
X12460000Y-6765000D01*
X12460000Y-6835000D02*
X12490000Y-6865000D01*
X12490000Y-6835000D02*
X12460000Y-6865000D01*
X12460000Y-6935000D02*
X12490000Y-6965000D01*
X12490000Y-6935000D02*
X12460000Y-6965000D01*
X12560000Y-4985000D02*
X12590000Y-5015000D01*
X12590000Y-4985000D02*
X12560000Y-5015000D01*
X12560000Y-5085000D02*
X12590000Y-5115000D01*
X12590000Y-5085000D02*
X12560000Y-5115000D01*
X12560000Y-5185000D02*
X12590000Y-5215000D01*
X12590000Y-5185000D02*
X12560000Y-5215000D01*
X12560000Y-5285000D02*
X12590000Y-5315000D01*
X12590000Y-5285000D02*
X12560000Y-5315000D01*
X12560000Y-6635000D02*
X12590000Y-6665000D01*
X12590000Y-6635000D02*
X12560000Y-6665000D01*
X12560000Y-6735000D02*
X12590000Y-6765000D01*
X12590000Y-6735000D02*
X12560000Y-6765000D01*
X12560000Y-6835000D02*
X12590000Y-6865000D01*
X12590000Y-6835000D02*
X12560000Y-6865000D01*
X12560000Y-6935000D02*
X12590000Y-6965000D01*
X12590000Y-6935000D02*
X12560000Y-6965000D01*
X12660000Y-4985000D02*
X12690000Y-5015000D01*
X12690000Y-4985000D02*
X12660000Y-5015000D01*
X12660000Y-5085000D02*
X12690000Y-5115000D01*
X12690000Y-5085000D02*
X12660000Y-5115000D01*
X12660000Y-5185000D02*
X12690000Y-5215000D01*
X12690000Y-5185000D02*
X12660000Y-5215000D01*
X12660000Y-5285000D02*
X12690000Y-5315000D01*
X12690000Y-5285000D02*
X12660000Y-5315000D01*
X12660000Y-6635000D02*
X12690000Y-6665000D01*
X12690000Y-6635000D02*
X12660000Y-6665000D01*
X12660000Y-6735000D02*
X12690000Y-6765000D01*
X12690000Y-6735000D02*
X12660000Y-6765000D01*
X12660000Y-6835000D02*
X12690000Y-6865000D01*
X12690000Y-6835000D02*
X12660000Y-6865000D01*
X12660000Y-6935000D02*
X12690000Y-6965000D01*
X12690000Y-6935000D02*
X12660000Y-6965000D01*
X12760000Y-4985000D02*
X12790000Y-5015000D01*
X12790000Y-4985000D02*
X12760000Y-5015000D01*
X12760000Y-5085000D02*
X12790000Y-5115000D01*
X12790000Y-5085000D02*
X12760000Y-5115000D01*
X12760000Y-5185000D02*
X12790000Y-5215000D01*
X12790000Y-5185000D02*
X12760000Y-5215000D01*
X12760000Y-5285000D02*
X12790000Y-5315000D01*
X12790000Y-5285000D02*
X12760000Y-5315000D01*
X12760000Y-6635000D02*
X12790000Y-6665000D01*
X12790000Y-6635000D02*
X12760000Y-6665000D01*
X12760000Y-6735000D02*
X12790000Y-6765000D01*
X12790000Y-6735000D02*
X12760000Y-6765000D01*
X12760000Y-6835000D02*
X12790000Y-6865000D01*
X12790000Y-6835000D02*
X12760000Y-6865000D01*
X12760000Y-6935000D02*
X12790000Y-6965000D01*
X12790000Y-6935000D02*
X12760000Y-6965000D01*
X12860000Y-4985000D02*
X12890000Y-5015000D01*
X12890000Y-4985000D02*
X12860000Y-5015000D01*
X12860000Y-5085000D02*
X12890000Y-5115000D01*
X12890000Y-5085000D02*
X12860000Y-5115000D01*
X12860000Y-5185000D02*
X12890000Y-5215000D01*
X12890000Y-5185000D02*
X12860000Y-5215000D01*
X12860000Y-5285000D02*
X12890000Y-5315000D01*
X12890000Y-5285000D02*
X12860000Y-5315000D01*
X12860000Y-6635000D02*
X12890000Y-6665000D01*
X12890000Y-6635000D02*
X12860000Y-6665000D01*
X12860000Y-6735000D02*
X12890000Y-6765000D01*
X12890000Y-6735000D02*
X12860000Y-6765000D01*
X12860000Y-6835000D02*
X12890000Y-6865000D01*
X12890000Y-6835000D02*
X12860000Y-6865000D01*
X12860000Y-6935000D02*
X12890000Y-6965000D01*
X12890000Y-6935000D02*
X12860000Y-6965000D01*
X12960000Y-4985000D02*
X12990000Y-5015000D01*
X12990000Y-4985000D02*
X12960000Y-5015000D01*
X12960000Y-5085000D02*
X12990000Y-5115000D01*
X12990000Y-5085000D02*
X12960000Y-5115000D01*
X12960000Y-5185000D02*
X12990000Y-5215000D01*
X12990000Y-5185000D02*
X12960000Y-5215000D01*
X12960000Y-5285000D02*
X12990000Y-5315000D01*
X12990000Y-5285000D02*
X12960000Y-5315000D01*
X12960000Y-6635000D02*
X12990000Y-6665000D01*
X12990000Y-6635000D02*
X12960000Y-6665000D01*
X12960000Y-6735000D02*
X12990000Y-6765000D01*
X12990000Y-6735000D02*
X12960000Y-6765000D01*
X12960000Y-6835000D02*
X12990000Y-6865000D01*
X12990000Y-6835000D02*
X12960000Y-6865000D01*
X12960000Y-6935000D02*
X12990000Y-6965000D01*
X12990000Y-6935000D02*
X12960000Y-6965000D01*
X13060000Y-4985000D02*
X13090000Y-5015000D01*
X13090000Y-4985000D02*
X13060000Y-5015000D01*
X13060000Y-5085000D02*
X13090000Y-5115000D01*
X13090000Y-5085000D02*
X13060000Y-5115000D01*
X13060000Y-5185000D02*
X13090000Y-5215000D01*
X13090000Y-5185000D02*
X13060000Y-5215000D01*
X13060000Y-5285000D02*
X13090000Y-5315000D01*
X13090000Y-5285000D02*
X13060000Y-5315000D01*
X13060000Y-6635000D02*
X13090000Y-6665000D01*
X13090000Y-6635000D02*
X13060000Y-6665000D01*
X13060000Y-6735000D02*
X13090000Y-6765000D01*
X13090000Y-6735000D02*
X13060000Y-6765000D01*
X13060000Y-6835000D02*
X13090000Y-6865000D01*
X13090000Y-6835000D02*
X13060000Y-6865000D01*
X13060000Y-6935000D02*
X13090000Y-6965000D01*
X13090000Y-6935000D02*
X13060000Y-6965000D01*
X13160000Y-4985000D02*
X13190000Y-5015000D01*
X13190000Y-4985000D02*
X13160000Y-5015000D01*
X13160000Y-5085000D02*
X13190000Y-5115000D01*
X13190000Y-5085000D02*
X13160000Y-5115000D01*
X13160000Y-5185000D02*
X13190000Y-5215000D01*
X13190000Y-5185000D02*
X13160000Y-5215000D01*
X13160000Y-5285000D02*
X13190000Y-5315000D01*
X13190000Y-5285000D02*
X13160000Y-5315000D01*
X13160000Y-6635000D02*
X13190000Y-6665000D01*
X13190000Y-6635000D02*
X13160000Y-6665000D01*
X13160000Y-6735000D02*
X13190000Y-6765000D01*
X13190000Y-6735000D02*
X13160000Y-6765000D01*
X13160000Y-6835000D02*
X13190000Y-6865000D01*
X13190000Y-6835000D02*
X13160000Y-6865000D01*
X13160000Y-6935000D02*
X13190000Y-6965000D01*
X13190000Y-6935000D02*
X13160000Y-6965000D01*
X13260000Y-4985000D02*
X13290000Y-5015000D01*
X13290000Y-4985000D02*
X13260000Y-5015000D01*
X13260000Y-5085000D02*
X13290000Y-5115000D01*
X13290000Y-5085000D02*
X13260000Y-5115000D01*
X13260000Y-5185000D02*
X13290000Y-5215000D01*
X13290000Y-5185000D02*
X13260000Y-5215000D01*
X13260000Y-5285000D02*
X13290000Y-5315000D01*
X13290000Y-5285000D02*
X13260000Y-5315000D01*
X13260000Y-6635000D02*
X13290000Y-6665000D01*
X13290000Y-6635000D02*
X13260000Y-6665000D01*
X13260000Y-6735000D02*
X13290000Y-6765000D01*
X13290000Y-6735000D02*
X13260000Y-6765000D01*
X13260000Y-6835000D02*
X13290000Y-6865000D01*
X13290000Y-6835000D02*
X13260000Y-6865000D01*
X13260000Y-6935000D02*
X13290000Y-6965000D01*
X13290000Y-6935000D02*
X13260000Y-6965000D01*
X13360000Y-4985000D02*
X13390000Y-5015000D01*
X13390000Y-4985000D02*
X13360000Y-5015000D01*
X13360000Y-5085000D02*
X13390000Y-5115000D01*
X13390000Y-5085000D02*
X13360000Y-5115000D01*
X13360000Y-5185000D02*
X13390000Y-5215000D01*
X13390000Y-5185000D02*
X13360000Y-5215000D01*
X13360000Y-5285000D02*
X13390000Y-5315000D01*
X13390000Y-5285000D02*
X13360000Y-5315000D01*
X13360000Y-6635000D02*
X13390000Y-6665000D01*
X13390000Y-6635000D02*
X13360000Y-6665000D01*
X13360000Y-6735000D02*
X13390000Y-6765000D01*
X13390000Y-6735000D02*
X13360000Y-6765000D01*
X13360000Y-6835000D02*
X13390000Y-6865000D01*
X13390000Y-6835000D02*
X13360000Y-6865000D01*
X13360000Y-6935000D02*
X13390000Y-6965000D01*
X13390000Y-6935000D02*
X13360000Y-6965000D01*
X13460000Y-4985000D02*
X13490000Y-5015000D01*
X13490000Y-4985000D02*
X13460000Y-5015000D01*
X13460000Y-5085000D02*
X13490000Y-5115000D01*
X13490000Y-5085000D02*
X13460000Y-5115000D01*
X13460000Y-5185000D02*
X13490000Y-5215000D01*
X13490000Y-5185000D02*
X13460000Y-5215000D01*
X13460000Y-5285000D02*
X13490000Y-5315000D01*
X13490000Y-5285000D02*
X13460000Y-5315000D01*
X13460000Y-6635000D02*
X13490000Y-6665000D01*
X13490000Y-6635000D02*
X13460000Y-6665000D01*
X13460000Y-6735000D02*
X13490000Y-6765000D01*
X13490000Y-6735000D02*
X13460000Y-6765000D01*
X13460000Y-6835000D02*
X13490000Y-6865000D01*
X13490000Y-6835000D02*
X13460000Y-6865000D01*
X13460000Y-6935000D02*
X13490000Y-6965000D01*
X13490000Y-6935000D02*
X13460000Y-6965000D01*
X13560000Y-4985000D02*
X13590000Y-5015000D01*
X13590000Y-4985000D02*
X13560000Y-5015000D01*
X13560000Y-5085000D02*
X13590000Y-5115000D01*
X13590000Y-5085000D02*
X13560000Y-5115000D01*
X13560000Y-5185000D02*
X13590000Y-5215000D01*
X13590000Y-5185000D02*
X13560000Y-5215000D01*
X13560000Y-5285000D02*
X13590000Y-5315000D01*
X13590000Y-5285000D02*
X13560000Y-5315000D01*
X13660000Y-4985000D02*
X13690000Y-5015000D01*
X13690000Y-4985000D02*
X13660000Y-5015000D01*
X13660000Y-5085000D02*
X13690000Y-5115000D01*
X13690000Y-5085000D02*
X13660000Y-5115000D01*
X13660000Y-5185000D02*
X13690000Y-5215000D01*
X13690000Y-5185000D02*
X13660000Y-5215000D01*
X13660000Y-5285000D02*
X13690000Y-5315000D01*
X13690000Y-5285000D02*
X13660000Y-5315000D01*
X13760000Y-4985000D02*
X13790000Y-5015000D01*
X13790000Y-4985000D02*
X13760000Y-5015000D01*
X13760000Y-5085000D02*
X13790000Y-5115000D01*
X13790000Y-5085000D02*
X13760000Y-5115000D01*
X13760000Y-5185000D02*
X13790000Y-5215000D01*
X13790000Y-5185000D02*
X13760000Y-5215000D01*
X13760000Y-5285000D02*
X13790000Y-5315000D01*
X13790000Y-5285000D02*
X13760000Y-5315000D01*
X13860000Y-4985000D02*
X13890000Y-5015000D01*
X13890000Y-4985000D02*
X13860000Y-5015000D01*
X13860000Y-5085000D02*
X13890000Y-5115000D01*
X13890000Y-5085000D02*
X13860000Y-5115000D01*
X13860000Y-5185000D02*
X13890000Y-5215000D01*
X13890000Y-5185000D02*
X13860000Y-5215000D01*
X13860000Y-5285000D02*
X13890000Y-5315000D01*
X13890000Y-5285000D02*
X13860000Y-5315000D01*
X13960000Y-4985000D02*
X13990000Y-5015000D01*
X13990000Y-4985000D02*
X13960000Y-5015000D01*
X13960000Y-5085000D02*
X13990000Y-5115000D01*
X13990000Y-5085000D02*
X13960000Y-5115000D01*
X13960000Y-5185000D02*
X13990000Y-5215000D01*
X13990000Y-5185000D02*
X13960000Y-5215000D01*
X13960000Y-5285000D02*
X13990000Y-5315000D01*
X13990000Y-5285000D02*
X13960000Y-5315000D01*
X14060000Y-4985000D02*
X14090000Y-5015000D01*
X14090000Y-4985000D02*
X14060000Y-5015000D01*
X14060000Y-5085000D02*
X14090000Y-5115000D01*
X14090000Y-5085000D02*
X14060000Y-5115000D01*
X14060000Y-5185000D02*
X14090000Y-5215000D01*
X14090000Y-5185000D02*
X14060000Y-5215000D01*
X14060000Y-5285000D02*
X14090000Y-5315000D01*
X14090000Y-5285000D02*
X14060000Y-5315000D01*
X14160000Y-4985000D02*
X14190000Y-5015000D01*
X14190000Y-4985000D02*
X14160000Y-5015000D01*
X14160000Y-5085000D02*
X14190000Y-5115000D01*
X14190000Y-5085000D02*
X14160000Y-5115000D01*
X14160000Y-5185000D02*
X14190000Y-5215000D01*
X14190000Y-5185000D02*
X14160000Y-5215000D01*
X14160000Y-5285000D02*
X14190000Y-5315000D01*
X14190000Y-5285000D02*
X14160000Y-5315000D01*
X14260000Y-4985000D02*
X14290000Y-5015000D01*
X14290000Y-4985000D02*
X14260000Y-5015000D01*
X14260000Y-5085000D02*
X14290000Y-5115000D01*
X14290000Y-5085000D02*
X14260000Y-5115000D01*
X14260000Y-5185000D02*
X14290000Y-5215000D01*
X14290000Y-5185000D02*
X14260000Y-5215000D01*
X14260000Y-5285000D02*
X14290000Y-5315000D01*
X14290000Y-5285000D02*
X14260000Y-5315000D01*
X14360000Y-4985000D02*
X14390000Y-5015000D01*
X14390000Y-4985000D02*
X14360000Y-5015000D01*
X14360000Y-5085000D02*
X14390000Y-5115000D01*
X14390000Y-5085000D02*
X14360000Y-5115000D01*
X14360000Y-5185000D02*
X14390000Y-5215000D01*
X14390000Y-5185000D02*
X14360000Y-5215000D01*
X14360000Y-5285000D02*
X14390000Y-5315000D01*
X14390000Y-5285000D02*
X14360000Y-5315000D01*
X14460000Y-4985000D02*
X14490000Y-5015000D01*
X14490000Y-4985000D02*
X14460000Y-5015000D01*
X14460000Y-5085000D02*
X14490000Y-5115000D01*
X14490000Y-5085000D02*
X14460000Y-5115000D01*
X14460000Y-5185000D02*
X14490000Y-5215000D01*
X14490000Y-5185000D02*
X14460000Y-5215000D01*
X14460000Y-5285000D02*
X14490000Y-5315000D01*
X14490000Y-5285000D02*
X14460000Y-5315000D01*
X14560000Y-4985000D02*
X14590000Y-5015000D01*
X14590000Y-4985000D02*
X14560000Y-5015000D01*
X14560000Y-5085000D02*
X14590000Y-5115000D01*
X14590000Y-5085000D02*
X14560000Y-5115000D01*
X14560000Y-5185000D02*
X14590000Y-5215000D01*
X14590000Y-5185000D02*
X14560000Y-5215000D01*
X14560000Y-5285000D02*
X14590000Y-5315000D01*
X14590000Y-5285000D02*
X14560000Y-5315000D01*
X14660000Y-4985000D02*
X14690000Y-5015000D01*
X14690000Y-4985000D02*
X14660000Y-5015000D01*
X14660000Y-5085000D02*
X14690000Y-5115000D01*
X14690000Y-5085000D02*
X14660000Y-5115000D01*
X14660000Y-5185000D02*
X14690000Y-5215000D01*
X14690000Y-5185000D02*
X14660000Y-5215000D01*
X14660000Y-5285000D02*
X14690000Y-5315000D01*
X14690000Y-5285000D02*
X14660000Y-5315000D01*
X14760000Y-4985000D02*
X14790000Y-5015000D01*
X14790000Y-4985000D02*
X14760000Y-5015000D01*
X14760000Y-5085000D02*
X14790000Y-5115000D01*
X14790000Y-5085000D02*
X14760000Y-5115000D01*
X14760000Y-5185000D02*
X14790000Y-5215000D01*
X14790000Y-5185000D02*
X14760000Y-5215000D01*
X14760000Y-5285000D02*
X14790000Y-5315000D01*
X14790000Y-5285000D02*
X14760000Y-5315000D01*
X14860000Y-4985000D02*
X14890000Y-5015000D01*
X14890000Y-4985000D02*
X14860000Y-5015000D01*
X14860000Y-5085000D02*
X14890000Y-5115000D01*
X14890000Y-5085000D02*
X14860000Y-5115000D01*
X14860000Y-5185000D02*
X14890000Y-5215000D01*
X14890000Y-5185000D02*
X14860000Y-5215000D01*
X14860000Y-5285000D02*
X14890000Y-5315000D01*
X14890000Y-5285000D02*
X14860000Y-5315000D01*
X4200000Y-4600000D02*
G75*
G02*
X4100000Y-4600000I-50000J0D01*
G01*
X4100000Y-4600000D02*
G75*
G02*
X4200000Y-4600000I50000J0D01*
G01*
X4250000Y-8000000D02*
G75*
G02*
X4150000Y-8000000I-50000J0D01*
G01*
X4150000Y-8000000D02*
G75*
G02*
X4250000Y-8000000I50000J0D01*
G01*
X7000000Y-10450000D02*
G75*
G02*
X6900000Y-10450000I-50000J0D01*
G01*
X6900000Y-10450000D02*
G75*
G02*
X7000000Y-10450000I50000J0D01*
G01*
X11300000Y-10450000D02*
G75*
G02*
X11200000Y-10450000I-50000J0D01*
G01*
X11200000Y-10450000D02*
G75*
G02*
X11300000Y-10450000I50000J0D01*
G01*
X12500000Y-8200000D02*
G75*
G02*
X12400000Y-8200000I-50000J0D01*
G01*
X12400000Y-8200000D02*
G75*
G02*
X12500000Y-8200000I50000J0D01*
G01*
X13400000Y-4600000D02*
G75*
G02*
X13300000Y-4600000I-50000J0D01*
G01*
X13300000Y-4600000D02*
G75*
G02*
X13400000Y-4600000I50000J0D01*
G01*
D13*
X2550002Y-7898950D02*
X2550002Y-8028490D01*
X2485232Y-7963720D02*
X2614772Y-7963720D01*
X3450000Y-7263950D02*
X3450000Y-7393490D01*
X3385230Y-7328720D02*
X3514770Y-7328720D01*
X13924901Y-7956510D02*
X13924901Y-8086050D01*
X13860131Y-8021280D02*
X13989671Y-8021280D01*
X14824899Y-7321510D02*
X14824899Y-7451050D01*
X14760129Y-7386280D02*
X14889669Y-7386280D01*
D14*
X8513389Y-9098389D02*
X8513389Y-8921611D01*
X8336611Y-8921611D01*
X8336611Y-9098389D01*
X8513389Y-9098389D01*
X9863389Y-9988389D02*
X9863389Y-9811611D01*
X9686611Y-9811611D01*
X9686611Y-9988389D01*
X9863389Y-9988389D01*
D15*
X8425000Y-10050000D02*
X8575000Y-9900000D01*
X8425000Y-9750000D01*
X8275000Y-9900000D01*
X8425000Y-10050000D01*
D12*
X8175000Y-10050000D02*
X8675000Y-10050000D01*
X8675000Y-9750000D02*
G75*
G02*
X8675000Y-10050000I0J-150000D01*
G01*
X8675000Y-9750000D02*
X8175000Y-9750000D01*
X8175000Y-9750000D02*
G75*
G03*
X8175000Y-10050000I0J-150000D01*
G01*
D15*
X9775000Y-9160000D02*
X9925000Y-9010000D01*
X9775000Y-8860000D01*
X9625000Y-9010000D01*
X9775000Y-9160000D01*
D12*
X9525000Y-9160000D02*
X10025000Y-9160000D01*
X10025000Y-8860000D02*
G75*
G02*
X10025000Y-9160000I0J-150000D01*
G01*
X10025000Y-8860000D02*
X9525000Y-8860000D01*
X9525000Y-8860000D02*
G75*
G03*
X9525000Y-9160000I0J-150000D01*
G01*
D11*
X2083277Y-11113984D02*
X2083277Y-10913984D01*
X2083277Y-10913984D02*
X2130896Y-10913984D01*
X2130896Y-10913984D02*
X2159467Y-10923508D01*
X2159467Y-10923508D02*
X2178515Y-10942555D01*
X2178515Y-10942555D02*
X2188039Y-10961603D01*
X2188039Y-10961603D02*
X2197563Y-10999698D01*
X2197563Y-10999698D02*
X2197563Y-11028270D01*
X2197563Y-11028270D02*
X2188039Y-11066365D01*
X2188039Y-11066365D02*
X2178515Y-11085412D01*
X2178515Y-11085412D02*
X2159467Y-11104460D01*
X2159467Y-11104460D02*
X2130896Y-11113984D01*
X2130896Y-11113984D02*
X2083277Y-11113984D01*
X2283277Y-11113984D02*
X2283277Y-10980650D01*
X2283277Y-11018746D02*
X2292801Y-10999698D01*
X2292801Y-10999698D02*
X2302324Y-10990174D01*
X2302324Y-10990174D02*
X2321372Y-10980650D01*
X2321372Y-10980650D02*
X2340420Y-10980650D01*
X2407086Y-11113984D02*
X2407086Y-10980650D01*
X2407086Y-10913984D02*
X2397563Y-10923508D01*
X2397563Y-10923508D02*
X2407086Y-10933031D01*
X2407086Y-10933031D02*
X2416610Y-10923508D01*
X2416610Y-10923508D02*
X2407086Y-10913984D01*
X2407086Y-10913984D02*
X2407086Y-10933031D01*
X2530896Y-11113984D02*
X2511848Y-11104460D01*
X2511848Y-11104460D02*
X2502324Y-11085412D01*
X2502324Y-11085412D02*
X2502324Y-10913984D01*
X2635658Y-11113984D02*
X2616610Y-11104460D01*
X2616610Y-11104460D02*
X2607086Y-11085412D01*
X2607086Y-11085412D02*
X2607086Y-10913984D01*
X2864229Y-11113984D02*
X2864229Y-10913984D01*
X2864229Y-10913984D02*
X2930896Y-11056841D01*
X2930896Y-11056841D02*
X2997562Y-10913984D01*
X2997562Y-10913984D02*
X2997562Y-11113984D01*
X3178515Y-11113984D02*
X3178515Y-11009222D01*
X3178515Y-11009222D02*
X3168991Y-10990174D01*
X3168991Y-10990174D02*
X3149943Y-10980650D01*
X3149943Y-10980650D02*
X3111848Y-10980650D01*
X3111848Y-10980650D02*
X3092801Y-10990174D01*
X3178515Y-11104460D02*
X3159467Y-11113984D01*
X3159467Y-11113984D02*
X3111848Y-11113984D01*
X3111848Y-11113984D02*
X3092801Y-11104460D01*
X3092801Y-11104460D02*
X3083277Y-11085412D01*
X3083277Y-11085412D02*
X3083277Y-11066365D01*
X3083277Y-11066365D02*
X3092801Y-11047317D01*
X3092801Y-11047317D02*
X3111848Y-11037793D01*
X3111848Y-11037793D02*
X3159467Y-11037793D01*
X3159467Y-11037793D02*
X3178515Y-11028270D01*
X3273753Y-10980650D02*
X3273753Y-11180650D01*
X3273753Y-10990174D02*
X3292801Y-10980650D01*
X3292801Y-10980650D02*
X3330896Y-10980650D01*
X3330896Y-10980650D02*
X3349943Y-10990174D01*
X3349943Y-10990174D02*
X3359467Y-10999698D01*
X3359467Y-10999698D02*
X3368991Y-11018746D01*
X3368991Y-11018746D02*
X3368991Y-11075889D01*
X3368991Y-11075889D02*
X3359467Y-11094936D01*
X3359467Y-11094936D02*
X3349943Y-11104460D01*
X3349943Y-11104460D02*
X3330896Y-11113984D01*
X3330896Y-11113984D02*
X3292801Y-11113984D01*
X3292801Y-11113984D02*
X3273753Y-11104460D01*
X3454705Y-11094936D02*
X3464229Y-11104460D01*
X3464229Y-11104460D02*
X3454705Y-11113984D01*
X3454705Y-11113984D02*
X3445182Y-11104460D01*
X3445182Y-11104460D02*
X3454705Y-11094936D01*
X3454705Y-11094936D02*
X3454705Y-11113984D01*
X3454705Y-10990174D02*
X3464229Y-10999698D01*
X3464229Y-10999698D02*
X3454705Y-11009222D01*
X3454705Y-11009222D02*
X3445182Y-10999698D01*
X3445182Y-10999698D02*
X3454705Y-10990174D01*
X3454705Y-10990174D02*
X3454705Y-11009222D01*
D12*
X1792500Y-11427500D02*
X1822500Y-11457500D01*
X1822500Y-11427500D02*
X1792500Y-11457500D01*
D11*
X2121372Y-11333984D02*
X2140420Y-11333984D01*
X2140420Y-11333984D02*
X2159467Y-11343508D01*
X2159467Y-11343508D02*
X2168991Y-11353031D01*
X2168991Y-11353031D02*
X2178515Y-11372079D01*
X2178515Y-11372079D02*
X2188039Y-11410174D01*
X2188039Y-11410174D02*
X2188039Y-11457793D01*
X2188039Y-11457793D02*
X2178515Y-11495888D01*
X2178515Y-11495888D02*
X2168991Y-11514936D01*
X2168991Y-11514936D02*
X2159467Y-11524460D01*
X2159467Y-11524460D02*
X2140420Y-11533984D01*
X2140420Y-11533984D02*
X2121372Y-11533984D01*
X2121372Y-11533984D02*
X2102324Y-11524460D01*
X2102324Y-11524460D02*
X2092801Y-11514936D01*
X2092801Y-11514936D02*
X2083277Y-11495888D01*
X2083277Y-11495888D02*
X2073753Y-11457793D01*
X2073753Y-11457793D02*
X2073753Y-11410174D01*
X2073753Y-11410174D02*
X2083277Y-11372079D01*
X2083277Y-11372079D02*
X2092801Y-11353031D01*
X2092801Y-11353031D02*
X2102324Y-11343508D01*
X2102324Y-11343508D02*
X2121372Y-11333984D01*
X2273753Y-11514936D02*
X2283277Y-11524460D01*
X2283277Y-11524460D02*
X2273753Y-11533984D01*
X2273753Y-11533984D02*
X2264229Y-11524460D01*
X2264229Y-11524460D02*
X2273753Y-11514936D01*
X2273753Y-11514936D02*
X2273753Y-11533984D01*
X2349944Y-11333984D02*
X2473753Y-11333984D01*
X2473753Y-11333984D02*
X2407086Y-11410174D01*
X2407086Y-11410174D02*
X2435658Y-11410174D01*
X2435658Y-11410174D02*
X2454705Y-11419698D01*
X2454705Y-11419698D02*
X2464229Y-11429222D01*
X2464229Y-11429222D02*
X2473753Y-11448269D01*
X2473753Y-11448269D02*
X2473753Y-11495888D01*
X2473753Y-11495888D02*
X2464229Y-11514936D01*
X2464229Y-11514936D02*
X2454705Y-11524460D01*
X2454705Y-11524460D02*
X2435658Y-11533984D01*
X2435658Y-11533984D02*
X2378515Y-11533984D01*
X2378515Y-11533984D02*
X2359467Y-11524460D01*
X2359467Y-11524460D02*
X2349944Y-11514936D01*
X2597563Y-11333984D02*
X2616610Y-11333984D01*
X2616610Y-11333984D02*
X2635658Y-11343508D01*
X2635658Y-11343508D02*
X2645182Y-11353031D01*
X2645182Y-11353031D02*
X2654705Y-11372079D01*
X2654705Y-11372079D02*
X2664229Y-11410174D01*
X2664229Y-11410174D02*
X2664229Y-11457793D01*
X2664229Y-11457793D02*
X2654705Y-11495888D01*
X2654705Y-11495888D02*
X2645182Y-11514936D01*
X2645182Y-11514936D02*
X2635658Y-11524460D01*
X2635658Y-11524460D02*
X2616610Y-11533984D01*
X2616610Y-11533984D02*
X2597563Y-11533984D01*
X2597563Y-11533984D02*
X2578515Y-11524460D01*
X2578515Y-11524460D02*
X2568991Y-11514936D01*
X2568991Y-11514936D02*
X2559467Y-11495888D01*
X2559467Y-11495888D02*
X2549944Y-11457793D01*
X2549944Y-11457793D02*
X2549944Y-11410174D01*
X2549944Y-11410174D02*
X2559467Y-11372079D01*
X2559467Y-11372079D02*
X2568991Y-11353031D01*
X2568991Y-11353031D02*
X2578515Y-11343508D01*
X2578515Y-11343508D02*
X2597563Y-11333984D01*
X2788039Y-11333984D02*
X2807086Y-11333984D01*
X2807086Y-11333984D02*
X2826134Y-11343508D01*
X2826134Y-11343508D02*
X2835658Y-11353031D01*
X2835658Y-11353031D02*
X2845182Y-11372079D01*
X2845182Y-11372079D02*
X2854705Y-11410174D01*
X2854705Y-11410174D02*
X2854705Y-11457793D01*
X2854705Y-11457793D02*
X2845182Y-11495888D01*
X2845182Y-11495888D02*
X2835658Y-11514936D01*
X2835658Y-11514936D02*
X2826134Y-11524460D01*
X2826134Y-11524460D02*
X2807086Y-11533984D01*
X2807086Y-11533984D02*
X2788039Y-11533984D01*
X2788039Y-11533984D02*
X2768991Y-11524460D01*
X2768991Y-11524460D02*
X2759467Y-11514936D01*
X2759467Y-11514936D02*
X2749944Y-11495888D01*
X2749944Y-11495888D02*
X2740420Y-11457793D01*
X2740420Y-11457793D02*
X2740420Y-11410174D01*
X2740420Y-11410174D02*
X2749944Y-11372079D01*
X2749944Y-11372079D02*
X2759467Y-11353031D01*
X2759467Y-11353031D02*
X2768991Y-11343508D01*
X2768991Y-11343508D02*
X2788039Y-11333984D01*
X2940420Y-11533984D02*
X2940420Y-11400650D01*
X2940420Y-11419698D02*
X2949943Y-11410174D01*
X2949943Y-11410174D02*
X2968991Y-11400650D01*
X2968991Y-11400650D02*
X2997563Y-11400650D01*
X2997563Y-11400650D02*
X3016610Y-11410174D01*
X3016610Y-11410174D02*
X3026134Y-11429222D01*
X3026134Y-11429222D02*
X3026134Y-11533984D01*
X3026134Y-11429222D02*
X3035658Y-11410174D01*
X3035658Y-11410174D02*
X3054705Y-11400650D01*
X3054705Y-11400650D02*
X3083277Y-11400650D01*
X3083277Y-11400650D02*
X3102324Y-11410174D01*
X3102324Y-11410174D02*
X3111848Y-11429222D01*
X3111848Y-11429222D02*
X3111848Y-11533984D01*
X3207086Y-11533984D02*
X3207086Y-11400650D01*
X3207086Y-11419698D02*
X3216610Y-11410174D01*
X3216610Y-11410174D02*
X3235658Y-11400650D01*
X3235658Y-11400650D02*
X3264229Y-11400650D01*
X3264229Y-11400650D02*
X3283277Y-11410174D01*
X3283277Y-11410174D02*
X3292801Y-11429222D01*
X3292801Y-11429222D02*
X3292801Y-11533984D01*
X3292801Y-11429222D02*
X3302324Y-11410174D01*
X3302324Y-11410174D02*
X3321372Y-11400650D01*
X3321372Y-11400650D02*
X3349943Y-11400650D01*
X3349943Y-11400650D02*
X3368991Y-11410174D01*
X3368991Y-11410174D02*
X3378515Y-11429222D01*
X3378515Y-11429222D02*
X3378515Y-11533984D01*
X3768991Y-11324460D02*
X3597563Y-11581603D01*
X4026134Y-11333984D02*
X4045182Y-11333984D01*
X4045182Y-11333984D02*
X4064229Y-11343508D01*
X4064229Y-11343508D02*
X4073753Y-11353031D01*
X4073753Y-11353031D02*
X4083277Y-11372079D01*
X4083277Y-11372079D02*
X4092801Y-11410174D01*
X4092801Y-11410174D02*
X4092801Y-11457793D01*
X4092801Y-11457793D02*
X4083277Y-11495888D01*
X4083277Y-11495888D02*
X4073753Y-11514936D01*
X4073753Y-11514936D02*
X4064229Y-11524460D01*
X4064229Y-11524460D02*
X4045182Y-11533984D01*
X4045182Y-11533984D02*
X4026134Y-11533984D01*
X4026134Y-11533984D02*
X4007086Y-11524460D01*
X4007086Y-11524460D02*
X3997563Y-11514936D01*
X3997563Y-11514936D02*
X3988039Y-11495888D01*
X3988039Y-11495888D02*
X3978515Y-11457793D01*
X3978515Y-11457793D02*
X3978515Y-11410174D01*
X3978515Y-11410174D02*
X3988039Y-11372079D01*
X3988039Y-11372079D02*
X3997563Y-11353031D01*
X3997563Y-11353031D02*
X4007086Y-11343508D01*
X4007086Y-11343508D02*
X4026134Y-11333984D01*
X4178515Y-11514936D02*
X4188039Y-11524460D01*
X4188039Y-11524460D02*
X4178515Y-11533984D01*
X4178515Y-11533984D02*
X4168991Y-11524460D01*
X4168991Y-11524460D02*
X4178515Y-11514936D01*
X4178515Y-11514936D02*
X4178515Y-11533984D01*
X4311848Y-11333984D02*
X4330896Y-11333984D01*
X4330896Y-11333984D02*
X4349944Y-11343508D01*
X4349944Y-11343508D02*
X4359468Y-11353031D01*
X4359468Y-11353031D02*
X4368991Y-11372079D01*
X4368991Y-11372079D02*
X4378515Y-11410174D01*
X4378515Y-11410174D02*
X4378515Y-11457793D01*
X4378515Y-11457793D02*
X4368991Y-11495888D01*
X4368991Y-11495888D02*
X4359468Y-11514936D01*
X4359468Y-11514936D02*
X4349944Y-11524460D01*
X4349944Y-11524460D02*
X4330896Y-11533984D01*
X4330896Y-11533984D02*
X4311848Y-11533984D01*
X4311848Y-11533984D02*
X4292801Y-11524460D01*
X4292801Y-11524460D02*
X4283277Y-11514936D01*
X4283277Y-11514936D02*
X4273753Y-11495888D01*
X4273753Y-11495888D02*
X4264229Y-11457793D01*
X4264229Y-11457793D02*
X4264229Y-11410174D01*
X4264229Y-11410174D02*
X4273753Y-11372079D01*
X4273753Y-11372079D02*
X4283277Y-11353031D01*
X4283277Y-11353031D02*
X4292801Y-11343508D01*
X4292801Y-11343508D02*
X4311848Y-11333984D01*
X4568991Y-11533984D02*
X4454706Y-11533984D01*
X4511848Y-11533984D02*
X4511848Y-11333984D01*
X4511848Y-11333984D02*
X4492801Y-11362555D01*
X4492801Y-11362555D02*
X4473753Y-11381603D01*
X4473753Y-11381603D02*
X4454706Y-11391127D01*
X4759468Y-11533984D02*
X4645182Y-11533984D01*
X4702325Y-11533984D02*
X4702325Y-11333984D01*
X4702325Y-11333984D02*
X4683277Y-11362555D01*
X4683277Y-11362555D02*
X4664229Y-11381603D01*
X4664229Y-11381603D02*
X4645182Y-11391127D01*
X4873753Y-11419698D02*
X4854706Y-11410174D01*
X4854706Y-11410174D02*
X4845182Y-11400650D01*
X4845182Y-11400650D02*
X4835658Y-11381603D01*
X4835658Y-11381603D02*
X4835658Y-11372079D01*
X4835658Y-11372079D02*
X4845182Y-11353031D01*
X4845182Y-11353031D02*
X4854706Y-11343508D01*
X4854706Y-11343508D02*
X4873753Y-11333984D01*
X4873753Y-11333984D02*
X4911849Y-11333984D01*
X4911849Y-11333984D02*
X4930896Y-11343508D01*
X4930896Y-11343508D02*
X4940420Y-11353031D01*
X4940420Y-11353031D02*
X4949944Y-11372079D01*
X4949944Y-11372079D02*
X4949944Y-11381603D01*
X4949944Y-11381603D02*
X4940420Y-11400650D01*
X4940420Y-11400650D02*
X4930896Y-11410174D01*
X4930896Y-11410174D02*
X4911849Y-11419698D01*
X4911849Y-11419698D02*
X4873753Y-11419698D01*
X4873753Y-11419698D02*
X4854706Y-11429222D01*
X4854706Y-11429222D02*
X4845182Y-11438746D01*
X4845182Y-11438746D02*
X4835658Y-11457793D01*
X4835658Y-11457793D02*
X4835658Y-11495888D01*
X4835658Y-11495888D02*
X4845182Y-11514936D01*
X4845182Y-11514936D02*
X4854706Y-11524460D01*
X4854706Y-11524460D02*
X4873753Y-11533984D01*
X4873753Y-11533984D02*
X4911849Y-11533984D01*
X4911849Y-11533984D02*
X4930896Y-11524460D01*
X4930896Y-11524460D02*
X4940420Y-11514936D01*
X4940420Y-11514936D02*
X4949944Y-11495888D01*
X4949944Y-11495888D02*
X4949944Y-11457793D01*
X4949944Y-11457793D02*
X4940420Y-11438746D01*
X4940420Y-11438746D02*
X4930896Y-11429222D01*
X4930896Y-11429222D02*
X4911849Y-11419698D01*
X5026134Y-11333984D02*
X5026134Y-11372079D01*
X5102325Y-11333984D02*
X5102325Y-11372079D01*
X5397563Y-11610174D02*
X5388039Y-11600650D01*
X5388039Y-11600650D02*
X5368991Y-11572079D01*
X5368991Y-11572079D02*
X5359468Y-11553031D01*
X5359468Y-11553031D02*
X5349944Y-11524460D01*
X5349944Y-11524460D02*
X5340420Y-11476841D01*
X5340420Y-11476841D02*
X5340420Y-11438746D01*
X5340420Y-11438746D02*
X5349944Y-11391127D01*
X5349944Y-11391127D02*
X5359468Y-11362555D01*
X5359468Y-11362555D02*
X5368991Y-11343508D01*
X5368991Y-11343508D02*
X5388039Y-11314936D01*
X5388039Y-11314936D02*
X5397563Y-11305412D01*
X5454706Y-11333984D02*
X5588039Y-11333984D01*
X5588039Y-11333984D02*
X5502325Y-11533984D01*
X5645182Y-11333984D02*
X5778515Y-11333984D01*
X5778515Y-11333984D02*
X5692801Y-11533984D01*
X5940420Y-11400650D02*
X5940420Y-11533984D01*
X5892801Y-11324460D02*
X5845182Y-11467317D01*
X5845182Y-11467317D02*
X5968991Y-11467317D01*
X6197563Y-11533984D02*
X6197563Y-11333984D01*
X6283277Y-11533984D02*
X6283277Y-11429222D01*
X6283277Y-11429222D02*
X6273753Y-11410174D01*
X6273753Y-11410174D02*
X6254706Y-11400650D01*
X6254706Y-11400650D02*
X6226134Y-11400650D01*
X6226134Y-11400650D02*
X6207087Y-11410174D01*
X6207087Y-11410174D02*
X6197563Y-11419698D01*
X6407087Y-11533984D02*
X6388039Y-11524460D01*
X6388039Y-11524460D02*
X6378515Y-11514936D01*
X6378515Y-11514936D02*
X6368991Y-11495888D01*
X6368991Y-11495888D02*
X6368991Y-11438746D01*
X6368991Y-11438746D02*
X6378515Y-11419698D01*
X6378515Y-11419698D02*
X6388039Y-11410174D01*
X6388039Y-11410174D02*
X6407087Y-11400650D01*
X6407087Y-11400650D02*
X6435658Y-11400650D01*
X6435658Y-11400650D02*
X6454706Y-11410174D01*
X6454706Y-11410174D02*
X6464230Y-11419698D01*
X6464230Y-11419698D02*
X6473753Y-11438746D01*
X6473753Y-11438746D02*
X6473753Y-11495888D01*
X6473753Y-11495888D02*
X6464230Y-11514936D01*
X6464230Y-11514936D02*
X6454706Y-11524460D01*
X6454706Y-11524460D02*
X6435658Y-11533984D01*
X6435658Y-11533984D02*
X6407087Y-11533984D01*
X6588039Y-11533984D02*
X6568991Y-11524460D01*
X6568991Y-11524460D02*
X6559468Y-11505412D01*
X6559468Y-11505412D02*
X6559468Y-11333984D01*
X6740420Y-11524460D02*
X6721372Y-11533984D01*
X6721372Y-11533984D02*
X6683277Y-11533984D01*
X6683277Y-11533984D02*
X6664230Y-11524460D01*
X6664230Y-11524460D02*
X6654706Y-11505412D01*
X6654706Y-11505412D02*
X6654706Y-11429222D01*
X6654706Y-11429222D02*
X6664230Y-11410174D01*
X6664230Y-11410174D02*
X6683277Y-11400650D01*
X6683277Y-11400650D02*
X6721372Y-11400650D01*
X6721372Y-11400650D02*
X6740420Y-11410174D01*
X6740420Y-11410174D02*
X6749944Y-11429222D01*
X6749944Y-11429222D02*
X6749944Y-11448269D01*
X6749944Y-11448269D02*
X6654706Y-11467317D01*
X6826134Y-11524460D02*
X6845182Y-11533984D01*
X6845182Y-11533984D02*
X6883277Y-11533984D01*
X6883277Y-11533984D02*
X6902325Y-11524460D01*
X6902325Y-11524460D02*
X6911849Y-11505412D01*
X6911849Y-11505412D02*
X6911849Y-11495888D01*
X6911849Y-11495888D02*
X6902325Y-11476841D01*
X6902325Y-11476841D02*
X6883277Y-11467317D01*
X6883277Y-11467317D02*
X6854706Y-11467317D01*
X6854706Y-11467317D02*
X6835658Y-11457793D01*
X6835658Y-11457793D02*
X6826134Y-11438746D01*
X6826134Y-11438746D02*
X6826134Y-11429222D01*
X6826134Y-11429222D02*
X6835658Y-11410174D01*
X6835658Y-11410174D02*
X6854706Y-11400650D01*
X6854706Y-11400650D02*
X6883277Y-11400650D01*
X6883277Y-11400650D02*
X6902325Y-11410174D01*
X6978515Y-11610174D02*
X6988039Y-11600650D01*
X6988039Y-11600650D02*
X7007087Y-11572079D01*
X7007087Y-11572079D02*
X7016611Y-11553031D01*
X7016611Y-11553031D02*
X7026134Y-11524460D01*
X7026134Y-11524460D02*
X7035658Y-11476841D01*
X7035658Y-11476841D02*
X7035658Y-11438746D01*
X7035658Y-11438746D02*
X7026134Y-11391127D01*
X7026134Y-11391127D02*
X7016611Y-11362555D01*
X7016611Y-11362555D02*
X7007087Y-11343508D01*
X7007087Y-11343508D02*
X6988039Y-11314936D01*
X6988039Y-11314936D02*
X6978515Y-11305412D01*
D12*
X1822500Y-11706500D02*
G75*
G02*
X1722500Y-11706500I-50000J0D01*
G01*
X1722500Y-11706500D02*
G75*
G02*
X1822500Y-11706500I50000J0D01*
G01*
D11*
X2188039Y-11797984D02*
X2073753Y-11797984D01*
X2130896Y-11797984D02*
X2130896Y-11597984D01*
X2130896Y-11597984D02*
X2111848Y-11626555D01*
X2111848Y-11626555D02*
X2092801Y-11645603D01*
X2092801Y-11645603D02*
X2073753Y-11655127D01*
X2273753Y-11778936D02*
X2283277Y-11788460D01*
X2283277Y-11788460D02*
X2273753Y-11797984D01*
X2273753Y-11797984D02*
X2264229Y-11788460D01*
X2264229Y-11788460D02*
X2273753Y-11778936D01*
X2273753Y-11778936D02*
X2273753Y-11797984D01*
X2407086Y-11597984D02*
X2426134Y-11597984D01*
X2426134Y-11597984D02*
X2445182Y-11607508D01*
X2445182Y-11607508D02*
X2454705Y-11617031D01*
X2454705Y-11617031D02*
X2464229Y-11636079D01*
X2464229Y-11636079D02*
X2473753Y-11674174D01*
X2473753Y-11674174D02*
X2473753Y-11721793D01*
X2473753Y-11721793D02*
X2464229Y-11759888D01*
X2464229Y-11759888D02*
X2454705Y-11778936D01*
X2454705Y-11778936D02*
X2445182Y-11788460D01*
X2445182Y-11788460D02*
X2426134Y-11797984D01*
X2426134Y-11797984D02*
X2407086Y-11797984D01*
X2407086Y-11797984D02*
X2388039Y-11788460D01*
X2388039Y-11788460D02*
X2378515Y-11778936D01*
X2378515Y-11778936D02*
X2368991Y-11759888D01*
X2368991Y-11759888D02*
X2359467Y-11721793D01*
X2359467Y-11721793D02*
X2359467Y-11674174D01*
X2359467Y-11674174D02*
X2368991Y-11636079D01*
X2368991Y-11636079D02*
X2378515Y-11617031D01*
X2378515Y-11617031D02*
X2388039Y-11607508D01*
X2388039Y-11607508D02*
X2407086Y-11597984D01*
X2597563Y-11597984D02*
X2616610Y-11597984D01*
X2616610Y-11597984D02*
X2635658Y-11607508D01*
X2635658Y-11607508D02*
X2645182Y-11617031D01*
X2645182Y-11617031D02*
X2654705Y-11636079D01*
X2654705Y-11636079D02*
X2664229Y-11674174D01*
X2664229Y-11674174D02*
X2664229Y-11721793D01*
X2664229Y-11721793D02*
X2654705Y-11759888D01*
X2654705Y-11759888D02*
X2645182Y-11778936D01*
X2645182Y-11778936D02*
X2635658Y-11788460D01*
X2635658Y-11788460D02*
X2616610Y-11797984D01*
X2616610Y-11797984D02*
X2597563Y-11797984D01*
X2597563Y-11797984D02*
X2578515Y-11788460D01*
X2578515Y-11788460D02*
X2568991Y-11778936D01*
X2568991Y-11778936D02*
X2559467Y-11759888D01*
X2559467Y-11759888D02*
X2549944Y-11721793D01*
X2549944Y-11721793D02*
X2549944Y-11674174D01*
X2549944Y-11674174D02*
X2559467Y-11636079D01*
X2559467Y-11636079D02*
X2568991Y-11617031D01*
X2568991Y-11617031D02*
X2578515Y-11607508D01*
X2578515Y-11607508D02*
X2597563Y-11597984D01*
X2788039Y-11597984D02*
X2807086Y-11597984D01*
X2807086Y-11597984D02*
X2826134Y-11607508D01*
X2826134Y-11607508D02*
X2835658Y-11617031D01*
X2835658Y-11617031D02*
X2845182Y-11636079D01*
X2845182Y-11636079D02*
X2854705Y-11674174D01*
X2854705Y-11674174D02*
X2854705Y-11721793D01*
X2854705Y-11721793D02*
X2845182Y-11759888D01*
X2845182Y-11759888D02*
X2835658Y-11778936D01*
X2835658Y-11778936D02*
X2826134Y-11788460D01*
X2826134Y-11788460D02*
X2807086Y-11797984D01*
X2807086Y-11797984D02*
X2788039Y-11797984D01*
X2788039Y-11797984D02*
X2768991Y-11788460D01*
X2768991Y-11788460D02*
X2759467Y-11778936D01*
X2759467Y-11778936D02*
X2749944Y-11759888D01*
X2749944Y-11759888D02*
X2740420Y-11721793D01*
X2740420Y-11721793D02*
X2740420Y-11674174D01*
X2740420Y-11674174D02*
X2749944Y-11636079D01*
X2749944Y-11636079D02*
X2759467Y-11617031D01*
X2759467Y-11617031D02*
X2768991Y-11607508D01*
X2768991Y-11607508D02*
X2788039Y-11597984D01*
X2940420Y-11797984D02*
X2940420Y-11664650D01*
X2940420Y-11683698D02*
X2949943Y-11674174D01*
X2949943Y-11674174D02*
X2968991Y-11664650D01*
X2968991Y-11664650D02*
X2997563Y-11664650D01*
X2997563Y-11664650D02*
X3016610Y-11674174D01*
X3016610Y-11674174D02*
X3026134Y-11693222D01*
X3026134Y-11693222D02*
X3026134Y-11797984D01*
X3026134Y-11693222D02*
X3035658Y-11674174D01*
X3035658Y-11674174D02*
X3054705Y-11664650D01*
X3054705Y-11664650D02*
X3083277Y-11664650D01*
X3083277Y-11664650D02*
X3102324Y-11674174D01*
X3102324Y-11674174D02*
X3111848Y-11693222D01*
X3111848Y-11693222D02*
X3111848Y-11797984D01*
X3207086Y-11797984D02*
X3207086Y-11664650D01*
X3207086Y-11683698D02*
X3216610Y-11674174D01*
X3216610Y-11674174D02*
X3235658Y-11664650D01*
X3235658Y-11664650D02*
X3264229Y-11664650D01*
X3264229Y-11664650D02*
X3283277Y-11674174D01*
X3283277Y-11674174D02*
X3292801Y-11693222D01*
X3292801Y-11693222D02*
X3292801Y-11797984D01*
X3292801Y-11693222D02*
X3302324Y-11674174D01*
X3302324Y-11674174D02*
X3321372Y-11664650D01*
X3321372Y-11664650D02*
X3349943Y-11664650D01*
X3349943Y-11664650D02*
X3368991Y-11674174D01*
X3368991Y-11674174D02*
X3378515Y-11693222D01*
X3378515Y-11693222D02*
X3378515Y-11797984D01*
X3768991Y-11588460D02*
X3597563Y-11845603D01*
X4026134Y-11597984D02*
X4045182Y-11597984D01*
X4045182Y-11597984D02*
X4064229Y-11607508D01*
X4064229Y-11607508D02*
X4073753Y-11617031D01*
X4073753Y-11617031D02*
X4083277Y-11636079D01*
X4083277Y-11636079D02*
X4092801Y-11674174D01*
X4092801Y-11674174D02*
X4092801Y-11721793D01*
X4092801Y-11721793D02*
X4083277Y-11759888D01*
X4083277Y-11759888D02*
X4073753Y-11778936D01*
X4073753Y-11778936D02*
X4064229Y-11788460D01*
X4064229Y-11788460D02*
X4045182Y-11797984D01*
X4045182Y-11797984D02*
X4026134Y-11797984D01*
X4026134Y-11797984D02*
X4007086Y-11788460D01*
X4007086Y-11788460D02*
X3997563Y-11778936D01*
X3997563Y-11778936D02*
X3988039Y-11759888D01*
X3988039Y-11759888D02*
X3978515Y-11721793D01*
X3978515Y-11721793D02*
X3978515Y-11674174D01*
X3978515Y-11674174D02*
X3988039Y-11636079D01*
X3988039Y-11636079D02*
X3997563Y-11617031D01*
X3997563Y-11617031D02*
X4007086Y-11607508D01*
X4007086Y-11607508D02*
X4026134Y-11597984D01*
X4178515Y-11778936D02*
X4188039Y-11788460D01*
X4188039Y-11788460D02*
X4178515Y-11797984D01*
X4178515Y-11797984D02*
X4168991Y-11788460D01*
X4168991Y-11788460D02*
X4178515Y-11778936D01*
X4178515Y-11778936D02*
X4178515Y-11797984D01*
X4311848Y-11597984D02*
X4330896Y-11597984D01*
X4330896Y-11597984D02*
X4349944Y-11607508D01*
X4349944Y-11607508D02*
X4359468Y-11617031D01*
X4359468Y-11617031D02*
X4368991Y-11636079D01*
X4368991Y-11636079D02*
X4378515Y-11674174D01*
X4378515Y-11674174D02*
X4378515Y-11721793D01*
X4378515Y-11721793D02*
X4368991Y-11759888D01*
X4368991Y-11759888D02*
X4359468Y-11778936D01*
X4359468Y-11778936D02*
X4349944Y-11788460D01*
X4349944Y-11788460D02*
X4330896Y-11797984D01*
X4330896Y-11797984D02*
X4311848Y-11797984D01*
X4311848Y-11797984D02*
X4292801Y-11788460D01*
X4292801Y-11788460D02*
X4283277Y-11778936D01*
X4283277Y-11778936D02*
X4273753Y-11759888D01*
X4273753Y-11759888D02*
X4264229Y-11721793D01*
X4264229Y-11721793D02*
X4264229Y-11674174D01*
X4264229Y-11674174D02*
X4273753Y-11636079D01*
X4273753Y-11636079D02*
X4283277Y-11617031D01*
X4283277Y-11617031D02*
X4292801Y-11607508D01*
X4292801Y-11607508D02*
X4311848Y-11597984D01*
X4445182Y-11597984D02*
X4568991Y-11597984D01*
X4568991Y-11597984D02*
X4502325Y-11674174D01*
X4502325Y-11674174D02*
X4530896Y-11674174D01*
X4530896Y-11674174D02*
X4549944Y-11683698D01*
X4549944Y-11683698D02*
X4559468Y-11693222D01*
X4559468Y-11693222D02*
X4568991Y-11712269D01*
X4568991Y-11712269D02*
X4568991Y-11759888D01*
X4568991Y-11759888D02*
X4559468Y-11778936D01*
X4559468Y-11778936D02*
X4549944Y-11788460D01*
X4549944Y-11788460D02*
X4530896Y-11797984D01*
X4530896Y-11797984D02*
X4473753Y-11797984D01*
X4473753Y-11797984D02*
X4454706Y-11788460D01*
X4454706Y-11788460D02*
X4445182Y-11778936D01*
X4664229Y-11797984D02*
X4702325Y-11797984D01*
X4702325Y-11797984D02*
X4721372Y-11788460D01*
X4721372Y-11788460D02*
X4730896Y-11778936D01*
X4730896Y-11778936D02*
X4749944Y-11750365D01*
X4749944Y-11750365D02*
X4759468Y-11712269D01*
X4759468Y-11712269D02*
X4759468Y-11636079D01*
X4759468Y-11636079D02*
X4749944Y-11617031D01*
X4749944Y-11617031D02*
X4740420Y-11607508D01*
X4740420Y-11607508D02*
X4721372Y-11597984D01*
X4721372Y-11597984D02*
X4683277Y-11597984D01*
X4683277Y-11597984D02*
X4664229Y-11607508D01*
X4664229Y-11607508D02*
X4654706Y-11617031D01*
X4654706Y-11617031D02*
X4645182Y-11636079D01*
X4645182Y-11636079D02*
X4645182Y-11683698D01*
X4645182Y-11683698D02*
X4654706Y-11702746D01*
X4654706Y-11702746D02*
X4664229Y-11712269D01*
X4664229Y-11712269D02*
X4683277Y-11721793D01*
X4683277Y-11721793D02*
X4721372Y-11721793D01*
X4721372Y-11721793D02*
X4740420Y-11712269D01*
X4740420Y-11712269D02*
X4749944Y-11702746D01*
X4749944Y-11702746D02*
X4759468Y-11683698D01*
X4930896Y-11664650D02*
X4930896Y-11797984D01*
X4883277Y-11588460D02*
X4835658Y-11731317D01*
X4835658Y-11731317D02*
X4959468Y-11731317D01*
X5026134Y-11597984D02*
X5026134Y-11636079D01*
X5102325Y-11597984D02*
X5102325Y-11636079D01*
X5397563Y-11874174D02*
X5388039Y-11864650D01*
X5388039Y-11864650D02*
X5368991Y-11836079D01*
X5368991Y-11836079D02*
X5359468Y-11817031D01*
X5359468Y-11817031D02*
X5349944Y-11788460D01*
X5349944Y-11788460D02*
X5340420Y-11740841D01*
X5340420Y-11740841D02*
X5340420Y-11702746D01*
X5340420Y-11702746D02*
X5349944Y-11655127D01*
X5349944Y-11655127D02*
X5359468Y-11626555D01*
X5359468Y-11626555D02*
X5368991Y-11607508D01*
X5368991Y-11607508D02*
X5388039Y-11578936D01*
X5388039Y-11578936D02*
X5397563Y-11569412D01*
X5559468Y-11597984D02*
X5521372Y-11597984D01*
X5521372Y-11597984D02*
X5502325Y-11607508D01*
X5502325Y-11607508D02*
X5492801Y-11617031D01*
X5492801Y-11617031D02*
X5473753Y-11645603D01*
X5473753Y-11645603D02*
X5464230Y-11683698D01*
X5464230Y-11683698D02*
X5464230Y-11759888D01*
X5464230Y-11759888D02*
X5473753Y-11778936D01*
X5473753Y-11778936D02*
X5483277Y-11788460D01*
X5483277Y-11788460D02*
X5502325Y-11797984D01*
X5502325Y-11797984D02*
X5540420Y-11797984D01*
X5540420Y-11797984D02*
X5559468Y-11788460D01*
X5559468Y-11788460D02*
X5568991Y-11778936D01*
X5568991Y-11778936D02*
X5578515Y-11759888D01*
X5578515Y-11759888D02*
X5578515Y-11712269D01*
X5578515Y-11712269D02*
X5568991Y-11693222D01*
X5568991Y-11693222D02*
X5559468Y-11683698D01*
X5559468Y-11683698D02*
X5540420Y-11674174D01*
X5540420Y-11674174D02*
X5502325Y-11674174D01*
X5502325Y-11674174D02*
X5483277Y-11683698D01*
X5483277Y-11683698D02*
X5473753Y-11693222D01*
X5473753Y-11693222D02*
X5464230Y-11712269D01*
X5816610Y-11797984D02*
X5816610Y-11597984D01*
X5902325Y-11797984D02*
X5902325Y-11693222D01*
X5902325Y-11693222D02*
X5892801Y-11674174D01*
X5892801Y-11674174D02*
X5873753Y-11664650D01*
X5873753Y-11664650D02*
X5845182Y-11664650D01*
X5845182Y-11664650D02*
X5826134Y-11674174D01*
X5826134Y-11674174D02*
X5816610Y-11683698D01*
X6026134Y-11797984D02*
X6007087Y-11788460D01*
X6007087Y-11788460D02*
X5997563Y-11778936D01*
X5997563Y-11778936D02*
X5988039Y-11759888D01*
X5988039Y-11759888D02*
X5988039Y-11702746D01*
X5988039Y-11702746D02*
X5997563Y-11683698D01*
X5997563Y-11683698D02*
X6007087Y-11674174D01*
X6007087Y-11674174D02*
X6026134Y-11664650D01*
X6026134Y-11664650D02*
X6054706Y-11664650D01*
X6054706Y-11664650D02*
X6073753Y-11674174D01*
X6073753Y-11674174D02*
X6083277Y-11683698D01*
X6083277Y-11683698D02*
X6092801Y-11702746D01*
X6092801Y-11702746D02*
X6092801Y-11759888D01*
X6092801Y-11759888D02*
X6083277Y-11778936D01*
X6083277Y-11778936D02*
X6073753Y-11788460D01*
X6073753Y-11788460D02*
X6054706Y-11797984D01*
X6054706Y-11797984D02*
X6026134Y-11797984D01*
X6207087Y-11797984D02*
X6188039Y-11788460D01*
X6188039Y-11788460D02*
X6178515Y-11769412D01*
X6178515Y-11769412D02*
X6178515Y-11597984D01*
X6359468Y-11788460D02*
X6340420Y-11797984D01*
X6340420Y-11797984D02*
X6302325Y-11797984D01*
X6302325Y-11797984D02*
X6283277Y-11788460D01*
X6283277Y-11788460D02*
X6273753Y-11769412D01*
X6273753Y-11769412D02*
X6273753Y-11693222D01*
X6273753Y-11693222D02*
X6283277Y-11674174D01*
X6283277Y-11674174D02*
X6302325Y-11664650D01*
X6302325Y-11664650D02*
X6340420Y-11664650D01*
X6340420Y-11664650D02*
X6359468Y-11674174D01*
X6359468Y-11674174D02*
X6368991Y-11693222D01*
X6368991Y-11693222D02*
X6368991Y-11712269D01*
X6368991Y-11712269D02*
X6273753Y-11731317D01*
X6445182Y-11788460D02*
X6464230Y-11797984D01*
X6464230Y-11797984D02*
X6502325Y-11797984D01*
X6502325Y-11797984D02*
X6521372Y-11788460D01*
X6521372Y-11788460D02*
X6530896Y-11769412D01*
X6530896Y-11769412D02*
X6530896Y-11759888D01*
X6530896Y-11759888D02*
X6521372Y-11740841D01*
X6521372Y-11740841D02*
X6502325Y-11731317D01*
X6502325Y-11731317D02*
X6473753Y-11731317D01*
X6473753Y-11731317D02*
X6454706Y-11721793D01*
X6454706Y-11721793D02*
X6445182Y-11702746D01*
X6445182Y-11702746D02*
X6445182Y-11693222D01*
X6445182Y-11693222D02*
X6454706Y-11674174D01*
X6454706Y-11674174D02*
X6473753Y-11664650D01*
X6473753Y-11664650D02*
X6502325Y-11664650D01*
X6502325Y-11664650D02*
X6521372Y-11674174D01*
X6597563Y-11874174D02*
X6607087Y-11864650D01*
X6607087Y-11864650D02*
X6626134Y-11836079D01*
X6626134Y-11836079D02*
X6635658Y-11817031D01*
X6635658Y-11817031D02*
X6645182Y-11788460D01*
X6645182Y-11788460D02*
X6654706Y-11740841D01*
X6654706Y-11740841D02*
X6654706Y-11702746D01*
X6654706Y-11702746D02*
X6645182Y-11655127D01*
X6645182Y-11655127D02*
X6635658Y-11626555D01*
X6635658Y-11626555D02*
X6626134Y-11607508D01*
X6626134Y-11607508D02*
X6607087Y-11578936D01*
X6607087Y-11578936D02*
X6597563Y-11569412D01*
D13*
X1757730Y-11905730D02*
X1757730Y-12035270D01*
X1692960Y-11970500D02*
X1822500Y-11970500D01*
D11*
X2188039Y-12061984D02*
X2073753Y-12061984D01*
X2130896Y-12061984D02*
X2130896Y-11861984D01*
X2130896Y-11861984D02*
X2111848Y-11890555D01*
X2111848Y-11890555D02*
X2092801Y-11909603D01*
X2092801Y-11909603D02*
X2073753Y-11919127D01*
X2273753Y-12042936D02*
X2283277Y-12052460D01*
X2283277Y-12052460D02*
X2273753Y-12061984D01*
X2273753Y-12061984D02*
X2264229Y-12052460D01*
X2264229Y-12052460D02*
X2273753Y-12042936D01*
X2273753Y-12042936D02*
X2273753Y-12061984D01*
X2359467Y-11881031D02*
X2368991Y-11871508D01*
X2368991Y-11871508D02*
X2388039Y-11861984D01*
X2388039Y-11861984D02*
X2435658Y-11861984D01*
X2435658Y-11861984D02*
X2454705Y-11871508D01*
X2454705Y-11871508D02*
X2464229Y-11881031D01*
X2464229Y-11881031D02*
X2473753Y-11900079D01*
X2473753Y-11900079D02*
X2473753Y-11919127D01*
X2473753Y-11919127D02*
X2464229Y-11947698D01*
X2464229Y-11947698D02*
X2349944Y-12061984D01*
X2349944Y-12061984D02*
X2473753Y-12061984D01*
X2568991Y-12061984D02*
X2607086Y-12061984D01*
X2607086Y-12061984D02*
X2626134Y-12052460D01*
X2626134Y-12052460D02*
X2635658Y-12042936D01*
X2635658Y-12042936D02*
X2654705Y-12014365D01*
X2654705Y-12014365D02*
X2664229Y-11976269D01*
X2664229Y-11976269D02*
X2664229Y-11900079D01*
X2664229Y-11900079D02*
X2654705Y-11881031D01*
X2654705Y-11881031D02*
X2645182Y-11871508D01*
X2645182Y-11871508D02*
X2626134Y-11861984D01*
X2626134Y-11861984D02*
X2588039Y-11861984D01*
X2588039Y-11861984D02*
X2568991Y-11871508D01*
X2568991Y-11871508D02*
X2559467Y-11881031D01*
X2559467Y-11881031D02*
X2549944Y-11900079D01*
X2549944Y-11900079D02*
X2549944Y-11947698D01*
X2549944Y-11947698D02*
X2559467Y-11966746D01*
X2559467Y-11966746D02*
X2568991Y-11976269D01*
X2568991Y-11976269D02*
X2588039Y-11985793D01*
X2588039Y-11985793D02*
X2626134Y-11985793D01*
X2626134Y-11985793D02*
X2645182Y-11976269D01*
X2645182Y-11976269D02*
X2654705Y-11966746D01*
X2654705Y-11966746D02*
X2664229Y-11947698D01*
X2845182Y-11861984D02*
X2749944Y-11861984D01*
X2749944Y-11861984D02*
X2740420Y-11957222D01*
X2740420Y-11957222D02*
X2749944Y-11947698D01*
X2749944Y-11947698D02*
X2768991Y-11938174D01*
X2768991Y-11938174D02*
X2816610Y-11938174D01*
X2816610Y-11938174D02*
X2835658Y-11947698D01*
X2835658Y-11947698D02*
X2845182Y-11957222D01*
X2845182Y-11957222D02*
X2854705Y-11976269D01*
X2854705Y-11976269D02*
X2854705Y-12023888D01*
X2854705Y-12023888D02*
X2845182Y-12042936D01*
X2845182Y-12042936D02*
X2835658Y-12052460D01*
X2835658Y-12052460D02*
X2816610Y-12061984D01*
X2816610Y-12061984D02*
X2768991Y-12061984D01*
X2768991Y-12061984D02*
X2749944Y-12052460D01*
X2749944Y-12052460D02*
X2740420Y-12042936D01*
X2940420Y-12061984D02*
X2940420Y-11928650D01*
X2940420Y-11947698D02*
X2949943Y-11938174D01*
X2949943Y-11938174D02*
X2968991Y-11928650D01*
X2968991Y-11928650D02*
X2997563Y-11928650D01*
X2997563Y-11928650D02*
X3016610Y-11938174D01*
X3016610Y-11938174D02*
X3026134Y-11957222D01*
X3026134Y-11957222D02*
X3026134Y-12061984D01*
X3026134Y-11957222D02*
X3035658Y-11938174D01*
X3035658Y-11938174D02*
X3054705Y-11928650D01*
X3054705Y-11928650D02*
X3083277Y-11928650D01*
X3083277Y-11928650D02*
X3102324Y-11938174D01*
X3102324Y-11938174D02*
X3111848Y-11957222D01*
X3111848Y-11957222D02*
X3111848Y-12061984D01*
X3207086Y-12061984D02*
X3207086Y-11928650D01*
X3207086Y-11947698D02*
X3216610Y-11938174D01*
X3216610Y-11938174D02*
X3235658Y-11928650D01*
X3235658Y-11928650D02*
X3264229Y-11928650D01*
X3264229Y-11928650D02*
X3283277Y-11938174D01*
X3283277Y-11938174D02*
X3292801Y-11957222D01*
X3292801Y-11957222D02*
X3292801Y-12061984D01*
X3292801Y-11957222D02*
X3302324Y-11938174D01*
X3302324Y-11938174D02*
X3321372Y-11928650D01*
X3321372Y-11928650D02*
X3349943Y-11928650D01*
X3349943Y-11928650D02*
X3368991Y-11938174D01*
X3368991Y-11938174D02*
X3378515Y-11957222D01*
X3378515Y-11957222D02*
X3378515Y-12061984D01*
X3768991Y-11852460D02*
X3597563Y-12109603D01*
X4026134Y-11861984D02*
X4045182Y-11861984D01*
X4045182Y-11861984D02*
X4064229Y-11871508D01*
X4064229Y-11871508D02*
X4073753Y-11881031D01*
X4073753Y-11881031D02*
X4083277Y-11900079D01*
X4083277Y-11900079D02*
X4092801Y-11938174D01*
X4092801Y-11938174D02*
X4092801Y-11985793D01*
X4092801Y-11985793D02*
X4083277Y-12023888D01*
X4083277Y-12023888D02*
X4073753Y-12042936D01*
X4073753Y-12042936D02*
X4064229Y-12052460D01*
X4064229Y-12052460D02*
X4045182Y-12061984D01*
X4045182Y-12061984D02*
X4026134Y-12061984D01*
X4026134Y-12061984D02*
X4007086Y-12052460D01*
X4007086Y-12052460D02*
X3997563Y-12042936D01*
X3997563Y-12042936D02*
X3988039Y-12023888D01*
X3988039Y-12023888D02*
X3978515Y-11985793D01*
X3978515Y-11985793D02*
X3978515Y-11938174D01*
X3978515Y-11938174D02*
X3988039Y-11900079D01*
X3988039Y-11900079D02*
X3997563Y-11881031D01*
X3997563Y-11881031D02*
X4007086Y-11871508D01*
X4007086Y-11871508D02*
X4026134Y-11861984D01*
X4178515Y-12042936D02*
X4188039Y-12052460D01*
X4188039Y-12052460D02*
X4178515Y-12061984D01*
X4178515Y-12061984D02*
X4168991Y-12052460D01*
X4168991Y-12052460D02*
X4178515Y-12042936D01*
X4178515Y-12042936D02*
X4178515Y-12061984D01*
X4311848Y-11861984D02*
X4330896Y-11861984D01*
X4330896Y-11861984D02*
X4349944Y-11871508D01*
X4349944Y-11871508D02*
X4359468Y-11881031D01*
X4359468Y-11881031D02*
X4368991Y-11900079D01*
X4368991Y-11900079D02*
X4378515Y-11938174D01*
X4378515Y-11938174D02*
X4378515Y-11985793D01*
X4378515Y-11985793D02*
X4368991Y-12023888D01*
X4368991Y-12023888D02*
X4359468Y-12042936D01*
X4359468Y-12042936D02*
X4349944Y-12052460D01*
X4349944Y-12052460D02*
X4330896Y-12061984D01*
X4330896Y-12061984D02*
X4311848Y-12061984D01*
X4311848Y-12061984D02*
X4292801Y-12052460D01*
X4292801Y-12052460D02*
X4283277Y-12042936D01*
X4283277Y-12042936D02*
X4273753Y-12023888D01*
X4273753Y-12023888D02*
X4264229Y-11985793D01*
X4264229Y-11985793D02*
X4264229Y-11938174D01*
X4264229Y-11938174D02*
X4273753Y-11900079D01*
X4273753Y-11900079D02*
X4283277Y-11881031D01*
X4283277Y-11881031D02*
X4292801Y-11871508D01*
X4292801Y-11871508D02*
X4311848Y-11861984D01*
X4559468Y-11861984D02*
X4464229Y-11861984D01*
X4464229Y-11861984D02*
X4454706Y-11957222D01*
X4454706Y-11957222D02*
X4464229Y-11947698D01*
X4464229Y-11947698D02*
X4483277Y-11938174D01*
X4483277Y-11938174D02*
X4530896Y-11938174D01*
X4530896Y-11938174D02*
X4549944Y-11947698D01*
X4549944Y-11947698D02*
X4559468Y-11957222D01*
X4559468Y-11957222D02*
X4568991Y-11976269D01*
X4568991Y-11976269D02*
X4568991Y-12023888D01*
X4568991Y-12023888D02*
X4559468Y-12042936D01*
X4559468Y-12042936D02*
X4549944Y-12052460D01*
X4549944Y-12052460D02*
X4530896Y-12061984D01*
X4530896Y-12061984D02*
X4483277Y-12061984D01*
X4483277Y-12061984D02*
X4464229Y-12052460D01*
X4464229Y-12052460D02*
X4454706Y-12042936D01*
X4759468Y-12061984D02*
X4645182Y-12061984D01*
X4702325Y-12061984D02*
X4702325Y-11861984D01*
X4702325Y-11861984D02*
X4683277Y-11890555D01*
X4683277Y-11890555D02*
X4664229Y-11909603D01*
X4664229Y-11909603D02*
X4645182Y-11919127D01*
X4883277Y-11861984D02*
X4902325Y-11861984D01*
X4902325Y-11861984D02*
X4921372Y-11871508D01*
X4921372Y-11871508D02*
X4930896Y-11881031D01*
X4930896Y-11881031D02*
X4940420Y-11900079D01*
X4940420Y-11900079D02*
X4949944Y-11938174D01*
X4949944Y-11938174D02*
X4949944Y-11985793D01*
X4949944Y-11985793D02*
X4940420Y-12023888D01*
X4940420Y-12023888D02*
X4930896Y-12042936D01*
X4930896Y-12042936D02*
X4921372Y-12052460D01*
X4921372Y-12052460D02*
X4902325Y-12061984D01*
X4902325Y-12061984D02*
X4883277Y-12061984D01*
X4883277Y-12061984D02*
X4864229Y-12052460D01*
X4864229Y-12052460D02*
X4854706Y-12042936D01*
X4854706Y-12042936D02*
X4845182Y-12023888D01*
X4845182Y-12023888D02*
X4835658Y-11985793D01*
X4835658Y-11985793D02*
X4835658Y-11938174D01*
X4835658Y-11938174D02*
X4845182Y-11900079D01*
X4845182Y-11900079D02*
X4854706Y-11881031D01*
X4854706Y-11881031D02*
X4864229Y-11871508D01*
X4864229Y-11871508D02*
X4883277Y-11861984D01*
X5026134Y-11861984D02*
X5026134Y-11900079D01*
X5102325Y-11861984D02*
X5102325Y-11900079D01*
X5397563Y-12138174D02*
X5388039Y-12128650D01*
X5388039Y-12128650D02*
X5368991Y-12100079D01*
X5368991Y-12100079D02*
X5359468Y-12081031D01*
X5359468Y-12081031D02*
X5349944Y-12052460D01*
X5349944Y-12052460D02*
X5340420Y-12004841D01*
X5340420Y-12004841D02*
X5340420Y-11966746D01*
X5340420Y-11966746D02*
X5349944Y-11919127D01*
X5349944Y-11919127D02*
X5359468Y-11890555D01*
X5359468Y-11890555D02*
X5368991Y-11871508D01*
X5368991Y-11871508D02*
X5388039Y-11842936D01*
X5388039Y-11842936D02*
X5397563Y-11833412D01*
X5559468Y-11928650D02*
X5559468Y-12061984D01*
X5511849Y-11852460D02*
X5464230Y-11995317D01*
X5464230Y-11995317D02*
X5588039Y-11995317D01*
X5816610Y-12061984D02*
X5816610Y-11861984D01*
X5902325Y-12061984D02*
X5902325Y-11957222D01*
X5902325Y-11957222D02*
X5892801Y-11938174D01*
X5892801Y-11938174D02*
X5873753Y-11928650D01*
X5873753Y-11928650D02*
X5845182Y-11928650D01*
X5845182Y-11928650D02*
X5826134Y-11938174D01*
X5826134Y-11938174D02*
X5816610Y-11947698D01*
X6026134Y-12061984D02*
X6007087Y-12052460D01*
X6007087Y-12052460D02*
X5997563Y-12042936D01*
X5997563Y-12042936D02*
X5988039Y-12023888D01*
X5988039Y-12023888D02*
X5988039Y-11966746D01*
X5988039Y-11966746D02*
X5997563Y-11947698D01*
X5997563Y-11947698D02*
X6007087Y-11938174D01*
X6007087Y-11938174D02*
X6026134Y-11928650D01*
X6026134Y-11928650D02*
X6054706Y-11928650D01*
X6054706Y-11928650D02*
X6073753Y-11938174D01*
X6073753Y-11938174D02*
X6083277Y-11947698D01*
X6083277Y-11947698D02*
X6092801Y-11966746D01*
X6092801Y-11966746D02*
X6092801Y-12023888D01*
X6092801Y-12023888D02*
X6083277Y-12042936D01*
X6083277Y-12042936D02*
X6073753Y-12052460D01*
X6073753Y-12052460D02*
X6054706Y-12061984D01*
X6054706Y-12061984D02*
X6026134Y-12061984D01*
X6207087Y-12061984D02*
X6188039Y-12052460D01*
X6188039Y-12052460D02*
X6178515Y-12033412D01*
X6178515Y-12033412D02*
X6178515Y-11861984D01*
X6359468Y-12052460D02*
X6340420Y-12061984D01*
X6340420Y-12061984D02*
X6302325Y-12061984D01*
X6302325Y-12061984D02*
X6283277Y-12052460D01*
X6283277Y-12052460D02*
X6273753Y-12033412D01*
X6273753Y-12033412D02*
X6273753Y-11957222D01*
X6273753Y-11957222D02*
X6283277Y-11938174D01*
X6283277Y-11938174D02*
X6302325Y-11928650D01*
X6302325Y-11928650D02*
X6340420Y-11928650D01*
X6340420Y-11928650D02*
X6359468Y-11938174D01*
X6359468Y-11938174D02*
X6368991Y-11957222D01*
X6368991Y-11957222D02*
X6368991Y-11976269D01*
X6368991Y-11976269D02*
X6273753Y-11995317D01*
X6445182Y-12052460D02*
X6464230Y-12061984D01*
X6464230Y-12061984D02*
X6502325Y-12061984D01*
X6502325Y-12061984D02*
X6521372Y-12052460D01*
X6521372Y-12052460D02*
X6530896Y-12033412D01*
X6530896Y-12033412D02*
X6530896Y-12023888D01*
X6530896Y-12023888D02*
X6521372Y-12004841D01*
X6521372Y-12004841D02*
X6502325Y-11995317D01*
X6502325Y-11995317D02*
X6473753Y-11995317D01*
X6473753Y-11995317D02*
X6454706Y-11985793D01*
X6454706Y-11985793D02*
X6445182Y-11966746D01*
X6445182Y-11966746D02*
X6445182Y-11957222D01*
X6445182Y-11957222D02*
X6454706Y-11938174D01*
X6454706Y-11938174D02*
X6473753Y-11928650D01*
X6473753Y-11928650D02*
X6502325Y-11928650D01*
X6502325Y-11928650D02*
X6521372Y-11938174D01*
X6597563Y-12138174D02*
X6607087Y-12128650D01*
X6607087Y-12128650D02*
X6626134Y-12100079D01*
X6626134Y-12100079D02*
X6635658Y-12081031D01*
X6635658Y-12081031D02*
X6645182Y-12052460D01*
X6645182Y-12052460D02*
X6654706Y-12004841D01*
X6654706Y-12004841D02*
X6654706Y-11966746D01*
X6654706Y-11966746D02*
X6645182Y-11919127D01*
X6645182Y-11919127D02*
X6635658Y-11890555D01*
X6635658Y-11890555D02*
X6626134Y-11871508D01*
X6626134Y-11871508D02*
X6607087Y-11842936D01*
X6607087Y-11842936D02*
X6597563Y-11833412D01*
X1793211Y-12305211D02*
X1793211Y-12163789D01*
X1651789Y-12163789D01*
X1651789Y-12305211D01*
X1793211Y-12305211D01*
X2073753Y-12145031D02*
X2083277Y-12135508D01*
X2083277Y-12135508D02*
X2102324Y-12125984D01*
X2102324Y-12125984D02*
X2149944Y-12125984D01*
X2149944Y-12125984D02*
X2168991Y-12135508D01*
X2168991Y-12135508D02*
X2178515Y-12145031D01*
X2178515Y-12145031D02*
X2188039Y-12164079D01*
X2188039Y-12164079D02*
X2188039Y-12183127D01*
X2188039Y-12183127D02*
X2178515Y-12211698D01*
X2178515Y-12211698D02*
X2064229Y-12325984D01*
X2064229Y-12325984D02*
X2188039Y-12325984D01*
X2273753Y-12306936D02*
X2283277Y-12316460D01*
X2283277Y-12316460D02*
X2273753Y-12325984D01*
X2273753Y-12325984D02*
X2264229Y-12316460D01*
X2264229Y-12316460D02*
X2273753Y-12306936D01*
X2273753Y-12306936D02*
X2273753Y-12325984D01*
X2464229Y-12125984D02*
X2368991Y-12125984D01*
X2368991Y-12125984D02*
X2359467Y-12221222D01*
X2359467Y-12221222D02*
X2368991Y-12211698D01*
X2368991Y-12211698D02*
X2388039Y-12202174D01*
X2388039Y-12202174D02*
X2435658Y-12202174D01*
X2435658Y-12202174D02*
X2454705Y-12211698D01*
X2454705Y-12211698D02*
X2464229Y-12221222D01*
X2464229Y-12221222D02*
X2473753Y-12240269D01*
X2473753Y-12240269D02*
X2473753Y-12287888D01*
X2473753Y-12287888D02*
X2464229Y-12306936D01*
X2464229Y-12306936D02*
X2454705Y-12316460D01*
X2454705Y-12316460D02*
X2435658Y-12325984D01*
X2435658Y-12325984D02*
X2388039Y-12325984D01*
X2388039Y-12325984D02*
X2368991Y-12316460D01*
X2368991Y-12316460D02*
X2359467Y-12306936D01*
X2597563Y-12125984D02*
X2616610Y-12125984D01*
X2616610Y-12125984D02*
X2635658Y-12135508D01*
X2635658Y-12135508D02*
X2645182Y-12145031D01*
X2645182Y-12145031D02*
X2654705Y-12164079D01*
X2654705Y-12164079D02*
X2664229Y-12202174D01*
X2664229Y-12202174D02*
X2664229Y-12249793D01*
X2664229Y-12249793D02*
X2654705Y-12287888D01*
X2654705Y-12287888D02*
X2645182Y-12306936D01*
X2645182Y-12306936D02*
X2635658Y-12316460D01*
X2635658Y-12316460D02*
X2616610Y-12325984D01*
X2616610Y-12325984D02*
X2597563Y-12325984D01*
X2597563Y-12325984D02*
X2578515Y-12316460D01*
X2578515Y-12316460D02*
X2568991Y-12306936D01*
X2568991Y-12306936D02*
X2559467Y-12287888D01*
X2559467Y-12287888D02*
X2549944Y-12249793D01*
X2549944Y-12249793D02*
X2549944Y-12202174D01*
X2549944Y-12202174D02*
X2559467Y-12164079D01*
X2559467Y-12164079D02*
X2568991Y-12145031D01*
X2568991Y-12145031D02*
X2578515Y-12135508D01*
X2578515Y-12135508D02*
X2597563Y-12125984D01*
X2788039Y-12125984D02*
X2807086Y-12125984D01*
X2807086Y-12125984D02*
X2826134Y-12135508D01*
X2826134Y-12135508D02*
X2835658Y-12145031D01*
X2835658Y-12145031D02*
X2845182Y-12164079D01*
X2845182Y-12164079D02*
X2854705Y-12202174D01*
X2854705Y-12202174D02*
X2854705Y-12249793D01*
X2854705Y-12249793D02*
X2845182Y-12287888D01*
X2845182Y-12287888D02*
X2835658Y-12306936D01*
X2835658Y-12306936D02*
X2826134Y-12316460D01*
X2826134Y-12316460D02*
X2807086Y-12325984D01*
X2807086Y-12325984D02*
X2788039Y-12325984D01*
X2788039Y-12325984D02*
X2768991Y-12316460D01*
X2768991Y-12316460D02*
X2759467Y-12306936D01*
X2759467Y-12306936D02*
X2749944Y-12287888D01*
X2749944Y-12287888D02*
X2740420Y-12249793D01*
X2740420Y-12249793D02*
X2740420Y-12202174D01*
X2740420Y-12202174D02*
X2749944Y-12164079D01*
X2749944Y-12164079D02*
X2759467Y-12145031D01*
X2759467Y-12145031D02*
X2768991Y-12135508D01*
X2768991Y-12135508D02*
X2788039Y-12125984D01*
X2940420Y-12325984D02*
X2940420Y-12192650D01*
X2940420Y-12211698D02*
X2949943Y-12202174D01*
X2949943Y-12202174D02*
X2968991Y-12192650D01*
X2968991Y-12192650D02*
X2997563Y-12192650D01*
X2997563Y-12192650D02*
X3016610Y-12202174D01*
X3016610Y-12202174D02*
X3026134Y-12221222D01*
X3026134Y-12221222D02*
X3026134Y-12325984D01*
X3026134Y-12221222D02*
X3035658Y-12202174D01*
X3035658Y-12202174D02*
X3054705Y-12192650D01*
X3054705Y-12192650D02*
X3083277Y-12192650D01*
X3083277Y-12192650D02*
X3102324Y-12202174D01*
X3102324Y-12202174D02*
X3111848Y-12221222D01*
X3111848Y-12221222D02*
X3111848Y-12325984D01*
X3207086Y-12325984D02*
X3207086Y-12192650D01*
X3207086Y-12211698D02*
X3216610Y-12202174D01*
X3216610Y-12202174D02*
X3235658Y-12192650D01*
X3235658Y-12192650D02*
X3264229Y-12192650D01*
X3264229Y-12192650D02*
X3283277Y-12202174D01*
X3283277Y-12202174D02*
X3292801Y-12221222D01*
X3292801Y-12221222D02*
X3292801Y-12325984D01*
X3292801Y-12221222D02*
X3302324Y-12202174D01*
X3302324Y-12202174D02*
X3321372Y-12192650D01*
X3321372Y-12192650D02*
X3349943Y-12192650D01*
X3349943Y-12192650D02*
X3368991Y-12202174D01*
X3368991Y-12202174D02*
X3378515Y-12221222D01*
X3378515Y-12221222D02*
X3378515Y-12325984D01*
X3768991Y-12116460D02*
X3597563Y-12373603D01*
X4026134Y-12125984D02*
X4045182Y-12125984D01*
X4045182Y-12125984D02*
X4064229Y-12135508D01*
X4064229Y-12135508D02*
X4073753Y-12145031D01*
X4073753Y-12145031D02*
X4083277Y-12164079D01*
X4083277Y-12164079D02*
X4092801Y-12202174D01*
X4092801Y-12202174D02*
X4092801Y-12249793D01*
X4092801Y-12249793D02*
X4083277Y-12287888D01*
X4083277Y-12287888D02*
X4073753Y-12306936D01*
X4073753Y-12306936D02*
X4064229Y-12316460D01*
X4064229Y-12316460D02*
X4045182Y-12325984D01*
X4045182Y-12325984D02*
X4026134Y-12325984D01*
X4026134Y-12325984D02*
X4007086Y-12316460D01*
X4007086Y-12316460D02*
X3997563Y-12306936D01*
X3997563Y-12306936D02*
X3988039Y-12287888D01*
X3988039Y-12287888D02*
X3978515Y-12249793D01*
X3978515Y-12249793D02*
X3978515Y-12202174D01*
X3978515Y-12202174D02*
X3988039Y-12164079D01*
X3988039Y-12164079D02*
X3997563Y-12145031D01*
X3997563Y-12145031D02*
X4007086Y-12135508D01*
X4007086Y-12135508D02*
X4026134Y-12125984D01*
X4178515Y-12306936D02*
X4188039Y-12316460D01*
X4188039Y-12316460D02*
X4178515Y-12325984D01*
X4178515Y-12325984D02*
X4168991Y-12316460D01*
X4168991Y-12316460D02*
X4178515Y-12306936D01*
X4178515Y-12306936D02*
X4178515Y-12325984D01*
X4311848Y-12125984D02*
X4330896Y-12125984D01*
X4330896Y-12125984D02*
X4349944Y-12135508D01*
X4349944Y-12135508D02*
X4359468Y-12145031D01*
X4359468Y-12145031D02*
X4368991Y-12164079D01*
X4368991Y-12164079D02*
X4378515Y-12202174D01*
X4378515Y-12202174D02*
X4378515Y-12249793D01*
X4378515Y-12249793D02*
X4368991Y-12287888D01*
X4368991Y-12287888D02*
X4359468Y-12306936D01*
X4359468Y-12306936D02*
X4349944Y-12316460D01*
X4349944Y-12316460D02*
X4330896Y-12325984D01*
X4330896Y-12325984D02*
X4311848Y-12325984D01*
X4311848Y-12325984D02*
X4292801Y-12316460D01*
X4292801Y-12316460D02*
X4283277Y-12306936D01*
X4283277Y-12306936D02*
X4273753Y-12287888D01*
X4273753Y-12287888D02*
X4264229Y-12249793D01*
X4264229Y-12249793D02*
X4264229Y-12202174D01*
X4264229Y-12202174D02*
X4273753Y-12164079D01*
X4273753Y-12164079D02*
X4283277Y-12145031D01*
X4283277Y-12145031D02*
X4292801Y-12135508D01*
X4292801Y-12135508D02*
X4311848Y-12125984D01*
X4473753Y-12325984D02*
X4511848Y-12325984D01*
X4511848Y-12325984D02*
X4530896Y-12316460D01*
X4530896Y-12316460D02*
X4540420Y-12306936D01*
X4540420Y-12306936D02*
X4559468Y-12278365D01*
X4559468Y-12278365D02*
X4568991Y-12240269D01*
X4568991Y-12240269D02*
X4568991Y-12164079D01*
X4568991Y-12164079D02*
X4559468Y-12145031D01*
X4559468Y-12145031D02*
X4549944Y-12135508D01*
X4549944Y-12135508D02*
X4530896Y-12125984D01*
X4530896Y-12125984D02*
X4492801Y-12125984D01*
X4492801Y-12125984D02*
X4473753Y-12135508D01*
X4473753Y-12135508D02*
X4464229Y-12145031D01*
X4464229Y-12145031D02*
X4454706Y-12164079D01*
X4454706Y-12164079D02*
X4454706Y-12211698D01*
X4454706Y-12211698D02*
X4464229Y-12230746D01*
X4464229Y-12230746D02*
X4473753Y-12240269D01*
X4473753Y-12240269D02*
X4492801Y-12249793D01*
X4492801Y-12249793D02*
X4530896Y-12249793D01*
X4530896Y-12249793D02*
X4549944Y-12240269D01*
X4549944Y-12240269D02*
X4559468Y-12230746D01*
X4559468Y-12230746D02*
X4568991Y-12211698D01*
X4683277Y-12211698D02*
X4664229Y-12202174D01*
X4664229Y-12202174D02*
X4654706Y-12192650D01*
X4654706Y-12192650D02*
X4645182Y-12173603D01*
X4645182Y-12173603D02*
X4645182Y-12164079D01*
X4645182Y-12164079D02*
X4654706Y-12145031D01*
X4654706Y-12145031D02*
X4664229Y-12135508D01*
X4664229Y-12135508D02*
X4683277Y-12125984D01*
X4683277Y-12125984D02*
X4721372Y-12125984D01*
X4721372Y-12125984D02*
X4740420Y-12135508D01*
X4740420Y-12135508D02*
X4749944Y-12145031D01*
X4749944Y-12145031D02*
X4759468Y-12164079D01*
X4759468Y-12164079D02*
X4759468Y-12173603D01*
X4759468Y-12173603D02*
X4749944Y-12192650D01*
X4749944Y-12192650D02*
X4740420Y-12202174D01*
X4740420Y-12202174D02*
X4721372Y-12211698D01*
X4721372Y-12211698D02*
X4683277Y-12211698D01*
X4683277Y-12211698D02*
X4664229Y-12221222D01*
X4664229Y-12221222D02*
X4654706Y-12230746D01*
X4654706Y-12230746D02*
X4645182Y-12249793D01*
X4645182Y-12249793D02*
X4645182Y-12287888D01*
X4645182Y-12287888D02*
X4654706Y-12306936D01*
X4654706Y-12306936D02*
X4664229Y-12316460D01*
X4664229Y-12316460D02*
X4683277Y-12325984D01*
X4683277Y-12325984D02*
X4721372Y-12325984D01*
X4721372Y-12325984D02*
X4740420Y-12316460D01*
X4740420Y-12316460D02*
X4749944Y-12306936D01*
X4749944Y-12306936D02*
X4759468Y-12287888D01*
X4759468Y-12287888D02*
X4759468Y-12249793D01*
X4759468Y-12249793D02*
X4749944Y-12230746D01*
X4749944Y-12230746D02*
X4740420Y-12221222D01*
X4740420Y-12221222D02*
X4721372Y-12211698D01*
X4930896Y-12192650D02*
X4930896Y-12325984D01*
X4883277Y-12116460D02*
X4835658Y-12259317D01*
X4835658Y-12259317D02*
X4959468Y-12259317D01*
X5026134Y-12125984D02*
X5026134Y-12164079D01*
X5102325Y-12125984D02*
X5102325Y-12164079D01*
X5397563Y-12402174D02*
X5388039Y-12392650D01*
X5388039Y-12392650D02*
X5368991Y-12364079D01*
X5368991Y-12364079D02*
X5359468Y-12345031D01*
X5359468Y-12345031D02*
X5349944Y-12316460D01*
X5349944Y-12316460D02*
X5340420Y-12268841D01*
X5340420Y-12268841D02*
X5340420Y-12230746D01*
X5340420Y-12230746D02*
X5349944Y-12183127D01*
X5349944Y-12183127D02*
X5359468Y-12154555D01*
X5359468Y-12154555D02*
X5368991Y-12135508D01*
X5368991Y-12135508D02*
X5388039Y-12106936D01*
X5388039Y-12106936D02*
X5397563Y-12097412D01*
X5464230Y-12145031D02*
X5473753Y-12135508D01*
X5473753Y-12135508D02*
X5492801Y-12125984D01*
X5492801Y-12125984D02*
X5540420Y-12125984D01*
X5540420Y-12125984D02*
X5559468Y-12135508D01*
X5559468Y-12135508D02*
X5568991Y-12145031D01*
X5568991Y-12145031D02*
X5578515Y-12164079D01*
X5578515Y-12164079D02*
X5578515Y-12183127D01*
X5578515Y-12183127D02*
X5568991Y-12211698D01*
X5568991Y-12211698D02*
X5454706Y-12325984D01*
X5454706Y-12325984D02*
X5578515Y-12325984D01*
X5816610Y-12325984D02*
X5816610Y-12125984D01*
X5902325Y-12325984D02*
X5902325Y-12221222D01*
X5902325Y-12221222D02*
X5892801Y-12202174D01*
X5892801Y-12202174D02*
X5873753Y-12192650D01*
X5873753Y-12192650D02*
X5845182Y-12192650D01*
X5845182Y-12192650D02*
X5826134Y-12202174D01*
X5826134Y-12202174D02*
X5816610Y-12211698D01*
X6026134Y-12325984D02*
X6007087Y-12316460D01*
X6007087Y-12316460D02*
X5997563Y-12306936D01*
X5997563Y-12306936D02*
X5988039Y-12287888D01*
X5988039Y-12287888D02*
X5988039Y-12230746D01*
X5988039Y-12230746D02*
X5997563Y-12211698D01*
X5997563Y-12211698D02*
X6007087Y-12202174D01*
X6007087Y-12202174D02*
X6026134Y-12192650D01*
X6026134Y-12192650D02*
X6054706Y-12192650D01*
X6054706Y-12192650D02*
X6073753Y-12202174D01*
X6073753Y-12202174D02*
X6083277Y-12211698D01*
X6083277Y-12211698D02*
X6092801Y-12230746D01*
X6092801Y-12230746D02*
X6092801Y-12287888D01*
X6092801Y-12287888D02*
X6083277Y-12306936D01*
X6083277Y-12306936D02*
X6073753Y-12316460D01*
X6073753Y-12316460D02*
X6054706Y-12325984D01*
X6054706Y-12325984D02*
X6026134Y-12325984D01*
X6207087Y-12325984D02*
X6188039Y-12316460D01*
X6188039Y-12316460D02*
X6178515Y-12297412D01*
X6178515Y-12297412D02*
X6178515Y-12125984D01*
X6359468Y-12316460D02*
X6340420Y-12325984D01*
X6340420Y-12325984D02*
X6302325Y-12325984D01*
X6302325Y-12325984D02*
X6283277Y-12316460D01*
X6283277Y-12316460D02*
X6273753Y-12297412D01*
X6273753Y-12297412D02*
X6273753Y-12221222D01*
X6273753Y-12221222D02*
X6283277Y-12202174D01*
X6283277Y-12202174D02*
X6302325Y-12192650D01*
X6302325Y-12192650D02*
X6340420Y-12192650D01*
X6340420Y-12192650D02*
X6359468Y-12202174D01*
X6359468Y-12202174D02*
X6368991Y-12221222D01*
X6368991Y-12221222D02*
X6368991Y-12240269D01*
X6368991Y-12240269D02*
X6273753Y-12259317D01*
X6445182Y-12316460D02*
X6464230Y-12325984D01*
X6464230Y-12325984D02*
X6502325Y-12325984D01*
X6502325Y-12325984D02*
X6521372Y-12316460D01*
X6521372Y-12316460D02*
X6530896Y-12297412D01*
X6530896Y-12297412D02*
X6530896Y-12287888D01*
X6530896Y-12287888D02*
X6521372Y-12268841D01*
X6521372Y-12268841D02*
X6502325Y-12259317D01*
X6502325Y-12259317D02*
X6473753Y-12259317D01*
X6473753Y-12259317D02*
X6454706Y-12249793D01*
X6454706Y-12249793D02*
X6445182Y-12230746D01*
X6445182Y-12230746D02*
X6445182Y-12221222D01*
X6445182Y-12221222D02*
X6454706Y-12202174D01*
X6454706Y-12202174D02*
X6473753Y-12192650D01*
X6473753Y-12192650D02*
X6502325Y-12192650D01*
X6502325Y-12192650D02*
X6521372Y-12202174D01*
X6597563Y-12402174D02*
X6607087Y-12392650D01*
X6607087Y-12392650D02*
X6626134Y-12364079D01*
X6626134Y-12364079D02*
X6635658Y-12345031D01*
X6635658Y-12345031D02*
X6645182Y-12316460D01*
X6645182Y-12316460D02*
X6654706Y-12268841D01*
X6654706Y-12268841D02*
X6654706Y-12230746D01*
X6654706Y-12230746D02*
X6645182Y-12183127D01*
X6645182Y-12183127D02*
X6635658Y-12154555D01*
X6635658Y-12154555D02*
X6626134Y-12135508D01*
X6626134Y-12135508D02*
X6607087Y-12106936D01*
X6607087Y-12106936D02*
X6597563Y-12097412D01*
X1722500Y-12654500D02*
X1822500Y-12554500D01*
X1722500Y-12454500D01*
X1622500Y-12554500D01*
X1722500Y-12654500D01*
X2064229Y-12445984D02*
X2188039Y-12445984D01*
X2188039Y-12445984D02*
X2121372Y-12522174D01*
X2121372Y-12522174D02*
X2149944Y-12522174D01*
X2149944Y-12522174D02*
X2168991Y-12531698D01*
X2168991Y-12531698D02*
X2178515Y-12541222D01*
X2178515Y-12541222D02*
X2188039Y-12560269D01*
X2188039Y-12560269D02*
X2188039Y-12607888D01*
X2188039Y-12607888D02*
X2178515Y-12626936D01*
X2178515Y-12626936D02*
X2168991Y-12636460D01*
X2168991Y-12636460D02*
X2149944Y-12645984D01*
X2149944Y-12645984D02*
X2092801Y-12645984D01*
X2092801Y-12645984D02*
X2073753Y-12636460D01*
X2073753Y-12636460D02*
X2064229Y-12626936D01*
X2273753Y-12626936D02*
X2283277Y-12636460D01*
X2283277Y-12636460D02*
X2273753Y-12645984D01*
X2273753Y-12645984D02*
X2264229Y-12636460D01*
X2264229Y-12636460D02*
X2273753Y-12626936D01*
X2273753Y-12626936D02*
X2273753Y-12645984D01*
X2407086Y-12445984D02*
X2426134Y-12445984D01*
X2426134Y-12445984D02*
X2445182Y-12455508D01*
X2445182Y-12455508D02*
X2454705Y-12465031D01*
X2454705Y-12465031D02*
X2464229Y-12484079D01*
X2464229Y-12484079D02*
X2473753Y-12522174D01*
X2473753Y-12522174D02*
X2473753Y-12569793D01*
X2473753Y-12569793D02*
X2464229Y-12607888D01*
X2464229Y-12607888D02*
X2454705Y-12626936D01*
X2454705Y-12626936D02*
X2445182Y-12636460D01*
X2445182Y-12636460D02*
X2426134Y-12645984D01*
X2426134Y-12645984D02*
X2407086Y-12645984D01*
X2407086Y-12645984D02*
X2388039Y-12636460D01*
X2388039Y-12636460D02*
X2378515Y-12626936D01*
X2378515Y-12626936D02*
X2368991Y-12607888D01*
X2368991Y-12607888D02*
X2359467Y-12569793D01*
X2359467Y-12569793D02*
X2359467Y-12522174D01*
X2359467Y-12522174D02*
X2368991Y-12484079D01*
X2368991Y-12484079D02*
X2378515Y-12465031D01*
X2378515Y-12465031D02*
X2388039Y-12455508D01*
X2388039Y-12455508D02*
X2407086Y-12445984D01*
X2597563Y-12445984D02*
X2616610Y-12445984D01*
X2616610Y-12445984D02*
X2635658Y-12455508D01*
X2635658Y-12455508D02*
X2645182Y-12465031D01*
X2645182Y-12465031D02*
X2654705Y-12484079D01*
X2654705Y-12484079D02*
X2664229Y-12522174D01*
X2664229Y-12522174D02*
X2664229Y-12569793D01*
X2664229Y-12569793D02*
X2654705Y-12607888D01*
X2654705Y-12607888D02*
X2645182Y-12626936D01*
X2645182Y-12626936D02*
X2635658Y-12636460D01*
X2635658Y-12636460D02*
X2616610Y-12645984D01*
X2616610Y-12645984D02*
X2597563Y-12645984D01*
X2597563Y-12645984D02*
X2578515Y-12636460D01*
X2578515Y-12636460D02*
X2568991Y-12626936D01*
X2568991Y-12626936D02*
X2559467Y-12607888D01*
X2559467Y-12607888D02*
X2549944Y-12569793D01*
X2549944Y-12569793D02*
X2549944Y-12522174D01*
X2549944Y-12522174D02*
X2559467Y-12484079D01*
X2559467Y-12484079D02*
X2568991Y-12465031D01*
X2568991Y-12465031D02*
X2578515Y-12455508D01*
X2578515Y-12455508D02*
X2597563Y-12445984D01*
X2788039Y-12445984D02*
X2807086Y-12445984D01*
X2807086Y-12445984D02*
X2826134Y-12455508D01*
X2826134Y-12455508D02*
X2835658Y-12465031D01*
X2835658Y-12465031D02*
X2845182Y-12484079D01*
X2845182Y-12484079D02*
X2854705Y-12522174D01*
X2854705Y-12522174D02*
X2854705Y-12569793D01*
X2854705Y-12569793D02*
X2845182Y-12607888D01*
X2845182Y-12607888D02*
X2835658Y-12626936D01*
X2835658Y-12626936D02*
X2826134Y-12636460D01*
X2826134Y-12636460D02*
X2807086Y-12645984D01*
X2807086Y-12645984D02*
X2788039Y-12645984D01*
X2788039Y-12645984D02*
X2768991Y-12636460D01*
X2768991Y-12636460D02*
X2759467Y-12626936D01*
X2759467Y-12626936D02*
X2749944Y-12607888D01*
X2749944Y-12607888D02*
X2740420Y-12569793D01*
X2740420Y-12569793D02*
X2740420Y-12522174D01*
X2740420Y-12522174D02*
X2749944Y-12484079D01*
X2749944Y-12484079D02*
X2759467Y-12465031D01*
X2759467Y-12465031D02*
X2768991Y-12455508D01*
X2768991Y-12455508D02*
X2788039Y-12445984D01*
X2940420Y-12645984D02*
X2940420Y-12512650D01*
X2940420Y-12531698D02*
X2949943Y-12522174D01*
X2949943Y-12522174D02*
X2968991Y-12512650D01*
X2968991Y-12512650D02*
X2997563Y-12512650D01*
X2997563Y-12512650D02*
X3016610Y-12522174D01*
X3016610Y-12522174D02*
X3026134Y-12541222D01*
X3026134Y-12541222D02*
X3026134Y-12645984D01*
X3026134Y-12541222D02*
X3035658Y-12522174D01*
X3035658Y-12522174D02*
X3054705Y-12512650D01*
X3054705Y-12512650D02*
X3083277Y-12512650D01*
X3083277Y-12512650D02*
X3102324Y-12522174D01*
X3102324Y-12522174D02*
X3111848Y-12541222D01*
X3111848Y-12541222D02*
X3111848Y-12645984D01*
X3207086Y-12645984D02*
X3207086Y-12512650D01*
X3207086Y-12531698D02*
X3216610Y-12522174D01*
X3216610Y-12522174D02*
X3235658Y-12512650D01*
X3235658Y-12512650D02*
X3264229Y-12512650D01*
X3264229Y-12512650D02*
X3283277Y-12522174D01*
X3283277Y-12522174D02*
X3292801Y-12541222D01*
X3292801Y-12541222D02*
X3292801Y-12645984D01*
X3292801Y-12541222D02*
X3302324Y-12522174D01*
X3302324Y-12522174D02*
X3321372Y-12512650D01*
X3321372Y-12512650D02*
X3349943Y-12512650D01*
X3349943Y-12512650D02*
X3368991Y-12522174D01*
X3368991Y-12522174D02*
X3378515Y-12541222D01*
X3378515Y-12541222D02*
X3378515Y-12645984D01*
X3768991Y-12436460D02*
X3597563Y-12693603D01*
X4026134Y-12445984D02*
X4045182Y-12445984D01*
X4045182Y-12445984D02*
X4064229Y-12455508D01*
X4064229Y-12455508D02*
X4073753Y-12465031D01*
X4073753Y-12465031D02*
X4083277Y-12484079D01*
X4083277Y-12484079D02*
X4092801Y-12522174D01*
X4092801Y-12522174D02*
X4092801Y-12569793D01*
X4092801Y-12569793D02*
X4083277Y-12607888D01*
X4083277Y-12607888D02*
X4073753Y-12626936D01*
X4073753Y-12626936D02*
X4064229Y-12636460D01*
X4064229Y-12636460D02*
X4045182Y-12645984D01*
X4045182Y-12645984D02*
X4026134Y-12645984D01*
X4026134Y-12645984D02*
X4007086Y-12636460D01*
X4007086Y-12636460D02*
X3997563Y-12626936D01*
X3997563Y-12626936D02*
X3988039Y-12607888D01*
X3988039Y-12607888D02*
X3978515Y-12569793D01*
X3978515Y-12569793D02*
X3978515Y-12522174D01*
X3978515Y-12522174D02*
X3988039Y-12484079D01*
X3988039Y-12484079D02*
X3997563Y-12465031D01*
X3997563Y-12465031D02*
X4007086Y-12455508D01*
X4007086Y-12455508D02*
X4026134Y-12445984D01*
X4178515Y-12626936D02*
X4188039Y-12636460D01*
X4188039Y-12636460D02*
X4178515Y-12645984D01*
X4178515Y-12645984D02*
X4168991Y-12636460D01*
X4168991Y-12636460D02*
X4178515Y-12626936D01*
X4178515Y-12626936D02*
X4178515Y-12645984D01*
X4378515Y-12645984D02*
X4264229Y-12645984D01*
X4321372Y-12645984D02*
X4321372Y-12445984D01*
X4321372Y-12445984D02*
X4302325Y-12474555D01*
X4302325Y-12474555D02*
X4283277Y-12493603D01*
X4283277Y-12493603D02*
X4264229Y-12503127D01*
X4568991Y-12645984D02*
X4454706Y-12645984D01*
X4511848Y-12645984D02*
X4511848Y-12445984D01*
X4511848Y-12445984D02*
X4492801Y-12474555D01*
X4492801Y-12474555D02*
X4473753Y-12493603D01*
X4473753Y-12493603D02*
X4454706Y-12503127D01*
X4683277Y-12531698D02*
X4664229Y-12522174D01*
X4664229Y-12522174D02*
X4654706Y-12512650D01*
X4654706Y-12512650D02*
X4645182Y-12493603D01*
X4645182Y-12493603D02*
X4645182Y-12484079D01*
X4645182Y-12484079D02*
X4654706Y-12465031D01*
X4654706Y-12465031D02*
X4664229Y-12455508D01*
X4664229Y-12455508D02*
X4683277Y-12445984D01*
X4683277Y-12445984D02*
X4721372Y-12445984D01*
X4721372Y-12445984D02*
X4740420Y-12455508D01*
X4740420Y-12455508D02*
X4749944Y-12465031D01*
X4749944Y-12465031D02*
X4759468Y-12484079D01*
X4759468Y-12484079D02*
X4759468Y-12493603D01*
X4759468Y-12493603D02*
X4749944Y-12512650D01*
X4749944Y-12512650D02*
X4740420Y-12522174D01*
X4740420Y-12522174D02*
X4721372Y-12531698D01*
X4721372Y-12531698D02*
X4683277Y-12531698D01*
X4683277Y-12531698D02*
X4664229Y-12541222D01*
X4664229Y-12541222D02*
X4654706Y-12550746D01*
X4654706Y-12550746D02*
X4645182Y-12569793D01*
X4645182Y-12569793D02*
X4645182Y-12607888D01*
X4645182Y-12607888D02*
X4654706Y-12626936D01*
X4654706Y-12626936D02*
X4664229Y-12636460D01*
X4664229Y-12636460D02*
X4683277Y-12645984D01*
X4683277Y-12645984D02*
X4721372Y-12645984D01*
X4721372Y-12645984D02*
X4740420Y-12636460D01*
X4740420Y-12636460D02*
X4749944Y-12626936D01*
X4749944Y-12626936D02*
X4759468Y-12607888D01*
X4759468Y-12607888D02*
X4759468Y-12569793D01*
X4759468Y-12569793D02*
X4749944Y-12550746D01*
X4749944Y-12550746D02*
X4740420Y-12541222D01*
X4740420Y-12541222D02*
X4721372Y-12531698D01*
X4949944Y-12645984D02*
X4835658Y-12645984D01*
X4892801Y-12645984D02*
X4892801Y-12445984D01*
X4892801Y-12445984D02*
X4873753Y-12474555D01*
X4873753Y-12474555D02*
X4854706Y-12493603D01*
X4854706Y-12493603D02*
X4835658Y-12503127D01*
X5026134Y-12445984D02*
X5026134Y-12484079D01*
X5102325Y-12445984D02*
X5102325Y-12484079D01*
X5397563Y-12722174D02*
X5388039Y-12712650D01*
X5388039Y-12712650D02*
X5368991Y-12684079D01*
X5368991Y-12684079D02*
X5359468Y-12665031D01*
X5359468Y-12665031D02*
X5349944Y-12636460D01*
X5349944Y-12636460D02*
X5340420Y-12588841D01*
X5340420Y-12588841D02*
X5340420Y-12550746D01*
X5340420Y-12550746D02*
X5349944Y-12503127D01*
X5349944Y-12503127D02*
X5359468Y-12474555D01*
X5359468Y-12474555D02*
X5368991Y-12455508D01*
X5368991Y-12455508D02*
X5388039Y-12426936D01*
X5388039Y-12426936D02*
X5397563Y-12417412D01*
X5511849Y-12445984D02*
X5530896Y-12445984D01*
X5530896Y-12445984D02*
X5549944Y-12455508D01*
X5549944Y-12455508D02*
X5559468Y-12465031D01*
X5559468Y-12465031D02*
X5568991Y-12484079D01*
X5568991Y-12484079D02*
X5578515Y-12522174D01*
X5578515Y-12522174D02*
X5578515Y-12569793D01*
X5578515Y-12569793D02*
X5568991Y-12607888D01*
X5568991Y-12607888D02*
X5559468Y-12626936D01*
X5559468Y-12626936D02*
X5549944Y-12636460D01*
X5549944Y-12636460D02*
X5530896Y-12645984D01*
X5530896Y-12645984D02*
X5511849Y-12645984D01*
X5511849Y-12645984D02*
X5492801Y-12636460D01*
X5492801Y-12636460D02*
X5483277Y-12626936D01*
X5483277Y-12626936D02*
X5473753Y-12607888D01*
X5473753Y-12607888D02*
X5464230Y-12569793D01*
X5464230Y-12569793D02*
X5464230Y-12522174D01*
X5464230Y-12522174D02*
X5473753Y-12484079D01*
X5473753Y-12484079D02*
X5483277Y-12465031D01*
X5483277Y-12465031D02*
X5492801Y-12455508D01*
X5492801Y-12455508D02*
X5511849Y-12445984D01*
X5816610Y-12645984D02*
X5816610Y-12445984D01*
X5902325Y-12645984D02*
X5902325Y-12541222D01*
X5902325Y-12541222D02*
X5892801Y-12522174D01*
X5892801Y-12522174D02*
X5873753Y-12512650D01*
X5873753Y-12512650D02*
X5845182Y-12512650D01*
X5845182Y-12512650D02*
X5826134Y-12522174D01*
X5826134Y-12522174D02*
X5816610Y-12531698D01*
X6026134Y-12645984D02*
X6007087Y-12636460D01*
X6007087Y-12636460D02*
X5997563Y-12626936D01*
X5997563Y-12626936D02*
X5988039Y-12607888D01*
X5988039Y-12607888D02*
X5988039Y-12550746D01*
X5988039Y-12550746D02*
X5997563Y-12531698D01*
X5997563Y-12531698D02*
X6007087Y-12522174D01*
X6007087Y-12522174D02*
X6026134Y-12512650D01*
X6026134Y-12512650D02*
X6054706Y-12512650D01*
X6054706Y-12512650D02*
X6073753Y-12522174D01*
X6073753Y-12522174D02*
X6083277Y-12531698D01*
X6083277Y-12531698D02*
X6092801Y-12550746D01*
X6092801Y-12550746D02*
X6092801Y-12607888D01*
X6092801Y-12607888D02*
X6083277Y-12626936D01*
X6083277Y-12626936D02*
X6073753Y-12636460D01*
X6073753Y-12636460D02*
X6054706Y-12645984D01*
X6054706Y-12645984D02*
X6026134Y-12645984D01*
X6207087Y-12645984D02*
X6188039Y-12636460D01*
X6188039Y-12636460D02*
X6178515Y-12617412D01*
X6178515Y-12617412D02*
X6178515Y-12445984D01*
X6359468Y-12636460D02*
X6340420Y-12645984D01*
X6340420Y-12645984D02*
X6302325Y-12645984D01*
X6302325Y-12645984D02*
X6283277Y-12636460D01*
X6283277Y-12636460D02*
X6273753Y-12617412D01*
X6273753Y-12617412D02*
X6273753Y-12541222D01*
X6273753Y-12541222D02*
X6283277Y-12522174D01*
X6283277Y-12522174D02*
X6302325Y-12512650D01*
X6302325Y-12512650D02*
X6340420Y-12512650D01*
X6340420Y-12512650D02*
X6359468Y-12522174D01*
X6359468Y-12522174D02*
X6368991Y-12541222D01*
X6368991Y-12541222D02*
X6368991Y-12560269D01*
X6368991Y-12560269D02*
X6273753Y-12579317D01*
X6445182Y-12636460D02*
X6464230Y-12645984D01*
X6464230Y-12645984D02*
X6502325Y-12645984D01*
X6502325Y-12645984D02*
X6521372Y-12636460D01*
X6521372Y-12636460D02*
X6530896Y-12617412D01*
X6530896Y-12617412D02*
X6530896Y-12607888D01*
X6530896Y-12607888D02*
X6521372Y-12588841D01*
X6521372Y-12588841D02*
X6502325Y-12579317D01*
X6502325Y-12579317D02*
X6473753Y-12579317D01*
X6473753Y-12579317D02*
X6454706Y-12569793D01*
X6454706Y-12569793D02*
X6445182Y-12550746D01*
X6445182Y-12550746D02*
X6445182Y-12541222D01*
X6445182Y-12541222D02*
X6454706Y-12522174D01*
X6454706Y-12522174D02*
X6473753Y-12512650D01*
X6473753Y-12512650D02*
X6502325Y-12512650D01*
X6502325Y-12512650D02*
X6521372Y-12522174D01*
X6768992Y-12569793D02*
X6921373Y-12569793D01*
X6845182Y-12645984D02*
X6845182Y-12493603D01*
X7159468Y-12465031D02*
X7168992Y-12455508D01*
X7168992Y-12455508D02*
X7188039Y-12445984D01*
X7188039Y-12445984D02*
X7235658Y-12445984D01*
X7235658Y-12445984D02*
X7254706Y-12455508D01*
X7254706Y-12455508D02*
X7264230Y-12465031D01*
X7264230Y-12465031D02*
X7273753Y-12484079D01*
X7273753Y-12484079D02*
X7273753Y-12503127D01*
X7273753Y-12503127D02*
X7264230Y-12531698D01*
X7264230Y-12531698D02*
X7149944Y-12645984D01*
X7149944Y-12645984D02*
X7273753Y-12645984D01*
X7502325Y-12636460D02*
X7521373Y-12645984D01*
X7521373Y-12645984D02*
X7559468Y-12645984D01*
X7559468Y-12645984D02*
X7578515Y-12636460D01*
X7578515Y-12636460D02*
X7588039Y-12617412D01*
X7588039Y-12617412D02*
X7588039Y-12607888D01*
X7588039Y-12607888D02*
X7578515Y-12588841D01*
X7578515Y-12588841D02*
X7559468Y-12579317D01*
X7559468Y-12579317D02*
X7530896Y-12579317D01*
X7530896Y-12579317D02*
X7511849Y-12569793D01*
X7511849Y-12569793D02*
X7502325Y-12550746D01*
X7502325Y-12550746D02*
X7502325Y-12541222D01*
X7502325Y-12541222D02*
X7511849Y-12522174D01*
X7511849Y-12522174D02*
X7530896Y-12512650D01*
X7530896Y-12512650D02*
X7559468Y-12512650D01*
X7559468Y-12512650D02*
X7578515Y-12522174D01*
X7702325Y-12645984D02*
X7683277Y-12636460D01*
X7683277Y-12636460D02*
X7673754Y-12617412D01*
X7673754Y-12617412D02*
X7673754Y-12445984D01*
X7807087Y-12645984D02*
X7788039Y-12636460D01*
X7788039Y-12636460D02*
X7778515Y-12626936D01*
X7778515Y-12626936D02*
X7768992Y-12607888D01*
X7768992Y-12607888D02*
X7768992Y-12550746D01*
X7768992Y-12550746D02*
X7778515Y-12531698D01*
X7778515Y-12531698D02*
X7788039Y-12522174D01*
X7788039Y-12522174D02*
X7807087Y-12512650D01*
X7807087Y-12512650D02*
X7835658Y-12512650D01*
X7835658Y-12512650D02*
X7854706Y-12522174D01*
X7854706Y-12522174D02*
X7864230Y-12531698D01*
X7864230Y-12531698D02*
X7873754Y-12550746D01*
X7873754Y-12550746D02*
X7873754Y-12607888D01*
X7873754Y-12607888D02*
X7864230Y-12626936D01*
X7864230Y-12626936D02*
X7854706Y-12636460D01*
X7854706Y-12636460D02*
X7835658Y-12645984D01*
X7835658Y-12645984D02*
X7807087Y-12645984D01*
X7930896Y-12512650D02*
X8007087Y-12512650D01*
X7959468Y-12445984D02*
X7959468Y-12617412D01*
X7959468Y-12617412D02*
X7968992Y-12636460D01*
X7968992Y-12636460D02*
X7988039Y-12645984D01*
X7988039Y-12645984D02*
X8007087Y-12645984D01*
X8064230Y-12636460D02*
X8083277Y-12645984D01*
X8083277Y-12645984D02*
X8121373Y-12645984D01*
X8121373Y-12645984D02*
X8140420Y-12636460D01*
X8140420Y-12636460D02*
X8149944Y-12617412D01*
X8149944Y-12617412D02*
X8149944Y-12607888D01*
X8149944Y-12607888D02*
X8140420Y-12588841D01*
X8140420Y-12588841D02*
X8121373Y-12579317D01*
X8121373Y-12579317D02*
X8092801Y-12579317D01*
X8092801Y-12579317D02*
X8073754Y-12569793D01*
X8073754Y-12569793D02*
X8064230Y-12550746D01*
X8064230Y-12550746D02*
X8064230Y-12541222D01*
X8064230Y-12541222D02*
X8073754Y-12522174D01*
X8073754Y-12522174D02*
X8092801Y-12512650D01*
X8092801Y-12512650D02*
X8121373Y-12512650D01*
X8121373Y-12512650D02*
X8140420Y-12522174D01*
X8216611Y-12722174D02*
X8226135Y-12712650D01*
X8226135Y-12712650D02*
X8245182Y-12684079D01*
X8245182Y-12684079D02*
X8254706Y-12665031D01*
X8254706Y-12665031D02*
X8264230Y-12636460D01*
X8264230Y-12636460D02*
X8273754Y-12588841D01*
X8273754Y-12588841D02*
X8273754Y-12550746D01*
X8273754Y-12550746D02*
X8264230Y-12503127D01*
X8264230Y-12503127D02*
X8254706Y-12474555D01*
X8254706Y-12474555D02*
X8245182Y-12455508D01*
X8245182Y-12455508D02*
X8226135Y-12426936D01*
X8226135Y-12426936D02*
X8216611Y-12417412D01*
M02*
