M48
; DRILL file {KiCad 8.0.7} date 2025-01-13T19:37:46-0800
; FORMAT={-:-/ absolute / metric / decimal}
; #@! TF.CreationDate,2025-01-13T19:37:46-08:00
; #@! TF.GenerationSoftware,Kicad,Pcbnew,8.0.7
; #@! TF.FileFunction,Plated,1,4,PTH
FMAT,2
METRIC
; #@! TA.AperFunction,Plated,PTH,ViaDrill
T1C0.300
; #@! TA.AperFunction,Plated,PTH,ComponentDrill
T2C1.000
; #@! TA.AperFunction,Plated,PTH,ComponentDrill
T3C1.295
; #@! TA.AperFunction,Plated,PTH,ComponentDrill
T4C2.500
; #@! TA.AperFunction,Plated,PTH,ComponentDrill
T5C3.000
%
G90
G05
T1
X27.25Y-50.5
X27.25Y-51.5
X27.25Y-52.5
X27.25Y-53.5
X28.25Y-50.5
X28.25Y-51.5
X28.25Y-52.5
X28.25Y-53.5
X29.25Y-50.5
X29.25Y-51.5
X29.25Y-52.5
X29.25Y-53.5
X30.25Y-50.5
X30.25Y-51.5
X30.25Y-52.5
X30.25Y-53.5
X31.25Y-50.5
X31.25Y-51.5
X31.25Y-52.5
X31.25Y-53.5
X32.25Y-50.5
X32.25Y-51.5
X32.25Y-52.5
X32.25Y-53.5
X33.25Y-50.5
X33.25Y-51.5
X33.25Y-52.5
X33.25Y-53.5
X34.25Y-50.5
X34.25Y-51.5
X34.25Y-52.5
X34.25Y-53.5
X35.25Y-50.5
X35.25Y-51.5
X35.25Y-52.5
X35.25Y-53.5
X36.25Y-50.5
X36.25Y-51.5
X36.25Y-52.5
X36.25Y-53.5
X37.25Y-50.5
X37.25Y-51.5
X37.25Y-52.5
X37.25Y-53.5
X38.25Y-50.5
X38.25Y-51.5
X38.25Y-52.5
X38.25Y-53.5
X39.25Y-50.5
X39.25Y-51.5
X39.25Y-52.5
X39.25Y-53.5
X40.25Y-50.5
X40.25Y-51.5
X40.25Y-52.5
X40.25Y-53.5
X40.5Y-72.0
X40.5Y-73.0
X40.5Y-74.0
X40.5Y-75.0
X41.25Y-50.5
X41.25Y-51.5
X41.25Y-52.5
X41.25Y-53.5
X41.5Y-72.0
X41.5Y-73.0
X41.5Y-74.0
X41.5Y-75.0
X42.25Y-50.5
X42.25Y-51.5
X42.25Y-52.5
X42.25Y-53.5
X42.5Y-72.0
X42.5Y-73.0
X42.5Y-74.0
X42.5Y-75.0
X43.25Y-50.5
X43.25Y-51.5
X43.25Y-52.5
X43.25Y-53.5
X43.5Y-72.0
X43.5Y-73.0
X43.5Y-74.0
X43.5Y-75.0
X44.25Y-50.5
X44.25Y-51.5
X44.25Y-52.5
X44.25Y-53.5
X44.5Y-72.0
X44.5Y-73.0
X44.5Y-74.0
X44.5Y-75.0
X45.25Y-50.5
X45.25Y-51.5
X45.25Y-52.5
X45.25Y-53.5
X45.5Y-72.0
X45.5Y-73.0
X45.5Y-74.0
X45.5Y-75.0
X46.25Y-50.5
X46.25Y-51.5
X46.25Y-52.5
X46.25Y-53.5
X46.5Y-72.0
X46.5Y-73.0
X46.5Y-74.0
X46.5Y-75.0
X47.25Y-50.5
X47.25Y-51.5
X47.25Y-52.5
X47.25Y-53.5
X47.5Y-72.0
X47.5Y-73.0
X47.5Y-74.0
X47.5Y-75.0
X48.25Y-50.5
X48.25Y-51.5
X48.25Y-52.5
X48.25Y-53.5
X48.5Y-72.0
X48.5Y-73.0
X48.5Y-74.0
X48.5Y-75.0
X49.25Y-50.5
X49.25Y-51.5
X49.25Y-52.5
X49.25Y-53.5
X49.5Y-72.0
X49.5Y-73.0
X49.5Y-74.0
X49.5Y-75.0
X50.25Y-50.5
X50.25Y-51.5
X50.25Y-52.5
X50.25Y-53.5
X50.5Y-72.0
X50.5Y-73.0
X50.5Y-74.0
X50.5Y-75.0
X51.25Y-50.5
X51.25Y-51.5
X51.25Y-52.5
X51.25Y-53.5
X51.5Y-72.0
X51.5Y-73.0
X51.5Y-74.0
X51.5Y-75.0
X52.25Y-50.5
X52.25Y-51.5
X52.25Y-52.5
X52.25Y-53.5
X52.5Y-72.0
X52.5Y-73.0
X52.5Y-74.0
X52.5Y-75.0
X53.25Y-50.5
X53.25Y-51.5
X53.25Y-52.5
X53.25Y-53.5
X53.5Y-72.0
X53.5Y-73.0
X53.5Y-74.0
X53.5Y-75.0
X54.25Y-50.5
X54.25Y-51.5
X54.25Y-52.5
X54.25Y-53.5
X54.5Y-72.0
X54.5Y-73.0
X54.5Y-74.0
X54.5Y-75.0
X55.25Y-50.5
X55.25Y-51.5
X55.25Y-52.5
X55.25Y-53.5
X55.5Y-72.0
X55.5Y-73.0
X55.5Y-74.0
X55.5Y-75.0
X56.25Y-50.5
X56.25Y-51.5
X56.25Y-52.5
X56.25Y-53.5
X56.5Y-72.0
X56.5Y-73.0
X56.5Y-74.0
X56.5Y-75.0
X57.25Y-50.5
X57.25Y-51.5
X57.25Y-52.5
X57.25Y-53.5
X57.5Y-72.0
X57.5Y-73.0
X57.5Y-74.0
X57.5Y-75.0
X58.25Y-50.5
X58.25Y-51.5
X58.25Y-52.5
X58.25Y-53.5
X58.5Y-72.0
X58.5Y-73.0
X58.5Y-74.0
X58.5Y-75.0
X59.25Y-50.5
X59.25Y-51.5
X59.25Y-52.5
X59.25Y-53.5
X59.5Y-72.0
X59.5Y-73.0
X59.5Y-74.0
X59.5Y-75.0
X60.25Y-50.5
X60.25Y-51.5
X60.25Y-52.5
X60.25Y-53.5
X60.5Y-72.0
X60.5Y-73.0
X60.5Y-74.0
X60.5Y-75.0
X61.25Y-50.5
X61.25Y-51.5
X61.25Y-52.5
X61.25Y-53.5
X61.5Y-72.0
X61.5Y-73.0
X61.5Y-74.0
X61.5Y-75.0
X62.25Y-50.5
X62.25Y-51.5
X62.25Y-52.5
X62.25Y-53.5
X62.5Y-72.0
X62.5Y-73.0
X62.5Y-74.0
X62.5Y-75.0
X63.25Y-50.5
X63.25Y-51.5
X63.25Y-52.5
X63.25Y-53.5
X63.5Y-72.0
X63.5Y-73.0
X63.5Y-74.0
X63.5Y-75.0
X64.25Y-50.5
X64.25Y-51.5
X64.25Y-52.5
X64.25Y-53.5
X65.25Y-50.5
X65.25Y-51.5
X65.25Y-52.5
X65.25Y-53.5
X66.25Y-50.5
X66.25Y-51.5
X66.25Y-52.5
X66.25Y-53.5
X67.75Y-86.0
X67.75Y-87.0
X67.75Y-88.0
X67.75Y-89.0
X67.75Y-90.0
X67.75Y-91.0
X67.75Y-92.0
X67.75Y-93.0
X67.75Y-94.0
X67.75Y-95.0
X67.75Y-96.0
X67.75Y-97.0
X67.75Y-98.0
X67.75Y-99.0
X67.75Y-100.0
X67.75Y-101.0
X68.75Y-86.0
X68.75Y-87.0
X68.75Y-88.0
X68.75Y-89.0
X68.75Y-90.0
X68.75Y-91.0
X68.75Y-92.0
X68.75Y-93.0
X68.75Y-94.0
X68.75Y-95.0
X68.75Y-96.0
X68.75Y-97.0
X68.75Y-98.0
X68.75Y-99.0
X68.75Y-100.0
X68.75Y-101.0
X69.75Y-86.0
X69.75Y-87.0
X69.75Y-88.0
X69.75Y-89.0
X69.75Y-90.0
X69.75Y-91.0
X69.75Y-92.0
X69.75Y-93.0
X69.75Y-94.0
X69.75Y-95.0
X69.75Y-96.0
X69.75Y-97.0
X69.75Y-98.0
X69.75Y-99.0
X69.75Y-100.0
X69.75Y-101.0
X70.75Y-86.0
X70.75Y-87.0
X70.75Y-88.0
X70.75Y-89.0
X70.75Y-90.0
X70.75Y-91.0
X70.75Y-92.0
X70.75Y-93.0
X70.75Y-94.0
X70.75Y-95.0
X70.75Y-96.0
X70.75Y-97.0
X70.75Y-98.0
X70.75Y-99.0
X70.75Y-100.0
X70.75Y-101.0
X72.25Y-79.0
X73.5Y-80.0
X73.5Y-81.0
X73.5Y-82.0
X73.5Y-83.0
X74.5Y-80.0
X74.5Y-81.0
X74.5Y-82.0
X74.5Y-83.0
X75.5Y-80.0
X75.5Y-81.0
X75.5Y-82.0
X75.5Y-83.0
X76.5Y-80.0
X76.5Y-81.0
X76.5Y-82.0
X76.5Y-83.0
X77.5Y-80.0
X77.5Y-81.0
X77.5Y-82.0
X77.5Y-83.0
X78.5Y-80.0
X78.5Y-81.0
X78.5Y-82.0
X78.5Y-83.0
X78.52Y-79.0
X79.5Y-80.0
X79.5Y-81.0
X79.5Y-82.0
X79.5Y-83.0
X80.5Y-80.0
X80.5Y-81.0
X80.5Y-82.0
X80.5Y-83.0
X81.0Y-78.0
X81.25Y-75.0
X85.0Y-53.5
X85.0Y-54.5
X85.0Y-64.0
X85.0Y-65.0
X85.0Y-66.0
X85.0Y-67.0
X85.9Y-33.5
X86.0Y-53.5
X86.0Y-54.5
X86.0Y-64.0
X86.0Y-65.0
X86.0Y-66.0
X86.0Y-67.0
X87.0Y-53.5
X87.0Y-54.5
X87.0Y-64.0
X87.0Y-65.0
X87.0Y-66.0
X87.0Y-67.0
X87.4Y-37.2
X88.0Y-53.5
X88.0Y-54.5
X88.0Y-64.0
X88.0Y-65.0
X88.0Y-66.0
X88.0Y-67.0
X88.25Y-52.0
X89.0Y-53.5
X89.0Y-54.5
X89.75Y-32.0
X90.0Y-53.5
X90.0Y-54.5
X90.75Y-75.0
X91.0Y-53.5
X91.0Y-54.5
X92.0Y-53.5
X92.0Y-54.5
X92.775Y-39.5
X92.775Y-40.5
X92.775Y-41.5
X92.775Y-42.5
X92.775Y-43.5
X93.775Y-39.5
X93.775Y-40.5
X93.775Y-41.5
X93.775Y-42.5
X93.775Y-43.5
X94.775Y-39.5
X94.775Y-40.5
X94.775Y-41.5
X94.775Y-42.5
X94.775Y-43.5
X96.25Y-35.0
X97.25Y-75.0
X97.6Y-54.5
X97.75Y-60.5
X97.75Y-61.5
X98.575Y-41.825
X98.625Y-43.125
X98.75Y-37.925
X98.75Y-39.225
X98.75Y-40.5
X99.75Y-54.5
X101.5Y-53.0
X101.5Y-54.0
X101.5Y-55.0
X101.5Y-56.0
X102.5Y-35.0
X102.5Y-53.0
X102.5Y-54.0
X102.5Y-55.0
X102.5Y-56.0
X103.5Y-53.0
X103.5Y-54.0
X103.5Y-55.0
X103.5Y-56.0
X104.0Y-43.5
X104.0Y-78.0
X105.5Y-64.5
X105.5Y-65.5
X105.5Y-66.5
X106.0Y-34.5
X106.0Y-35.5
X106.5Y-64.5
X106.5Y-65.5
X106.5Y-66.5
X107.0Y-34.5
X107.0Y-35.5
X107.25Y-39.0
X107.5Y-64.5
X107.5Y-65.5
X107.5Y-66.5
X108.0Y-34.5
X108.0Y-35.5
X109.0Y-34.5
X109.0Y-35.5
X109.75Y-50.0
X109.75Y-51.0
X109.75Y-52.0
X109.75Y-53.0
X110.625Y-77.625
X110.75Y-50.0
X110.75Y-51.0
X110.75Y-52.0
X110.75Y-53.0
X111.25Y-85.5
X111.25Y-86.5
X111.25Y-87.5
X111.25Y-88.5
X111.25Y-89.5
X111.25Y-90.5
X111.25Y-91.5
X111.25Y-92.5
X111.25Y-93.5
X111.25Y-94.5
X111.25Y-95.5
X111.25Y-96.5
X111.25Y-97.5
X111.25Y-98.5
X111.25Y-99.5
X111.25Y-100.5
X111.75Y-50.0
X111.75Y-51.0
X111.75Y-52.0
X111.75Y-53.0
X111.75Y-66.5
X111.75Y-67.5
X111.75Y-68.5
X111.75Y-69.5
X112.25Y-85.5
X112.25Y-86.5
X112.25Y-87.5
X112.25Y-88.5
X112.25Y-89.5
X112.25Y-90.5
X112.25Y-91.5
X112.25Y-92.5
X112.25Y-93.5
X112.25Y-94.5
X112.25Y-95.5
X112.25Y-96.5
X112.25Y-97.5
X112.25Y-98.5
X112.25Y-99.5
X112.25Y-100.5
X112.75Y-50.0
X112.75Y-51.0
X112.75Y-52.0
X112.75Y-53.0
X112.75Y-66.5
X112.75Y-67.5
X112.75Y-68.5
X112.75Y-69.5
X113.25Y-85.5
X113.25Y-86.5
X113.25Y-87.5
X113.25Y-88.5
X113.25Y-89.5
X113.25Y-90.5
X113.25Y-91.5
X113.25Y-92.5
X113.25Y-93.5
X113.25Y-94.5
X113.25Y-95.5
X113.25Y-96.5
X113.25Y-97.5
X113.25Y-98.5
X113.25Y-99.5
X113.25Y-100.5
X113.75Y-50.0
X113.75Y-51.0
X113.75Y-52.0
X113.75Y-53.0
X113.75Y-66.5
X113.75Y-67.5
X113.75Y-68.5
X113.75Y-69.5
X114.25Y-85.5
X114.25Y-86.5
X114.25Y-87.5
X114.25Y-88.5
X114.25Y-89.5
X114.25Y-90.5
X114.25Y-91.5
X114.25Y-92.5
X114.25Y-93.5
X114.25Y-94.5
X114.25Y-95.5
X114.25Y-96.5
X114.25Y-97.5
X114.25Y-98.5
X114.25Y-99.5
X114.25Y-100.5
X114.75Y-50.0
X114.75Y-51.0
X114.75Y-52.0
X114.75Y-53.0
X114.75Y-66.5
X114.75Y-67.5
X114.75Y-68.5
X114.75Y-69.5
X115.75Y-50.0
X115.75Y-51.0
X115.75Y-52.0
X115.75Y-53.0
X115.75Y-66.5
X115.75Y-67.5
X115.75Y-68.5
X115.75Y-69.5
X116.75Y-50.0
X116.75Y-51.0
X116.75Y-52.0
X116.75Y-53.0
X116.75Y-66.5
X116.75Y-67.5
X116.75Y-68.5
X116.75Y-69.5
X117.625Y-77.625
X117.75Y-50.0
X117.75Y-51.0
X117.75Y-52.0
X117.75Y-53.0
X117.75Y-66.5
X117.75Y-67.5
X117.75Y-68.5
X117.75Y-69.5
X118.75Y-50.0
X118.75Y-51.0
X118.75Y-52.0
X118.75Y-53.0
X118.75Y-66.5
X118.75Y-67.5
X118.75Y-68.5
X118.75Y-69.5
X119.75Y-50.0
X119.75Y-51.0
X119.75Y-52.0
X119.75Y-53.0
X119.75Y-66.5
X119.75Y-67.5
X119.75Y-68.5
X119.75Y-69.5
X120.75Y-50.0
X120.75Y-51.0
X120.75Y-52.0
X120.75Y-53.0
X120.75Y-66.5
X120.75Y-67.5
X120.75Y-68.5
X120.75Y-69.5
X121.75Y-50.0
X121.75Y-51.0
X121.75Y-52.0
X121.75Y-53.0
X121.75Y-66.5
X121.75Y-67.5
X121.75Y-68.5
X121.75Y-69.5
X122.75Y-50.0
X122.75Y-51.0
X122.75Y-52.0
X122.75Y-53.0
X122.75Y-66.5
X122.75Y-67.5
X122.75Y-68.5
X122.75Y-69.5
X123.75Y-50.0
X123.75Y-51.0
X123.75Y-52.0
X123.75Y-53.0
X123.75Y-66.5
X123.75Y-67.5
X123.75Y-68.5
X123.75Y-69.5
X124.75Y-50.0
X124.75Y-51.0
X124.75Y-52.0
X124.75Y-53.0
X124.75Y-66.5
X124.75Y-67.5
X124.75Y-68.5
X124.75Y-69.5
X125.75Y-50.0
X125.75Y-51.0
X125.75Y-52.0
X125.75Y-53.0
X125.75Y-66.5
X125.75Y-67.5
X125.75Y-68.5
X125.75Y-69.5
X126.75Y-50.0
X126.75Y-51.0
X126.75Y-52.0
X126.75Y-53.0
X126.75Y-66.5
X126.75Y-67.5
X126.75Y-68.5
X126.75Y-69.5
X127.75Y-50.0
X127.75Y-51.0
X127.75Y-52.0
X127.75Y-53.0
X127.75Y-66.5
X127.75Y-67.5
X127.75Y-68.5
X127.75Y-69.5
X128.75Y-50.0
X128.75Y-51.0
X128.75Y-52.0
X128.75Y-53.0
X128.75Y-66.5
X128.75Y-67.5
X128.75Y-68.5
X128.75Y-69.5
X129.75Y-50.0
X129.75Y-51.0
X129.75Y-52.0
X129.75Y-53.0
X129.75Y-66.5
X129.75Y-67.5
X129.75Y-68.5
X129.75Y-69.5
X130.75Y-50.0
X130.75Y-51.0
X130.75Y-52.0
X130.75Y-53.0
X130.75Y-66.5
X130.75Y-67.5
X130.75Y-68.5
X130.75Y-69.5
X131.75Y-50.0
X131.75Y-51.0
X131.75Y-52.0
X131.75Y-53.0
X131.75Y-66.5
X131.75Y-67.5
X131.75Y-68.5
X131.75Y-69.5
X132.75Y-50.0
X132.75Y-51.0
X132.75Y-52.0
X132.75Y-53.0
X132.75Y-66.5
X132.75Y-67.5
X132.75Y-68.5
X132.75Y-69.5
X133.75Y-50.0
X133.75Y-51.0
X133.75Y-52.0
X133.75Y-53.0
X133.75Y-66.5
X133.75Y-67.5
X133.75Y-68.5
X133.75Y-69.5
X134.75Y-50.0
X134.75Y-51.0
X134.75Y-52.0
X134.75Y-53.0
X134.75Y-66.5
X134.75Y-67.5
X134.75Y-68.5
X134.75Y-69.5
X135.75Y-50.0
X135.75Y-51.0
X135.75Y-52.0
X135.75Y-53.0
X136.75Y-50.0
X136.75Y-51.0
X136.75Y-52.0
X136.75Y-53.0
X137.75Y-50.0
X137.75Y-51.0
X137.75Y-52.0
X137.75Y-53.0
X138.75Y-50.0
X138.75Y-51.0
X138.75Y-52.0
X138.75Y-53.0
X139.75Y-50.0
X139.75Y-51.0
X139.75Y-52.0
X139.75Y-53.0
X140.75Y-50.0
X140.75Y-51.0
X140.75Y-52.0
X140.75Y-53.0
X141.75Y-50.0
X141.75Y-51.0
X141.75Y-52.0
X141.75Y-53.0
X142.75Y-50.0
X142.75Y-51.0
X142.75Y-52.0
X142.75Y-53.0
X143.75Y-50.0
X143.75Y-51.0
X143.75Y-52.0
X143.75Y-53.0
X144.75Y-50.0
X144.75Y-51.0
X144.75Y-52.0
X144.75Y-53.0
X145.75Y-50.0
X145.75Y-51.0
X145.75Y-52.0
X145.75Y-53.0
X146.75Y-50.0
X146.75Y-51.0
X146.75Y-52.0
X146.75Y-53.0
X147.75Y-50.0
X147.75Y-51.0
X147.75Y-52.0
X147.75Y-53.0
X148.75Y-50.0
X148.75Y-51.0
X148.75Y-52.0
X148.75Y-53.0
T2
X41.5Y-46.0
X42.0Y-80.0
X69.5Y-104.5
X112.5Y-104.5
X124.5Y-82.0
X133.5Y-46.0
T3
X25.5Y-79.637
X34.5Y-73.287
X139.249Y-80.213
X148.249Y-73.863
T4
X84.25Y-90.1
X97.75Y-99.0
T5
X81.75Y-99.0G85X86.75Y-99.0
G05
X95.25Y-90.1G85X100.25Y-90.1
G05
M30
