%TF.GenerationSoftware,KiCad,Pcbnew,8.0.7*%
%TF.CreationDate,2025-01-13T19:37:05-08:00*%
%TF.ProjectId,DCDCv2,44434443-7632-42e6-9b69-6361645f7063,rev?*%
%TF.SameCoordinates,Original*%
%TF.FileFunction,Copper,L1,Top*%
%TF.FilePolarity,Positive*%
%FSLAX46Y46*%
G04 Gerber Fmt 4.6, Leading zero omitted, Abs format (unit mm)*
G04 Created by KiCad (PCBNEW 8.0.7) date 2025-01-13 19:37:05*
%MOMM*%
%LPD*%
G01*
G04 APERTURE LIST*
G04 Aperture macros list*
%AMRoundRect*
0 Rectangle with rounded corners*
0 $1 Rounding radius*
0 $2 $3 $4 $5 $6 $7 $8 $9 X,Y pos of 4 corners*
0 Add a 4 corners polygon primitive as box body*
4,1,4,$2,$3,$4,$5,$6,$7,$8,$9,$2,$3,0*
0 Add four circle primitives for the rounded corners*
1,1,$1+$1,$2,$3*
1,1,$1+$1,$4,$5*
1,1,$1+$1,$6,$7*
1,1,$1+$1,$8,$9*
0 Add four rect primitives between the rounded corners*
20,1,$1+$1,$2,$3,$4,$5,0*
20,1,$1+$1,$4,$5,$6,$7,0*
20,1,$1+$1,$6,$7,$8,$9,0*
20,1,$1+$1,$8,$9,$2,$3,0*%
G04 Aperture macros list end*
%TA.AperFunction,SMDPad,CuDef*%
%ADD10RoundRect,0.237500X0.250000X0.237500X-0.250000X0.237500X-0.250000X-0.237500X0.250000X-0.237500X0*%
%TD*%
%TA.AperFunction,SMDPad,CuDef*%
%ADD11R,0.650000X0.630000*%
%TD*%
%TA.AperFunction,SMDPad,CuDef*%
%ADD12R,4.459998X4.280271*%
%TD*%
%TA.AperFunction,SMDPad,CuDef*%
%ADD13R,1.498600X3.302000*%
%TD*%
%TA.AperFunction,ComponentPad*%
%ADD14C,1.803400*%
%TD*%
%TA.AperFunction,SMDPad,CuDef*%
%ADD15RoundRect,0.250000X0.337500X0.475000X-0.337500X0.475000X-0.337500X-0.475000X0.337500X-0.475000X0*%
%TD*%
%TA.AperFunction,SMDPad,CuDef*%
%ADD16RoundRect,0.155000X0.212500X0.155000X-0.212500X0.155000X-0.212500X-0.155000X0.212500X-0.155000X0*%
%TD*%
%TA.AperFunction,SMDPad,CuDef*%
%ADD17RoundRect,0.237500X-0.237500X0.250000X-0.237500X-0.250000X0.237500X-0.250000X0.237500X0.250000X0*%
%TD*%
%TA.AperFunction,ComponentPad*%
%ADD18C,2.000000*%
%TD*%
%TA.AperFunction,SMDPad,CuDef*%
%ADD19RoundRect,0.237500X-0.300000X-0.237500X0.300000X-0.237500X0.300000X0.237500X-0.300000X0.237500X0*%
%TD*%
%TA.AperFunction,SMDPad,CuDef*%
%ADD20RoundRect,0.250000X-1.400000X-2.000000X1.400000X-2.000000X1.400000X2.000000X-1.400000X2.000000X0*%
%TD*%
%TA.AperFunction,SMDPad,CuDef*%
%ADD21RoundRect,0.237500X0.300000X0.237500X-0.300000X0.237500X-0.300000X-0.237500X0.300000X-0.237500X0*%
%TD*%
%TA.AperFunction,ComponentPad*%
%ADD22C,3.750000*%
%TD*%
%TA.AperFunction,ComponentPad*%
%ADD23R,10.000000X5.000000*%
%TD*%
%TA.AperFunction,ComponentPad*%
%ADD24O,10.000000X5.000000*%
%TD*%
%TA.AperFunction,SMDPad,CuDef*%
%ADD25R,1.850000X3.500000*%
%TD*%
%TA.AperFunction,SMDPad,CuDef*%
%ADD26R,5.588000X2.489200*%
%TD*%
%TA.AperFunction,SMDPad,CuDef*%
%ADD27RoundRect,0.250000X-0.337500X-0.475000X0.337500X-0.475000X0.337500X0.475000X-0.337500X0.475000X0*%
%TD*%
%TA.AperFunction,SMDPad,CuDef*%
%ADD28O,1.699999X0.349999*%
%TD*%
%TA.AperFunction,SMDPad,CuDef*%
%ADD29R,3.099999X5.180000*%
%TD*%
%TA.AperFunction,ViaPad*%
%ADD30C,0.600000*%
%TD*%
%TA.AperFunction,Conductor*%
%ADD31C,0.200000*%
%TD*%
%TA.AperFunction,Conductor*%
%ADD32C,0.400000*%
%TD*%
G04 APERTURE END LIST*
D10*
%TO.P,Rfbt1,1,1*%
%TO.N,Vout*%
X87162500Y-49000000D03*
%TO.P,Rfbt1,2,2*%
%TO.N,Net-(U1-FB)*%
X85337500Y-49000000D03*
%TD*%
D11*
%TO.P,M3,1,Source*%
%TO.N,/sw2*%
X105940000Y-77970144D03*
%TO.P,M3,2,Source*%
X107210000Y-77970144D03*
%TO.P,M3,3,Source*%
X108480000Y-77970144D03*
%TO.P,M3,4,Gate*%
%TO.N,/hdrv2*%
X109750000Y-77970144D03*
D12*
%TO.P,M3,5,Drain*%
%TO.N,Vout*%
X107845001Y-74640136D03*
D11*
X105940000Y-72500000D03*
X107210000Y-72500000D03*
X108480000Y-72500000D03*
X109750000Y-72500000D03*
%TD*%
D13*
%TO.P,Cout1,1,+*%
%TO.N,Vout*%
X109241800Y-63000000D03*
%TO.P,Cout1,2,-*%
%TO.N,GND*%
X109241800Y-56091200D03*
%TD*%
D14*
%TO.P,Vin (15 to 28V),1,Pin_1*%
%TO.N,Vin*%
X34500000Y-73287202D03*
%TO.P,Vin (15 to 28V),2,Pin_2*%
%TO.N,GND*%
X25500018Y-79637202D03*
%TD*%
D15*
%TO.P,Ccomp1,1,1*%
%TO.N,Net-(Ccomp1-Pad1)*%
X81737500Y-43100000D03*
%TO.P,Ccomp1,2,2*%
%TO.N,GND*%
X79662500Y-43100000D03*
%TD*%
D16*
%TO.P,Ccomp2,1,1*%
%TO.N,Net-(U1-COMP)*%
X80867500Y-45200000D03*
%TO.P,Ccomp2,2,2*%
%TO.N,GND*%
X79732500Y-45200000D03*
%TD*%
D17*
%TO.P,Rcsg1,1,1*%
%TO.N,Net-(U1-CSG)*%
X97599998Y-50812499D03*
%TO.P,Rcsg1,2,2*%
%TO.N,GND*%
X97599998Y-52637499D03*
%TD*%
D13*
%TO.P,Cin1,1,+*%
%TO.N,Vin*%
X60500000Y-63000000D03*
%TO.P,Cin1,2,-*%
%TO.N,GND*%
X60500000Y-56091200D03*
%TD*%
D18*
%TO.P,GND,1*%
%TO.N,GND*%
X41500000Y-46000000D03*
%TD*%
D19*
%TO.P,Cvcc1,1,1*%
%TO.N,Net-(Dboot1-A)*%
X104599998Y-44724999D03*
%TO.P,Cvcc1,2,2*%
%TO.N,GND*%
X106324998Y-44724999D03*
%TD*%
D15*
%TO.P,Css1,1,1*%
%TO.N,Net-(U1-SS)*%
X81737500Y-40500000D03*
%TO.P,Css1,2,2*%
%TO.N,GND*%
X79662500Y-40500000D03*
%TD*%
D18*
%TO.P,Vin,1*%
%TO.N,Vin*%
X42000000Y-80000000D03*
%TD*%
D10*
%TO.P,Rt1,1,1*%
%TO.N,Net-(U1-RT_SYNC)*%
X81512500Y-36400000D03*
%TO.P,Rt1,2,2*%
%TO.N,GND*%
X79687500Y-36400000D03*
%TD*%
D18*
%TO.P,GND,1*%
%TO.N,GND*%
X133500000Y-46000000D03*
%TD*%
D13*
%TO.P,Cin_5,1,+*%
%TO.N,Vin*%
X70500000Y-63000000D03*
%TO.P,Cin_5,2,-*%
%TO.N,GND*%
X70500000Y-56091200D03*
%TD*%
D20*
%TO.P,Dboot1,1,K*%
%TO.N,Net-(Dboot1-K)*%
X120500000Y-36500000D03*
%TO.P,Dboot1,2,A*%
%TO.N,Net-(Dboot1-A)*%
X120500000Y-45300000D03*
%TD*%
D13*
%TO.P,Cin_4,1,+*%
%TO.N,Vin*%
X40500000Y-63000000D03*
%TO.P,Cin_4,2,-*%
%TO.N,GND*%
X40500000Y-56091200D03*
%TD*%
D21*
%TO.P,Ccs1,1,1*%
%TO.N,Net-(U1-CS)*%
X97962498Y-47724999D03*
%TO.P,Ccs1,2,2*%
%TO.N,Net-(U1-CSG)*%
X96237498Y-47724999D03*
%TD*%
D13*
%TO.P,Cout_4,1,+*%
%TO.N,Vout*%
X140250000Y-63000000D03*
%TO.P,Cout_4,2,-*%
%TO.N,GND*%
X140250000Y-56091200D03*
%TD*%
D22*
%TO.P,L1,*%
%TO.N,*%
X97750000Y-99000000D03*
X84250000Y-90100000D03*
D23*
%TO.P,L1,1,1*%
%TO.N,/sw1*%
X84250000Y-99000000D03*
D24*
%TO.P,L1,2,2*%
%TO.N,/sw2*%
X97750000Y-90100000D03*
%TD*%
D17*
%TO.P,Rf1,1,1*%
%TO.N,Net-(Df1-K)*%
X91250000Y-32087500D03*
%TO.P,Rf1,2,2*%
%TO.N,Net-(U1-VIN)*%
X91250000Y-33912500D03*
%TD*%
D11*
%TO.P,M1_2,1,Source*%
%TO.N,/sw1*%
X73690000Y-77970144D03*
%TO.P,M1_2,2,Source*%
X74960000Y-77970144D03*
%TO.P,M1_2,3,Source*%
X76230000Y-77970144D03*
%TO.P,M1_2,4,Gate*%
%TO.N,/hdrv1*%
X77500000Y-77970144D03*
D12*
%TO.P,M1_2,5,Drain*%
%TO.N,Vin*%
X75595001Y-74640136D03*
D11*
X73690000Y-72500000D03*
X74960000Y-72500000D03*
X76230000Y-72500000D03*
X77500000Y-72500000D03*
%TD*%
D21*
%TO.P,Cslope1,1,1*%
%TO.N,Net-(U1-SLOPE)*%
X81362500Y-38200000D03*
%TO.P,Cslope1,2,2*%
%TO.N,GND*%
X79637500Y-38200000D03*
%TD*%
D25*
%TO.P,Cbulk1,1,+*%
%TO.N,Vin*%
X31000000Y-62000000D03*
%TO.P,Cbulk1,2,-*%
%TO.N,GND*%
X31000000Y-56700000D03*
%TD*%
D11*
%TO.P,M1,1,Source*%
%TO.N,/sw1*%
X67500000Y-78000000D03*
%TO.P,M1,2,Source*%
X68770000Y-78000000D03*
%TO.P,M1,3,Source*%
X70040000Y-78000000D03*
%TO.P,M1,4,Gate*%
%TO.N,/hdrv1*%
X71310000Y-78000000D03*
D12*
%TO.P,M1,5,Drain*%
%TO.N,Vin*%
X69405001Y-74669992D03*
D11*
X67500000Y-72529856D03*
X68770000Y-72529856D03*
X70040000Y-72529856D03*
X71310000Y-72529856D03*
%TD*%
D13*
%TO.P,Cout_3,1,+*%
%TO.N,Vout*%
X130080600Y-63000000D03*
%TO.P,Cout_3,2,-*%
%TO.N,GND*%
X130080600Y-56091200D03*
%TD*%
D14*
%TO.P,Vout (24V),1,Pin_1*%
%TO.N,Vout*%
X139249008Y-80212798D03*
%TO.P,Vout (24V),2,Pin_2*%
%TO.N,GND*%
X148248990Y-73862798D03*
%TD*%
D17*
%TO.P,Rcsp1,1,1*%
%TO.N,Net-(U1-CS)*%
X99750000Y-50812499D03*
%TO.P,Rcsp1,2,2*%
%TO.N,/rcs2*%
X99750000Y-52637499D03*
%TD*%
D19*
%TO.P,Cbias1,1,1*%
%TO.N,Vout*%
X102387500Y-36000000D03*
%TO.P,Cbias1,2,2*%
%TO.N,GND*%
X104112500Y-36000000D03*
%TD*%
D10*
%TO.P,Ruvt1,1,1*%
%TO.N,Vin*%
X85900000Y-32500000D03*
%TO.P,Ruvt1,2,2*%
%TO.N,Net-(U1-EN)*%
X84075000Y-32500000D03*
%TD*%
D26*
%TO.P,Rsense1,1,1*%
%TO.N,GND*%
X93750000Y-56910600D03*
%TO.P,Rsense1,2,2*%
%TO.N,/rcs2*%
X93750000Y-65089400D03*
%TD*%
D13*
%TO.P,Cin_2,1,+*%
%TO.N,Vin*%
X50500000Y-62954400D03*
%TO.P,Cin_2,2,-*%
%TO.N,GND*%
X50500000Y-56045600D03*
%TD*%
D18*
%TO.P,Vout,1*%
%TO.N,Vout*%
X124500000Y-82000000D03*
%TD*%
D11*
%TO.P,M3_2,1,Source*%
%TO.N,/sw2*%
X112940000Y-77970144D03*
%TO.P,M3_2,2,Source*%
X114210000Y-77970144D03*
%TO.P,M3_2,3,Source*%
X115480000Y-77970144D03*
%TO.P,M3_2,4,Gate*%
%TO.N,/hdrv2*%
X116750000Y-77970144D03*
D12*
%TO.P,M3_2,5,Drain*%
%TO.N,Vout*%
X114845001Y-74640136D03*
D11*
X112940000Y-72500000D03*
X114210000Y-72500000D03*
X115480000Y-72500000D03*
X116750000Y-72500000D03*
%TD*%
D10*
%TO.P,Rfbb1,1,1*%
%TO.N,Net-(U1-FB)*%
X81012500Y-48700000D03*
%TO.P,Rfbb1,2,2*%
%TO.N,GND*%
X79187500Y-48700000D03*
%TD*%
D27*
%TO.P,Cboot2,1,1*%
%TO.N,Net-(Dboot2-K)*%
X103712500Y-39000000D03*
%TO.P,Cboot2,2,2*%
%TO.N,/sw2*%
X105787500Y-39000000D03*
%TD*%
D28*
%TO.P,U1,1,EN*%
%TO.N,Net-(U1-EN)*%
X90900000Y-37274999D03*
%TO.P,U1,2,VIN*%
%TO.N,Net-(U1-VIN)*%
X90900000Y-37925000D03*
%TO.P,U1,3,VINSNS*%
%TO.N,Vin*%
X90900000Y-38574999D03*
%TO.P,U1,4,MODE*%
%TO.N,Net-(U1-MODE)*%
X90900000Y-39225000D03*
%TO.P,U1,5,DITH*%
%TO.N,GND*%
X90900000Y-39874998D03*
%TO.P,U1,6,RT_SYNC*%
%TO.N,Net-(U1-RT_SYNC)*%
X90900000Y-40525000D03*
%TO.P,U1,7,SLOPE*%
%TO.N,Net-(U1-SLOPE)*%
X90900000Y-41174998D03*
%TO.P,U1,8,SS*%
%TO.N,Net-(U1-SS)*%
X90900000Y-41825000D03*
%TO.P,U1,9,COMP*%
%TO.N,Net-(U1-COMP)*%
X90900000Y-42474998D03*
%TO.P,U1,10,AGND*%
%TO.N,GND*%
X90900000Y-43125000D03*
%TO.P,U1,11,FB*%
%TO.N,Net-(U1-FB)*%
X90900000Y-43774998D03*
%TO.P,U1,12,VOSNS*%
%TO.N,Vout*%
X90900000Y-44424999D03*
%TO.P,U1,13,ISNS-*%
%TO.N,GND*%
X90900000Y-45074998D03*
%TO.P,U1,14,ISNS+*%
X90900000Y-45724999D03*
%TO.P,U1,15,CSG*%
%TO.N,Net-(U1-CSG)*%
X96599998Y-45724999D03*
%TO.P,U1,16,CS*%
%TO.N,Net-(U1-CS)*%
X96599998Y-45074998D03*
%TO.P,U1,17,PGOOD*%
%TO.N,Net-(U1-PGOOD)*%
X96599998Y-44424999D03*
%TO.P,U1,18,SW2*%
%TO.N,/sw2*%
X96599998Y-43774998D03*
%TO.P,U1,19,HDRV2*%
%TO.N,/hdrv2*%
X96599998Y-43125000D03*
%TO.P,U1,20,BOOT2*%
%TO.N,Net-(Dboot2-K)*%
X96599998Y-42474998D03*
%TO.P,U1,21,LDRV2*%
%TO.N,/ldrv2*%
X96599998Y-41825000D03*
%TO.P,U1,22,PGND*%
%TO.N,GND*%
X96599998Y-41174998D03*
%TO.P,U1,23,VCC*%
%TO.N,Net-(Dboot1-A)*%
X96599998Y-40525000D03*
%TO.P,U1,24,BIAS*%
%TO.N,Vout*%
X96599998Y-39874998D03*
%TO.P,U1,25,LDRV1*%
%TO.N,/ldrv1*%
X96599998Y-39225000D03*
%TO.P,U1,26,BOOT1*%
%TO.N,Net-(Dboot1-K)*%
X96599998Y-38574999D03*
%TO.P,U1,27,HDRV1*%
%TO.N,/hdrv1*%
X96599998Y-37925000D03*
%TO.P,U1,28,SW1*%
%TO.N,/sw1*%
X96599998Y-37274999D03*
D29*
%TO.P,U1,29,PAD*%
%TO.N,GND*%
X93749999Y-41499999D03*
%TD*%
D10*
%TO.P,Rpg1,1,1*%
%TO.N,Net-(Dboot1-A)*%
X102512498Y-44724999D03*
%TO.P,Rpg1,2,2*%
%TO.N,Net-(U1-PGOOD)*%
X100687498Y-44724999D03*
%TD*%
D13*
%TO.P,Cout_2,1,+*%
%TO.N,Vout*%
X119911200Y-63000000D03*
%TO.P,Cout_2,2,-*%
%TO.N,GND*%
X119911200Y-56091200D03*
%TD*%
D10*
%TO.P,Rmode1,1,1*%
%TO.N,Net-(U1-MODE)*%
X81612500Y-34400000D03*
%TO.P,Rmode1,2,2*%
%TO.N,GND*%
X79787500Y-34400000D03*
%TD*%
%TO.P,Ruvb1,1,1*%
%TO.N,Net-(U1-EN)*%
X81562500Y-32500000D03*
%TO.P,Ruvb1,2,2*%
%TO.N,GND*%
X79737500Y-32500000D03*
%TD*%
D18*
%TO.P,SW2,1*%
%TO.N,/sw2*%
X112500000Y-104500000D03*
%TD*%
D13*
%TO.P,Cin_3,1,+*%
%TO.N,Vin*%
X80500000Y-63000000D03*
%TO.P,Cin_3,2,-*%
%TO.N,GND*%
X80500000Y-56091200D03*
%TD*%
D18*
%TO.P,SW1,1*%
%TO.N,/sw1*%
X69500000Y-104500000D03*
%TD*%
D20*
%TO.P,Dboot2,1,K*%
%TO.N,Net-(Dboot2-K)*%
X112000000Y-36600000D03*
%TO.P,Dboot2,2,A*%
%TO.N,Net-(Dboot1-A)*%
X112000000Y-45400000D03*
%TD*%
D10*
%TO.P,Rcomp1,1,1*%
%TO.N,Net-(U1-COMP)*%
X87912500Y-42900000D03*
%TO.P,Rcomp1,2,2*%
%TO.N,Net-(Ccomp1-Pad1)*%
X86087500Y-42900000D03*
%TD*%
D15*
%TO.P,Cboot1,1,1*%
%TO.N,Net-(Dboot1-K)*%
X99787500Y-35000000D03*
%TO.P,Cboot1,2,2*%
%TO.N,/sw1*%
X97712500Y-35000000D03*
%TD*%
D11*
%TO.P,M4,1,Source*%
%TO.N,/rcs2*%
X95750000Y-76000000D03*
%TO.P,M4,2,Source*%
X94480000Y-76000000D03*
%TO.P,M4,3,Source*%
X93210000Y-76000000D03*
%TO.P,M4,4,Gate*%
%TO.N,/ldrv2*%
X91940000Y-76000000D03*
D12*
%TO.P,M4,5,Drain*%
%TO.N,/sw2*%
X93844999Y-79330008D03*
D11*
X95750000Y-81470144D03*
X94480000Y-81470144D03*
X93210000Y-81470144D03*
X91940000Y-81470144D03*
%TD*%
%TO.P,M2,1,Source*%
%TO.N,/rcs2*%
X86250000Y-76000000D03*
%TO.P,M2,2,Source*%
X84980000Y-76000000D03*
%TO.P,M2,3,Source*%
X83710000Y-76000000D03*
%TO.P,M2,4,Gate*%
%TO.N,/ldrv1*%
X82440000Y-76000000D03*
D12*
%TO.P,M2,5,Drain*%
%TO.N,/sw1*%
X84344999Y-79330008D03*
D11*
X86250000Y-81470144D03*
X84980000Y-81470144D03*
X83710000Y-81470144D03*
X82440000Y-81470144D03*
%TD*%
D21*
%TO.P,Cf1,1,1*%
%TO.N,Net-(U1-VIN)*%
X81462500Y-30800000D03*
%TO.P,Cf1,2,2*%
%TO.N,GND*%
X79737500Y-30800000D03*
%TD*%
D11*
%TO.P,M4_2,1,Source*%
%TO.N,/rcs2*%
X102250000Y-76000000D03*
%TO.P,M4_2,2,Source*%
X100980000Y-76000000D03*
%TO.P,M4_2,3,Source*%
X99710000Y-76000000D03*
%TO.P,M4_2,4,Gate*%
%TO.N,/ldrv2*%
X98440000Y-76000000D03*
D12*
%TO.P,M4_2,5,Drain*%
%TO.N,/sw2*%
X100344999Y-79330008D03*
D11*
X102250000Y-81470144D03*
X100980000Y-81470144D03*
X99710000Y-81470144D03*
X98440000Y-81470144D03*
%TD*%
D30*
%TO.N,GND*%
X52250000Y-50500000D03*
X35250000Y-50500000D03*
X43250000Y-51500000D03*
X119750000Y-53000000D03*
X103500000Y-53000000D03*
X51250000Y-51500000D03*
X52250000Y-51500000D03*
X32250000Y-52500000D03*
X48250000Y-50500000D03*
X46250000Y-52500000D03*
X64250000Y-51500000D03*
X112750000Y-51000000D03*
X129750000Y-51000000D03*
X133750000Y-52000000D03*
X142750000Y-50000000D03*
X30250000Y-52500000D03*
X63250000Y-53500000D03*
X109750000Y-53000000D03*
X92775000Y-43500000D03*
X47250000Y-51500000D03*
X135750000Y-50000000D03*
X138750000Y-53000000D03*
X94775000Y-43500000D03*
X41250000Y-53500000D03*
X33250000Y-51500000D03*
X30250000Y-51500000D03*
X134750000Y-51000000D03*
X54250000Y-52500000D03*
X62250000Y-50500000D03*
X138750000Y-50000000D03*
X33250000Y-50500000D03*
X138750000Y-51000000D03*
X92000000Y-54500000D03*
X141750000Y-51000000D03*
X130750000Y-50000000D03*
X110750000Y-53000000D03*
X36250000Y-51500000D03*
X106000000Y-35500000D03*
X39250000Y-50500000D03*
X60250000Y-51500000D03*
X44250000Y-51500000D03*
X139750000Y-53000000D03*
X61250000Y-51500000D03*
X45250000Y-52500000D03*
X136750000Y-52000000D03*
X120750000Y-52000000D03*
X109000000Y-35500000D03*
X109000000Y-34500000D03*
X135750000Y-51000000D03*
X36250000Y-53500000D03*
X120750000Y-50000000D03*
X31250000Y-51500000D03*
X114750000Y-51000000D03*
X40250000Y-53500000D03*
X93775000Y-41500000D03*
X49250000Y-51500000D03*
X58250000Y-52500000D03*
X122750000Y-52000000D03*
X37250000Y-53500000D03*
X87000000Y-54500000D03*
X127750000Y-53000000D03*
X137750000Y-51000000D03*
X115750000Y-53000000D03*
X93775000Y-39500000D03*
X101500000Y-55000000D03*
X118750000Y-51000000D03*
X38250000Y-50500000D03*
X42250000Y-52500000D03*
X121750000Y-50000000D03*
X132750000Y-52000000D03*
X147750000Y-52000000D03*
X60250000Y-53500000D03*
X117750000Y-50000000D03*
X132750000Y-51000000D03*
X38250000Y-53500000D03*
X60250000Y-52500000D03*
X145750000Y-52000000D03*
X52250000Y-52500000D03*
X140750000Y-52000000D03*
X61250000Y-52500000D03*
X32250000Y-50500000D03*
X112750000Y-52000000D03*
X125750000Y-50000000D03*
X45250000Y-50500000D03*
X34250000Y-51500000D03*
X137750000Y-52000000D03*
X148750000Y-51000000D03*
X63250000Y-51500000D03*
X44250000Y-53500000D03*
X54250000Y-51500000D03*
X43250000Y-52500000D03*
X51250000Y-50500000D03*
X43250000Y-50500000D03*
X93775000Y-43500000D03*
X38250000Y-51500000D03*
X135750000Y-52000000D03*
X48250000Y-53500000D03*
X116750000Y-51000000D03*
X92775000Y-42500000D03*
X103500000Y-54000000D03*
X133750000Y-51000000D03*
X34250000Y-50500000D03*
X51250000Y-52500000D03*
X139750000Y-52000000D03*
X124750000Y-52000000D03*
X147750000Y-51000000D03*
X58250000Y-50500000D03*
X148750000Y-53000000D03*
X66250000Y-50500000D03*
X63250000Y-52500000D03*
X42250000Y-51500000D03*
X101500000Y-56000000D03*
X135750000Y-53000000D03*
X127750000Y-52000000D03*
X39250000Y-51500000D03*
X142750000Y-52000000D03*
X123750000Y-52000000D03*
X124750000Y-50000000D03*
X110750000Y-51000000D03*
X66250000Y-51500000D03*
X45250000Y-51500000D03*
X37250000Y-51500000D03*
X122750000Y-51000000D03*
X47250000Y-52500000D03*
X123750000Y-51000000D03*
X91000000Y-53500000D03*
X109750000Y-50000000D03*
X29250000Y-52500000D03*
X127750000Y-50000000D03*
X119750000Y-51000000D03*
X128750000Y-53000000D03*
X120750000Y-53000000D03*
X131750000Y-51000000D03*
X28250000Y-51500000D03*
X48250000Y-51500000D03*
X112750000Y-53000000D03*
X47250000Y-53500000D03*
X46250000Y-53500000D03*
X86000000Y-54500000D03*
X50250000Y-50500000D03*
X117750000Y-52000000D03*
X38250000Y-52500000D03*
X141750000Y-50000000D03*
X121750000Y-52000000D03*
X146750000Y-51000000D03*
X143750000Y-52000000D03*
X59250000Y-53500000D03*
X117750000Y-53000000D03*
X93775000Y-40500000D03*
X88000000Y-53500000D03*
X51250000Y-53500000D03*
X90000000Y-53500000D03*
X145750000Y-53000000D03*
X58250000Y-51500000D03*
X55250000Y-51500000D03*
X137750000Y-53000000D03*
X89000000Y-53500000D03*
X145750000Y-50000000D03*
X142750000Y-53000000D03*
X102500000Y-55000000D03*
X44250000Y-52500000D03*
X145750000Y-51000000D03*
X65250000Y-50500000D03*
X55250000Y-50500000D03*
X48250000Y-52500000D03*
X119750000Y-52000000D03*
X115750000Y-52000000D03*
X66250000Y-52500000D03*
X110750000Y-50000000D03*
X94775000Y-41500000D03*
X125750000Y-52000000D03*
X97599998Y-54500000D03*
X142750000Y-51000000D03*
X85000000Y-54500000D03*
X131750000Y-50000000D03*
X133750000Y-50000000D03*
X85000000Y-53500000D03*
X125750000Y-51000000D03*
X61250000Y-53500000D03*
X121750000Y-53000000D03*
X129750000Y-52000000D03*
X113750000Y-50000000D03*
X102500000Y-54000000D03*
X108000000Y-34500000D03*
X144750000Y-50000000D03*
X109750000Y-51000000D03*
X128750000Y-50000000D03*
X53250000Y-52500000D03*
X122750000Y-50000000D03*
X91000000Y-54500000D03*
X62250000Y-52500000D03*
X118750000Y-52000000D03*
X126750000Y-51000000D03*
X28250000Y-52500000D03*
X126750000Y-50000000D03*
X148750000Y-50000000D03*
X39250000Y-53500000D03*
X55250000Y-52500000D03*
X61250000Y-50500000D03*
X136750000Y-51000000D03*
X111750000Y-52000000D03*
X44250000Y-50500000D03*
X29250000Y-51500000D03*
X56250000Y-50500000D03*
X111750000Y-50000000D03*
X47250000Y-50500000D03*
X27250000Y-52500000D03*
X118750000Y-50000000D03*
X111750000Y-51000000D03*
X124750000Y-51000000D03*
X58250000Y-53500000D03*
X35250000Y-51500000D03*
X88000000Y-54500000D03*
X134750000Y-52000000D03*
X139750000Y-50000000D03*
X49250000Y-52500000D03*
X123750000Y-50000000D03*
X115750000Y-51000000D03*
X32250000Y-51500000D03*
X41250000Y-51500000D03*
X64250000Y-50500000D03*
X31250000Y-53500000D03*
X34250000Y-52500000D03*
X116750000Y-50000000D03*
X129750000Y-53000000D03*
X29250000Y-50500000D03*
X113750000Y-52000000D03*
X126750000Y-53000000D03*
X128750000Y-52000000D03*
X140750000Y-50000000D03*
X130750000Y-52000000D03*
X28250000Y-53500000D03*
X62250000Y-53500000D03*
X89000000Y-54500000D03*
X116750000Y-52000000D03*
X109750000Y-52000000D03*
X64250000Y-53500000D03*
X124750000Y-53000000D03*
X50250000Y-53500000D03*
X29250000Y-53500000D03*
X136750000Y-50000000D03*
X141750000Y-52000000D03*
X110750000Y-52000000D03*
X55250000Y-53500000D03*
X59250000Y-52500000D03*
X146750000Y-52000000D03*
X146750000Y-50000000D03*
X36250000Y-52500000D03*
X129750000Y-50000000D03*
X30250000Y-53500000D03*
X133750000Y-53000000D03*
X37250000Y-52500000D03*
X39250000Y-52500000D03*
X37250000Y-50500000D03*
X40250000Y-51500000D03*
X86000000Y-53500000D03*
X27250000Y-50500000D03*
X114750000Y-53000000D03*
X139750000Y-51000000D03*
X41250000Y-52500000D03*
X52250000Y-53500000D03*
X59250000Y-51500000D03*
X118750000Y-53000000D03*
X33250000Y-52500000D03*
X56250000Y-53500000D03*
X65250000Y-51500000D03*
X117750000Y-51000000D03*
X56250000Y-52500000D03*
X54250000Y-53500000D03*
X35250000Y-53500000D03*
X114750000Y-50000000D03*
X49250000Y-53500000D03*
X65250000Y-53500000D03*
X136750000Y-53000000D03*
X115750000Y-50000000D03*
X32250000Y-53500000D03*
X97750000Y-60500000D03*
X107000000Y-35500000D03*
X27250000Y-53500000D03*
X143750000Y-53000000D03*
X140750000Y-53000000D03*
X92775000Y-39500000D03*
X134750000Y-50000000D03*
X53250000Y-53500000D03*
X87000000Y-53500000D03*
X66250000Y-53500000D03*
X65250000Y-52500000D03*
X144750000Y-53000000D03*
X30250000Y-50500000D03*
X143750000Y-50000000D03*
X57250000Y-50500000D03*
X128750000Y-51000000D03*
X127750000Y-51000000D03*
X31250000Y-52500000D03*
X57250000Y-53500000D03*
X57250000Y-51500000D03*
X50250000Y-51500000D03*
X102500000Y-56000000D03*
X144750000Y-52000000D03*
X63250000Y-50500000D03*
X148750000Y-52000000D03*
X46250000Y-50500000D03*
X56250000Y-51500000D03*
X40250000Y-50500000D03*
X59250000Y-50500000D03*
X143750000Y-51000000D03*
X102500000Y-53000000D03*
X140750000Y-51000000D03*
X28250000Y-50500000D03*
X92775000Y-41500000D03*
X60250000Y-50500000D03*
X131750000Y-53000000D03*
X101500000Y-53000000D03*
X43250000Y-53500000D03*
X107000000Y-34500000D03*
X41250000Y-50500000D03*
X130750000Y-53000000D03*
X125750000Y-53000000D03*
X134750000Y-53000000D03*
X123750000Y-53000000D03*
X147750000Y-53000000D03*
X54250000Y-50500000D03*
X42250000Y-53500000D03*
X111750000Y-53000000D03*
X45250000Y-53500000D03*
X49250000Y-50500000D03*
X106000000Y-34500000D03*
X147750000Y-50000000D03*
X27250000Y-51500000D03*
X108000000Y-35500000D03*
X40250000Y-52500000D03*
X31250000Y-50500000D03*
X46250000Y-51500000D03*
X132750000Y-53000000D03*
X33250000Y-53500000D03*
X53250000Y-51500000D03*
X93775000Y-42500000D03*
X121750000Y-51000000D03*
X132750000Y-50000000D03*
X57250000Y-52500000D03*
X36250000Y-50500000D03*
X94775000Y-42500000D03*
X92775000Y-40500000D03*
X113750000Y-51000000D03*
X113750000Y-53000000D03*
X120750000Y-51000000D03*
X64250000Y-52500000D03*
X90000000Y-54500000D03*
X137750000Y-50000000D03*
X141750000Y-53000000D03*
X130750000Y-51000000D03*
X35250000Y-52500000D03*
X62250000Y-51500000D03*
X103500000Y-55000000D03*
X126750000Y-52000000D03*
X101500000Y-54000000D03*
X50250000Y-52500000D03*
X138750000Y-52000000D03*
X122750000Y-53000000D03*
X94775000Y-39500000D03*
X103500000Y-56000000D03*
X131750000Y-52000000D03*
X114750000Y-52000000D03*
X42250000Y-50500000D03*
X146750000Y-53000000D03*
X144750000Y-51000000D03*
X94775000Y-40500000D03*
X116750000Y-53000000D03*
X112750000Y-50000000D03*
X34250000Y-53500000D03*
X119750000Y-50000000D03*
X92000000Y-53500000D03*
X53250000Y-50500000D03*
%TO.N,/sw1*%
X70750000Y-89000000D03*
X81000000Y-78000000D03*
X73500000Y-83000000D03*
X77500000Y-81000000D03*
X67750000Y-90000000D03*
X70750000Y-94000000D03*
X76500000Y-82000000D03*
X68750000Y-94000000D03*
X69750000Y-92000000D03*
X69750000Y-95000000D03*
X73500000Y-80000000D03*
X67750000Y-95000000D03*
X70750000Y-87000000D03*
X70750000Y-91000000D03*
X73500000Y-81000000D03*
X79500000Y-83000000D03*
X70750000Y-100000000D03*
X76500000Y-80000000D03*
X68750000Y-101000000D03*
X74500000Y-82000000D03*
X70750000Y-92000000D03*
X67750000Y-94000000D03*
X68750000Y-88000000D03*
X67750000Y-101000000D03*
X68750000Y-87000000D03*
X68750000Y-92000000D03*
X67750000Y-99000000D03*
X67750000Y-96000000D03*
X70750000Y-97000000D03*
X67750000Y-86000000D03*
X76500000Y-81000000D03*
X70750000Y-99000000D03*
X80500000Y-82000000D03*
X68750000Y-97000000D03*
X67750000Y-89000000D03*
X68750000Y-96000000D03*
X78500000Y-83000000D03*
X69750000Y-96000000D03*
X70750000Y-95000000D03*
X69750000Y-87000000D03*
X75500000Y-82000000D03*
X80500000Y-81000000D03*
X69750000Y-91000000D03*
X69750000Y-90000000D03*
X67750000Y-91000000D03*
X70750000Y-101000000D03*
X77500000Y-83000000D03*
X79500000Y-82000000D03*
X67750000Y-93000000D03*
X74500000Y-81000000D03*
X68750000Y-99000000D03*
X68750000Y-86000000D03*
X77500000Y-80000000D03*
X96250000Y-35000000D03*
X75500000Y-81000000D03*
X70750000Y-88000000D03*
X69750000Y-88000000D03*
X78500000Y-82000000D03*
X73500000Y-82000000D03*
X69750000Y-89000000D03*
X74500000Y-83000000D03*
X75500000Y-83000000D03*
X70750000Y-96000000D03*
X69750000Y-100000000D03*
X79500000Y-80000000D03*
X76500000Y-83000000D03*
X78500000Y-80000000D03*
X70750000Y-86000000D03*
X68750000Y-93000000D03*
X68750000Y-98000000D03*
X67750000Y-97000000D03*
X80500000Y-80000000D03*
X69750000Y-101000000D03*
X77500000Y-82000000D03*
X69750000Y-94000000D03*
X68750000Y-95000000D03*
X68750000Y-91000000D03*
X69750000Y-97000000D03*
X79500000Y-81000000D03*
X69750000Y-93000000D03*
X69750000Y-86000000D03*
X67750000Y-98000000D03*
X80500000Y-83000000D03*
X70750000Y-90000000D03*
X67750000Y-88000000D03*
X75500000Y-80000000D03*
X67750000Y-100000000D03*
X69750000Y-98000000D03*
X74500000Y-80000000D03*
X67750000Y-87000000D03*
X68750000Y-100000000D03*
X78500000Y-81000000D03*
X68750000Y-89000000D03*
X68750000Y-90000000D03*
X70750000Y-93000000D03*
X67750000Y-92000000D03*
X69750000Y-99000000D03*
X70750000Y-98000000D03*
%TO.N,/sw2*%
X114250000Y-96500000D03*
X113250000Y-86500000D03*
X111250000Y-94500000D03*
X112250000Y-85500000D03*
X114250000Y-100500000D03*
X111250000Y-88500000D03*
X112250000Y-99500000D03*
X113250000Y-85500000D03*
X111250000Y-91500000D03*
X112250000Y-90500000D03*
X112250000Y-93500000D03*
X114250000Y-92500000D03*
X114250000Y-91500000D03*
X112250000Y-92500000D03*
X114250000Y-98500000D03*
X112250000Y-87500000D03*
X111250000Y-100500000D03*
X111250000Y-96500000D03*
X112250000Y-97500000D03*
X111250000Y-92500000D03*
X113250000Y-89500000D03*
X114250000Y-87500000D03*
X113250000Y-94500000D03*
X111250000Y-89500000D03*
X111250000Y-90500000D03*
X114250000Y-95500000D03*
X113250000Y-100500000D03*
X113250000Y-92500000D03*
X113250000Y-96500000D03*
X111250000Y-97500000D03*
X111250000Y-93500000D03*
X107250000Y-39000000D03*
X112250000Y-94500000D03*
X111250000Y-87500000D03*
X112250000Y-86500000D03*
X113250000Y-98500000D03*
X114250000Y-99500000D03*
X113250000Y-88500000D03*
X114250000Y-97500000D03*
X113250000Y-87500000D03*
X111250000Y-99500000D03*
X114250000Y-86500000D03*
X113250000Y-90500000D03*
X114250000Y-90500000D03*
X111250000Y-98500000D03*
X114250000Y-89500000D03*
X111250000Y-85500000D03*
X112250000Y-98500000D03*
X112250000Y-91500000D03*
X114250000Y-94500000D03*
X112250000Y-88500000D03*
X114250000Y-93500000D03*
X112250000Y-89500000D03*
X112250000Y-95500000D03*
X111250000Y-86500000D03*
X104000000Y-78000000D03*
X112250000Y-96500000D03*
X113250000Y-91500000D03*
X114250000Y-88500000D03*
X112250000Y-100500000D03*
X111250000Y-95500000D03*
X113250000Y-99500000D03*
X113250000Y-93500000D03*
X113250000Y-95500000D03*
X113250000Y-97500000D03*
X114250000Y-85500000D03*
%TO.N,Vin*%
X47500000Y-74000000D03*
X53500000Y-75000000D03*
X59500000Y-74000000D03*
X56500000Y-72000000D03*
X53500000Y-74000000D03*
X63500000Y-72000000D03*
X46500000Y-72000000D03*
X55500000Y-75000000D03*
X48500000Y-73000000D03*
X57500000Y-72000000D03*
X40500000Y-74000000D03*
X55500000Y-72000000D03*
X49500000Y-75000000D03*
X61500000Y-72000000D03*
X57500000Y-75000000D03*
X48500000Y-75000000D03*
X40500000Y-73000000D03*
X57500000Y-74000000D03*
X46500000Y-73000000D03*
X45500000Y-73000000D03*
X55500000Y-73000000D03*
X41500000Y-75000000D03*
X62500000Y-72000000D03*
X54500000Y-72000000D03*
X45500000Y-74000000D03*
X44500000Y-72000000D03*
X61500000Y-73000000D03*
X43500000Y-72000000D03*
X54500000Y-73000000D03*
X60500000Y-74000000D03*
X51500000Y-75000000D03*
X56500000Y-74000000D03*
X58500000Y-72000000D03*
X46500000Y-75000000D03*
X52500000Y-74000000D03*
X56500000Y-73000000D03*
X51500000Y-72000000D03*
X40500000Y-72000000D03*
X63500000Y-75000000D03*
X49500000Y-73000000D03*
X58500000Y-74000000D03*
X42500000Y-74000000D03*
X51500000Y-73000000D03*
X59500000Y-73000000D03*
X50500000Y-72000000D03*
X85900000Y-33500000D03*
X50500000Y-74000000D03*
X41500000Y-73000000D03*
X59500000Y-75000000D03*
X87400000Y-37200000D03*
X44500000Y-75000000D03*
X47500000Y-75000000D03*
X54500000Y-75000000D03*
X57500000Y-73000000D03*
X60500000Y-72000000D03*
X61500000Y-75000000D03*
X52500000Y-75000000D03*
X50500000Y-75000000D03*
X47500000Y-72000000D03*
X43500000Y-73000000D03*
X61500000Y-74000000D03*
X41500000Y-74000000D03*
X53500000Y-73000000D03*
X51500000Y-74000000D03*
X43500000Y-74000000D03*
X59500000Y-72000000D03*
X58500000Y-75000000D03*
X62500000Y-75000000D03*
X43500000Y-75000000D03*
X62500000Y-74000000D03*
X40500000Y-75000000D03*
X46500000Y-74000000D03*
X45500000Y-75000000D03*
X45500000Y-72000000D03*
X52500000Y-73000000D03*
X44500000Y-74000000D03*
X49500000Y-74000000D03*
X63500000Y-73000000D03*
X42500000Y-75000000D03*
X55500000Y-74000000D03*
X52500000Y-72000000D03*
X62500000Y-73000000D03*
X58500000Y-73000000D03*
X50500000Y-73000000D03*
X56500000Y-75000000D03*
X42500000Y-72000000D03*
X63500000Y-74000000D03*
X53500000Y-72000000D03*
X60500000Y-73000000D03*
X60500000Y-75000000D03*
X47500000Y-73000000D03*
X49500000Y-72000000D03*
X42500000Y-73000000D03*
X48500000Y-74000000D03*
X44500000Y-73000000D03*
X48500000Y-72000000D03*
X54500000Y-74000000D03*
X41500000Y-72000000D03*
%TO.N,Net-(Dboot1-A)*%
X104000000Y-43500000D03*
X98750000Y-40500000D03*
%TO.N,/rcs2*%
X85000000Y-64000000D03*
X87000000Y-64000000D03*
X85000000Y-67000000D03*
X97750000Y-61500000D03*
X85000000Y-65000000D03*
X86000000Y-64000000D03*
X88000000Y-65000000D03*
X87000000Y-67000000D03*
X88000000Y-66000000D03*
X85000000Y-66000000D03*
X87000000Y-66000000D03*
X99750000Y-54500000D03*
X88000000Y-64000000D03*
X86000000Y-67000000D03*
X87000000Y-65000000D03*
X86000000Y-66000000D03*
X88000000Y-67000000D03*
X86000000Y-65000000D03*
%TO.N,Net-(Df1-K)*%
X89750000Y-32000000D03*
%TO.N,/hdrv1*%
X78520000Y-79000000D03*
X98750000Y-37925000D03*
X72250000Y-79000000D03*
%TO.N,/hdrv2*%
X110625000Y-77625000D03*
X117625000Y-77625000D03*
X98625000Y-43125000D03*
%TO.N,/ldrv2*%
X90750000Y-75000000D03*
X98575000Y-41825000D03*
X97250000Y-75000000D03*
%TO.N,/ldrv1*%
X81250000Y-75000000D03*
X98750000Y-39225000D03*
%TO.N,Vout*%
X131750000Y-68500000D03*
X113750000Y-67500000D03*
X118750000Y-68500000D03*
X119750000Y-66500000D03*
X129750000Y-66500000D03*
X102500000Y-35000000D03*
X125750000Y-69500000D03*
X120750000Y-67500000D03*
X123750000Y-68500000D03*
X119750000Y-67500000D03*
X127750000Y-67500000D03*
X111750000Y-69500000D03*
X132750000Y-68500000D03*
X115750000Y-68500000D03*
X131750000Y-67500000D03*
X107500000Y-66500000D03*
X128750000Y-68500000D03*
X121750000Y-66500000D03*
X134750000Y-68500000D03*
X122750000Y-66500000D03*
X113750000Y-69500000D03*
X117750000Y-69500000D03*
X122750000Y-68500000D03*
X113750000Y-68500000D03*
X123750000Y-66500000D03*
X133750000Y-69500000D03*
X114750000Y-67500000D03*
X132750000Y-69500000D03*
X130750000Y-67500000D03*
X105500000Y-65500000D03*
X118750000Y-67500000D03*
X105500000Y-66500000D03*
X130750000Y-68500000D03*
X133750000Y-68500000D03*
X112750000Y-69500000D03*
X121750000Y-69500000D03*
X119750000Y-68500000D03*
X128750000Y-69500000D03*
X118750000Y-69500000D03*
X121750000Y-68500000D03*
X111750000Y-66500000D03*
X131750000Y-66500000D03*
X106500000Y-65500000D03*
X133750000Y-67500000D03*
X115750000Y-69500000D03*
X122750000Y-67500000D03*
X107500000Y-64500000D03*
X132750000Y-67500000D03*
X124750000Y-69500000D03*
X133750000Y-66500000D03*
X112750000Y-67500000D03*
X112750000Y-68500000D03*
X134750000Y-67500000D03*
X129750000Y-67500000D03*
X120750000Y-68500000D03*
X126750000Y-69500000D03*
X105500000Y-64500000D03*
X106500000Y-66500000D03*
X120750000Y-66500000D03*
X116750000Y-69500000D03*
X127750000Y-68500000D03*
X128750000Y-66500000D03*
X117750000Y-67500000D03*
X88250000Y-52000000D03*
X126750000Y-68500000D03*
X116750000Y-66500000D03*
X125750000Y-67500000D03*
X107500000Y-65500000D03*
X111750000Y-67500000D03*
X106500000Y-64500000D03*
X130750000Y-69500000D03*
X116750000Y-67500000D03*
X126750000Y-67500000D03*
X117750000Y-66500000D03*
X123750000Y-69500000D03*
X130750000Y-66500000D03*
X115750000Y-66500000D03*
X113750000Y-66500000D03*
X111750000Y-68500000D03*
X129750000Y-69500000D03*
X129750000Y-68500000D03*
X124750000Y-66500000D03*
X134750000Y-69500000D03*
X131750000Y-69500000D03*
X116750000Y-68500000D03*
X120750000Y-69500000D03*
X117750000Y-68500000D03*
X114750000Y-69500000D03*
X112750000Y-66500000D03*
X114750000Y-66500000D03*
X134750000Y-66500000D03*
X127750000Y-66500000D03*
X125750000Y-68500000D03*
X125750000Y-66500000D03*
X122750000Y-69500000D03*
X132750000Y-66500000D03*
X124750000Y-67500000D03*
X127750000Y-69500000D03*
X119750000Y-69500000D03*
X124750000Y-68500000D03*
X121750000Y-67500000D03*
X115750000Y-67500000D03*
X126750000Y-66500000D03*
X128750000Y-67500000D03*
X118750000Y-66500000D03*
X114750000Y-68500000D03*
X123750000Y-67500000D03*
%TD*%
D31*
%TO.N,GND*%
X93249997Y-43292893D02*
X92957105Y-43000001D01*
X92957105Y-42999999D02*
X93249997Y-42707107D01*
X96599998Y-41174998D02*
X95132105Y-41174998D01*
X93249997Y-42707107D02*
X93249997Y-42000001D01*
X94957107Y-41000000D02*
X94542893Y-41000000D01*
D32*
X90900000Y-43125000D02*
X89175000Y-43125000D01*
D31*
X90900000Y-39874998D02*
X92417892Y-39874998D01*
X91596752Y-45074998D02*
X92050000Y-44621750D01*
X97599998Y-52637499D02*
X97599998Y-54500000D01*
X92542891Y-39999997D02*
X92957103Y-39999997D01*
D32*
X89175000Y-43125000D02*
X85300000Y-47000000D01*
D31*
X93249997Y-40292891D02*
X93249997Y-40999997D01*
X96750000Y-60500000D02*
X97750000Y-60500000D01*
X92050000Y-43492890D02*
X92542891Y-42999999D01*
X92957103Y-39999997D02*
X93249997Y-40292891D01*
X96250000Y-57000000D02*
X96250000Y-60000000D01*
X92417892Y-39874998D02*
X92542891Y-39999997D01*
X96250000Y-60000000D02*
X96750000Y-60500000D01*
X92542893Y-42999999D02*
X92957105Y-42999999D01*
X92542891Y-42999999D02*
X92957105Y-42999999D01*
X93249997Y-40999997D02*
X93396446Y-41146446D01*
X96160600Y-56910600D02*
X96250000Y-57000000D01*
X92417892Y-43125000D02*
X92542893Y-42999999D01*
X90900000Y-45074998D02*
X91596752Y-45074998D01*
X92050000Y-44621750D02*
X92050000Y-43492890D01*
X93750000Y-56910600D02*
X96160600Y-56910600D01*
X90900000Y-45724999D02*
X91575000Y-45724999D01*
X92957105Y-43000001D02*
X92542891Y-43000001D01*
X90900000Y-43125000D02*
X92417892Y-43125000D01*
X93249997Y-42000001D02*
X93396446Y-41853552D01*
X91775000Y-45724999D02*
X93249997Y-44250002D01*
D32*
X85300000Y-47000000D02*
X79700000Y-47000000D01*
D31*
X95132105Y-41174998D02*
X94957107Y-41000000D01*
X93249997Y-44250002D02*
X93249997Y-43292893D01*
%TO.N,Net-(Dboot1-K)*%
X99787500Y-35000000D02*
X99787500Y-38037498D01*
X99787500Y-38037498D02*
X99787499Y-38037499D01*
X99249998Y-38574999D02*
X99787499Y-38037499D01*
X120500000Y-36500000D02*
X117500000Y-33500000D01*
X117500000Y-33500000D02*
X101287500Y-33500000D01*
X96599998Y-38574999D02*
X99249998Y-38574999D01*
X101287500Y-33500000D02*
X99787500Y-35000000D01*
%TO.N,/sw1*%
X96750000Y-35000000D02*
X96250000Y-35000000D01*
X96599998Y-37274999D02*
X97475001Y-37274999D01*
X97712500Y-35000000D02*
X96750000Y-35000000D01*
X97750000Y-37000000D02*
X97750000Y-35037500D01*
X97750000Y-35037500D02*
X97712500Y-35000000D01*
X97475001Y-37274999D02*
X97750000Y-37000000D01*
%TO.N,Net-(Dboot2-K)*%
X106112500Y-36600000D02*
X103712500Y-39000000D01*
X112000000Y-36600000D02*
X106112500Y-36600000D01*
X96599998Y-42474998D02*
X100237502Y-42474998D01*
X100237502Y-42474998D02*
X103712500Y-39000000D01*
%TO.N,/sw2*%
X101012502Y-43774998D02*
X105787500Y-39000000D01*
X105787500Y-39000000D02*
X107250000Y-39000000D01*
X96599998Y-43774998D02*
X101012502Y-43774998D01*
%TO.N,Net-(Ccomp1-Pad1)*%
X81937500Y-42900000D02*
X81737500Y-43100000D01*
X86087500Y-42900000D02*
X81937500Y-42900000D01*
%TO.N,Net-(U1-COMP)*%
X90203251Y-42474998D02*
X90900000Y-42474998D01*
X85612500Y-45200000D02*
X80667500Y-45200000D01*
X87912500Y-42900000D02*
X85612500Y-45200000D01*
X90900000Y-42474998D02*
X88262499Y-42474998D01*
X80667500Y-45200000D02*
X80767500Y-45300000D01*
X80767500Y-45300000D02*
X81067500Y-45300000D01*
%TO.N,Net-(U1-CSG)*%
X96599998Y-45724999D02*
X96599998Y-47362499D01*
X96599998Y-47362499D02*
X96237498Y-47724999D01*
X97599998Y-49087499D02*
X96237498Y-47724999D01*
X97599998Y-50812499D02*
X97599998Y-49087499D01*
%TO.N,Net-(U1-CS)*%
X97649998Y-45074998D02*
X97962498Y-45387498D01*
X97962498Y-47724999D02*
X98474999Y-47724999D01*
X98474999Y-47724999D02*
X99750000Y-49000000D01*
X99750000Y-49000000D02*
X99750000Y-50812499D01*
X97962498Y-45387498D02*
X97962498Y-47724999D01*
X96599998Y-45074998D02*
X97649998Y-45074998D01*
%TO.N,Net-(U1-VIN)*%
X91950000Y-37925000D02*
X92500000Y-37375000D01*
X92500000Y-37375000D02*
X92500000Y-35000000D01*
X90900000Y-37925000D02*
X91950000Y-37925000D01*
X87701471Y-30800000D02*
X90813971Y-33912500D01*
X92500000Y-35000000D02*
X91412500Y-33912500D01*
X81462500Y-30800000D02*
X87701471Y-30800000D01*
X91412500Y-33912500D02*
X91250000Y-33912500D01*
X90813971Y-33912500D02*
X91250000Y-33912500D01*
%TO.N,Vin*%
X60250000Y-63500000D02*
X60250000Y-63590622D01*
X40250000Y-63454400D02*
X40250000Y-63545022D01*
X30250000Y-63590622D02*
X30250000Y-63500000D01*
X50250000Y-63500000D02*
X50250000Y-63590622D01*
X88774999Y-38574999D02*
X90900000Y-38574999D01*
X70250000Y-63500000D02*
X70250000Y-63590622D01*
X85900000Y-32500000D02*
X85900000Y-33500000D01*
X87400000Y-37200000D02*
X88774999Y-38574999D01*
%TO.N,Net-(U1-SLOPE)*%
X90900000Y-41174998D02*
X86287498Y-41174998D01*
X86287498Y-41174998D02*
X83312500Y-38200000D01*
X83312500Y-38200000D02*
X81362500Y-38200000D01*
%TO.N,Net-(U1-SS)*%
X85325000Y-41825000D02*
X84000000Y-40500000D01*
X84000000Y-40500000D02*
X81737500Y-40500000D01*
X90900000Y-41825000D02*
X85325000Y-41825000D01*
%TO.N,Net-(Dboot1-A)*%
X103737497Y-43500000D02*
X102512498Y-44724999D01*
X104000000Y-43500000D02*
X110100000Y-43500000D01*
X98725000Y-40525000D02*
X98750000Y-40500000D01*
X112100000Y-45300000D02*
X112000000Y-45400000D01*
X102512498Y-44724999D02*
X104599998Y-44724999D01*
X96599998Y-40525000D02*
X98725000Y-40525000D01*
X110100000Y-43500000D02*
X112000000Y-45400000D01*
X120500000Y-45300000D02*
X112100000Y-45300000D01*
X104000000Y-43500000D02*
X103737497Y-43500000D01*
%TO.N,/rcs2*%
X96160600Y-65089400D02*
X96250000Y-65000000D01*
X96250000Y-65000000D02*
X96250000Y-62000000D01*
X93750000Y-65089400D02*
X96160600Y-65089400D01*
X96250000Y-62000000D02*
X96750000Y-61500000D01*
X96750000Y-61500000D02*
X97750000Y-61500000D01*
X99750000Y-52637499D02*
X99750000Y-54500000D01*
%TO.N,Net-(Df1-K)*%
X91250000Y-32087500D02*
X89837500Y-32087500D01*
X89837500Y-32087500D02*
X89750000Y-32000000D01*
%TO.N,/hdrv1*%
X96599998Y-37925000D02*
X98750000Y-37925000D01*
X78520000Y-79000000D02*
X77520000Y-78000000D01*
X71290000Y-78000000D02*
X71290000Y-78040000D01*
X77520000Y-78000000D02*
X77750000Y-78000000D01*
X71290000Y-78040000D02*
X72250000Y-79000000D01*
%TO.N,/hdrv2*%
X110625000Y-77625000D02*
X110279856Y-77970144D01*
X110279856Y-77970144D02*
X109750000Y-77970144D01*
X117279856Y-77970144D02*
X116750000Y-77970144D01*
X117625000Y-77625000D02*
X117279856Y-77970144D01*
X96599998Y-43125000D02*
X98625000Y-43125000D01*
%TO.N,/ldrv2*%
X98440000Y-76000000D02*
X98250000Y-76000000D01*
X91750000Y-76000000D02*
X90750000Y-75000000D01*
X98250000Y-76000000D02*
X97250000Y-75000000D01*
X91940000Y-76000000D02*
X91750000Y-76000000D01*
X96599998Y-41825000D02*
X98575000Y-41825000D01*
%TO.N,Net-(U1-FB)*%
X89934316Y-43774998D02*
X85337500Y-48371814D01*
X90900000Y-43774998D02*
X89934316Y-43774998D01*
X81312500Y-49000000D02*
X81012500Y-48700000D01*
X85337500Y-48371814D02*
X85337500Y-49000000D01*
X85337500Y-49000000D02*
X81312500Y-49000000D01*
%TO.N,Net-(U1-MODE)*%
X90900000Y-39225000D02*
X88387500Y-39225000D01*
X88387500Y-39225000D02*
X83562500Y-34400000D01*
X83562500Y-34400000D02*
X81612500Y-34400000D01*
%TO.N,Net-(U1-PGOOD)*%
X96599998Y-44424999D02*
X100387498Y-44424999D01*
X100387498Y-44424999D02*
X100687498Y-44724999D01*
%TO.N,Net-(U1-RT_SYNC)*%
X87687500Y-40525000D02*
X83562500Y-36400000D01*
X90900000Y-40525000D02*
X87687500Y-40525000D01*
X83562500Y-36400000D02*
X81512500Y-36400000D01*
%TO.N,Net-(U1-EN)*%
X81562500Y-32500000D02*
X84075000Y-32500000D01*
X84075000Y-32500000D02*
X84075000Y-32975000D01*
X84075000Y-32975000D02*
X88374999Y-37274999D01*
X88374999Y-37274999D02*
X90900000Y-37274999D01*
%TO.N,/ldrv1*%
X82440000Y-76000000D02*
X81440000Y-75000000D01*
X81440000Y-75000000D02*
X81250000Y-75000000D01*
X96599998Y-39225000D02*
X98750000Y-39225000D01*
%TO.N,Vout*%
X87162500Y-47112499D02*
X87162500Y-50912500D01*
X102387500Y-35112500D02*
X102500000Y-35000000D01*
X87162500Y-50912500D02*
X88250000Y-52000000D01*
X98987502Y-39874998D02*
X102387500Y-36475000D01*
X102387500Y-36475000D02*
X102387500Y-36000000D01*
X90900000Y-44424999D02*
X89850000Y-44424999D01*
X96599998Y-39874998D02*
X98987502Y-39874998D01*
X102387500Y-36000000D02*
X102387500Y-35112500D01*
X89850000Y-44424999D02*
X87162500Y-47112499D01*
%TD*%
%TA.AperFunction,Conductor*%
%TO.N,/sw2*%
G36*
X109173315Y-77489829D02*
G01*
X109219070Y-77542633D01*
X109229014Y-77611791D01*
X109227893Y-77618335D01*
X109224500Y-77635391D01*
X109224500Y-78304896D01*
X109236131Y-78363373D01*
X109236132Y-78363374D01*
X109280447Y-78429696D01*
X109346769Y-78474011D01*
X109346770Y-78474012D01*
X109405247Y-78485643D01*
X109405250Y-78485644D01*
X109405252Y-78485644D01*
X110094750Y-78485644D01*
X110094751Y-78485643D01*
X110109568Y-78482696D01*
X110153229Y-78474012D01*
X110153229Y-78474011D01*
X110153231Y-78474011D01*
X110219552Y-78429696D01*
X110263867Y-78363375D01*
X110265180Y-78356772D01*
X110297565Y-78294862D01*
X110354702Y-78261189D01*
X110395845Y-78250165D01*
X110464367Y-78210604D01*
X110488761Y-78186210D01*
X110513154Y-78161818D01*
X110574477Y-78128334D01*
X110600834Y-78125500D01*
X110696962Y-78125500D01*
X110696962Y-78125499D01*
X110804121Y-78094035D01*
X110835050Y-78084954D01*
X110835050Y-78084953D01*
X110835053Y-78084953D01*
X110956128Y-78007143D01*
X111050377Y-77898373D01*
X111110165Y-77767457D01*
X111130647Y-77625000D01*
X111128748Y-77611790D01*
X111138692Y-77542631D01*
X111184448Y-77489828D01*
X111251486Y-77470144D01*
X116106276Y-77470144D01*
X116173315Y-77489829D01*
X116219070Y-77542633D01*
X116229014Y-77611791D01*
X116227893Y-77618335D01*
X116224500Y-77635391D01*
X116224500Y-78304896D01*
X116236131Y-78363373D01*
X116240560Y-78374063D01*
X116250000Y-78421518D01*
X116250000Y-106346144D01*
X116230315Y-106413183D01*
X116177511Y-106458938D01*
X116126000Y-106470144D01*
X91124000Y-106470144D01*
X91056961Y-106450459D01*
X91011206Y-106397655D01*
X91000000Y-106346144D01*
X91000000Y-98000000D01*
X95250000Y-98000000D01*
X95250000Y-101500000D01*
X100250000Y-101500000D01*
X100250000Y-96500000D01*
X95250000Y-96500000D01*
X95250000Y-98000000D01*
X91000000Y-98000000D01*
X91000000Y-77594144D01*
X91019685Y-77527105D01*
X91072489Y-77481350D01*
X91124000Y-77470144D01*
X109106276Y-77470144D01*
X109173315Y-77489829D01*
G37*
%TD.AperFunction*%
%TD*%
%TA.AperFunction,Conductor*%
%TO.N,Vin*%
G36*
X81443039Y-60019685D02*
G01*
X81488794Y-60072489D01*
X81500000Y-60124000D01*
X81500000Y-65876000D01*
X81480315Y-65943039D01*
X81427511Y-65988794D01*
X81376000Y-66000000D01*
X79000000Y-66000000D01*
X79000000Y-76876000D01*
X78980315Y-76943039D01*
X78927511Y-76988794D01*
X78876000Y-77000000D01*
X65500000Y-77000000D01*
X65500000Y-82776000D01*
X65480315Y-82843039D01*
X65427511Y-82888794D01*
X65376000Y-82900000D01*
X28324000Y-82900000D01*
X28256961Y-82880315D01*
X28211206Y-82827511D01*
X28200000Y-82776000D01*
X28200000Y-60124000D01*
X28219685Y-60056961D01*
X28272489Y-60011206D01*
X28324000Y-60000000D01*
X81376000Y-60000000D01*
X81443039Y-60019685D01*
G37*
%TD.AperFunction*%
%TD*%
%TA.AperFunction,Conductor*%
%TO.N,GND*%
G36*
X80343039Y-29119685D02*
G01*
X80388794Y-29172489D01*
X80400000Y-29224000D01*
X80400000Y-37597602D01*
X80390317Y-37641282D01*
X80391364Y-37641629D01*
X80389092Y-37648482D01*
X80389092Y-37648484D01*
X80334826Y-37812247D01*
X80334826Y-37812248D01*
X80334825Y-37812248D01*
X80324500Y-37913315D01*
X80324500Y-38486669D01*
X80324501Y-38486687D01*
X80334825Y-38587752D01*
X80334826Y-38587755D01*
X80391364Y-38758372D01*
X80390314Y-38758719D01*
X80400000Y-38802397D01*
X80400000Y-44363525D01*
X80380315Y-44430564D01*
X80339122Y-44470257D01*
X80250046Y-44522937D01*
X80250040Y-44522941D01*
X80132941Y-44640040D01*
X80132934Y-44640049D01*
X80048629Y-44782601D01*
X80048628Y-44782604D01*
X80002424Y-44941637D01*
X80002423Y-44941643D01*
X79999500Y-44978789D01*
X79999500Y-45421190D01*
X79999501Y-45421215D01*
X80002423Y-45458354D01*
X80048630Y-45617400D01*
X80132934Y-45759950D01*
X80132941Y-45759959D01*
X80250040Y-45877058D01*
X80250044Y-45877061D01*
X80250046Y-45877063D01*
X80339121Y-45929742D01*
X80386805Y-45980811D01*
X80400000Y-46036474D01*
X80400000Y-47749790D01*
X80380315Y-47816829D01*
X80341097Y-47855328D01*
X80301653Y-47879657D01*
X80301649Y-47879660D01*
X80179661Y-48001648D01*
X80089093Y-48148481D01*
X80089091Y-48148486D01*
X80078761Y-48179660D01*
X80034826Y-48312247D01*
X80034826Y-48312248D01*
X80034825Y-48312248D01*
X80024500Y-48413315D01*
X80024500Y-48986669D01*
X80024501Y-48986687D01*
X80034825Y-49087752D01*
X80056557Y-49153334D01*
X80082988Y-49233095D01*
X80085390Y-49302922D01*
X80049659Y-49362964D01*
X79987138Y-49394157D01*
X79963840Y-49396090D01*
X71823777Y-49301439D01*
X71756971Y-49280976D01*
X71711833Y-49227644D01*
X71701225Y-49176221D01*
X71898784Y-29222770D01*
X71919131Y-29155931D01*
X71972386Y-29110701D01*
X72022778Y-29100000D01*
X80276000Y-29100000D01*
X80343039Y-29119685D01*
G37*
%TD.AperFunction*%
%TA.AperFunction,Conductor*%
G36*
X140942961Y-25928882D02*
G01*
X140988756Y-25981652D01*
X141000000Y-26033248D01*
X141000000Y-40500000D01*
X153088352Y-40500000D01*
X153155391Y-40519685D01*
X153201146Y-40572489D01*
X153212352Y-40623896D01*
X153249896Y-85375896D01*
X153230268Y-85442952D01*
X153177502Y-85488751D01*
X153125896Y-85500000D01*
X145874000Y-85500000D01*
X145806961Y-85480315D01*
X145761206Y-85427511D01*
X145750000Y-85376000D01*
X145750000Y-59000000D01*
X99374000Y-59000000D01*
X99306961Y-58980315D01*
X99261206Y-58927511D01*
X99250000Y-58876000D01*
X99250000Y-55499999D01*
X99148235Y-55347353D01*
X99127427Y-55280654D01*
X99145982Y-55213293D01*
X99198009Y-55166657D01*
X99266991Y-55155553D01*
X99317381Y-55173576D01*
X99400476Y-55225788D01*
X99400478Y-55225789D01*
X99557273Y-55280654D01*
X99570745Y-55285368D01*
X99570750Y-55285369D01*
X99749996Y-55305565D01*
X99750000Y-55305565D01*
X99750004Y-55305565D01*
X99929249Y-55285369D01*
X99929252Y-55285368D01*
X99929255Y-55285368D01*
X100099522Y-55225789D01*
X100252262Y-55129816D01*
X100379816Y-55002262D01*
X100475789Y-54849522D01*
X100535368Y-54679255D01*
X100555565Y-54500000D01*
X100535368Y-54320745D01*
X100475789Y-54150478D01*
X100379816Y-53997738D01*
X100379814Y-53997736D01*
X100379813Y-53997734D01*
X100377550Y-53994896D01*
X100376659Y-53992715D01*
X100376111Y-53991842D01*
X100376264Y-53991745D01*
X100351144Y-53930209D01*
X100350500Y-53917587D01*
X100350500Y-53599899D01*
X100370185Y-53532860D01*
X100409401Y-53494362D01*
X100448350Y-53470339D01*
X100570340Y-53348349D01*
X100660908Y-53201515D01*
X100715174Y-53037752D01*
X100725500Y-52936676D01*
X100725499Y-52338323D01*
X100715174Y-52237246D01*
X100660908Y-52073483D01*
X100570340Y-51926649D01*
X100456371Y-51812680D01*
X100422886Y-51751357D01*
X100427870Y-51681665D01*
X100456371Y-51637318D01*
X100570340Y-51523349D01*
X100660908Y-51376515D01*
X100715174Y-51212752D01*
X100725500Y-51111676D01*
X100725499Y-50513323D01*
X100715174Y-50412246D01*
X100660908Y-50248483D01*
X100570340Y-50101649D01*
X100448350Y-49979659D01*
X100448349Y-49979658D01*
X100409402Y-49955635D01*
X100362678Y-49903686D01*
X100350500Y-49850097D01*
X100350500Y-49089060D01*
X100350501Y-49089047D01*
X100350501Y-48920944D01*
X100350501Y-48920943D01*
X100309577Y-48768216D01*
X100277889Y-48713330D01*
X100230524Y-48631290D01*
X100230518Y-48631282D01*
X99027474Y-47428239D01*
X98993989Y-47366916D01*
X98991797Y-47353156D01*
X98990172Y-47337246D01*
X98935906Y-47173483D01*
X98845338Y-47026649D01*
X98723348Y-46904659D01*
X98723344Y-46904656D01*
X98621901Y-46842085D01*
X98575176Y-46790137D01*
X98562998Y-46736547D01*
X98562998Y-45476558D01*
X98562999Y-45476545D01*
X98562999Y-45308442D01*
X98562999Y-45308441D01*
X98529009Y-45181591D01*
X98530672Y-45111743D01*
X98569834Y-45053881D01*
X98634062Y-45026376D01*
X98648784Y-45025499D01*
X99591370Y-45025499D01*
X99658409Y-45045184D01*
X99704164Y-45097988D01*
X99709076Y-45110495D01*
X99764089Y-45276512D01*
X99764091Y-45276517D01*
X99783782Y-45308441D01*
X99854658Y-45423349D01*
X99976648Y-45545339D01*
X100123482Y-45635907D01*
X100287245Y-45690173D01*
X100388321Y-45700499D01*
X100986674Y-45700498D01*
X100986682Y-45700497D01*
X100986685Y-45700497D01*
X101042028Y-45694843D01*
X101087751Y-45690173D01*
X101251514Y-45635907D01*
X101398348Y-45545339D01*
X101512317Y-45431370D01*
X101573640Y-45397885D01*
X101643332Y-45402869D01*
X101687679Y-45431370D01*
X101801648Y-45545339D01*
X101948482Y-45635907D01*
X102112245Y-45690173D01*
X102213321Y-45700499D01*
X102811674Y-45700498D01*
X102811682Y-45700497D01*
X102811685Y-45700497D01*
X102867028Y-45694843D01*
X102912751Y-45690173D01*
X103076514Y-45635907D01*
X103223348Y-45545339D01*
X103345338Y-45423349D01*
X103369360Y-45384403D01*
X103421308Y-45337678D01*
X103474899Y-45325499D01*
X103587597Y-45325499D01*
X103654636Y-45345184D01*
X103693136Y-45384403D01*
X103715841Y-45421215D01*
X103717158Y-45423349D01*
X103839148Y-45545339D01*
X103985982Y-45635907D01*
X104149745Y-45690173D01*
X104250821Y-45700499D01*
X104949174Y-45700498D01*
X104949182Y-45700497D01*
X104949185Y-45700497D01*
X105004528Y-45694843D01*
X105050251Y-45690173D01*
X105214014Y-45635907D01*
X105360848Y-45545339D01*
X105482838Y-45423349D01*
X105573406Y-45276515D01*
X105627672Y-45112752D01*
X105637998Y-45011676D01*
X105637997Y-44438323D01*
X105637204Y-44430564D01*
X105627672Y-44337246D01*
X105604136Y-44266220D01*
X105603235Y-44263503D01*
X105600834Y-44193676D01*
X105636565Y-44133634D01*
X105699086Y-44102441D01*
X105720942Y-44100500D01*
X109725500Y-44100500D01*
X109792539Y-44120185D01*
X109838294Y-44172989D01*
X109849500Y-44224500D01*
X109849500Y-47450001D01*
X109849501Y-47450018D01*
X109860000Y-47552796D01*
X109860001Y-47552799D01*
X109915185Y-47719331D01*
X109915186Y-47719334D01*
X110007288Y-47868656D01*
X110131344Y-47992712D01*
X110280666Y-48084814D01*
X110447203Y-48139999D01*
X110549991Y-48150500D01*
X113450008Y-48150499D01*
X113552797Y-48139999D01*
X113719334Y-48084814D01*
X113868656Y-47992712D01*
X113992712Y-47868656D01*
X114084814Y-47719334D01*
X114139999Y-47552797D01*
X114150500Y-47450009D01*
X114150500Y-46024500D01*
X114170185Y-45957461D01*
X114222989Y-45911706D01*
X114274500Y-45900500D01*
X118225501Y-45900500D01*
X118292540Y-45920185D01*
X118338295Y-45972989D01*
X118349501Y-46024500D01*
X118349501Y-47350018D01*
X118360000Y-47452796D01*
X118360001Y-47452799D01*
X118393137Y-47552795D01*
X118415186Y-47619334D01*
X118507288Y-47768656D01*
X118631344Y-47892712D01*
X118780666Y-47984814D01*
X118947203Y-48039999D01*
X119049991Y-48050500D01*
X121950008Y-48050499D01*
X122052797Y-48039999D01*
X122219334Y-47984814D01*
X122368656Y-47892712D01*
X122492712Y-47768656D01*
X122584814Y-47619334D01*
X122639999Y-47452797D01*
X122650500Y-47350009D01*
X122650499Y-43249992D01*
X122639999Y-43147203D01*
X122584814Y-42980666D01*
X122492712Y-42831344D01*
X122368656Y-42707288D01*
X122219334Y-42615186D01*
X122052797Y-42560001D01*
X122052795Y-42560000D01*
X121950010Y-42549500D01*
X119049998Y-42549500D01*
X119049981Y-42549501D01*
X118947203Y-42560000D01*
X118947200Y-42560001D01*
X118780668Y-42615185D01*
X118780663Y-42615187D01*
X118631342Y-42707289D01*
X118507289Y-42831342D01*
X118415187Y-42980663D01*
X118415185Y-42980668D01*
X118397322Y-43034575D01*
X118360001Y-43147203D01*
X118360001Y-43147204D01*
X118360000Y-43147204D01*
X118349500Y-43249983D01*
X118349500Y-44575500D01*
X118329815Y-44642539D01*
X118277011Y-44688294D01*
X118225500Y-44699500D01*
X114274499Y-44699500D01*
X114207460Y-44679815D01*
X114161705Y-44627011D01*
X114150499Y-44575500D01*
X114150499Y-43349998D01*
X114150498Y-43349981D01*
X114139999Y-43247203D01*
X114139998Y-43247200D01*
X114109384Y-43154813D01*
X114084814Y-43080666D01*
X113992712Y-42931344D01*
X113868656Y-42807288D01*
X113719334Y-42715186D01*
X113552797Y-42660001D01*
X113552795Y-42660000D01*
X113450010Y-42649500D01*
X110549998Y-42649500D01*
X110549981Y-42649501D01*
X110447203Y-42660000D01*
X110447200Y-42660001D01*
X110280668Y-42715185D01*
X110280663Y-42715187D01*
X110131342Y-42807289D01*
X110075451Y-42863181D01*
X110014128Y-42896666D01*
X109987770Y-42899500D01*
X104582412Y-42899500D01*
X104515373Y-42879815D01*
X104505097Y-42872445D01*
X104502263Y-42870185D01*
X104502262Y-42870184D01*
X104425603Y-42822016D01*
X104349523Y-42774211D01*
X104179254Y-42714631D01*
X104179249Y-42714630D01*
X104000004Y-42694435D01*
X103999996Y-42694435D01*
X103820750Y-42714630D01*
X103820745Y-42714631D01*
X103650476Y-42774211D01*
X103497737Y-42870184D01*
X103370183Y-42997738D01*
X103343230Y-43040633D01*
X103325921Y-43062338D01*
X103256978Y-43131283D01*
X103256977Y-43131282D01*
X103256975Y-43131286D01*
X102675080Y-43713180D01*
X102613757Y-43746665D01*
X102587399Y-43749499D01*
X102213328Y-43749499D01*
X102213317Y-43749500D01*
X102196870Y-43751180D01*
X102128178Y-43738407D01*
X102077296Y-43690524D01*
X102060378Y-43622733D01*
X102082797Y-43556558D01*
X102096587Y-43540146D01*
X105374916Y-40261818D01*
X105436239Y-40228333D01*
X105462597Y-40225499D01*
X106175002Y-40225499D01*
X106175008Y-40225499D01*
X106277797Y-40214999D01*
X106444334Y-40159814D01*
X106593656Y-40067712D01*
X106717712Y-39943656D01*
X106808324Y-39796748D01*
X106860272Y-39750024D01*
X106929234Y-39738801D01*
X106954818Y-39744804D01*
X107070737Y-39785366D01*
X107070743Y-39785367D01*
X107070745Y-39785368D01*
X107070746Y-39785368D01*
X107070750Y-39785369D01*
X107249996Y-39805565D01*
X107250000Y-39805565D01*
X107250004Y-39805565D01*
X107429249Y-39785369D01*
X107429252Y-39785368D01*
X107429255Y-39785368D01*
X107599522Y-39725789D01*
X107752262Y-39629816D01*
X107879816Y-39502262D01*
X107975789Y-39349522D01*
X108035368Y-39179255D01*
X108035369Y-39179249D01*
X108055565Y-39000003D01*
X108055565Y-38999996D01*
X108035369Y-38820750D01*
X108035368Y-38820745D01*
X108011592Y-38752797D01*
X107975789Y-38650478D01*
X107975494Y-38650009D01*
X107879815Y-38497737D01*
X107752262Y-38370184D01*
X107599523Y-38274211D01*
X107429254Y-38214631D01*
X107429249Y-38214630D01*
X107250004Y-38194435D01*
X107249996Y-38194435D01*
X107070750Y-38214630D01*
X107070742Y-38214632D01*
X106954817Y-38255196D01*
X106885038Y-38258757D01*
X106824411Y-38224028D01*
X106808324Y-38203251D01*
X106807890Y-38202547D01*
X106717712Y-38056344D01*
X106593656Y-37932288D01*
X106444334Y-37840186D01*
X106277797Y-37785001D01*
X106277795Y-37785000D01*
X106175016Y-37774500D01*
X106175009Y-37774500D01*
X106086597Y-37774500D01*
X106019558Y-37754815D01*
X105973803Y-37702011D01*
X105963859Y-37632853D01*
X105992884Y-37569297D01*
X105998916Y-37562819D01*
X106083813Y-37477923D01*
X106324917Y-37236819D01*
X106386240Y-37203334D01*
X106412598Y-37200500D01*
X109725501Y-37200500D01*
X109792540Y-37220185D01*
X109838295Y-37272989D01*
X109849501Y-37324500D01*
X109849501Y-38650018D01*
X109860000Y-38752796D01*
X109860001Y-38752799D01*
X109915185Y-38919331D01*
X109915187Y-38919336D01*
X109932529Y-38947452D01*
X110007288Y-39068656D01*
X110131344Y-39192712D01*
X110280666Y-39284814D01*
X110447203Y-39339999D01*
X110549991Y-39350500D01*
X113450008Y-39350499D01*
X113459563Y-39349523D01*
X113467895Y-39348671D01*
X113552797Y-39339999D01*
X113719334Y-39284814D01*
X113868656Y-39192712D01*
X113992712Y-39068656D01*
X114084814Y-38919334D01*
X114139999Y-38752797D01*
X114150500Y-38650009D01*
X114150499Y-34549992D01*
X114139999Y-34447203D01*
X114084814Y-34280666D01*
X114084811Y-34280662D01*
X114083059Y-34276903D01*
X114082629Y-34274075D01*
X114082542Y-34273811D01*
X114082587Y-34273796D01*
X114072568Y-34207825D01*
X114101089Y-34144042D01*
X114159567Y-34105803D01*
X114195442Y-34100500D01*
X117199903Y-34100500D01*
X117266942Y-34120185D01*
X117287584Y-34136819D01*
X118313181Y-35162416D01*
X118346666Y-35223739D01*
X118349500Y-35250097D01*
X118349500Y-38550001D01*
X118349501Y-38550018D01*
X118360000Y-38652796D01*
X118360001Y-38652799D01*
X118415185Y-38819331D01*
X118415187Y-38819336D01*
X118435671Y-38852546D01*
X118507288Y-38968656D01*
X118631344Y-39092712D01*
X118780666Y-39184814D01*
X118947203Y-39239999D01*
X119049991Y-39250500D01*
X121950008Y-39250499D01*
X122052797Y-39239999D01*
X122219334Y-39184814D01*
X122368656Y-39092712D01*
X122492712Y-38968656D01*
X122584814Y-38819334D01*
X122639999Y-38652797D01*
X122650500Y-38550009D01*
X122650499Y-34449992D01*
X122639999Y-34347203D01*
X122584814Y-34180666D01*
X122492712Y-34031344D01*
X122368656Y-33907288D01*
X122242252Y-33829322D01*
X122219336Y-33815187D01*
X122219331Y-33815185D01*
X122217862Y-33814698D01*
X122052797Y-33760001D01*
X122052795Y-33760000D01*
X121950010Y-33749500D01*
X119049998Y-33749500D01*
X119049981Y-33749501D01*
X118947203Y-33760000D01*
X118947200Y-33760001D01*
X118780659Y-33815188D01*
X118780071Y-33815463D01*
X118779628Y-33815530D01*
X118773811Y-33817458D01*
X118773481Y-33816463D01*
X118710992Y-33825950D01*
X118647211Y-33797425D01*
X118639994Y-33790758D01*
X117987590Y-33138355D01*
X117987588Y-33138352D01*
X117868717Y-33019481D01*
X117868709Y-33019475D01*
X117766936Y-32960717D01*
X117766934Y-32960716D01*
X117731790Y-32940425D01*
X117731789Y-32940424D01*
X117719263Y-32937067D01*
X117579057Y-32899499D01*
X117420943Y-32899499D01*
X117413347Y-32899499D01*
X117413331Y-32899500D01*
X101208440Y-32899500D01*
X101167519Y-32910464D01*
X101167519Y-32910465D01*
X101130666Y-32920340D01*
X101055714Y-32940423D01*
X101055709Y-32940426D01*
X100918790Y-33019475D01*
X100918782Y-33019481D01*
X100806978Y-33131286D01*
X100200082Y-33738181D01*
X100138759Y-33771666D01*
X100112401Y-33774500D01*
X99399998Y-33774500D01*
X99399980Y-33774501D01*
X99297203Y-33785000D01*
X99297200Y-33785001D01*
X99130668Y-33840185D01*
X99130663Y-33840187D01*
X98981342Y-33932289D01*
X98857285Y-34056346D01*
X98855537Y-34059182D01*
X98853829Y-34060717D01*
X98852807Y-34062011D01*
X98852585Y-34061836D01*
X98803589Y-34105905D01*
X98734626Y-34117126D01*
X98670544Y-34089282D01*
X98644463Y-34059182D01*
X98642714Y-34056346D01*
X98518657Y-33932289D01*
X98518656Y-33932288D01*
X98384470Y-33849522D01*
X98369336Y-33840187D01*
X98369331Y-33840185D01*
X98348345Y-33833231D01*
X98202797Y-33785001D01*
X98202795Y-33785000D01*
X98100010Y-33774500D01*
X97324998Y-33774500D01*
X97324980Y-33774501D01*
X97222203Y-33785000D01*
X97222200Y-33785001D01*
X97055668Y-33840185D01*
X97055663Y-33840187D01*
X96906342Y-33932289D01*
X96782289Y-34056342D01*
X96691675Y-34203251D01*
X96639727Y-34249976D01*
X96570764Y-34261197D01*
X96545182Y-34255196D01*
X96429257Y-34214632D01*
X96429249Y-34214630D01*
X96250004Y-34194435D01*
X96249996Y-34194435D01*
X96070750Y-34214630D01*
X96070745Y-34214631D01*
X95900476Y-34274211D01*
X95747737Y-34370184D01*
X95620184Y-34497737D01*
X95524211Y-34650476D01*
X95464631Y-34820745D01*
X95464630Y-34820750D01*
X95444435Y-34999996D01*
X95444435Y-35000003D01*
X95464630Y-35179249D01*
X95464631Y-35179254D01*
X95524211Y-35349523D01*
X95540533Y-35375499D01*
X95620184Y-35502262D01*
X95747738Y-35629816D01*
X95804328Y-35665374D01*
X95880649Y-35713330D01*
X95900478Y-35725789D01*
X96070742Y-35785367D01*
X96070745Y-35785368D01*
X96070750Y-35785369D01*
X96249996Y-35805565D01*
X96250000Y-35805565D01*
X96250004Y-35805565D01*
X96429249Y-35785369D01*
X96429252Y-35785368D01*
X96429255Y-35785368D01*
X96429256Y-35785367D01*
X96429259Y-35785367D01*
X96460397Y-35774470D01*
X96545183Y-35744802D01*
X96614959Y-35741240D01*
X96675586Y-35775968D01*
X96691675Y-35796748D01*
X96779590Y-35939283D01*
X96782288Y-35943656D01*
X96906344Y-36067712D01*
X97055666Y-36159814D01*
X97064498Y-36162740D01*
X97121944Y-36202508D01*
X97148771Y-36267022D01*
X97149500Y-36280448D01*
X97149500Y-36475500D01*
X97129815Y-36542539D01*
X97077011Y-36588294D01*
X97025500Y-36599500D01*
X95858462Y-36599500D01*
X95727969Y-36625457D01*
X95727961Y-36625459D01*
X95605031Y-36676378D01*
X95494392Y-36750304D01*
X95400303Y-36844393D01*
X95326377Y-36955032D01*
X95275458Y-37077962D01*
X95275456Y-37077970D01*
X95249499Y-37208463D01*
X95249499Y-37341534D01*
X95275456Y-37472027D01*
X95275458Y-37472035D01*
X95308807Y-37552546D01*
X95316276Y-37622016D01*
X95308807Y-37647451D01*
X95275459Y-37727959D01*
X95275456Y-37727971D01*
X95249499Y-37858464D01*
X95249499Y-37991535D01*
X95275456Y-38122028D01*
X95275459Y-38122040D01*
X95308806Y-38202547D01*
X95316275Y-38272016D01*
X95308807Y-38297451D01*
X95275456Y-38377967D01*
X95275456Y-38377970D01*
X95249499Y-38508463D01*
X95249499Y-38641534D01*
X95275456Y-38772027D01*
X95275458Y-38772035D01*
X95308807Y-38852546D01*
X95316276Y-38922016D01*
X95308807Y-38947451D01*
X95275459Y-39027959D01*
X95275456Y-39027971D01*
X95249499Y-39158464D01*
X95249499Y-39291535D01*
X95275456Y-39422028D01*
X95275458Y-39422036D01*
X95308807Y-39502546D01*
X95316276Y-39572015D01*
X95308807Y-39597452D01*
X95275458Y-39677961D01*
X95275456Y-39677969D01*
X95249499Y-39808462D01*
X95249499Y-39941533D01*
X95275456Y-40072026D01*
X95275459Y-40072038D01*
X95308807Y-40152547D01*
X95316276Y-40222016D01*
X95308807Y-40247451D01*
X95275459Y-40327959D01*
X95275456Y-40327971D01*
X95249499Y-40458464D01*
X95249499Y-40591535D01*
X95275456Y-40722028D01*
X95275458Y-40722036D01*
X95326377Y-40844966D01*
X95400303Y-40955605D01*
X95494389Y-41049691D01*
X95494393Y-41049694D01*
X95527623Y-41071898D01*
X95572428Y-41125510D01*
X95581135Y-41194835D01*
X95550980Y-41257863D01*
X95527623Y-41278102D01*
X95494393Y-41300305D01*
X95494389Y-41300308D01*
X95400303Y-41394394D01*
X95326377Y-41505033D01*
X95275458Y-41627963D01*
X95275456Y-41627971D01*
X95249499Y-41758464D01*
X95249499Y-41891535D01*
X95259177Y-41940187D01*
X95275458Y-42022036D01*
X95302706Y-42087819D01*
X95308807Y-42102546D01*
X95316276Y-42172015D01*
X95308807Y-42197452D01*
X95275458Y-42277961D01*
X95275456Y-42277969D01*
X95249499Y-42408462D01*
X95249499Y-42541533D01*
X95275456Y-42672026D01*
X95275459Y-42672038D01*
X95308807Y-42752547D01*
X95316276Y-42822016D01*
X95308807Y-42847451D01*
X95275459Y-42927959D01*
X95275456Y-42927971D01*
X95249499Y-43058464D01*
X95249499Y-43191535D01*
X95275456Y-43322028D01*
X95275458Y-43322036D01*
X95308807Y-43402546D01*
X95316276Y-43472015D01*
X95308807Y-43497449D01*
X95299390Y-43520185D01*
X95275458Y-43577961D01*
X95275456Y-43577969D01*
X95249499Y-43708462D01*
X95249499Y-43841533D01*
X95275456Y-43972026D01*
X95275458Y-43972034D01*
X95308807Y-44052545D01*
X95316276Y-44122015D01*
X95308807Y-44147450D01*
X95275459Y-44227958D01*
X95275456Y-44227970D01*
X95249499Y-44358463D01*
X95249499Y-44491534D01*
X95275456Y-44622027D01*
X95275459Y-44622039D01*
X95308806Y-44702546D01*
X95316275Y-44772015D01*
X95308807Y-44797450D01*
X95275456Y-44877966D01*
X95275456Y-44877969D01*
X95249499Y-45008462D01*
X95249499Y-45141533D01*
X95275456Y-45272026D01*
X95275458Y-45272034D01*
X95308807Y-45352545D01*
X95316276Y-45422015D01*
X95308807Y-45447450D01*
X95275459Y-45527958D01*
X95275456Y-45527970D01*
X95249499Y-45658463D01*
X95249499Y-45791534D01*
X95275456Y-45922027D01*
X95275458Y-45922035D01*
X95326377Y-46044965D01*
X95400303Y-46155604D01*
X95494392Y-46249693D01*
X95567984Y-46298865D01*
X95605029Y-46323618D01*
X95727962Y-46374539D01*
X95837996Y-46396426D01*
X95858462Y-46400497D01*
X95858466Y-46400498D01*
X95858467Y-46400498D01*
X95875498Y-46400498D01*
X95942537Y-46420183D01*
X95988292Y-46472987D01*
X95999498Y-46524498D01*
X95999498Y-46626164D01*
X95979813Y-46693203D01*
X95927009Y-46738958D01*
X95888100Y-46749522D01*
X95787244Y-46759825D01*
X95623482Y-46814091D01*
X95623479Y-46814092D01*
X95476646Y-46904660D01*
X95354659Y-47026647D01*
X95264091Y-47173480D01*
X95264090Y-47173483D01*
X95209824Y-47337246D01*
X95209824Y-47337247D01*
X95209823Y-47337247D01*
X95199498Y-47438314D01*
X95199498Y-48011668D01*
X95199499Y-48011686D01*
X95209823Y-48112751D01*
X95231995Y-48179659D01*
X95264090Y-48276515D01*
X95354658Y-48423349D01*
X95476648Y-48545339D01*
X95623482Y-48635907D01*
X95787245Y-48690173D01*
X95888321Y-48700499D01*
X96312400Y-48700498D01*
X96379439Y-48720182D01*
X96400081Y-48736817D01*
X96963179Y-49299915D01*
X96996664Y-49361238D01*
X96999498Y-49387596D01*
X96999498Y-49850097D01*
X96979813Y-49917136D01*
X96940596Y-49955635D01*
X96901648Y-49979658D01*
X96779659Y-50101647D01*
X96689091Y-50248480D01*
X96689090Y-50248483D01*
X96634824Y-50412246D01*
X96634824Y-50412247D01*
X96634823Y-50412247D01*
X96624498Y-50513314D01*
X96624498Y-51111668D01*
X96624499Y-51111686D01*
X96634823Y-51212751D01*
X96657510Y-51281214D01*
X96689090Y-51376515D01*
X96731539Y-51445336D01*
X96750000Y-51510432D01*
X96750000Y-55000000D01*
X98194784Y-55963189D01*
X98239644Y-56016753D01*
X98250000Y-56066362D01*
X98250000Y-58876000D01*
X98230315Y-58943039D01*
X98177511Y-58988794D01*
X98126000Y-59000000D01*
X96874000Y-59000000D01*
X96806961Y-58980315D01*
X96761206Y-58927511D01*
X96750000Y-58876000D01*
X96750000Y-58000000D01*
X95750000Y-58000000D01*
X95750000Y-58876000D01*
X95730315Y-58943039D01*
X95677511Y-58988794D01*
X95626000Y-59000000D01*
X27500000Y-59000000D01*
X27500000Y-82876000D01*
X27480315Y-82943039D01*
X27427511Y-82988794D01*
X27376000Y-83000000D01*
X20024109Y-83000000D01*
X19957070Y-82980315D01*
X19911315Y-82927511D01*
X19900109Y-82875891D01*
X19929123Y-49800000D01*
X71200000Y-49800000D01*
X80349432Y-49899450D01*
X80351232Y-49900000D01*
X80399329Y-49900000D01*
X80400677Y-49900007D01*
X80454461Y-49900591D01*
X80458275Y-49900000D01*
X81100000Y-49900000D01*
X81100000Y-49799499D01*
X81119685Y-49732460D01*
X81172489Y-49686705D01*
X81224000Y-49675499D01*
X81311670Y-49675499D01*
X81311676Y-49675499D01*
X81412753Y-49665174D01*
X81576516Y-49610908D01*
X81576516Y-49610907D01*
X81583372Y-49608636D01*
X81583800Y-49609928D01*
X81626326Y-49600500D01*
X84049138Y-49600500D01*
X84116177Y-49620185D01*
X84136819Y-49636819D01*
X84600000Y-50100000D01*
X85700000Y-50100000D01*
X85700000Y-50067225D01*
X85719685Y-50000186D01*
X85772489Y-49954431D01*
X85784996Y-49949519D01*
X85901516Y-49910908D01*
X86048350Y-49820340D01*
X86162319Y-49706371D01*
X86223642Y-49672886D01*
X86293334Y-49677870D01*
X86337681Y-49706371D01*
X86451650Y-49820340D01*
X86503097Y-49852072D01*
X86549821Y-49904017D01*
X86562000Y-49957610D01*
X86562000Y-50825830D01*
X86561999Y-50825848D01*
X86561999Y-50991554D01*
X86561998Y-50991554D01*
X86561999Y-50991557D01*
X86602923Y-51144285D01*
X86607528Y-51152260D01*
X86624244Y-51181213D01*
X86624246Y-51181216D01*
X86681979Y-51281214D01*
X86681981Y-51281217D01*
X86800849Y-51400085D01*
X86800855Y-51400090D01*
X87419298Y-52018533D01*
X87452783Y-52079856D01*
X87454837Y-52092330D01*
X87464630Y-52179249D01*
X87524210Y-52349521D01*
X87620184Y-52502262D01*
X87747738Y-52629816D01*
X87900478Y-52725789D01*
X88070745Y-52785368D01*
X88070750Y-52785369D01*
X88249996Y-52805565D01*
X88250000Y-52805565D01*
X88250004Y-52805565D01*
X88429249Y-52785369D01*
X88429252Y-52785368D01*
X88429255Y-52785368D01*
X88599522Y-52725789D01*
X88752262Y-52629816D01*
X88879816Y-52502262D01*
X88975789Y-52349522D01*
X89035368Y-52179255D01*
X89045162Y-52092330D01*
X89055565Y-52000003D01*
X89055565Y-51999996D01*
X89035369Y-51820750D01*
X89035368Y-51820745D01*
X88984915Y-51676560D01*
X88975789Y-51650478D01*
X88972554Y-51645330D01*
X88879815Y-51497737D01*
X88752262Y-51370184D01*
X88599521Y-51274210D01*
X88429249Y-51214630D01*
X88342330Y-51204837D01*
X88277916Y-51177770D01*
X88268533Y-51169298D01*
X87799319Y-50700084D01*
X87765834Y-50638761D01*
X87763000Y-50612403D01*
X87763000Y-49957610D01*
X87782685Y-49890571D01*
X87821901Y-49852073D01*
X87873350Y-49820340D01*
X87995340Y-49698350D01*
X88085908Y-49551516D01*
X88140174Y-49387753D01*
X88150500Y-49286677D01*
X88150499Y-48713324D01*
X88149278Y-48701375D01*
X88140174Y-48612247D01*
X88085908Y-48448484D01*
X87995340Y-48301650D01*
X87873350Y-48179660D01*
X87873349Y-48179659D01*
X87821902Y-48147926D01*
X87775178Y-48095978D01*
X87763000Y-48042388D01*
X87763000Y-47412595D01*
X87782685Y-47345556D01*
X87799314Y-47324919D01*
X89999224Y-45125008D01*
X90060545Y-45091525D01*
X90111092Y-45091074D01*
X90158469Y-45100498D01*
X91641532Y-45100498D01*
X91641533Y-45100497D01*
X91772036Y-45074539D01*
X91894969Y-45023618D01*
X92005605Y-44949693D01*
X92099694Y-44855604D01*
X92173619Y-44744968D01*
X92224540Y-44622035D01*
X92250499Y-44491530D01*
X92250499Y-44358468D01*
X92224540Y-44227963D01*
X92191189Y-44147449D01*
X92183721Y-44077982D01*
X92191186Y-44052555D01*
X92224540Y-43972034D01*
X92250499Y-43841529D01*
X92250499Y-43708467D01*
X92224540Y-43577962D01*
X92173619Y-43455029D01*
X92138551Y-43402546D01*
X92099694Y-43344392D01*
X92005607Y-43250305D01*
X91994745Y-43243047D01*
X91972373Y-43228099D01*
X91927570Y-43174489D01*
X91918861Y-43105164D01*
X91949016Y-43042136D01*
X91972371Y-43021898D01*
X92005605Y-42999692D01*
X92099694Y-42905603D01*
X92173619Y-42794967D01*
X92224540Y-42672034D01*
X92250499Y-42541529D01*
X92250499Y-42408467D01*
X92224540Y-42277962D01*
X92191190Y-42197450D01*
X92183722Y-42127983D01*
X92191191Y-42102546D01*
X92224540Y-42022036D01*
X92250499Y-41891531D01*
X92250499Y-41758469D01*
X92224540Y-41627964D01*
X92191189Y-41547450D01*
X92183721Y-41477983D01*
X92191188Y-41452550D01*
X92224540Y-41372034D01*
X92250499Y-41241529D01*
X92250499Y-41108467D01*
X92224540Y-40977962D01*
X92191190Y-40897450D01*
X92183722Y-40827983D01*
X92191191Y-40802546D01*
X92224540Y-40722036D01*
X92250499Y-40591531D01*
X92250499Y-40458469D01*
X92224540Y-40327964D01*
X92182097Y-40225498D01*
X92173620Y-40205033D01*
X92170256Y-40199999D01*
X92143406Y-40159814D01*
X92099694Y-40094394D01*
X92005607Y-40000307D01*
X91994745Y-39993049D01*
X91972373Y-39978101D01*
X91927570Y-39924491D01*
X91918861Y-39855166D01*
X91949016Y-39792138D01*
X91972371Y-39771900D01*
X92005605Y-39749694D01*
X92099694Y-39655605D01*
X92173619Y-39544969D01*
X92224540Y-39422036D01*
X92250499Y-39291531D01*
X92250499Y-39158469D01*
X92224540Y-39027964D01*
X92191189Y-38947450D01*
X92183721Y-38877983D01*
X92191186Y-38852556D01*
X92224540Y-38772035D01*
X92250499Y-38641530D01*
X92250499Y-38516496D01*
X92270184Y-38449457D01*
X92312502Y-38409106D01*
X92318716Y-38405520D01*
X92430520Y-38293716D01*
X92430520Y-38293714D01*
X92440724Y-38283511D01*
X92440728Y-38283506D01*
X92858506Y-37865728D01*
X92858511Y-37865724D01*
X92868714Y-37855520D01*
X92868716Y-37855520D01*
X92980520Y-37743716D01*
X93059577Y-37606784D01*
X93094105Y-37477923D01*
X93100500Y-37454058D01*
X93100500Y-37295943D01*
X93100500Y-34920943D01*
X93095023Y-34900500D01*
X93059577Y-34768215D01*
X93030639Y-34718095D01*
X92980520Y-34631284D01*
X92868716Y-34519480D01*
X92868715Y-34519479D01*
X92864385Y-34515149D01*
X92864374Y-34515139D01*
X92261818Y-33912583D01*
X92228333Y-33851260D01*
X92225499Y-33824902D01*
X92225499Y-33613330D01*
X92225498Y-33613313D01*
X92215174Y-33512247D01*
X92211114Y-33499996D01*
X92160908Y-33348484D01*
X92070340Y-33201650D01*
X91956371Y-33087681D01*
X91922886Y-33026358D01*
X91927870Y-32956666D01*
X91956371Y-32912319D01*
X91980939Y-32887751D01*
X92070340Y-32798350D01*
X92160908Y-32651516D01*
X92215174Y-32487753D01*
X92225500Y-32386677D01*
X92225499Y-31788324D01*
X92215174Y-31687247D01*
X92160908Y-31523484D01*
X92070340Y-31376650D01*
X91948350Y-31254660D01*
X91801516Y-31164092D01*
X91637753Y-31109826D01*
X91637751Y-31109825D01*
X91536678Y-31099500D01*
X90963330Y-31099500D01*
X90963312Y-31099501D01*
X90862247Y-31109825D01*
X90698484Y-31164092D01*
X90698481Y-31164093D01*
X90551648Y-31254661D01*
X90431875Y-31374435D01*
X90370552Y-31407920D01*
X90300860Y-31402936D01*
X90256513Y-31374435D01*
X90252262Y-31370184D01*
X90099523Y-31274211D01*
X89929254Y-31214631D01*
X89929249Y-31214630D01*
X89750004Y-31194435D01*
X89749996Y-31194435D01*
X89570750Y-31214630D01*
X89570745Y-31214631D01*
X89400476Y-31274211D01*
X89253567Y-31366521D01*
X89186330Y-31385521D01*
X89119495Y-31365153D01*
X89099918Y-31349212D01*
X88189060Y-30438354D01*
X88189059Y-30438352D01*
X88070188Y-30319481D01*
X88070187Y-30319480D01*
X87983375Y-30269360D01*
X87983375Y-30269359D01*
X87983371Y-30269358D01*
X87933256Y-30240423D01*
X87780528Y-30199499D01*
X87622414Y-30199499D01*
X87614818Y-30199499D01*
X87614802Y-30199500D01*
X82474901Y-30199500D01*
X82407862Y-30179815D01*
X82369362Y-30140596D01*
X82345340Y-30101650D01*
X82223351Y-29979661D01*
X82223350Y-29979660D01*
X82076516Y-29889092D01*
X81912753Y-29834826D01*
X81912751Y-29834825D01*
X81811684Y-29824500D01*
X81224000Y-29824500D01*
X81156961Y-29804815D01*
X81111206Y-29752011D01*
X81100000Y-29700500D01*
X81100000Y-28400000D01*
X71300000Y-28400000D01*
X71300000Y-28699623D01*
X71299999Y-28700211D01*
X71220577Y-45458358D01*
X71200000Y-49800000D01*
X19929123Y-49800000D01*
X19933706Y-44575500D01*
X19937172Y-40623890D01*
X19956915Y-40556869D01*
X20009760Y-40511160D01*
X20061172Y-40500000D01*
X33500000Y-40500000D01*
X33500000Y-26113738D01*
X33519685Y-26046699D01*
X33572489Y-26000944D01*
X33623906Y-25989738D01*
X140875909Y-25909248D01*
X140942961Y-25928882D01*
G37*
%TD.AperFunction*%
%TA.AperFunction,Conductor*%
G36*
X109871597Y-34120185D02*
G01*
X109917352Y-34172989D01*
X109927296Y-34242147D01*
X109916941Y-34276903D01*
X109915186Y-34280665D01*
X109915186Y-34280666D01*
X109860001Y-34447203D01*
X109860001Y-34447204D01*
X109860000Y-34447204D01*
X109849500Y-34549983D01*
X109849500Y-35875500D01*
X109829815Y-35942539D01*
X109777011Y-35988294D01*
X109725500Y-35999500D01*
X106199170Y-35999500D01*
X106199154Y-35999499D01*
X106191558Y-35999499D01*
X106033443Y-35999499D01*
X105957079Y-36019961D01*
X105880714Y-36040423D01*
X105880709Y-36040426D01*
X105743790Y-36119475D01*
X105743782Y-36119481D01*
X104125082Y-37738181D01*
X104063759Y-37771666D01*
X104037401Y-37774500D01*
X103324998Y-37774500D01*
X103324980Y-37774501D01*
X103222203Y-37785000D01*
X103222200Y-37785001D01*
X103055668Y-37840185D01*
X103055663Y-37840187D01*
X102906342Y-37932289D01*
X102782289Y-38056342D01*
X102690187Y-38205663D01*
X102690185Y-38205668D01*
X102687215Y-38214631D01*
X102635001Y-38372203D01*
X102635001Y-38372204D01*
X102635000Y-38372204D01*
X102624500Y-38474983D01*
X102624500Y-39187402D01*
X102604815Y-39254441D01*
X102588181Y-39275083D01*
X100025086Y-41838179D01*
X99963763Y-41871664D01*
X99937405Y-41874498D01*
X99496955Y-41874498D01*
X99429916Y-41854813D01*
X99384161Y-41802009D01*
X99373735Y-41764381D01*
X99360369Y-41645750D01*
X99360368Y-41645745D01*
X99325974Y-41547452D01*
X99300789Y-41475478D01*
X99204816Y-41322738D01*
X99204812Y-41322734D01*
X99204672Y-41322558D01*
X99204615Y-41322418D01*
X99201111Y-41316842D01*
X99202088Y-41316228D01*
X99178265Y-41257870D01*
X99191023Y-41189175D01*
X99235651Y-41140253D01*
X99252262Y-41129816D01*
X99379816Y-41002262D01*
X99475789Y-40849522D01*
X99535368Y-40679255D01*
X99541606Y-40623896D01*
X99555565Y-40500000D01*
X99555565Y-40499996D01*
X99535369Y-40320753D01*
X99535368Y-40320746D01*
X99535368Y-40320745D01*
X99523675Y-40287330D01*
X99520113Y-40217556D01*
X99553034Y-40158699D01*
X102704992Y-37006741D01*
X102766313Y-36973258D01*
X102780067Y-36971066D01*
X102837753Y-36965174D01*
X103001516Y-36910908D01*
X103148350Y-36820340D01*
X103270340Y-36698350D01*
X103360908Y-36551516D01*
X103415174Y-36387753D01*
X103425500Y-36286677D01*
X103425499Y-35713324D01*
X103424307Y-35701650D01*
X103417662Y-35636601D01*
X103430432Y-35567908D01*
X103478313Y-35517024D01*
X103484713Y-35515286D01*
X103500000Y-35500000D01*
X103500000Y-34224500D01*
X103519685Y-34157461D01*
X103572489Y-34111706D01*
X103624000Y-34100500D01*
X109804558Y-34100500D01*
X109871597Y-34120185D01*
G37*
%TD.AperFunction*%
%TD*%
%TA.AperFunction,Conductor*%
%TO.N,Vout*%
G36*
X144943039Y-60519685D02*
G01*
X144988794Y-60572489D01*
X145000000Y-60624000D01*
X145000000Y-85376000D01*
X144980315Y-85443039D01*
X144927511Y-85488794D01*
X144876000Y-85500000D01*
X117874000Y-85500000D01*
X117806961Y-85480315D01*
X117761206Y-85427511D01*
X117750000Y-85376000D01*
X117750000Y-78202752D01*
X117769685Y-78135713D01*
X117822489Y-78089958D01*
X117831243Y-78086692D01*
X117835047Y-78084954D01*
X117835053Y-78084953D01*
X117956128Y-78007143D01*
X118050377Y-77898373D01*
X118110165Y-77767457D01*
X118130647Y-77625000D01*
X118110165Y-77482543D01*
X118050377Y-77351627D01*
X117956128Y-77242857D01*
X117835053Y-77165047D01*
X117826989Y-77161365D01*
X117828011Y-77159124D01*
X117780278Y-77128440D01*
X117751260Y-77064881D01*
X117750000Y-77047248D01*
X117750000Y-77000000D01*
X104874000Y-77000000D01*
X104806961Y-76980315D01*
X104761206Y-76927511D01*
X104750000Y-76876000D01*
X104750000Y-60624000D01*
X104769685Y-60556961D01*
X104822489Y-60511206D01*
X104874000Y-60500000D01*
X144876000Y-60500000D01*
X144943039Y-60519685D01*
G37*
%TD.AperFunction*%
%TD*%
%TA.AperFunction,Conductor*%
%TO.N,/sw1*%
G36*
X70693039Y-77519685D02*
G01*
X70738794Y-77572489D01*
X70750000Y-77624000D01*
X70750000Y-79500000D01*
X72165693Y-79500000D01*
X72172684Y-79500500D01*
X72178039Y-79500500D01*
X72327316Y-79500500D01*
X72334307Y-79500000D01*
X72750000Y-79500000D01*
X72750000Y-79048145D01*
X72751262Y-79030498D01*
X72755647Y-79000000D01*
X72751262Y-78969500D01*
X72750000Y-78951854D01*
X72750000Y-77624000D01*
X72769685Y-77556961D01*
X72822489Y-77511206D01*
X72874000Y-77500000D01*
X76851022Y-77500000D01*
X76918061Y-77519685D01*
X76963816Y-77572489D01*
X76973286Y-77629304D01*
X76974500Y-77629304D01*
X76974500Y-78304896D01*
X76986131Y-78363373D01*
X76990560Y-78374063D01*
X77000000Y-78421518D01*
X77000000Y-79500000D01*
X78435693Y-79500000D01*
X78442684Y-79500500D01*
X78448039Y-79500500D01*
X78597316Y-79500500D01*
X78604307Y-79500000D01*
X79000000Y-79500000D01*
X79000000Y-79177876D01*
X79005024Y-79142936D01*
X79005161Y-79142464D01*
X79005165Y-79142457D01*
X79025647Y-79000000D01*
X79005165Y-78857543D01*
X79005022Y-78857056D01*
X79000000Y-78822123D01*
X79000000Y-77624000D01*
X79019685Y-77556961D01*
X79072489Y-77511206D01*
X79124000Y-77500000D01*
X88126000Y-77500000D01*
X88193039Y-77519685D01*
X88238794Y-77572489D01*
X88250000Y-77624000D01*
X88250000Y-83000000D01*
X90126000Y-83000000D01*
X90193039Y-83019685D01*
X90238794Y-83072489D01*
X90250000Y-83124000D01*
X90250000Y-106526000D01*
X90230315Y-106593039D01*
X90177511Y-106638794D01*
X90126000Y-106650000D01*
X66374000Y-106650000D01*
X66306961Y-106630315D01*
X66261206Y-106577511D01*
X66250000Y-106526000D01*
X66250000Y-89150000D01*
X81750000Y-89150000D01*
X81750000Y-92650000D01*
X86750000Y-92650000D01*
X86750000Y-87650000D01*
X81750000Y-87650000D01*
X81750000Y-89150000D01*
X66250000Y-89150000D01*
X66250000Y-77624000D01*
X66269685Y-77556961D01*
X66322489Y-77511206D01*
X66374000Y-77500000D01*
X70626000Y-77500000D01*
X70693039Y-77519685D01*
G37*
%TD.AperFunction*%
%TD*%
%TA.AperFunction,Conductor*%
%TO.N,/rcs2*%
G36*
X95943039Y-63519685D02*
G01*
X95988794Y-63572489D01*
X96000000Y-63624000D01*
X96000000Y-64000000D01*
X96500000Y-64000000D01*
X96500000Y-63624000D01*
X96519685Y-63556961D01*
X96572489Y-63511206D01*
X96624000Y-63500000D01*
X102876000Y-63500000D01*
X102943039Y-63519685D01*
X102988794Y-63572489D01*
X103000000Y-63624000D01*
X103000000Y-76376000D01*
X102980315Y-76443039D01*
X102927511Y-76488794D01*
X102876000Y-76500000D01*
X99124000Y-76500000D01*
X99056961Y-76480315D01*
X99011206Y-76427511D01*
X99000000Y-76376000D01*
X99000000Y-74500000D01*
X97334307Y-74500000D01*
X97327316Y-74499500D01*
X97321961Y-74499500D01*
X97178039Y-74499500D01*
X97172684Y-74499500D01*
X97165693Y-74500000D01*
X96500000Y-74500000D01*
X96500000Y-76376000D01*
X96480315Y-76443039D01*
X96427511Y-76488794D01*
X96376000Y-76500000D01*
X92624000Y-76500000D01*
X92556961Y-76480315D01*
X92511206Y-76427511D01*
X92500000Y-76376000D01*
X92500000Y-74500000D01*
X90834307Y-74500000D01*
X90827316Y-74499500D01*
X90821961Y-74499500D01*
X90678039Y-74499500D01*
X90672684Y-74499500D01*
X90665693Y-74500000D01*
X90000000Y-74500000D01*
X90000000Y-76376000D01*
X89980315Y-76443039D01*
X89927511Y-76488794D01*
X89876000Y-76500000D01*
X83374000Y-76500000D01*
X83306961Y-76480315D01*
X83261206Y-76427511D01*
X83250000Y-76376000D01*
X83250000Y-63624000D01*
X83269685Y-63556961D01*
X83322489Y-63511206D01*
X83374000Y-63500000D01*
X95876000Y-63500000D01*
X95943039Y-63519685D01*
G37*
%TD.AperFunction*%
%TD*%
M02*
